<svg xmlns="http://www.w3.org/2000/svg" xmlns:xlink="http://www.w3.org/1999/xlink" width="500" zoomAndPan="magnify" viewBox="0 0 375 374.999991" height="500" preserveAspectRatio="xMidYMid meet" version="1.0"><rect x="-37.5" width="450" fill="#ffffff" y="-37.499999" height="449.999989" fill-opacity="1"/><rect x="-37.5" width="450" fill="#ffffff" y="-37.499999" height="449.999989" fill-opacity="1"/><rect x="-37.5" width="450" fill="#ffffff" y="-37.499999" height="449.999989" fill-opacity="1"/><path fill="#2d4356" d="M 254.464844 150.734375 C 254.902344 150.734375 255.339844 150.691406 255.769531 150.605469 C 256.203125 150.519531 256.621094 150.394531 257.027344 150.222656 C 257.433594 150.054688 257.820312 149.851562 258.183594 149.605469 C 258.550781 149.363281 258.886719 149.082031 259.199219 148.773438 C 259.511719 148.460938 259.789062 148.125 260.03125 147.757812 C 260.277344 147.394531 260.484375 147.007812 260.652344 146.601562 C 260.820312 146.195312 260.945312 145.777344 261.03125 145.34375 C 261.117188 144.914062 261.160156 144.476562 261.160156 144.039062 C 261.160156 143.597656 261.117188 143.164062 261.03125 142.730469 C 260.945312 142.300781 260.820312 141.882812 260.652344 141.476562 C 260.484375 141.070312 260.277344 140.683594 260.03125 140.316406 C 259.789062 139.953125 259.511719 139.613281 259.199219 139.304688 C 258.886719 138.992188 258.550781 138.714844 258.183594 138.46875 C 257.820312 138.226562 257.433594 138.019531 257.027344 137.851562 C 256.621094 137.683594 256.203125 137.554688 255.769531 137.46875 C 255.339844 137.382812 254.902344 137.339844 254.464844 137.339844 C 254.023438 137.339844 253.589844 137.382812 253.15625 137.46875 C 252.726562 137.554688 252.308594 137.683594 251.902344 137.851562 C 251.496094 138.019531 251.109375 138.226562 250.742188 138.46875 C 250.378906 138.714844 250.039062 138.992188 249.730469 139.304688 C 249.417969 139.613281 249.140625 139.953125 248.894531 140.316406 C 248.652344 140.683594 248.445312 141.070312 248.277344 141.476562 C 248.109375 141.882812 247.980469 142.300781 247.898438 142.730469 C 247.8125 143.164062 247.769531 143.597656 247.769531 144.039062 C 247.769531 144.476562 247.8125 144.914062 247.898438 145.34375 C 247.984375 145.773438 248.109375 146.195312 248.28125 146.597656 C 248.449219 147.003906 248.652344 147.390625 248.898438 147.757812 C 249.144531 148.121094 249.421875 148.460938 249.730469 148.769531 C 250.042969 149.082031 250.378906 149.359375 250.746094 149.605469 C 251.109375 149.847656 251.496094 150.054688 251.902344 150.222656 C 252.308594 150.390625 252.726562 150.519531 253.160156 150.605469 C 253.589844 150.691406 254.023438 150.734375 254.464844 150.734375 Z M 254.464844 140.691406 C 254.910156 140.691406 255.335938 140.773438 255.746094 140.945312 C 256.15625 141.113281 256.519531 141.355469 256.832031 141.671875 C 257.144531 141.984375 257.386719 142.347656 257.558594 142.757812 C 257.726562 143.167969 257.8125 143.59375 257.8125 144.039062 C 257.8125 144.480469 257.726562 144.910156 257.558594 145.320312 C 257.386719 145.730469 257.144531 146.089844 256.832031 146.40625 C 256.519531 146.71875 256.15625 146.960938 255.746094 147.132812 C 255.335938 147.300781 254.910156 147.386719 254.464844 147.386719 C 254.019531 147.386719 253.59375 147.300781 253.183594 147.132812 C 252.773438 146.960938 252.410156 146.71875 252.097656 146.40625 C 251.78125 146.089844 251.539062 145.730469 251.371094 145.320312 C 251.199219 144.910156 251.117188 144.480469 251.117188 144.039062 C 251.117188 143.59375 251.203125 143.167969 251.371094 142.757812 C 251.542969 142.347656 251.785156 141.984375 252.097656 141.671875 C 252.410156 141.355469 252.773438 141.113281 253.183594 140.945312 C 253.59375 140.773438 254.019531 140.691406 254.464844 140.691406 Z M 104.910156 94.238281 C 104.617188 94.238281 104.328125 94.265625 104.039062 94.324219 C 103.753906 94.382812 103.472656 94.464844 103.203125 94.578125 C 102.929688 94.691406 102.675781 94.828125 102.429688 94.992188 C 102.1875 95.152344 101.960938 95.339844 101.753906 95.546875 C 101.546875 95.753906 101.363281 95.980469 101.199219 96.222656 C 101.035156 96.464844 100.898438 96.722656 100.785156 96.996094 C 100.675781 97.265625 100.589844 97.542969 100.53125 97.832031 C 100.476562 98.121094 100.445312 98.410156 100.445312 98.703125 C 100.445312 98.996094 100.476562 99.285156 100.53125 99.574219 C 100.589844 99.863281 100.675781 100.140625 100.785156 100.410156 C 100.898438 100.683594 101.035156 100.941406 101.199219 101.183594 C 101.363281 101.425781 101.546875 101.652344 101.753906 101.859375 C 101.960938 102.066406 102.1875 102.253906 102.429688 102.414062 C 102.675781 102.578125 102.929688 102.714844 103.203125 102.828125 C 103.472656 102.941406 103.753906 103.023438 104.039062 103.082031 C 104.328125 103.140625 104.617188 103.167969 104.910156 103.167969 C 105.203125 103.167969 105.492188 103.140625 105.78125 103.082031 C 106.070312 103.023438 106.347656 102.941406 106.617188 102.828125 C 106.890625 102.714844 107.148438 102.578125 107.390625 102.414062 C 107.632812 102.253906 107.859375 102.066406 108.066406 101.859375 C 108.273438 101.652344 108.460938 101.425781 108.621094 101.183594 C 108.785156 100.941406 108.921875 100.683594 109.035156 100.410156 C 109.148438 100.140625 109.230469 99.863281 109.289062 99.574219 C 109.347656 99.285156 109.375 98.996094 109.375 98.703125 C 109.375 98.410156 109.347656 98.121094 109.289062 97.832031 C 109.230469 97.546875 109.144531 97.265625 109.035156 96.996094 C 108.921875 96.726562 108.785156 96.46875 108.621094 96.222656 C 108.457031 95.980469 108.273438 95.753906 108.066406 95.546875 C 107.859375 95.339844 107.632812 95.15625 107.390625 94.992188 C 107.144531 94.828125 106.890625 94.691406 106.617188 94.578125 C 106.347656 94.46875 106.070312 94.382812 105.78125 94.324219 C 105.492188 94.269531 105.203125 94.238281 104.910156 94.238281 Z M 104.910156 100.933594 C 104.613281 100.933594 104.328125 100.878906 104.054688 100.765625 C 103.78125 100.652344 103.542969 100.492188 103.332031 100.28125 C 103.121094 100.070312 102.960938 99.832031 102.847656 99.558594 C 102.734375 99.285156 102.679688 99 102.679688 98.703125 C 102.679688 98.40625 102.734375 98.121094 102.847656 97.847656 C 102.960938 97.574219 103.121094 97.335938 103.332031 97.125 C 103.542969 96.914062 103.78125 96.753906 104.054688 96.640625 C 104.328125 96.527344 104.613281 96.472656 104.910156 96.472656 C 105.207031 96.472656 105.492188 96.527344 105.765625 96.640625 C 106.039062 96.753906 106.28125 96.914062 106.488281 97.125 C 106.699219 97.335938 106.859375 97.574219 106.972656 97.847656 C 107.085938 98.121094 107.144531 98.40625 107.144531 98.703125 C 107.140625 99 107.085938 99.285156 106.972656 99.558594 C 106.859375 99.832031 106.699219 100.070312 106.488281 100.28125 C 106.277344 100.488281 106.039062 100.652344 105.765625 100.765625 C 105.492188 100.878906 105.207031 100.933594 104.910156 100.933594 Z M 154.019531 136.226562 C 153.726562 136.226562 153.433594 136.253906 153.148438 136.3125 C 152.859375 136.367188 152.582031 136.453125 152.308594 136.566406 C 152.039062 136.675781 151.78125 136.816406 151.539062 136.976562 C 151.292969 137.140625 151.070312 137.324219 150.859375 137.53125 C 150.652344 137.742188 150.46875 137.964844 150.304688 138.210938 C 150.144531 138.453125 150.003906 138.710938 149.894531 138.980469 C 149.78125 139.253906 149.695312 139.53125 149.640625 139.820312 C 149.582031 140.105469 149.554688 140.398438 149.554688 140.691406 C 149.554688 140.984375 149.582031 141.273438 149.640625 141.5625 C 149.695312 141.847656 149.78125 142.128906 149.894531 142.398438 C 150.003906 142.667969 150.144531 142.925781 150.304688 143.171875 C 150.46875 143.414062 150.652344 143.640625 150.859375 143.847656 C 151.070312 144.054688 151.292969 144.238281 151.539062 144.402344 C 151.78125 144.566406 152.039062 144.703125 152.308594 144.8125 C 152.582031 144.925781 152.859375 145.011719 153.148438 145.066406 C 153.433594 145.125 153.726562 145.152344 154.019531 145.152344 C 154.3125 145.152344 154.601562 145.125 154.890625 145.066406 C 155.175781 145.011719 155.457031 144.925781 155.726562 144.8125 C 155.996094 144.703125 156.253906 144.566406 156.5 144.402344 C 156.742188 144.238281 156.96875 144.054688 157.175781 143.847656 C 157.382812 143.640625 157.566406 143.414062 157.730469 143.171875 C 157.894531 142.925781 158.03125 142.667969 158.140625 142.398438 C 158.253906 142.128906 158.339844 141.847656 158.394531 141.5625 C 158.453125 141.273438 158.480469 140.984375 158.480469 140.691406 C 158.480469 140.398438 158.453125 140.105469 158.394531 139.820312 C 158.339844 139.53125 158.253906 139.253906 158.140625 138.980469 C 158.027344 138.710938 157.890625 138.453125 157.726562 138.210938 C 157.566406 137.96875 157.378906 137.742188 157.171875 137.535156 C 156.964844 137.328125 156.742188 137.140625 156.496094 136.980469 C 156.253906 136.816406 155.996094 136.679688 155.726562 136.566406 C 155.453125 136.453125 155.175781 136.371094 154.886719 136.3125 C 154.601562 136.253906 154.3125 136.226562 154.019531 136.226562 Z M 154.019531 142.921875 C 153.722656 142.921875 153.4375 142.863281 153.164062 142.75 C 152.890625 142.640625 152.648438 142.476562 152.441406 142.269531 C 152.230469 142.058594 152.070312 141.816406 151.957031 141.542969 C 151.84375 141.269531 151.785156 140.984375 151.785156 140.691406 C 151.785156 140.394531 151.84375 140.109375 151.957031 139.835938 C 152.070312 139.5625 152.230469 139.320312 152.441406 139.113281 C 152.648438 138.902344 152.890625 138.742188 153.164062 138.628906 C 153.4375 138.515625 153.722656 138.457031 154.019531 138.457031 C 154.3125 138.457031 154.597656 138.515625 154.871094 138.628906 C 155.144531 138.742188 155.386719 138.902344 155.597656 139.113281 C 155.804688 139.320312 155.964844 139.5625 156.078125 139.835938 C 156.191406 140.109375 156.25 140.394531 156.25 140.691406 C 156.25 140.984375 156.191406 141.269531 156.078125 141.542969 C 155.964844 141.816406 155.804688 142.058594 155.59375 142.265625 C 155.386719 142.476562 155.144531 142.636719 154.871094 142.75 C 154.597656 142.863281 154.3125 142.921875 154.019531 142.921875 Z M 353.359375 40.808594 C 353.066406 40.808594 352.777344 40.839844 352.488281 40.894531 C 352.199219 40.953125 351.921875 41.039062 351.652344 41.148438 C 351.378906 41.261719 351.121094 41.398438 350.878906 41.5625 C 350.636719 41.726562 350.410156 41.910156 350.203125 42.117188 C 349.996094 42.324219 349.808594 42.550781 349.648438 42.792969 C 349.484375 43.039062 349.347656 43.296875 349.234375 43.566406 C 349.121094 43.835938 349.039062 44.117188 348.980469 44.402344 C 348.921875 44.691406 348.894531 44.980469 348.894531 45.273438 C 348.894531 45.566406 348.921875 45.859375 348.980469 46.144531 C 349.039062 46.433594 349.121094 46.710938 349.234375 46.984375 C 349.347656 47.253906 349.484375 47.511719 349.648438 47.753906 C 349.808594 48 349.996094 48.222656 350.203125 48.429688 C 350.410156 48.636719 350.636719 48.824219 350.878906 48.988281 C 351.121094 49.148438 351.378906 49.285156 351.652344 49.398438 C 351.921875 49.511719 352.199219 49.597656 352.488281 49.652344 C 352.777344 49.710938 353.066406 49.738281 353.359375 49.738281 C 353.652344 49.738281 353.941406 49.710938 354.230469 49.652344 C 354.519531 49.597656 354.796875 49.511719 355.066406 49.398438 C 355.339844 49.285156 355.597656 49.148438 355.839844 48.988281 C 356.082031 48.824219 356.308594 48.636719 356.515625 48.429688 C 356.722656 48.222656 356.910156 48 357.070312 47.753906 C 357.234375 47.511719 357.371094 47.253906 357.484375 46.984375 C 357.597656 46.710938 357.679688 46.433594 357.738281 46.144531 C 357.796875 45.859375 357.824219 45.566406 357.824219 45.273438 C 357.824219 44.980469 357.792969 44.691406 357.738281 44.402344 C 357.679688 44.117188 357.59375 43.835938 357.484375 43.566406 C 357.371094 43.296875 357.234375 43.039062 357.070312 42.796875 C 356.90625 42.550781 356.722656 42.328125 356.515625 42.117188 C 356.308594 41.910156 356.082031 41.726562 355.839844 41.5625 C 355.59375 41.402344 355.335938 41.261719 355.066406 41.152344 C 354.796875 41.039062 354.515625 40.953125 354.230469 40.898438 C 353.941406 40.839844 353.652344 40.8125 353.359375 40.808594 Z M 353.359375 47.507812 C 353.0625 47.507812 352.777344 47.449219 352.503906 47.335938 C 352.230469 47.222656 351.992188 47.0625 351.78125 46.851562 C 351.570312 46.644531 351.410156 46.402344 351.296875 46.128906 C 351.183594 45.855469 351.128906 45.570312 351.128906 45.273438 C 351.128906 44.980469 351.183594 44.695312 351.296875 44.421875 C 351.410156 44.148438 351.570312 43.90625 351.78125 43.695312 C 351.992188 43.488281 352.230469 43.324219 352.503906 43.210938 C 352.777344 43.097656 353.0625 43.042969 353.359375 43.042969 C 353.65625 43.042969 353.941406 43.097656 354.214844 43.210938 C 354.488281 43.324219 354.726562 43.488281 354.9375 43.695312 C 355.148438 43.90625 355.308594 44.148438 355.421875 44.421875 C 355.535156 44.695312 355.589844 44.980469 355.589844 45.273438 C 355.589844 45.570312 355.535156 45.855469 355.421875 46.128906 C 355.308594 46.402344 355.144531 46.644531 354.9375 46.851562 C 354.726562 47.0625 354.488281 47.222656 354.214844 47.335938 C 353.941406 47.449219 353.65625 47.507812 353.359375 47.507812 Z M 21.640625 69.960938 C 21.640625 69.667969 21.613281 69.378906 21.554688 69.089844 C 21.496094 68.804688 21.414062 68.523438 21.300781 68.253906 C 21.1875 67.984375 21.050781 67.726562 20.886719 67.480469 C 20.726562 67.238281 20.539062 67.011719 20.332031 66.804688 C 20.125 66.597656 19.898438 66.414062 19.65625 66.25 C 19.414062 66.085938 19.15625 65.949219 18.882812 65.835938 C 18.613281 65.726562 18.335938 65.640625 18.046875 65.582031 C 17.761719 65.527344 17.46875 65.496094 17.175781 65.496094 C 16.882812 65.496094 16.59375 65.527344 16.304688 65.582031 C 16.019531 65.640625 15.738281 65.726562 15.46875 65.835938 C 15.195312 65.949219 14.941406 66.085938 14.695312 66.25 C 14.453125 66.414062 14.226562 66.597656 14.019531 66.804688 C 13.8125 67.011719 13.628906 67.238281 13.464844 67.480469 C 13.300781 67.726562 13.164062 67.984375 13.050781 68.253906 C 12.941406 68.523438 12.855469 68.804688 12.796875 69.089844 C 12.742188 69.378906 12.710938 69.667969 12.710938 69.960938 C 12.710938 70.253906 12.742188 70.546875 12.796875 70.832031 C 12.855469 71.121094 12.941406 71.398438 13.050781 71.671875 C 13.164062 71.941406 13.300781 72.199219 13.464844 72.441406 C 13.628906 72.6875 13.8125 72.910156 14.019531 73.117188 C 14.226562 73.324219 14.453125 73.511719 14.695312 73.675781 C 14.941406 73.835938 15.195312 73.972656 15.46875 74.085938 C 15.738281 74.199219 16.019531 74.285156 16.304688 74.339844 C 16.59375 74.398438 16.882812 74.425781 17.175781 74.425781 C 17.46875 74.425781 17.757812 74.398438 18.046875 74.339844 C 18.335938 74.28125 18.613281 74.199219 18.882812 74.085938 C 19.15625 73.972656 19.410156 73.835938 19.65625 73.671875 C 19.898438 73.507812 20.125 73.324219 20.332031 73.117188 C 20.539062 72.910156 20.722656 72.683594 20.886719 72.441406 C 21.050781 72.199219 21.1875 71.941406 21.300781 71.667969 C 21.410156 71.398438 21.496094 71.121094 21.554688 70.832031 C 21.613281 70.546875 21.640625 70.253906 21.640625 69.960938 Z M 14.945312 69.960938 C 14.945312 69.667969 15 69.382812 15.113281 69.109375 C 15.226562 68.835938 15.390625 68.59375 15.597656 68.382812 C 15.808594 68.175781 16.046875 68.011719 16.320312 67.898438 C 16.59375 67.785156 16.878906 67.730469 17.175781 67.730469 C 17.472656 67.730469 17.757812 67.785156 18.03125 67.898438 C 18.304688 68.011719 18.546875 68.175781 18.753906 68.382812 C 18.964844 68.59375 19.125 68.835938 19.238281 69.109375 C 19.351562 69.382812 19.410156 69.667969 19.410156 69.960938 C 19.410156 70.257812 19.351562 70.542969 19.238281 70.816406 C 19.125 71.089844 18.964844 71.332031 18.753906 71.539062 C 18.546875 71.75 18.304688 71.910156 18.03125 72.023438 C 17.757812 72.136719 17.472656 72.195312 17.175781 72.195312 C 16.878906 72.195312 16.597656 72.136719 16.324219 72.023438 C 16.050781 71.910156 15.808594 71.75 15.597656 71.539062 C 15.390625 71.332031 15.226562 71.089844 15.113281 70.816406 C 15 70.542969 14.945312 70.257812 14.945312 69.960938 Z M 14.945312 69.960938 " fill-opacity="1" fill-rule="nonzero"/><path fill="#004aad" d="M 20.335938 149.058594 L 23.652344 144.695312 L 21.558594 143.507812 L 19.429688 148.394531 L 19.355469 148.394531 L 17.195312 143.539062 L 15.058594 144.761719 L 18.347656 149.023438 L 18.347656 149.09375 L 13.210938 148.429688 L 13.210938 150.804688 L 18.378906 150.144531 L 18.378906 150.210938 L 15.058594 154.472656 L 17.050781 155.730469 L 19.324219 150.804688 L 19.394531 150.804688 L 21.488281 155.695312 L 23.691406 154.4375 L 20.335938 150.246094 L 20.335938 150.175781 L 25.609375 150.804688 L 25.609375 148.429688 L 20.335938 149.128906 Z M 294.050781 79.101562 L 292.136719 81.554688 L 293.285156 82.277344 L 294.59375 79.441406 L 294.632812 79.441406 L 295.839844 82.257812 L 297.105469 81.535156 L 295.175781 79.117188 L 295.175781 79.078125 L 298.210938 79.441406 L 298.210938 78.074219 L 295.175781 78.476562 L 295.175781 78.433594 L 297.085938 75.921875 L 295.882812 75.238281 L 294.652344 78.054688 L 294.613281 78.054688 L 293.367188 75.257812 L 292.136719 75.960938 L 294.03125 78.414062 L 294.03125 78.457031 L 291.074219 78.074219 L 291.074219 79.441406 L 294.050781 79.058594 Z M 361.671875 157.417969 L 361.671875 155.085938 L 356.5 155.773438 L 356.5 155.707031 L 359.753906 151.421875 L 357.699219 150.257812 L 355.609375 155.054688 L 355.539062 155.054688 L 353.417969 150.292969 L 351.324219 151.492188 L 354.546875 155.671875 L 354.546875 155.738281 L 349.511719 155.085938 L 349.511719 157.417969 L 354.582031 156.769531 L 354.582031 156.835938 L 351.324219 161.011719 L 353.277344 162.246094 L 355.507812 157.417969 L 355.574219 157.417969 L 357.628906 162.214844 L 359.789062 160.980469 L 356.5 156.867188 L 356.5 156.800781 Z M 194.980469 44.800781 L 197.789062 41.109375 L 196.015625 40.105469 L 194.214844 44.242188 L 194.152344 44.242188 L 192.320312 40.132812 L 190.519531 41.167969 L 193.296875 44.773438 L 193.296875 44.832031 L 188.949219 44.269531 L 188.949219 46.277344 L 193.324219 45.71875 L 193.324219 45.777344 L 190.519531 49.382812 L 192.199219 50.445312 L 194.125 46.277344 L 194.183594 46.277344 L 195.957031 50.417969 L 197.816406 49.351562 L 194.980469 45.804688 L 194.980469 45.746094 L 199.441406 46.277344 L 199.441406 44.269531 L 194.980469 44.863281 Z M 194.980469 44.800781 " fill-opacity="1" fill-rule="nonzero"/><path fill="#2d4356" d="M 8.929688 299.179688 C 8.929688 299.472656 8.898438 299.765625 8.84375 300.050781 C 8.785156 300.339844 8.699219 300.617188 8.589844 300.890625 C 8.476562 301.160156 8.339844 301.417969 8.175781 301.660156 C 8.011719 301.90625 7.828125 302.128906 7.621094 302.335938 C 7.414062 302.542969 7.1875 302.730469 6.945312 302.894531 C 6.699219 303.054688 6.445312 303.191406 6.171875 303.304688 C 5.902344 303.417969 5.621094 303.503906 5.335938 303.558594 C 5.046875 303.617188 4.757812 303.644531 4.464844 303.644531 C 4.171875 303.644531 3.878906 303.617188 3.59375 303.558594 C 3.304688 303.503906 3.027344 303.417969 2.757812 303.304688 C 2.484375 303.191406 2.226562 303.054688 1.984375 302.894531 C 1.742188 302.730469 1.515625 302.542969 1.308594 302.335938 C 1.101562 302.128906 0.914062 301.90625 0.753906 301.660156 C 0.589844 301.417969 0.453125 301.160156 0.339844 300.890625 C 0.226562 300.617188 0.144531 300.339844 0.0859375 300.050781 C 0.0273438 299.765625 0 299.472656 0 299.179688 C 0 298.886719 0.0273438 298.597656 0.0859375 298.308594 C 0.144531 298.023438 0.226562 297.742188 0.339844 297.472656 C 0.453125 297.203125 0.589844 296.945312 0.753906 296.699219 C 0.914062 296.457031 1.101562 296.230469 1.308594 296.023438 C 1.515625 295.816406 1.742188 295.632812 1.984375 295.46875 C 2.226562 295.304688 2.484375 295.167969 2.757812 295.054688 C 3.027344 294.945312 3.304688 294.859375 3.59375 294.800781 C 3.878906 294.746094 4.171875 294.714844 4.464844 294.714844 C 4.757812 294.714844 5.046875 294.746094 5.335938 294.800781 C 5.621094 294.859375 5.902344 294.945312 6.171875 295.054688 C 6.445312 295.167969 6.699219 295.304688 6.945312 295.46875 C 7.1875 295.632812 7.414062 295.816406 7.621094 296.023438 C 7.828125 296.230469 8.011719 296.457031 8.175781 296.699219 C 8.339844 296.945312 8.476562 297.203125 8.589844 297.472656 C 8.699219 297.742188 8.785156 298.023438 8.84375 298.308594 C 8.898438 298.597656 8.929688 298.886719 8.929688 299.179688 Z M 8.929688 299.179688 " fill-opacity="1" fill-rule="nonzero"/><path fill="#2d4356" d="M 24.554688 294.714844 L 17.855469 294.714844 C 17.5625 294.714844 17.273438 294.746094 16.984375 294.800781 C 16.699219 294.859375 16.417969 294.945312 16.148438 295.054688 C 15.878906 295.167969 15.621094 295.304688 15.375 295.46875 C 15.132812 295.632812 14.90625 295.816406 14.699219 296.023438 C 14.492188 296.230469 14.308594 296.457031 14.144531 296.699219 C 13.980469 296.945312 13.84375 297.203125 13.734375 297.472656 C 13.621094 297.742188 13.535156 298.023438 13.480469 298.308594 C 13.421875 298.597656 13.394531 298.886719 13.394531 299.179688 C 13.394531 299.472656 13.421875 299.765625 13.480469 300.050781 C 13.535156 300.339844 13.621094 300.617188 13.734375 300.890625 C 13.84375 301.160156 13.980469 301.417969 14.144531 301.660156 C 14.308594 301.90625 14.492188 302.128906 14.699219 302.335938 C 14.90625 302.542969 15.132812 302.730469 15.375 302.894531 C 15.621094 303.054688 15.878906 303.191406 16.148438 303.304688 C 16.417969 303.417969 16.699219 303.503906 16.984375 303.558594 C 17.273438 303.617188 17.5625 303.644531 17.855469 303.644531 L 24.554688 303.644531 C 24.847656 303.644531 25.136719 303.617188 25.425781 303.558594 C 25.710938 303.503906 25.992188 303.417969 26.261719 303.304688 C 26.53125 303.191406 26.789062 303.054688 27.035156 302.894531 C 27.277344 302.730469 27.503906 302.542969 27.710938 302.335938 C 27.917969 302.128906 28.101562 301.90625 28.265625 301.660156 C 28.429688 301.417969 28.566406 301.160156 28.679688 300.890625 C 28.789062 300.617188 28.875 300.339844 28.933594 300.050781 C 28.988281 299.765625 29.019531 299.472656 29.019531 299.179688 C 29.019531 298.886719 28.988281 298.597656 28.933594 298.308594 C 28.875 298.023438 28.789062 297.742188 28.679688 297.472656 C 28.566406 297.203125 28.429688 296.945312 28.265625 296.699219 C 28.101562 296.457031 27.917969 296.230469 27.710938 296.023438 C 27.503906 295.816406 27.277344 295.632812 27.035156 295.46875 C 26.789062 295.304688 26.53125 295.167969 26.261719 295.054688 C 25.992188 294.945312 25.710938 294.859375 25.425781 294.800781 C 25.136719 294.746094 24.847656 294.714844 24.554688 294.714844 Z M 357.144531 294.714844 L 350.445312 294.714844 C 350.152344 294.714844 349.863281 294.746094 349.574219 294.800781 C 349.289062 294.859375 349.007812 294.945312 348.738281 295.054688 C 348.46875 295.167969 348.210938 295.304688 347.964844 295.46875 C 347.722656 295.632812 347.496094 295.816406 347.289062 296.023438 C 347.082031 296.230469 346.898438 296.457031 346.734375 296.699219 C 346.570312 296.945312 346.433594 297.203125 346.320312 297.472656 C 346.210938 297.742188 346.125 298.023438 346.066406 298.308594 C 346.011719 298.597656 345.980469 298.886719 345.980469 299.179688 C 345.980469 299.472656 346.011719 299.765625 346.066406 300.050781 C 346.125 300.339844 346.210938 300.617188 346.320312 300.890625 C 346.433594 301.160156 346.570312 301.417969 346.734375 301.660156 C 346.898438 301.90625 347.082031 302.128906 347.289062 302.335938 C 347.496094 302.542969 347.722656 302.730469 347.964844 302.894531 C 348.210938 303.054688 348.46875 303.191406 348.738281 303.304688 C 349.007812 303.417969 349.289062 303.503906 349.574219 303.558594 C 349.863281 303.617188 350.152344 303.644531 350.445312 303.644531 L 357.144531 303.644531 C 357.4375 303.644531 357.726562 303.617188 358.015625 303.558594 C 358.300781 303.503906 358.582031 303.417969 358.851562 303.304688 C 359.121094 303.191406 359.378906 303.054688 359.621094 302.894531 C 359.867188 302.730469 360.09375 302.542969 360.300781 302.335938 C 360.507812 302.128906 360.691406 301.90625 360.855469 301.660156 C 361.015625 301.417969 361.15625 301.160156 361.265625 300.890625 C 361.378906 300.617188 361.464844 300.339844 361.519531 300.050781 C 361.578125 299.765625 361.605469 299.472656 361.605469 299.179688 C 361.605469 298.886719 361.578125 298.597656 361.519531 298.308594 C 361.464844 298.023438 361.378906 297.742188 361.265625 297.472656 C 361.15625 297.203125 361.015625 296.945312 360.855469 296.699219 C 360.691406 296.457031 360.507812 296.230469 360.300781 296.023438 C 360.09375 295.816406 359.867188 295.632812 359.621094 295.46875 C 359.378906 295.304688 359.121094 295.167969 358.851562 295.054688 C 358.582031 294.945312 358.300781 294.859375 358.015625 294.800781 C 357.726562 294.746094 357.4375 294.714844 357.144531 294.714844 Z M 357.144531 294.714844 " fill-opacity="1" fill-rule="nonzero"/><path fill="#2d4356" d="M 375 299.179688 C 375 299.472656 374.972656 299.765625 374.914062 300.050781 C 374.855469 300.339844 374.773438 300.617188 374.660156 300.890625 C 374.546875 301.160156 374.410156 301.417969 374.246094 301.660156 C 374.085938 301.90625 373.898438 302.128906 373.691406 302.335938 C 373.484375 302.542969 373.257812 302.730469 373.015625 302.894531 C 372.773438 303.054688 372.515625 303.191406 372.242188 303.304688 C 371.972656 303.417969 371.695312 303.503906 371.40625 303.558594 C 371.117188 303.617188 370.828125 303.644531 370.535156 303.644531 C 370.242188 303.644531 369.953125 303.617188 369.664062 303.558594 C 369.378906 303.503906 369.097656 303.417969 368.828125 303.304688 C 368.554688 303.191406 368.300781 303.054688 368.054688 302.894531 C 367.8125 302.730469 367.585938 302.542969 367.378906 302.335938 C 367.171875 302.128906 366.988281 301.90625 366.824219 301.660156 C 366.660156 301.417969 366.523438 301.160156 366.410156 300.890625 C 366.300781 300.617188 366.214844 300.339844 366.15625 300.050781 C 366.101562 299.765625 366.070312 299.472656 366.070312 299.179688 C 366.070312 298.886719 366.101562 298.597656 366.15625 298.308594 C 366.214844 298.023438 366.300781 297.742188 366.410156 297.472656 C 366.523438 297.203125 366.660156 296.945312 366.824219 296.699219 C 366.988281 296.457031 367.171875 296.230469 367.378906 296.023438 C 367.585938 295.816406 367.8125 295.632812 368.054688 295.46875 C 368.300781 295.304688 368.554688 295.167969 368.828125 295.054688 C 369.097656 294.945312 369.378906 294.859375 369.664062 294.800781 C 369.953125 294.746094 370.242188 294.714844 370.535156 294.714844 C 370.828125 294.714844 371.117188 294.746094 371.40625 294.800781 C 371.695312 294.859375 371.972656 294.945312 372.242188 295.054688 C 372.515625 295.167969 372.773438 295.304688 373.015625 295.46875 C 373.257812 295.632812 373.484375 295.816406 373.691406 296.023438 C 373.898438 296.230469 374.085938 296.457031 374.246094 296.699219 C 374.410156 296.945312 374.546875 297.203125 374.660156 297.472656 C 374.773438 297.742188 374.855469 298.023438 374.914062 298.308594 C 374.972656 298.597656 375 298.886719 375 299.179688 Z M 375 299.179688 " fill-opacity="1" fill-rule="nonzero"/><path fill="#004aad" d="M 263.738281 312.574219 L 245.191406 312.574219 C 244.628906 312.617188 244.09375 312.761719 243.585938 313.007812 C 243.078125 313.253906 242.632812 313.582031 242.25 313.996094 C 241.867188 314.410156 241.574219 314.878906 241.367188 315.40625 C 241.164062 315.929688 241.058594 316.472656 241.058594 317.039062 C 241.058594 317.601562 241.164062 318.144531 241.367188 318.671875 C 241.574219 319.195312 241.867188 319.664062 242.25 320.078125 C 242.632812 320.492188 243.078125 320.824219 243.585938 321.070312 C 244.09375 321.3125 244.628906 321.457031 245.191406 321.503906 L 263.738281 321.503906 C 264.296875 321.457031 264.832031 321.3125 265.339844 321.070312 C 265.847656 320.824219 266.292969 320.492188 266.675781 320.078125 C 267.058594 319.664062 267.355469 319.195312 267.558594 318.671875 C 267.765625 318.144531 267.867188 317.601562 267.867188 317.039062 C 267.867188 316.472656 267.765625 315.929688 267.558594 315.40625 C 267.355469 314.878906 267.058594 314.410156 266.675781 313.996094 C 266.292969 313.582031 265.847656 313.253906 265.339844 313.007812 C 264.832031 312.761719 264.296875 312.617188 263.738281 312.574219 Z M 129.808594 312.574219 L 111.261719 312.574219 C 110.703125 312.617188 110.167969 312.761719 109.660156 313.007812 C 109.152344 313.253906 108.707031 313.582031 108.324219 313.996094 C 107.941406 314.410156 107.644531 314.878906 107.441406 315.40625 C 107.234375 315.929688 107.132812 316.472656 107.132812 317.039062 C 107.132812 317.601562 107.234375 318.144531 107.441406 318.671875 C 107.644531 319.195312 107.941406 319.664062 108.324219 320.078125 C 108.707031 320.492188 109.152344 320.824219 109.660156 321.070312 C 110.167969 321.3125 110.703125 321.457031 111.261719 321.503906 L 129.808594 321.503906 C 130.371094 321.457031 130.90625 321.3125 131.414062 321.070312 C 131.921875 320.824219 132.367188 320.492188 132.75 320.078125 C 133.132812 319.664062 133.425781 319.195312 133.632812 318.671875 C 133.835938 318.144531 133.941406 317.601562 133.941406 317.039062 C 133.941406 316.472656 133.835938 315.929688 133.632812 315.40625 C 133.425781 314.878906 133.132812 314.410156 132.75 313.996094 C 132.367188 313.582031 131.921875 313.253906 131.414062 313.007812 C 130.90625 312.761719 130.371094 312.617188 129.808594 312.574219 Z M 232.144531 312.574219 L 142.855469 312.574219 C 142.5625 312.574219 142.273438 312.601562 141.984375 312.660156 C 141.699219 312.714844 141.417969 312.800781 141.148438 312.914062 C 140.878906 313.027344 140.621094 313.164062 140.375 313.324219 C 140.132812 313.488281 139.90625 313.675781 139.699219 313.882812 C 139.492188 314.089844 139.308594 314.3125 139.144531 314.558594 C 138.980469 314.800781 138.84375 315.058594 138.734375 315.328125 C 138.621094 315.601562 138.535156 315.878906 138.480469 316.167969 C 138.421875 316.453125 138.394531 316.746094 138.394531 317.039062 C 138.394531 317.332031 138.421875 317.621094 138.480469 317.910156 C 138.535156 318.195312 138.621094 318.476562 138.734375 318.746094 C 138.84375 319.015625 138.980469 319.273438 139.144531 319.519531 C 139.308594 319.761719 139.492188 319.988281 139.699219 320.195312 C 139.90625 320.402344 140.132812 320.585938 140.375 320.75 C 140.621094 320.914062 140.878906 321.050781 141.148438 321.164062 C 141.417969 321.273438 141.699219 321.359375 141.984375 321.417969 C 142.273438 321.472656 142.5625 321.503906 142.855469 321.503906 L 178.4375 321.503906 L 178.4375 325.964844 L 160.714844 325.964844 C 160.421875 325.964844 160.128906 325.996094 159.84375 326.050781 C 159.554688 326.109375 159.277344 326.195312 159.003906 326.304688 C 158.734375 326.417969 158.476562 326.554688 158.234375 326.71875 C 157.992188 326.882812 157.765625 327.066406 157.558594 327.273438 C 157.351562 327.480469 157.164062 327.707031 157.003906 327.949219 C 156.839844 328.195312 156.703125 328.453125 156.589844 328.722656 C 156.476562 328.992188 156.394531 329.273438 156.335938 329.558594 C 156.277344 329.847656 156.25 330.136719 156.25 330.429688 C 156.25 330.722656 156.277344 331.015625 156.335938 331.300781 C 156.394531 331.589844 156.476562 331.867188 156.589844 332.140625 C 156.703125 332.410156 156.839844 332.667969 157.003906 332.910156 C 157.164062 333.15625 157.351562 333.378906 157.558594 333.585938 C 157.765625 333.792969 157.992188 333.980469 158.234375 334.144531 C 158.476562 334.304688 158.734375 334.441406 159.003906 334.554688 C 159.277344 334.667969 159.554688 334.753906 159.84375 334.808594 C 160.128906 334.867188 160.421875 334.894531 160.714844 334.894531 L 216.519531 334.894531 C 216.8125 334.894531 217.101562 334.867188 217.390625 334.808594 C 217.675781 334.753906 217.957031 334.667969 218.226562 334.554688 C 218.496094 334.441406 218.753906 334.304688 219 334.144531 C 219.242188 333.980469 219.46875 333.792969 219.675781 333.585938 C 219.882812 333.378906 220.066406 333.15625 220.230469 332.910156 C 220.394531 332.667969 220.53125 332.410156 220.640625 332.140625 C 220.753906 331.867188 220.839844 331.589844 220.894531 331.300781 C 220.953125 331.015625 220.980469 330.722656 220.980469 330.429688 C 220.980469 330.136719 220.953125 329.847656 220.894531 329.558594 C 220.839844 329.273438 220.753906 328.992188 220.640625 328.722656 C 220.53125 328.453125 220.394531 328.195312 220.230469 327.949219 C 220.066406 327.707031 219.882812 327.480469 219.675781 327.273438 C 219.46875 327.066406 219.242188 326.882812 219 326.71875 C 218.753906 326.554688 218.496094 326.417969 218.226562 326.304688 C 217.957031 326.195312 217.675781 326.109375 217.390625 326.050781 C 217.101562 325.996094 216.8125 325.964844 216.519531 325.964844 L 196.5625 325.964844 L 196.5625 321.503906 L 232.144531 321.503906 C 232.4375 321.503906 232.726562 321.472656 233.015625 321.417969 C 233.300781 321.359375 233.582031 321.273438 233.851562 321.164062 C 234.121094 321.050781 234.378906 320.914062 234.625 320.75 C 234.867188 320.585938 235.09375 320.402344 235.300781 320.195312 C 235.507812 319.988281 235.691406 319.761719 235.855469 319.519531 C 236.015625 319.273438 236.15625 319.015625 236.265625 318.746094 C 236.378906 318.476562 236.464844 318.195312 236.519531 317.910156 C 236.578125 317.621094 236.605469 317.332031 236.605469 317.039062 C 236.605469 316.746094 236.578125 316.453125 236.519531 316.167969 C 236.464844 315.878906 236.378906 315.601562 236.265625 315.328125 C 236.15625 315.058594 236.015625 314.800781 235.855469 314.558594 C 235.691406 314.3125 235.507812 314.089844 235.300781 313.882812 C 235.09375 313.675781 234.867188 313.488281 234.621094 313.324219 C 234.378906 313.164062 234.121094 313.027344 233.851562 312.914062 C 233.582031 312.800781 233.300781 312.714844 233.015625 312.660156 C 232.726562 312.601562 232.4375 312.574219 232.144531 312.574219 Z M 232.144531 312.574219 " fill-opacity="1" fill-rule="nonzero"/><path fill="#2d4356" d="M 116.070312 181.992188 L 75.894531 181.992188 C 75.601562 181.992188 75.308594 182.023438 75.023438 182.078125 C 74.734375 182.136719 74.457031 182.222656 74.183594 182.332031 C 73.914062 182.445312 73.65625 182.582031 73.414062 182.746094 C 73.167969 182.910156 72.945312 183.09375 72.734375 183.300781 C 72.527344 183.507812 72.34375 183.734375 72.179688 183.976562 C 72.019531 184.222656 71.878906 184.476562 71.769531 184.75 C 71.65625 185.019531 71.570312 185.300781 71.515625 185.585938 C 71.457031 185.875 71.429688 186.164062 71.429688 186.457031 L 71.429688 253.421875 C 71.429688 253.714844 71.457031 254.003906 71.515625 254.292969 C 71.570312 254.582031 71.65625 254.859375 71.769531 255.128906 C 71.878906 255.402344 72.019531 255.660156 72.179688 255.902344 C 72.34375 256.144531 72.527344 256.371094 72.734375 256.578125 C 72.945312 256.785156 73.167969 256.972656 73.414062 257.132812 C 73.65625 257.296875 73.914062 257.433594 74.183594 257.546875 C 74.457031 257.660156 74.734375 257.742188 75.023438 257.800781 C 75.308594 257.859375 75.601562 257.886719 75.894531 257.886719 L 116.070312 257.886719 C 116.363281 257.886719 116.65625 257.859375 116.941406 257.800781 C 117.230469 257.742188 117.507812 257.660156 117.78125 257.546875 C 118.050781 257.433594 118.308594 257.296875 118.550781 257.132812 C 118.796875 256.972656 119.019531 256.785156 119.226562 256.578125 C 119.433594 256.371094 119.621094 256.144531 119.785156 255.902344 C 119.945312 255.660156 120.082031 255.402344 120.195312 255.128906 C 120.308594 254.859375 120.394531 254.582031 120.449219 254.292969 C 120.507812 254.003906 120.535156 253.714844 120.535156 253.421875 L 120.535156 186.457031 C 120.535156 186.164062 120.507812 185.875 120.449219 185.585938 C 120.394531 185.300781 120.308594 185.019531 120.195312 184.75 C 120.082031 184.476562 119.945312 184.222656 119.785156 183.976562 C 119.621094 183.734375 119.433594 183.507812 119.226562 183.300781 C 119.019531 183.09375 118.796875 182.910156 118.550781 182.746094 C 118.308594 182.582031 118.050781 182.445312 117.78125 182.332031 C 117.507812 182.222656 117.230469 182.136719 116.941406 182.078125 C 116.65625 182.023438 116.363281 181.992188 116.070312 181.992188 Z M 111.605469 248.957031 L 80.355469 248.957031 L 80.355469 190.921875 L 111.605469 190.921875 Z M 111.605469 248.957031 " fill-opacity="1" fill-rule="nonzero"/><path fill="#004aad" d="M 136.160156 213.242188 L 158.480469 213.242188 C 158.773438 213.242188 159.066406 213.214844 159.351562 213.15625 C 159.640625 213.101562 159.917969 213.015625 160.191406 212.902344 C 160.460938 212.792969 160.71875 212.652344 160.960938 212.492188 C 161.207031 212.328125 161.429688 212.144531 161.640625 211.9375 C 161.847656 211.726562 162.03125 211.503906 162.195312 211.257812 C 162.355469 211.015625 162.496094 210.757812 162.605469 210.488281 C 162.71875 210.214844 162.804688 209.9375 162.859375 209.648438 C 162.917969 209.363281 162.945312 209.070312 162.945312 208.777344 L 162.945312 186.457031 C 162.945312 186.164062 162.917969 185.875 162.859375 185.585938 C 162.804688 185.300781 162.71875 185.019531 162.605469 184.75 C 162.496094 184.476562 162.355469 184.222656 162.195312 183.976562 C 162.03125 183.734375 161.847656 183.507812 161.640625 183.300781 C 161.429688 183.09375 161.207031 182.910156 160.960938 182.746094 C 160.71875 182.582031 160.460938 182.445312 160.191406 182.332031 C 159.917969 182.222656 159.640625 182.136719 159.351562 182.078125 C 159.066406 182.023438 158.773438 181.992188 158.480469 181.992188 L 136.160156 181.992188 C 135.867188 181.992188 135.578125 182.023438 135.289062 182.078125 C 135.003906 182.136719 134.722656 182.222656 134.453125 182.332031 C 134.179688 182.445312 133.925781 182.582031 133.679688 182.746094 C 133.4375 182.910156 133.210938 183.09375 133.003906 183.300781 C 132.796875 183.507812 132.613281 183.734375 132.449219 183.976562 C 132.285156 184.222656 132.148438 184.476562 132.035156 184.75 C 131.925781 185.019531 131.839844 185.300781 131.78125 185.585938 C 131.726562 185.875 131.695312 186.164062 131.695312 186.457031 L 131.695312 208.777344 C 131.695312 209.070312 131.726562 209.363281 131.78125 209.648438 C 131.839844 209.9375 131.925781 210.214844 132.035156 210.488281 C 132.148438 210.757812 132.285156 211.015625 132.449219 211.257812 C 132.613281 211.503906 132.796875 211.726562 133.003906 211.9375 C 133.210938 212.144531 133.4375 212.328125 133.679688 212.492188 C 133.925781 212.652344 134.179688 212.792969 134.453125 212.902344 C 134.722656 213.015625 135.003906 213.101562 135.289062 213.15625 C 135.578125 213.214844 135.867188 213.242188 136.160156 213.242188 Z M 140.625 190.921875 L 154.019531 190.921875 L 154.019531 204.316406 L 140.625 204.316406 Z M 176.339844 213.242188 L 198.660156 213.242188 C 198.953125 213.242188 199.242188 213.214844 199.53125 213.15625 C 199.820312 213.101562 200.097656 213.015625 200.367188 212.902344 C 200.640625 212.792969 200.898438 212.652344 201.140625 212.492188 C 201.382812 212.328125 201.609375 212.144531 201.816406 211.9375 C 202.023438 211.726562 202.210938 211.503906 202.371094 211.257812 C 202.535156 211.015625 202.671875 210.757812 202.785156 210.488281 C 202.898438 210.214844 202.980469 209.9375 203.039062 209.648438 C 203.097656 209.363281 203.125 209.070312 203.125 208.777344 L 203.125 186.457031 C 203.125 186.164062 203.097656 185.875 203.039062 185.585938 C 202.980469 185.300781 202.898438 185.019531 202.785156 184.75 C 202.671875 184.476562 202.535156 184.222656 202.371094 183.976562 C 202.210938 183.734375 202.023438 183.507812 201.816406 183.300781 C 201.609375 183.09375 201.382812 182.910156 201.140625 182.746094 C 200.898438 182.582031 200.640625 182.445312 200.367188 182.332031 C 200.097656 182.222656 199.820312 182.136719 199.53125 182.078125 C 199.242188 182.023438 198.953125 181.992188 198.660156 181.992188 L 176.339844 181.992188 C 176.046875 181.992188 175.753906 182.023438 175.46875 182.078125 C 175.179688 182.136719 174.902344 182.222656 174.632812 182.332031 C 174.359375 182.445312 174.101562 182.582031 173.859375 182.746094 C 173.617188 182.910156 173.390625 183.09375 173.183594 183.300781 C 172.976562 183.507812 172.789062 183.734375 172.628906 183.976562 C 172.464844 184.222656 172.328125 184.476562 172.214844 184.75 C 172.101562 185.019531 172.019531 185.300781 171.960938 185.585938 C 171.902344 185.875 171.875 186.164062 171.875 186.457031 L 171.875 208.777344 C 171.875 209.070312 171.902344 209.363281 171.960938 209.648438 C 172.019531 209.9375 172.101562 210.214844 172.214844 210.488281 C 172.328125 210.757812 172.464844 211.015625 172.628906 211.257812 C 172.789062 211.503906 172.976562 211.726562 173.183594 211.9375 C 173.390625 212.144531 173.617188 212.328125 173.859375 212.492188 C 174.101562 212.652344 174.359375 212.792969 174.628906 212.902344 C 174.902344 213.015625 175.179688 213.101562 175.46875 213.15625 C 175.753906 213.214844 176.046875 213.242188 176.339844 213.242188 Z M 180.804688 190.921875 L 194.195312 190.921875 L 194.195312 204.316406 L 180.804688 204.316406 Z M 238.839844 181.992188 L 216.519531 181.992188 C 216.226562 181.992188 215.933594 182.023438 215.648438 182.078125 C 215.359375 182.136719 215.082031 182.222656 214.808594 182.332031 C 214.539062 182.445312 214.28125 182.582031 214.039062 182.746094 C 213.792969 182.910156 213.570312 183.09375 213.359375 183.300781 C 213.152344 183.507812 212.96875 183.734375 212.804688 183.976562 C 212.644531 184.222656 212.503906 184.476562 212.394531 184.75 C 212.28125 185.019531 212.195312 185.300781 212.140625 185.585938 C 212.082031 185.875 212.054688 186.164062 212.054688 186.457031 L 212.054688 208.777344 C 212.054688 209.070312 212.082031 209.363281 212.140625 209.648438 C 212.195312 209.9375 212.28125 210.214844 212.394531 210.488281 C 212.503906 210.757812 212.644531 211.015625 212.804688 211.257812 C 212.96875 211.503906 213.152344 211.726562 213.359375 211.9375 C 213.570312 212.144531 213.792969 212.328125 214.039062 212.492188 C 214.28125 212.652344 214.539062 212.792969 214.808594 212.902344 C 215.082031 213.015625 215.359375 213.101562 215.648438 213.15625 C 215.933594 213.214844 216.226562 213.242188 216.519531 213.242188 L 238.839844 213.242188 C 239.132812 213.242188 239.421875 213.214844 239.710938 213.15625 C 239.996094 213.101562 240.277344 213.015625 240.546875 212.902344 C 240.820312 212.792969 241.074219 212.652344 241.320312 212.492188 C 241.5625 212.328125 241.789062 212.144531 241.996094 211.9375 C 242.203125 211.726562 242.386719 211.503906 242.550781 211.257812 C 242.714844 211.015625 242.851562 210.757812 242.964844 210.488281 C 243.074219 210.214844 243.160156 209.9375 243.21875 209.648438 C 243.273438 209.363281 243.304688 209.070312 243.304688 208.777344 L 243.304688 186.457031 C 243.304688 186.164062 243.273438 185.875 243.21875 185.585938 C 243.160156 185.300781 243.074219 185.019531 242.964844 184.75 C 242.851562 184.476562 242.714844 184.222656 242.550781 183.976562 C 242.386719 183.734375 242.203125 183.507812 241.996094 183.300781 C 241.789062 183.09375 241.5625 182.910156 241.320312 182.746094 C 241.074219 182.582031 240.820312 182.445312 240.546875 182.332031 C 240.277344 182.222656 239.996094 182.136719 239.710938 182.078125 C 239.421875 182.023438 239.132812 181.992188 238.839844 181.992188 Z M 234.375 204.316406 L 220.980469 204.316406 L 220.980469 190.921875 L 234.375 190.921875 Z M 91.519531 242.261719 L 100.445312 242.261719 C 100.738281 242.261719 101.03125 242.234375 101.316406 242.175781 C 101.605469 242.117188 101.882812 242.035156 102.15625 241.921875 C 102.425781 241.808594 102.683594 241.671875 102.925781 241.507812 C 103.171875 241.347656 103.394531 241.160156 103.601562 240.953125 C 103.808594 240.746094 103.996094 240.519531 104.160156 240.277344 C 104.320312 240.035156 104.457031 239.777344 104.570312 239.503906 C 104.683594 239.234375 104.769531 238.957031 104.824219 238.667969 C 104.882812 238.378906 104.910156 238.089844 104.910156 237.796875 C 104.910156 237.503906 104.882812 237.214844 104.824219 236.925781 C 104.769531 236.636719 104.683594 236.359375 104.570312 236.089844 C 104.457031 235.816406 104.320312 235.558594 104.160156 235.316406 C 103.996094 235.074219 103.808594 234.847656 103.601562 234.640625 C 103.394531 234.433594 103.171875 234.246094 102.925781 234.085938 C 102.683594 233.921875 102.425781 233.785156 102.15625 233.671875 C 101.882812 233.558594 101.605469 233.476562 101.316406 233.417969 C 101.03125 233.359375 100.738281 233.332031 100.445312 233.332031 L 91.519531 233.332031 C 91.226562 233.332031 90.933594 233.359375 90.648438 233.417969 C 90.359375 233.476562 90.082031 233.558594 89.808594 233.671875 C 89.539062 233.785156 89.28125 233.921875 89.039062 234.085938 C 88.792969 234.246094 88.570312 234.433594 88.359375 234.640625 C 88.152344 234.847656 87.96875 235.074219 87.804688 235.316406 C 87.644531 235.558594 87.503906 235.816406 87.394531 236.089844 C 87.28125 236.359375 87.195312 236.636719 87.140625 236.925781 C 87.082031 237.214844 87.054688 237.503906 87.054688 237.796875 C 87.054688 238.089844 87.082031 238.378906 87.140625 238.667969 C 87.195312 238.957031 87.28125 239.234375 87.394531 239.503906 C 87.503906 239.777344 87.644531 240.035156 87.804688 240.277344 C 87.96875 240.519531 88.152344 240.746094 88.359375 240.953125 C 88.570312 241.160156 88.792969 241.347656 89.039062 241.507812 C 89.28125 241.671875 89.539062 241.808594 89.808594 241.921875 C 90.082031 242.035156 90.359375 242.117188 90.648438 242.175781 C 90.933594 242.234375 91.226562 242.261719 91.519531 242.261719 Z M 91.519531 242.261719 " fill-opacity="1" fill-rule="nonzero"/><path fill="#2d4356" d="M 299.105469 181.992188 L 258.929688 181.992188 C 258.636719 181.992188 258.34375 182.023438 258.058594 182.078125 C 257.769531 182.136719 257.492188 182.222656 257.21875 182.332031 C 256.949219 182.445312 256.691406 182.582031 256.449219 182.746094 C 256.203125 182.910156 255.980469 183.09375 255.773438 183.300781 C 255.566406 183.507812 255.378906 183.734375 255.214844 183.976562 C 255.054688 184.222656 254.917969 184.476562 254.804688 184.75 C 254.691406 185.019531 254.605469 185.300781 254.550781 185.585938 C 254.492188 185.875 254.464844 186.164062 254.464844 186.457031 L 254.464844 253.421875 C 254.464844 253.714844 254.492188 254.003906 254.550781 254.292969 C 254.605469 254.582031 254.691406 254.859375 254.804688 255.128906 C 254.917969 255.402344 255.054688 255.660156 255.214844 255.902344 C 255.378906 256.144531 255.566406 256.371094 255.773438 256.578125 C 255.980469 256.785156 256.203125 256.972656 256.449219 257.132812 C 256.691406 257.296875 256.949219 257.433594 257.21875 257.546875 C 257.492188 257.660156 257.769531 257.742188 258.058594 257.800781 C 258.34375 257.859375 258.636719 257.886719 258.929688 257.886719 L 299.105469 257.886719 C 299.398438 257.886719 299.691406 257.859375 299.976562 257.800781 C 300.265625 257.742188 300.542969 257.660156 300.816406 257.546875 C 301.085938 257.433594 301.34375 257.296875 301.585938 257.132812 C 301.832031 256.972656 302.054688 256.785156 302.265625 256.578125 C 302.472656 256.371094 302.65625 256.144531 302.820312 255.902344 C 302.980469 255.660156 303.121094 255.402344 303.230469 255.128906 C 303.34375 254.859375 303.429688 254.582031 303.484375 254.292969 C 303.542969 254.003906 303.570312 253.714844 303.570312 253.421875 L 303.570312 186.457031 C 303.570312 186.164062 303.542969 185.875 303.484375 185.585938 C 303.429688 185.300781 303.34375 185.019531 303.230469 184.75 C 303.121094 184.476562 302.980469 184.222656 302.820312 183.976562 C 302.65625 183.734375 302.472656 183.507812 302.265625 183.300781 C 302.054688 183.09375 301.832031 182.910156 301.585938 182.746094 C 301.34375 182.582031 301.085938 182.445312 300.816406 182.332031 C 300.542969 182.222656 300.265625 182.136719 299.976562 182.078125 C 299.691406 182.023438 299.398438 181.992188 299.105469 181.992188 Z M 294.644531 248.957031 L 263.394531 248.957031 L 263.394531 190.921875 L 294.644531 190.921875 Z M 294.644531 248.957031 " fill-opacity="1" fill-rule="nonzero"/><path fill="#004aad" d="M 274.554688 242.261719 L 283.480469 242.261719 C 283.773438 242.261719 284.066406 242.234375 284.351562 242.175781 C 284.640625 242.117188 284.917969 242.035156 285.191406 241.921875 C 285.460938 241.808594 285.71875 241.671875 285.960938 241.507812 C 286.207031 241.347656 286.429688 241.160156 286.640625 240.953125 C 286.847656 240.746094 287.03125 240.519531 287.195312 240.277344 C 287.355469 240.035156 287.496094 239.777344 287.605469 239.503906 C 287.71875 239.234375 287.804688 238.957031 287.859375 238.667969 C 287.917969 238.378906 287.945312 238.089844 287.945312 237.796875 C 287.945312 237.503906 287.917969 237.214844 287.859375 236.925781 C 287.804688 236.636719 287.71875 236.359375 287.605469 236.089844 C 287.496094 235.816406 287.355469 235.558594 287.195312 235.316406 C 287.03125 235.074219 286.847656 234.847656 286.640625 234.640625 C 286.429688 234.433594 286.207031 234.246094 285.960938 234.085938 C 285.71875 233.921875 285.460938 233.785156 285.191406 233.671875 C 284.917969 233.558594 284.640625 233.476562 284.351562 233.417969 C 284.066406 233.359375 283.773438 233.332031 283.480469 233.332031 L 274.554688 233.332031 C 274.261719 233.332031 273.96875 233.359375 273.683594 233.417969 C 273.394531 233.476562 273.117188 233.558594 272.84375 233.671875 C 272.574219 233.785156 272.316406 233.921875 272.074219 234.085938 C 271.828125 234.246094 271.605469 234.433594 271.398438 234.640625 C 271.191406 234.847656 271.003906 235.074219 270.839844 235.316406 C 270.679688 235.558594 270.542969 235.816406 270.429688 236.089844 C 270.316406 236.359375 270.230469 236.636719 270.175781 236.925781 C 270.117188 237.214844 270.089844 237.503906 270.089844 237.796875 C 270.089844 238.089844 270.117188 238.378906 270.175781 238.667969 C 270.230469 238.957031 270.316406 239.234375 270.429688 239.503906 C 270.542969 239.777344 270.679688 240.035156 270.839844 240.277344 C 271.003906 240.519531 271.191406 240.746094 271.398438 240.953125 C 271.605469 241.160156 271.828125 241.347656 272.074219 241.507812 C 272.316406 241.671875 272.574219 241.808594 272.84375 241.921875 C 273.117188 242.035156 273.394531 242.117188 273.683594 242.175781 C 273.96875 242.234375 274.261719 242.261719 274.554688 242.261719 Z M 238.839844 233.332031 L 136.160156 233.332031 C 135.867188 233.332031 135.578125 233.359375 135.289062 233.417969 C 135.003906 233.476562 134.722656 233.558594 134.453125 233.671875 C 134.179688 233.785156 133.925781 233.921875 133.679688 234.085938 C 133.4375 234.246094 133.210938 234.433594 133.003906 234.640625 C 132.796875 234.847656 132.613281 235.074219 132.449219 235.316406 C 132.285156 235.558594 132.148438 235.816406 132.035156 236.089844 C 131.925781 236.359375 131.839844 236.636719 131.78125 236.925781 C 131.726562 237.214844 131.695312 237.503906 131.695312 237.796875 C 131.695312 238.089844 131.726562 238.378906 131.78125 238.667969 C 131.839844 238.957031 131.925781 239.234375 132.035156 239.503906 C 132.148438 239.777344 132.285156 240.035156 132.449219 240.277344 C 132.613281 240.519531 132.796875 240.746094 133.003906 240.953125 C 133.210938 241.160156 133.4375 241.347656 133.679688 241.507812 C 133.925781 241.671875 134.179688 241.808594 134.453125 241.921875 C 134.722656 242.035156 135.003906 242.117188 135.289062 242.175781 C 135.578125 242.234375 135.867188 242.261719 136.160156 242.261719 L 238.839844 242.261719 C 239.132812 242.261719 239.421875 242.234375 239.710938 242.175781 C 239.996094 242.117188 240.277344 242.035156 240.546875 241.921875 C 240.820312 241.808594 241.074219 241.671875 241.320312 241.507812 C 241.5625 241.347656 241.789062 241.160156 241.996094 240.953125 C 242.203125 240.746094 242.386719 240.519531 242.550781 240.277344 C 242.714844 240.035156 242.851562 239.777344 242.964844 239.503906 C 243.074219 239.234375 243.160156 238.957031 243.21875 238.667969 C 243.273438 238.378906 243.304688 238.089844 243.304688 237.796875 C 243.304688 237.503906 243.273438 237.214844 243.21875 236.925781 C 243.160156 236.636719 243.074219 236.359375 242.964844 236.089844 C 242.851562 235.816406 242.714844 235.558594 242.550781 235.316406 C 242.386719 235.074219 242.203125 234.847656 241.996094 234.640625 C 241.789062 234.433594 241.5625 234.246094 241.320312 234.085938 C 241.074219 233.921875 240.820312 233.785156 240.546875 233.671875 C 240.277344 233.558594 239.996094 233.476562 239.710938 233.417969 C 239.421875 233.359375 239.132812 233.332031 238.839844 233.332031 Z M 238.839844 233.332031 " fill-opacity="1" fill-rule="nonzero"/><path fill="#2d4356" d="M 336.429688 294.714844 L 294.339844 294.714844 C 295.738281 293.945312 297.007812 293.003906 298.152344 291.890625 C 299.296875 290.78125 300.273438 289.539062 301.085938 288.164062 C 301.898438 286.789062 302.515625 285.332031 302.9375 283.792969 C 303.359375 282.253906 303.570312 280.6875 303.570312 279.089844 L 316.964844 279.089844 C 317.84375 279.089844 318.714844 279.003906 319.574219 278.832031 C 320.4375 278.660156 321.273438 278.40625 322.085938 278.066406 C 322.898438 277.730469 323.671875 277.316406 324.402344 276.828125 C 325.132812 276.339844 325.808594 275.785156 326.429688 275.164062 C 327.050781 274.542969 327.605469 273.867188 328.09375 273.136719 C 328.582031 272.40625 328.996094 271.632812 329.332031 270.820312 C 329.671875 270.007812 329.925781 269.171875 330.097656 268.308594 C 330.269531 267.449219 330.355469 266.578125 330.355469 265.699219 L 330.355469 176.414062 C 330.355469 169.027344 324.351562 161.902344 316.964844 161.902344 L 58.035156 161.902344 C 50.648438 161.902344 44.644531 169.027344 44.644531 176.414062 L 44.644531 265.699219 C 44.644531 266.578125 44.730469 267.449219 44.902344 268.308594 C 45.074219 269.171875 45.328125 270.007812 45.667969 270.820312 C 46.003906 271.632812 46.417969 272.40625 46.90625 273.136719 C 47.394531 273.867188 47.949219 274.542969 48.570312 275.164062 C 49.191406 275.785156 49.867188 276.339844 50.597656 276.828125 C 51.328125 277.316406 52.101562 277.730469 52.914062 278.066406 C 53.726562 278.40625 54.5625 278.660156 55.425781 278.832031 C 56.285156 279.003906 57.15625 279.089844 58.035156 279.089844 L 71.429688 279.089844 C 71.429688 280.6875 71.640625 282.253906 72.0625 283.792969 C 72.484375 285.332031 73.101562 286.789062 73.914062 288.164062 C 74.726562 289.539062 75.703125 290.78125 76.847656 291.890625 C 77.992188 293.003906 79.261719 293.945312 80.660156 294.714844 L 38.570312 294.714844 C 38.25 294.675781 37.933594 294.667969 37.613281 294.695312 C 37.296875 294.71875 36.980469 294.78125 36.675781 294.875 C 36.371094 294.964844 36.078125 295.089844 35.796875 295.246094 C 35.515625 295.402344 35.257812 295.585938 35.015625 295.796875 C 34.773438 296.007812 34.558594 296.242188 34.367188 296.5 C 34.179688 296.757812 34.015625 297.03125 33.882812 297.324219 C 33.753906 297.617188 33.652344 297.917969 33.585938 298.230469 C 33.515625 298.542969 33.484375 298.859375 33.484375 299.179688 C 33.484375 299.5 33.515625 299.816406 33.585938 300.128906 C 33.652344 300.445312 33.753906 300.746094 33.882812 301.039062 C 34.015625 301.328125 34.179688 301.605469 34.367188 301.863281 C 34.558594 302.117188 34.773438 302.351562 35.015625 302.5625 C 35.257812 302.777344 35.515625 302.960938 35.796875 303.113281 C 36.078125 303.269531 36.371094 303.394531 36.675781 303.488281 C 36.980469 303.582031 37.296875 303.640625 37.613281 303.667969 C 37.933594 303.695312 38.25 303.6875 38.570312 303.644531 L 336.429688 303.644531 C 336.746094 303.6875 337.066406 303.695312 337.382812 303.667969 C 337.703125 303.640625 338.015625 303.582031 338.320312 303.488281 C 338.628906 303.394531 338.921875 303.269531 339.203125 303.113281 C 339.480469 302.960938 339.742188 302.777344 339.980469 302.5625 C 340.222656 302.351562 340.4375 302.117188 340.628906 301.863281 C 340.820312 301.605469 340.980469 301.328125 341.113281 301.039062 C 341.246094 300.746094 341.34375 300.445312 341.414062 300.128906 C 341.480469 299.816406 341.515625 299.5 341.515625 299.179688 C 341.515625 298.859375 341.480469 298.542969 341.414062 298.230469 C 341.34375 297.917969 341.246094 297.617188 341.113281 297.324219 C 340.980469 297.03125 340.820312 296.757812 340.628906 296.5 C 340.4375 296.242188 340.222656 296.007812 339.980469 295.796875 C 339.742188 295.585938 339.480469 295.402344 339.203125 295.246094 C 338.921875 295.089844 338.628906 294.964844 338.320312 294.875 C 338.015625 294.78125 337.703125 294.71875 337.382812 294.695312 C 337.066406 294.667969 336.746094 294.675781 336.429688 294.714844 Z M 285.714844 288.019531 C 285.128906 288.019531 284.546875 287.960938 283.972656 287.847656 C 283.398438 287.730469 282.839844 287.5625 282.296875 287.339844 C 281.757812 287.113281 281.242188 286.839844 280.757812 286.511719 C 280.269531 286.1875 279.816406 285.816406 279.402344 285.402344 C 278.988281 284.988281 278.617188 284.535156 278.292969 284.050781 C 277.96875 283.5625 277.691406 283.046875 277.46875 282.507812 C 277.242188 281.964844 277.074219 281.40625 276.957031 280.832031 C 276.84375 280.257812 276.785156 279.675781 276.785156 279.089844 L 294.644531 279.089844 C 294.640625 279.675781 294.585938 280.257812 294.46875 280.832031 C 294.355469 281.40625 294.183594 281.964844 293.960938 282.507812 C 293.734375 283.046875 293.460938 283.5625 293.136719 284.050781 C 292.808594 284.535156 292.441406 284.988281 292.023438 285.402344 C 291.609375 285.816406 291.160156 286.1875 290.671875 286.511719 C 290.183594 286.839844 289.671875 287.113281 289.128906 287.339844 C 288.589844 287.5625 288.03125 287.730469 287.457031 287.847656 C 286.878906 287.960938 286.300781 288.019531 285.714844 288.019531 Z M 58.035156 269.046875 C 57.742188 269.046875 57.453125 269.015625 57.164062 268.960938 C 56.878906 268.902344 56.597656 268.816406 56.328125 268.707031 C 56.058594 268.59375 55.800781 268.457031 55.558594 268.292969 C 55.3125 268.128906 55.089844 267.945312 54.882812 267.738281 C 54.671875 267.53125 54.488281 267.304688 54.324219 267.0625 C 54.164062 266.816406 54.023438 266.5625 53.914062 266.289062 C 53.800781 266.019531 53.714844 265.742188 53.660156 265.453125 C 53.601562 265.164062 53.570312 264.875 53.570312 264.582031 L 53.570312 176.414062 C 53.570312 173.949219 55.574219 170.832031 58.035156 170.832031 L 316.964844 170.832031 C 319.425781 170.832031 321.429688 173.949219 321.429688 176.414062 L 321.429688 264.582031 C 321.429688 264.875 321.398438 265.164062 321.339844 265.453125 C 321.285156 265.742188 321.199219 266.019531 321.085938 266.289062 C 320.976562 266.5625 320.835938 266.816406 320.675781 267.0625 C 320.511719 267.304688 320.328125 267.53125 320.117188 267.738281 C 319.910156 267.945312 319.6875 268.128906 319.441406 268.292969 C 319.199219 268.457031 318.941406 268.59375 318.671875 268.707031 C 318.402344 268.816406 318.121094 268.902344 317.835938 268.960938 C 317.546875 269.015625 317.257812 269.046875 316.964844 269.046875 Z M 241.070312 288.019531 C 240.484375 288.019531 239.90625 287.960938 239.332031 287.847656 C 238.753906 287.730469 238.199219 287.5625 237.65625 287.339844 C 237.113281 287.113281 236.601562 286.839844 236.113281 286.511719 C 235.625 286.1875 235.175781 285.816406 234.761719 285.402344 C 234.347656 284.988281 233.976562 284.535156 233.648438 284.050781 C 233.324219 283.5625 233.050781 283.046875 232.824219 282.507812 C 232.601562 281.964844 232.429688 281.40625 232.316406 280.832031 C 232.199219 280.257812 232.144531 279.675781 232.144531 279.089844 L 250 279.089844 C 250 279.675781 249.941406 280.257812 249.828125 280.832031 C 249.710938 281.40625 249.542969 281.964844 249.316406 282.507812 C 249.09375 283.046875 248.816406 283.5625 248.492188 284.050781 C 248.167969 284.539062 247.796875 284.988281 247.382812 285.402344 C 246.96875 285.816406 246.515625 286.1875 246.03125 286.511719 C 245.542969 286.839844 245.027344 287.113281 244.488281 287.339844 C 243.945312 287.5625 243.386719 287.730469 242.8125 287.847656 C 242.238281 287.960938 241.65625 288.019531 241.070312 288.019531 Z M 133.929688 288.019531 C 133.34375 288.019531 132.761719 287.960938 132.1875 287.847656 C 131.613281 287.730469 131.054688 287.5625 130.511719 287.339844 C 129.972656 287.113281 129.457031 286.839844 128.96875 286.511719 C 128.484375 286.1875 128.03125 285.816406 127.617188 285.402344 C 127.203125 284.988281 126.832031 284.539062 126.507812 284.050781 C 126.183594 283.5625 125.90625 283.046875 125.683594 282.507812 C 125.457031 281.964844 125.289062 281.40625 125.171875 280.832031 C 125.058594 280.257812 125 279.675781 125 279.089844 L 142.855469 279.089844 C 142.855469 279.675781 142.800781 280.257812 142.683594 280.832031 C 142.570312 281.40625 142.398438 281.964844 142.175781 282.507812 C 141.949219 283.046875 141.675781 283.5625 141.351562 284.050781 C 141.023438 284.539062 140.652344 284.988281 140.238281 285.402344 C 139.824219 285.816406 139.375 286.1875 138.886719 286.511719 C 138.398438 286.839844 137.886719 287.113281 137.34375 287.339844 C 136.800781 287.5625 136.246094 287.730469 135.667969 287.847656 C 135.09375 287.960938 134.515625 288.019531 133.929688 288.019531 Z M 80.355469 279.089844 L 98.214844 279.089844 C 98.214844 279.679688 98.15625 280.257812 98.042969 280.832031 C 97.929688 281.410156 97.757812 281.964844 97.535156 282.507812 C 97.308594 283.050781 97.035156 283.566406 96.710938 284.050781 C 96.382812 284.539062 96.015625 284.992188 95.597656 285.40625 C 95.183594 285.820312 94.734375 286.191406 94.246094 286.515625 C 93.757812 286.839844 93.242188 287.117188 92.703125 287.339844 C 92.160156 287.566406 91.601562 287.734375 91.027344 287.847656 C 90.453125 287.964844 89.871094 288.019531 89.285156 288.019531 C 88.699219 288.019531 88.117188 287.964844 87.542969 287.847656 C 86.96875 287.734375 86.410156 287.566406 85.867188 287.339844 C 85.328125 287.117188 84.8125 286.839844 84.324219 286.515625 C 83.835938 286.191406 83.386719 285.820312 82.972656 285.40625 C 82.558594 284.992188 82.1875 284.539062 81.863281 284.050781 C 81.535156 283.566406 81.261719 283.050781 81.035156 282.507812 C 80.8125 281.964844 80.644531 281.410156 80.527344 280.832031 C 80.414062 280.257812 80.355469 279.679688 80.355469 279.089844 Z M 97.910156 294.714844 C 99.308594 293.945312 100.578125 293.003906 101.722656 291.890625 C 102.867188 290.78125 103.847656 289.539062 104.660156 288.164062 C 105.46875 286.789062 106.085938 285.332031 106.507812 283.792969 C 106.929688 282.253906 107.140625 280.6875 107.144531 279.089844 L 116.070312 279.089844 C 116.074219 280.6875 116.285156 282.253906 116.707031 283.792969 C 117.128906 285.332031 117.742188 286.789062 118.554688 288.164062 C 119.367188 289.539062 120.347656 290.78125 121.492188 291.890625 C 122.636719 293.003906 123.90625 293.945312 125.304688 294.714844 Z M 142.554688 294.714844 C 143.949219 293.945312 145.222656 293.003906 146.367188 291.890625 C 147.511719 290.78125 148.488281 289.539062 149.300781 288.164062 C 150.113281 286.789062 150.730469 285.332031 151.152344 283.792969 C 151.574219 282.253906 151.785156 280.6875 151.785156 279.089844 L 223.214844 279.089844 C 223.214844 280.6875 223.425781 282.253906 223.847656 283.792969 C 224.269531 285.332031 224.886719 286.789062 225.699219 288.164062 C 226.511719 289.539062 227.488281 290.78125 228.632812 291.890625 C 229.777344 293.003906 231.050781 293.945312 232.445312 294.714844 Z M 249.695312 294.714844 C 251.09375 293.945312 252.363281 293.003906 253.507812 291.890625 C 254.652344 290.78125 255.632812 289.539062 256.445312 288.164062 C 257.257812 286.789062 257.871094 285.332031 258.292969 283.792969 C 258.714844 282.253906 258.925781 280.6875 258.929688 279.089844 L 267.855469 279.089844 C 267.859375 280.6875 268.070312 282.253906 268.492188 283.792969 C 268.914062 285.332031 269.53125 286.789062 270.339844 288.164062 C 271.152344 289.539062 272.132812 290.78125 273.277344 291.890625 C 274.421875 293.003906 275.691406 293.945312 277.089844 294.714844 Z M 249.695312 294.714844 " fill-opacity="1" fill-rule="nonzero"/></svg>