<svg xmlns="http://www.w3.org/2000/svg" xmlns:xlink="http://www.w3.org/1999/xlink" width="500" zoomAndPan="magnify" viewBox="0 0 375 374.999991" height="500" preserveAspectRatio="xMidYMid meet" version="1.0"><rect x="-37.5" width="450" fill="#ffffff" y="-37.499999" height="449.999989" fill-opacity="1"/><rect x="-37.5" width="450" fill="#ffffff" y="-37.499999" height="449.999989" fill-opacity="1"/><rect x="-37.5" width="450" fill="#ffffff" y="-37.499999" height="449.999989" fill-opacity="1"/><path fill="#2d4356" d="M 87.054688 199.777344 L 73.660156 199.777344 C 73.363281 199.777344 73.082031 199.835938 72.808594 199.949219 C 72.535156 200.0625 72.292969 200.222656 72.085938 200.433594 C 71.875 200.640625 71.714844 200.882812 71.601562 201.15625 C 71.488281 201.429688 71.429688 201.714844 71.429688 202.007812 L 71.429688 215.402344 C 71.429688 215.699219 71.488281 215.980469 71.601562 216.253906 C 71.714844 216.527344 71.875 216.769531 72.085938 216.976562 C 72.292969 217.1875 72.535156 217.347656 72.808594 217.460938 C 73.082031 217.574219 73.363281 217.632812 73.660156 217.632812 L 87.054688 217.632812 C 87.347656 217.632812 87.632812 217.574219 87.90625 217.460938 C 88.179688 217.347656 88.421875 217.1875 88.628906 216.976562 C 88.839844 216.769531 89 216.527344 89.113281 216.253906 C 89.226562 215.980469 89.285156 215.699219 89.285156 215.402344 L 89.285156 202.007812 C 89.285156 201.714844 89.226562 201.429688 89.113281 201.15625 C 89 200.882812 88.839844 200.640625 88.628906 200.433594 C 88.421875 200.222656 88.179688 200.0625 87.90625 199.949219 C 87.632812 199.835938 87.347656 199.777344 87.054688 199.777344 Z M 87.054688 215.402344 L 73.660156 215.402344 L 73.660156 202.007812 L 87.054688 202.007812 Z M 109.375 199.777344 L 95.980469 199.777344 C 95.6875 199.777344 95.402344 199.835938 95.128906 199.949219 C 94.855469 200.0625 94.613281 200.222656 94.40625 200.433594 C 94.195312 200.640625 94.035156 200.882812 93.921875 201.15625 C 93.808594 201.429688 93.75 201.714844 93.75 202.007812 L 93.75 215.402344 C 93.75 215.699219 93.808594 215.980469 93.921875 216.253906 C 94.035156 216.527344 94.195312 216.769531 94.40625 216.976562 C 94.613281 217.1875 94.855469 217.347656 95.128906 217.460938 C 95.402344 217.574219 95.6875 217.632812 95.980469 217.632812 L 109.375 217.632812 C 109.671875 217.632812 109.957031 217.574219 110.226562 217.460938 C 110.5 217.347656 110.742188 217.1875 110.953125 216.976562 C 111.160156 216.769531 111.320312 216.527344 111.433594 216.253906 C 111.550781 215.980469 111.605469 215.699219 111.605469 215.402344 L 111.605469 202.007812 C 111.605469 201.714844 111.550781 201.429688 111.433594 201.15625 C 111.320312 200.882812 111.160156 200.640625 110.953125 200.433594 C 110.742188 200.222656 110.5 200.0625 110.226562 199.949219 C 109.957031 199.835938 109.671875 199.777344 109.375 199.777344 Z M 109.375 215.402344 L 95.980469 215.402344 L 95.980469 202.007812 L 109.375 202.007812 Z M 87.054688 222.097656 L 73.660156 222.097656 C 73.363281 222.097656 73.082031 222.15625 72.808594 222.269531 C 72.535156 222.382812 72.292969 222.542969 72.085938 222.753906 C 71.875 222.964844 71.714844 223.203125 71.601562 223.476562 C 71.488281 223.75 71.429688 224.035156 71.429688 224.332031 L 71.429688 237.722656 C 71.429688 238.019531 71.488281 238.304688 71.601562 238.578125 C 71.714844 238.847656 71.875 239.089844 72.085938 239.300781 C 72.292969 239.507812 72.535156 239.671875 72.808594 239.785156 C 73.082031 239.898438 73.363281 239.953125 73.660156 239.957031 L 87.054688 239.957031 C 87.347656 239.953125 87.632812 239.898438 87.90625 239.785156 C 88.179688 239.671875 88.421875 239.507812 88.628906 239.300781 C 88.839844 239.089844 89 238.847656 89.113281 238.578125 C 89.226562 238.304688 89.285156 238.019531 89.285156 237.722656 L 89.285156 224.332031 C 89.285156 224.035156 89.226562 223.75 89.113281 223.476562 C 89 223.203125 88.839844 222.964844 88.628906 222.753906 C 88.421875 222.542969 88.179688 222.382812 87.90625 222.269531 C 87.632812 222.15625 87.347656 222.097656 87.054688 222.097656 Z M 87.054688 237.722656 L 73.660156 237.722656 L 73.660156 224.332031 L 87.054688 224.332031 Z M 109.375 222.097656 L 95.980469 222.097656 C 95.6875 222.097656 95.402344 222.15625 95.128906 222.269531 C 94.855469 222.382812 94.613281 222.542969 94.40625 222.753906 C 94.195312 222.964844 94.035156 223.203125 93.921875 223.476562 C 93.808594 223.75 93.75 224.035156 93.75 224.332031 L 93.75 237.722656 C 93.75 238.019531 93.808594 238.304688 93.921875 238.578125 C 94.035156 238.847656 94.195312 239.089844 94.40625 239.300781 C 94.613281 239.507812 94.855469 239.671875 95.128906 239.785156 C 95.402344 239.898438 95.6875 239.953125 95.980469 239.957031 L 109.375 239.957031 C 109.671875 239.953125 109.957031 239.898438 110.226562 239.785156 C 110.5 239.671875 110.742188 239.507812 110.953125 239.300781 C 111.160156 239.089844 111.320312 238.847656 111.433594 238.578125 C 111.550781 238.304688 111.605469 238.019531 111.605469 237.722656 L 111.605469 224.332031 C 111.605469 224.035156 111.550781 223.75 111.433594 223.476562 C 111.320312 223.203125 111.160156 222.964844 110.953125 222.753906 C 110.742188 222.542969 110.5 222.382812 110.226562 222.269531 C 109.957031 222.15625 109.671875 222.097656 109.375 222.097656 Z M 109.375 237.722656 L 95.980469 237.722656 L 95.980469 224.332031 L 109.375 224.332031 Z M 87.054688 244.417969 L 73.660156 244.417969 C 73.363281 244.421875 73.082031 244.476562 72.808594 244.589844 C 72.535156 244.703125 72.292969 244.867188 72.085938 245.074219 C 71.875 245.285156 71.714844 245.527344 71.601562 245.796875 C 71.488281 246.070312 71.429688 246.355469 71.429688 246.652344 L 71.429688 260.042969 C 71.429688 260.339844 71.488281 260.625 71.601562 260.898438 C 71.714844 261.171875 71.875 261.410156 72.085938 261.621094 C 72.292969 261.832031 72.535156 261.992188 72.808594 262.105469 C 73.082031 262.21875 73.363281 262.277344 73.660156 262.277344 L 87.054688 262.277344 C 87.347656 262.277344 87.632812 262.21875 87.90625 262.105469 C 88.179688 261.992188 88.421875 261.832031 88.628906 261.621094 C 88.839844 261.410156 89 261.171875 89.113281 260.898438 C 89.226562 260.625 89.285156 260.339844 89.285156 260.042969 L 89.285156 246.652344 C 89.285156 246.355469 89.226562 246.070312 89.113281 245.796875 C 89 245.527344 88.839844 245.285156 88.628906 245.074219 C 88.421875 244.867188 88.179688 244.703125 87.90625 244.589844 C 87.632812 244.476562 87.347656 244.421875 87.054688 244.417969 Z M 87.054688 260.042969 L 73.660156 260.042969 L 73.660156 246.652344 L 87.054688 246.652344 Z M 109.375 244.417969 L 95.980469 244.417969 C 95.6875 244.421875 95.402344 244.476562 95.128906 244.589844 C 94.855469 244.703125 94.613281 244.867188 94.40625 245.074219 C 94.195312 245.285156 94.035156 245.527344 93.921875 245.796875 C 93.808594 246.070312 93.75 246.355469 93.75 246.652344 L 93.75 260.042969 C 93.75 260.339844 93.808594 260.625 93.921875 260.898438 C 94.035156 261.171875 94.195312 261.410156 94.40625 261.621094 C 94.613281 261.832031 94.855469 261.992188 95.128906 262.105469 C 95.402344 262.21875 95.6875 262.277344 95.980469 262.277344 L 109.375 262.277344 C 109.671875 262.277344 109.957031 262.21875 110.226562 262.105469 C 110.5 261.992188 110.742188 261.832031 110.953125 261.621094 C 111.160156 261.410156 111.320312 261.171875 111.433594 260.898438 C 111.550781 260.625 111.605469 260.339844 111.605469 260.042969 L 111.605469 246.652344 C 111.605469 246.355469 111.550781 246.070312 111.433594 245.796875 C 111.320312 245.527344 111.160156 245.285156 110.953125 245.074219 C 110.742188 244.867188 110.5 244.703125 110.226562 244.589844 C 109.957031 244.476562 109.671875 244.421875 109.375 244.417969 Z M 109.375 260.042969 L 95.980469 260.042969 L 95.980469 246.652344 L 109.375 246.652344 Z M 87.054688 266.742188 L 73.660156 266.742188 C 73.363281 266.742188 73.082031 266.800781 72.808594 266.914062 C 72.535156 267.027344 72.292969 267.1875 72.085938 267.398438 C 71.875 267.605469 71.714844 267.847656 71.601562 268.121094 C 71.488281 268.394531 71.429688 268.675781 71.429688 268.972656 L 71.429688 282.367188 C 71.429688 282.660156 71.488281 282.945312 71.601562 283.21875 C 71.714844 283.492188 71.875 283.734375 72.085938 283.941406 C 72.292969 284.152344 72.535156 284.3125 72.808594 284.425781 C 73.082031 284.539062 73.363281 284.597656 73.660156 284.597656 L 87.054688 284.597656 C 87.347656 284.597656 87.632812 284.539062 87.90625 284.425781 C 88.179688 284.3125 88.421875 284.152344 88.628906 283.941406 C 88.839844 283.734375 89 283.492188 89.113281 283.21875 C 89.226562 282.945312 89.285156 282.660156 89.285156 282.367188 L 89.285156 268.972656 C 89.285156 268.675781 89.226562 268.394531 89.113281 268.121094 C 89 267.847656 88.839844 267.605469 88.628906 267.398438 C 88.421875 267.1875 88.179688 267.027344 87.90625 266.914062 C 87.632812 266.800781 87.347656 266.742188 87.054688 266.742188 Z M 87.054688 282.367188 L 73.660156 282.367188 L 73.660156 268.972656 L 87.054688 268.972656 Z M 109.375 266.742188 L 95.980469 266.742188 C 95.6875 266.742188 95.402344 266.800781 95.128906 266.914062 C 94.855469 267.027344 94.613281 267.1875 94.40625 267.398438 C 94.195312 267.605469 94.035156 267.847656 93.921875 268.121094 C 93.808594 268.394531 93.75 268.675781 93.75 268.972656 L 93.75 282.367188 C 93.75 282.660156 93.808594 282.945312 93.921875 283.21875 C 94.035156 283.492188 94.195312 283.734375 94.40625 283.941406 C 94.613281 284.152344 94.855469 284.3125 95.128906 284.425781 C 95.402344 284.539062 95.6875 284.597656 95.980469 284.597656 L 109.375 284.597656 C 109.671875 284.597656 109.957031 284.539062 110.226562 284.425781 C 110.5 284.3125 110.742188 284.152344 110.953125 283.941406 C 111.160156 283.734375 111.320312 283.492188 111.433594 283.21875 C 111.550781 282.945312 111.605469 282.660156 111.605469 282.367188 L 111.605469 268.972656 C 111.605469 268.675781 111.550781 268.394531 111.433594 268.121094 C 111.320312 267.847656 111.160156 267.605469 110.953125 267.398438 C 110.742188 267.1875 110.5 267.027344 110.226562 266.914062 C 109.957031 266.800781 109.671875 266.742188 109.375 266.742188 Z M 109.375 282.367188 L 95.980469 282.367188 L 95.980469 268.972656 L 109.375 268.972656 Z M 87.054688 289.0625 L 73.660156 289.0625 C 73.363281 289.0625 73.082031 289.121094 72.808594 289.234375 C 72.535156 289.347656 72.292969 289.507812 72.085938 289.71875 C 71.875 289.925781 71.714844 290.167969 71.601562 290.441406 C 71.488281 290.714844 71.429688 291 71.429688 291.292969 L 71.429688 304.6875 C 71.429688 304.984375 71.488281 305.269531 71.601562 305.539062 C 71.714844 305.8125 71.875 306.054688 72.085938 306.265625 C 72.292969 306.472656 72.535156 306.632812 72.808594 306.746094 C 73.082031 306.863281 73.363281 306.917969 73.660156 306.917969 L 87.054688 306.917969 C 87.347656 306.917969 87.632812 306.863281 87.90625 306.746094 C 88.179688 306.632812 88.421875 306.472656 88.628906 306.265625 C 88.839844 306.054688 89 305.8125 89.113281 305.539062 C 89.226562 305.269531 89.285156 304.984375 89.285156 304.6875 L 89.285156 291.292969 C 89.285156 291 89.226562 290.714844 89.113281 290.441406 C 89 290.167969 88.839844 289.925781 88.628906 289.71875 C 88.421875 289.507812 88.179688 289.347656 87.90625 289.234375 C 87.632812 289.121094 87.347656 289.0625 87.054688 289.0625 Z M 87.054688 304.6875 L 73.660156 304.6875 L 73.660156 291.292969 L 87.054688 291.292969 Z M 109.375 289.0625 L 95.980469 289.0625 C 95.6875 289.0625 95.402344 289.121094 95.128906 289.234375 C 94.855469 289.347656 94.613281 289.507812 94.40625 289.71875 C 94.195312 289.925781 94.035156 290.167969 93.921875 290.441406 C 93.808594 290.714844 93.75 291 93.75 291.292969 L 93.75 304.6875 C 93.75 304.984375 93.808594 305.269531 93.921875 305.539062 C 94.035156 305.8125 94.195312 306.054688 94.40625 306.265625 C 94.613281 306.472656 94.855469 306.632812 95.128906 306.746094 C 95.402344 306.863281 95.6875 306.917969 95.980469 306.917969 L 109.375 306.917969 C 109.671875 306.917969 109.957031 306.863281 110.226562 306.746094 C 110.5 306.632812 110.742188 306.472656 110.953125 306.265625 C 111.160156 306.054688 111.320312 305.8125 111.433594 305.539062 C 111.550781 305.269531 111.605469 304.984375 111.605469 304.6875 L 111.605469 291.292969 C 111.605469 291 111.550781 290.714844 111.433594 290.441406 C 111.320312 290.167969 111.160156 289.925781 110.953125 289.71875 C 110.742188 289.507812 110.5 289.347656 110.226562 289.234375 C 109.957031 289.121094 109.671875 289.0625 109.375 289.0625 Z M 109.375 304.6875 L 95.980469 304.6875 L 95.980469 291.292969 L 109.375 291.292969 Z M 265.625 217.632812 L 279.019531 217.632812 C 279.3125 217.632812 279.597656 217.574219 279.871094 217.460938 C 280.144531 217.347656 280.386719 217.1875 280.59375 216.976562 C 280.804688 216.769531 280.964844 216.527344 281.078125 216.253906 C 281.191406 215.980469 281.25 215.699219 281.25 215.402344 L 281.25 202.007812 C 281.25 201.714844 281.191406 201.429688 281.078125 201.15625 C 280.964844 200.882812 280.804688 200.640625 280.59375 200.433594 C 280.386719 200.222656 280.144531 200.0625 279.871094 199.949219 C 279.597656 199.835938 279.3125 199.777344 279.019531 199.777344 L 265.625 199.777344 C 265.328125 199.777344 265.042969 199.835938 264.773438 199.949219 C 264.5 200.0625 264.257812 200.222656 264.046875 200.433594 C 263.839844 200.640625 263.679688 200.882812 263.566406 201.15625 C 263.449219 201.429688 263.394531 201.714844 263.394531 202.007812 L 263.394531 215.402344 C 263.394531 215.699219 263.449219 215.980469 263.566406 216.253906 C 263.679688 216.527344 263.839844 216.769531 264.046875 216.976562 C 264.257812 217.1875 264.5 217.347656 264.773438 217.460938 C 265.042969 217.574219 265.328125 217.632812 265.625 217.632812 Z M 265.625 202.007812 L 279.019531 202.007812 L 279.019531 215.402344 L 265.625 215.402344 Z M 287.945312 217.632812 L 301.339844 217.632812 C 301.636719 217.632812 301.917969 217.574219 302.191406 217.460938 C 302.464844 217.347656 302.707031 217.1875 302.914062 216.976562 C 303.125 216.769531 303.285156 216.527344 303.398438 216.253906 C 303.511719 215.980469 303.570312 215.699219 303.570312 215.402344 L 303.570312 202.007812 C 303.570312 201.714844 303.511719 201.429688 303.398438 201.15625 C 303.285156 200.882812 303.125 200.640625 302.914062 200.433594 C 302.707031 200.222656 302.464844 200.0625 302.191406 199.949219 C 301.917969 199.835938 301.636719 199.777344 301.339844 199.777344 L 287.945312 199.777344 C 287.652344 199.777344 287.367188 199.835938 287.09375 199.949219 C 286.820312 200.0625 286.578125 200.222656 286.371094 200.433594 C 286.160156 200.640625 286 200.882812 285.886719 201.15625 C 285.773438 201.429688 285.714844 201.714844 285.714844 202.007812 L 285.714844 215.402344 C 285.714844 215.699219 285.773438 215.980469 285.886719 216.253906 C 286 216.527344 286.160156 216.769531 286.371094 216.976562 C 286.578125 217.1875 286.820312 217.347656 287.09375 217.460938 C 287.367188 217.574219 287.652344 217.632812 287.945312 217.632812 Z M 287.945312 202.007812 L 301.339844 202.007812 L 301.339844 215.402344 L 287.945312 215.402344 Z M 265.625 239.957031 L 279.019531 239.957031 C 279.3125 239.953125 279.597656 239.898438 279.871094 239.785156 C 280.144531 239.671875 280.386719 239.507812 280.59375 239.300781 C 280.804688 239.089844 280.964844 238.847656 281.078125 238.578125 C 281.191406 238.304688 281.25 238.019531 281.25 237.722656 L 281.25 224.332031 C 281.25 224.035156 281.191406 223.75 281.078125 223.476562 C 280.964844 223.203125 280.804688 222.964844 280.59375 222.753906 C 280.386719 222.542969 280.144531 222.382812 279.871094 222.269531 C 279.597656 222.15625 279.3125 222.097656 279.019531 222.097656 L 265.625 222.097656 C 265.328125 222.097656 265.042969 222.15625 264.773438 222.269531 C 264.5 222.382812 264.257812 222.542969 264.046875 222.753906 C 263.839844 222.964844 263.679688 223.203125 263.566406 223.476562 C 263.449219 223.75 263.394531 224.035156 263.394531 224.332031 L 263.394531 237.722656 C 263.394531 238.019531 263.449219 238.304688 263.566406 238.578125 C 263.679688 238.847656 263.839844 239.089844 264.046875 239.300781 C 264.257812 239.507812 264.5 239.671875 264.773438 239.785156 C 265.042969 239.898438 265.328125 239.953125 265.625 239.957031 Z M 265.625 224.332031 L 279.019531 224.332031 L 279.019531 237.722656 L 265.625 237.722656 Z M 287.945312 239.957031 L 301.339844 239.957031 C 301.636719 239.953125 301.917969 239.898438 302.191406 239.785156 C 302.464844 239.671875 302.707031 239.507812 302.914062 239.300781 C 303.125 239.089844 303.285156 238.847656 303.398438 238.578125 C 303.511719 238.304688 303.570312 238.019531 303.570312 237.722656 L 303.570312 224.332031 C 303.570312 224.035156 303.511719 223.75 303.398438 223.476562 C 303.285156 223.203125 303.125 222.964844 302.914062 222.753906 C 302.707031 222.542969 302.464844 222.382812 302.191406 222.269531 C 301.917969 222.15625 301.636719 222.097656 301.339844 222.097656 L 287.945312 222.097656 C 287.652344 222.097656 287.367188 222.15625 287.09375 222.269531 C 286.820312 222.382812 286.578125 222.542969 286.371094 222.753906 C 286.160156 222.964844 286 223.203125 285.886719 223.476562 C 285.773438 223.75 285.714844 224.035156 285.714844 224.332031 L 285.714844 237.722656 C 285.714844 238.019531 285.773438 238.304688 285.886719 238.578125 C 286 238.847656 286.160156 239.089844 286.371094 239.300781 C 286.578125 239.507812 286.820312 239.671875 287.09375 239.785156 C 287.367188 239.898438 287.652344 239.953125 287.945312 239.957031 Z M 287.945312 224.332031 L 301.339844 224.332031 L 301.339844 237.722656 L 287.945312 237.722656 Z M 265.625 262.277344 L 279.019531 262.277344 C 279.3125 262.277344 279.597656 262.21875 279.871094 262.105469 C 280.144531 261.992188 280.386719 261.832031 280.59375 261.621094 C 280.804688 261.410156 280.964844 261.171875 281.078125 260.898438 C 281.191406 260.625 281.25 260.339844 281.25 260.042969 L 281.25 246.652344 C 281.25 246.355469 281.191406 246.070312 281.078125 245.796875 C 280.964844 245.527344 280.804688 245.285156 280.59375 245.074219 C 280.386719 244.867188 280.144531 244.703125 279.871094 244.589844 C 279.597656 244.476562 279.3125 244.421875 279.019531 244.417969 L 265.625 244.417969 C 265.328125 244.421875 265.042969 244.476562 264.773438 244.589844 C 264.5 244.703125 264.257812 244.867188 264.046875 245.074219 C 263.839844 245.285156 263.679688 245.527344 263.566406 245.796875 C 263.449219 246.070312 263.394531 246.355469 263.394531 246.652344 L 263.394531 260.042969 C 263.394531 260.339844 263.449219 260.625 263.566406 260.898438 C 263.679688 261.171875 263.839844 261.410156 264.046875 261.621094 C 264.257812 261.832031 264.5 261.992188 264.773438 262.105469 C 265.042969 262.21875 265.328125 262.277344 265.625 262.277344 Z M 265.625 246.652344 L 279.019531 246.652344 L 279.019531 260.042969 L 265.625 260.042969 Z M 287.945312 262.277344 L 301.339844 262.277344 C 301.636719 262.277344 301.917969 262.21875 302.191406 262.105469 C 302.464844 261.992188 302.707031 261.832031 302.914062 261.621094 C 303.125 261.410156 303.285156 261.171875 303.398438 260.898438 C 303.511719 260.625 303.570312 260.339844 303.570312 260.042969 L 303.570312 246.652344 C 303.570312 246.355469 303.511719 246.070312 303.398438 245.796875 C 303.285156 245.527344 303.125 245.285156 302.914062 245.074219 C 302.707031 244.867188 302.464844 244.703125 302.191406 244.589844 C 301.917969 244.476562 301.636719 244.421875 301.339844 244.417969 L 287.945312 244.417969 C 287.652344 244.421875 287.367188 244.476562 287.09375 244.589844 C 286.820312 244.703125 286.578125 244.867188 286.371094 245.074219 C 286.160156 245.285156 286 245.527344 285.886719 245.796875 C 285.773438 246.070312 285.714844 246.355469 285.714844 246.652344 L 285.714844 260.042969 C 285.714844 260.339844 285.773438 260.625 285.886719 260.898438 C 286 261.171875 286.160156 261.410156 286.371094 261.621094 C 286.578125 261.832031 286.820312 261.992188 287.09375 262.105469 C 287.367188 262.21875 287.652344 262.277344 287.945312 262.277344 Z M 287.945312 246.652344 L 301.339844 246.652344 L 301.339844 260.042969 L 287.945312 260.042969 Z M 265.625 284.597656 L 279.019531 284.597656 C 279.3125 284.597656 279.597656 284.539062 279.871094 284.425781 C 280.144531 284.3125 280.386719 284.152344 280.59375 283.941406 C 280.804688 283.734375 280.964844 283.492188 281.078125 283.21875 C 281.191406 282.945312 281.25 282.660156 281.25 282.367188 L 281.25 268.972656 C 281.25 268.675781 281.191406 268.394531 281.078125 268.121094 C 280.964844 267.847656 280.804688 267.605469 280.59375 267.398438 C 280.386719 267.1875 280.144531 267.027344 279.871094 266.914062 C 279.597656 266.800781 279.3125 266.742188 279.019531 266.742188 L 265.625 266.742188 C 265.328125 266.742188 265.042969 266.800781 264.773438 266.914062 C 264.5 267.027344 264.257812 267.1875 264.046875 267.398438 C 263.839844 267.605469 263.679688 267.847656 263.566406 268.121094 C 263.449219 268.394531 263.394531 268.675781 263.394531 268.972656 L 263.394531 282.367188 C 263.394531 282.660156 263.449219 282.945312 263.566406 283.21875 C 263.679688 283.492188 263.839844 283.734375 264.046875 283.941406 C 264.257812 284.152344 264.5 284.3125 264.773438 284.425781 C 265.042969 284.539062 265.328125 284.597656 265.625 284.597656 Z M 265.625 268.972656 L 279.019531 268.972656 L 279.019531 282.367188 L 265.625 282.367188 Z M 287.945312 284.597656 L 301.339844 284.597656 C 301.636719 284.597656 301.917969 284.539062 302.191406 284.425781 C 302.464844 284.3125 302.707031 284.152344 302.914062 283.941406 C 303.125 283.734375 303.285156 283.492188 303.398438 283.21875 C 303.511719 282.945312 303.570312 282.660156 303.570312 282.367188 L 303.570312 268.972656 C 303.570312 268.675781 303.511719 268.394531 303.398438 268.121094 C 303.285156 267.847656 303.125 267.605469 302.914062 267.398438 C 302.707031 267.1875 302.464844 267.027344 302.191406 266.914062 C 301.917969 266.800781 301.636719 266.742188 301.339844 266.742188 L 287.945312 266.742188 C 287.652344 266.742188 287.367188 266.800781 287.09375 266.914062 C 286.820312 267.027344 286.578125 267.1875 286.371094 267.398438 C 286.160156 267.605469 286 267.847656 285.886719 268.121094 C 285.773438 268.394531 285.714844 268.675781 285.714844 268.972656 L 285.714844 282.367188 C 285.714844 282.660156 285.773438 282.945312 285.886719 283.21875 C 286 283.492188 286.160156 283.734375 286.371094 283.941406 C 286.578125 284.152344 286.820312 284.3125 287.09375 284.425781 C 287.367188 284.539062 287.652344 284.597656 287.945312 284.597656 Z M 287.945312 268.972656 L 301.339844 268.972656 L 301.339844 282.367188 L 287.945312 282.367188 Z M 265.625 306.917969 L 279.019531 306.917969 C 279.3125 306.917969 279.597656 306.863281 279.871094 306.746094 C 280.144531 306.632812 280.386719 306.472656 280.59375 306.265625 C 280.804688 306.054688 280.964844 305.8125 281.078125 305.539062 C 281.191406 305.269531 281.25 304.984375 281.25 304.6875 L 281.25 291.292969 C 281.25 291 281.191406 290.714844 281.078125 290.441406 C 280.964844 290.167969 280.804688 289.925781 280.59375 289.71875 C 280.386719 289.507812 280.144531 289.347656 279.871094 289.234375 C 279.597656 289.121094 279.3125 289.0625 279.019531 289.0625 L 265.625 289.0625 C 265.328125 289.0625 265.042969 289.121094 264.773438 289.234375 C 264.5 289.347656 264.257812 289.507812 264.046875 289.71875 C 263.839844 289.925781 263.679688 290.167969 263.566406 290.441406 C 263.449219 290.714844 263.394531 291 263.394531 291.292969 L 263.394531 304.6875 C 263.394531 304.984375 263.449219 305.269531 263.566406 305.539062 C 263.679688 305.8125 263.839844 306.054688 264.046875 306.265625 C 264.257812 306.472656 264.5 306.632812 264.773438 306.746094 C 265.042969 306.863281 265.328125 306.917969 265.625 306.917969 Z M 265.625 291.292969 L 279.019531 291.292969 L 279.019531 304.6875 L 265.625 304.6875 Z M 287.945312 306.917969 L 301.339844 306.917969 C 301.636719 306.917969 301.917969 306.863281 302.191406 306.746094 C 302.464844 306.632812 302.707031 306.472656 302.914062 306.265625 C 303.125 306.054688 303.285156 305.8125 303.398438 305.539062 C 303.511719 305.269531 303.570312 304.984375 303.570312 304.6875 L 303.570312 291.292969 C 303.570312 291 303.511719 290.714844 303.398438 290.441406 C 303.285156 290.167969 303.125 289.925781 302.914062 289.71875 C 302.707031 289.507812 302.464844 289.347656 302.191406 289.234375 C 301.917969 289.121094 301.636719 289.0625 301.339844 289.0625 L 287.945312 289.0625 C 287.652344 289.0625 287.367188 289.121094 287.09375 289.234375 C 286.820312 289.347656 286.578125 289.507812 286.371094 289.71875 C 286.160156 289.925781 286 290.167969 285.886719 290.441406 C 285.773438 290.714844 285.714844 291 285.714844 291.292969 L 285.714844 304.6875 C 285.714844 304.984375 285.773438 305.269531 285.886719 305.539062 C 286 305.8125 286.160156 306.054688 286.371094 306.265625 C 286.578125 306.472656 286.820312 306.632812 287.09375 306.746094 C 287.367188 306.863281 287.652344 306.917969 287.945312 306.917969 Z M 287.945312 291.292969 L 301.339844 291.292969 L 301.339844 304.6875 L 287.945312 304.6875 Z M 213.917969 64.664062 C 214.765625 67.519531 215.925781 70.242188 217.402344 72.828125 C 218.414062 74.648438 219.289062 76.527344 220.035156 78.472656 C 220.433594 79.53125 220.707031 80.621094 220.859375 81.742188 C 221.011719 82.863281 221.039062 83.988281 220.9375 85.113281 C 220.835938 86.242188 220.613281 87.34375 220.265625 88.417969 C 219.917969 89.496094 219.457031 90.519531 218.878906 91.492188 C 218.726562 91.746094 218.628906 92.019531 218.585938 92.3125 C 218.542969 92.609375 218.558594 92.898438 218.628906 93.183594 C 218.703125 93.472656 218.828125 93.734375 219.003906 93.972656 C 219.183594 94.210938 219.398438 94.40625 219.652344 94.558594 C 219.90625 94.707031 220.183594 94.804688 220.476562 94.847656 C 220.769531 94.890625 221.058594 94.875 221.347656 94.800781 C 221.632812 94.726562 221.894531 94.601562 222.132812 94.425781 C 222.371094 94.246094 222.5625 94.03125 222.714844 93.773438 C 223.453125 92.515625 224.046875 91.195312 224.492188 89.804688 C 224.941406 88.417969 225.230469 86.996094 225.359375 85.542969 C 225.492188 84.09375 225.464844 82.644531 225.277344 81.195312 C 225.085938 79.75 224.742188 78.34375 224.242188 76.972656 C 223.425781 74.832031 222.464844 72.761719 221.359375 70.757812 C 220.042969 68.46875 219.003906 66.0625 218.238281 63.535156 C 217.921875 62.289062 217.785156 61.019531 217.832031 59.734375 C 217.878906 58.445312 218.105469 57.191406 218.507812 55.96875 C 218.910156 54.746094 219.480469 53.605469 220.210938 52.546875 C 220.9375 51.484375 221.804688 50.546875 222.800781 49.734375 C 223.03125 49.550781 223.21875 49.328125 223.363281 49.070312 C 223.507812 48.808594 223.59375 48.53125 223.628906 48.238281 C 223.660156 47.945312 223.636719 47.652344 223.554688 47.371094 C 223.472656 47.085938 223.335938 46.828125 223.152344 46.59375 C 222.96875 46.363281 222.746094 46.175781 222.484375 46.035156 C 222.226562 45.890625 221.949219 45.804688 221.65625 45.769531 C 221.359375 45.738281 221.070312 45.761719 220.785156 45.84375 C 220.503906 45.929688 220.246094 46.0625 220.011719 46.246094 C 219.351562 46.785156 218.730469 47.371094 218.148438 48 C 217.570312 48.628906 217.039062 49.292969 216.554688 50 C 216.070312 50.703125 215.636719 51.4375 215.253906 52.203125 C 214.875 52.96875 214.550781 53.757812 214.28125 54.566406 C 214.015625 55.378906 213.804688 56.207031 213.652344 57.046875 C 213.5 57.886719 213.410156 58.738281 213.378906 59.589844 C 213.347656 60.445312 213.378906 61.296875 213.46875 62.148438 C 213.558594 62.996094 213.710938 63.835938 213.917969 64.664062 Z M 213.917969 64.664062 " fill-opacity="1" fill-rule="nonzero"/><path fill="#2d4356" d="M 207.175781 72.828125 C 208.183594 74.648438 209.0625 76.527344 209.808594 78.472656 C 210.207031 79.53125 210.480469 80.621094 210.632812 81.742188 C 210.785156 82.863281 210.808594 83.988281 210.710938 85.113281 C 210.609375 86.242188 210.386719 87.34375 210.039062 88.417969 C 209.691406 89.496094 209.226562 90.519531 208.652344 91.492188 C 208.5 91.746094 208.402344 92.019531 208.359375 92.3125 C 208.316406 92.605469 208.332031 92.894531 208.40625 93.183594 C 208.476562 93.46875 208.601562 93.730469 208.78125 93.96875 C 208.957031 94.207031 209.171875 94.402344 209.425781 94.550781 C 209.683594 94.703125 209.957031 94.800781 210.25 94.84375 C 210.542969 94.886719 210.832031 94.871094 211.117188 94.796875 C 211.40625 94.722656 211.667969 94.597656 211.90625 94.421875 C 212.140625 94.246094 212.335938 94.027344 212.488281 93.773438 C 213.226562 92.515625 213.820312 91.195312 214.265625 89.804688 C 214.710938 88.417969 215 86.996094 215.132812 85.542969 C 215.265625 84.09375 215.238281 82.644531 215.046875 81.195312 C 214.859375 79.75 214.515625 78.34375 214.011719 76.972656 C 213.199219 74.832031 212.238281 72.761719 211.132812 70.757812 C 209.816406 68.46875 208.777344 66.0625 208.011719 63.535156 C 207.695312 62.289062 207.558594 61.019531 207.605469 59.734375 C 207.652344 58.445312 207.875 57.191406 208.28125 55.96875 C 208.683594 54.746094 209.25 53.605469 209.980469 52.546875 C 210.710938 51.484375 211.574219 50.546875 212.574219 49.734375 C 212.804688 49.550781 212.988281 49.328125 213.132812 49.066406 C 213.273438 48.808594 213.363281 48.53125 213.394531 48.238281 C 213.425781 47.945312 213.402344 47.65625 213.320312 47.371094 C 213.238281 47.089844 213.105469 46.832031 212.917969 46.601562 C 212.734375 46.367188 212.511719 46.183594 212.253906 46.039062 C 211.996094 45.894531 211.71875 45.808594 211.425781 45.773438 C 211.132812 45.742188 210.84375 45.765625 210.558594 45.847656 C 210.273438 45.929688 210.015625 46.0625 209.785156 46.246094 C 209.121094 46.785156 208.5 47.371094 207.921875 48 C 207.34375 48.628906 206.8125 49.292969 206.324219 50 C 205.839844 50.703125 205.410156 51.4375 205.027344 52.203125 C 204.648438 52.96875 204.324219 53.757812 204.054688 54.566406 C 203.785156 55.378906 203.574219 56.207031 203.425781 57.046875 C 203.273438 57.886719 203.183594 58.738281 203.152344 59.589844 C 203.121094 60.445312 203.152344 61.296875 203.242188 62.148438 C 203.332031 62.996094 203.480469 63.835938 203.691406 64.664062 C 204.539062 67.519531 205.699219 70.242188 207.175781 72.828125 Z M 270.089844 119.417969 C 270.382812 119.417969 270.671875 119.390625 270.960938 119.332031 C 271.246094 119.277344 271.527344 119.191406 271.796875 119.078125 C 272.070312 118.96875 272.324219 118.832031 272.570312 118.667969 C 272.8125 118.503906 273.039062 118.320312 273.246094 118.113281 C 273.453125 117.90625 273.636719 117.679688 273.800781 117.4375 C 273.964844 117.191406 274.101562 116.933594 274.214844 116.664062 C 274.324219 116.394531 274.410156 116.113281 274.46875 115.828125 C 274.523438 115.539062 274.554688 115.25 274.554688 114.957031 C 274.554688 114.664062 274.523438 114.371094 274.46875 114.085938 C 274.410156 113.796875 274.324219 113.519531 274.214844 113.246094 C 274.101562 112.976562 273.964844 112.71875 273.800781 112.476562 C 273.636719 112.230469 273.453125 112.007812 273.246094 111.796875 C 273.039062 111.589844 272.8125 111.40625 272.570312 111.242188 C 272.324219 111.082031 272.070312 110.941406 271.796875 110.832031 C 271.527344 110.71875 271.246094 110.632812 270.960938 110.578125 C 270.671875 110.519531 270.382812 110.492188 270.089844 110.492188 C 269.796875 110.492188 269.503906 110.519531 269.21875 110.578125 C 268.929688 110.632812 268.652344 110.71875 268.378906 110.832031 C 268.109375 110.941406 267.851562 111.082031 267.609375 111.242188 C 267.367188 111.40625 267.140625 111.589844 266.933594 111.796875 C 266.726562 112.007812 266.539062 112.230469 266.378906 112.476562 C 266.214844 112.71875 266.078125 112.976562 265.964844 113.246094 C 265.851562 113.519531 265.769531 113.796875 265.710938 114.085938 C 265.652344 114.371094 265.625 114.664062 265.625 114.957031 C 265.625 115.25 265.652344 115.539062 265.710938 115.824219 C 265.769531 116.113281 265.855469 116.390625 265.964844 116.664062 C 266.078125 116.933594 266.214844 117.191406 266.378906 117.433594 C 266.542969 117.679688 266.726562 117.902344 266.933594 118.109375 C 267.140625 118.316406 267.367188 118.503906 267.609375 118.664062 C 267.855469 118.828125 268.109375 118.964844 268.382812 119.078125 C 268.652344 119.191406 268.929688 119.277344 269.21875 119.332031 C 269.507812 119.390625 269.796875 119.417969 270.089844 119.417969 Z M 270.089844 112.722656 C 270.386719 112.722656 270.671875 112.78125 270.945312 112.894531 C 271.21875 113.007812 271.457031 113.167969 271.667969 113.378906 C 271.875 113.585938 272.039062 113.828125 272.152344 114.101562 C 272.265625 114.375 272.320312 114.660156 272.320312 114.957031 C 272.320312 115.25 272.265625 115.535156 272.152344 115.808594 C 272.039062 116.082031 271.875 116.324219 271.667969 116.535156 C 271.457031 116.742188 271.21875 116.902344 270.945312 117.015625 C 270.671875 117.128906 270.386719 117.1875 270.089844 117.1875 C 269.792969 117.1875 269.507812 117.128906 269.234375 117.015625 C 268.960938 116.902344 268.71875 116.742188 268.511719 116.535156 C 268.300781 116.324219 268.140625 116.082031 268.027344 115.808594 C 267.914062 115.535156 267.855469 115.25 267.855469 114.957031 C 267.855469 114.660156 267.914062 114.375 268.027344 114.101562 C 268.140625 113.828125 268.300781 113.585938 268.511719 113.378906 C 268.722656 113.167969 268.960938 113.007812 269.234375 112.894531 C 269.507812 112.78125 269.792969 112.722656 270.089844 112.722656 Z M 151.785156 18.972656 C 152.226562 18.972656 152.660156 18.929688 153.09375 18.84375 C 153.523438 18.757812 153.941406 18.632812 154.347656 18.464844 C 154.753906 18.296875 155.140625 18.089844 155.507812 17.84375 C 155.871094 17.601562 156.210938 17.324219 156.519531 17.011719 C 156.832031 16.699219 157.109375 16.363281 157.355469 15.996094 C 157.597656 15.632812 157.804688 15.246094 157.972656 14.839844 C 158.140625 14.433594 158.269531 14.015625 158.351562 13.582031 C 158.4375 13.152344 158.480469 12.714844 158.480469 12.277344 C 158.480469 11.835938 158.4375 11.402344 158.351562 10.96875 C 158.269531 10.539062 158.140625 10.121094 157.972656 9.714844 C 157.804688 9.308594 157.597656 8.921875 157.355469 8.554688 C 157.109375 8.191406 156.832031 7.851562 156.519531 7.542969 C 156.210938 7.230469 155.871094 6.953125 155.507812 6.707031 C 155.140625 6.464844 154.753906 6.257812 154.347656 6.089844 C 153.941406 5.921875 153.523438 5.792969 153.09375 5.710938 C 152.660156 5.625 152.226562 5.582031 151.785156 5.582031 C 151.347656 5.582031 150.910156 5.625 150.480469 5.710938 C 150.046875 5.792969 149.628906 5.921875 149.222656 6.089844 C 148.816406 6.257812 148.429688 6.464844 148.066406 6.707031 C 147.699219 6.953125 147.363281 7.230469 147.050781 7.542969 C 146.738281 7.851562 146.460938 8.191406 146.21875 8.554688 C 145.972656 8.921875 145.765625 9.308594 145.597656 9.714844 C 145.429688 10.121094 145.304688 10.539062 145.21875 10.96875 C 145.132812 11.402344 145.089844 11.835938 145.089844 12.277344 C 145.089844 12.714844 145.132812 13.152344 145.21875 13.582031 C 145.304688 14.015625 145.433594 14.433594 145.601562 14.839844 C 145.769531 15.246094 145.976562 15.628906 146.21875 15.996094 C 146.464844 16.359375 146.742188 16.699219 147.054688 17.007812 C 147.363281 17.320312 147.703125 17.597656 148.066406 17.84375 C 148.433594 18.085938 148.816406 18.292969 149.222656 18.460938 C 149.628906 18.628906 150.046875 18.757812 150.480469 18.84375 C 150.910156 18.929688 151.347656 18.972656 151.785156 18.972656 Z M 151.785156 8.929688 C 152.230469 8.929688 152.65625 9.011719 153.066406 9.183594 C 153.476562 9.351562 153.839844 9.59375 154.152344 9.910156 C 154.46875 10.222656 154.710938 10.585938 154.878906 10.996094 C 155.050781 11.40625 155.132812 11.832031 155.132812 12.277344 C 155.132812 12.722656 155.050781 13.148438 154.878906 13.558594 C 154.710938 13.96875 154.46875 14.332031 154.152344 14.644531 C 153.839844 14.957031 153.476562 15.199219 153.066406 15.371094 C 152.65625 15.539062 152.230469 15.625 151.785156 15.625 C 151.339844 15.625 150.914062 15.539062 150.503906 15.371094 C 150.09375 15.199219 149.730469 14.957031 149.417969 14.644531 C 149.105469 14.332031 148.863281 13.96875 148.691406 13.558594 C 148.523438 13.148438 148.4375 12.722656 148.4375 12.277344 C 148.4375 11.832031 148.523438 11.40625 148.691406 10.996094 C 148.863281 10.585938 149.105469 10.222656 149.417969 9.910156 C 149.734375 9.597656 150.09375 9.355469 150.503906 9.183594 C 150.914062 9.015625 151.34375 8.929688 151.785156 8.929688 Z M 214.285156 14.507812 C 214.582031 14.507812 214.867188 14.453125 215.140625 14.339844 C 215.414062 14.226562 215.65625 14.0625 215.863281 13.855469 C 216.074219 13.644531 216.234375 13.40625 216.347656 13.132812 C 216.460938 12.859375 216.519531 12.574219 216.519531 12.277344 C 216.519531 11.980469 216.460938 11.695312 216.347656 11.421875 C 216.234375 11.148438 216.074219 10.90625 215.863281 10.699219 C 215.65625 10.488281 215.414062 10.328125 215.140625 10.214844 C 214.867188 10.101562 214.582031 10.042969 214.285156 10.042969 C 213.988281 10.042969 213.703125 10.101562 213.429688 10.214844 C 213.15625 10.328125 212.917969 10.488281 212.707031 10.699219 C 212.496094 10.90625 212.335938 11.148438 212.222656 11.421875 C 212.109375 11.695312 212.054688 11.980469 212.054688 12.277344 C 212.054688 12.574219 212.109375 12.855469 212.222656 13.128906 C 212.335938 13.402344 212.5 13.644531 212.707031 13.855469 C 212.917969 14.0625 213.160156 14.226562 213.433594 14.339844 C 213.707031 14.453125 213.988281 14.507812 214.285156 14.507812 Z M 214.285156 11.160156 C 214.433594 11.160156 214.574219 11.1875 214.710938 11.246094 C 214.847656 11.300781 214.96875 11.382812 215.074219 11.488281 C 215.179688 11.59375 215.261719 11.714844 215.316406 11.851562 C 215.375 11.988281 215.402344 12.128906 215.402344 12.277344 C 215.402344 12.425781 215.375 12.566406 215.316406 12.703125 C 215.261719 12.839844 215.179688 12.960938 215.074219 13.066406 C 214.96875 13.171875 214.847656 13.25 214.710938 13.308594 C 214.574219 13.363281 214.433594 13.394531 214.285156 13.394531 C 214.136719 13.394531 213.996094 13.363281 213.859375 13.308594 C 213.722656 13.25 213.601562 13.171875 213.496094 13.066406 C 213.390625 12.960938 213.3125 12.839844 213.253906 12.703125 C 213.199219 12.566406 213.167969 12.425781 213.167969 12.277344 C 213.167969 12.128906 213.199219 11.988281 213.253906 11.851562 C 213.3125 11.714844 213.390625 11.59375 213.496094 11.488281 C 213.601562 11.382812 213.722656 11.300781 213.859375 11.246094 C 213.996094 11.1875 214.136719 11.160156 214.285156 11.160156 Z M 232.144531 39.0625 C 232.4375 39.0625 232.726562 39.035156 233.015625 38.976562 C 233.300781 38.917969 233.582031 38.835938 233.851562 38.722656 C 234.121094 38.609375 234.378906 38.472656 234.625 38.308594 C 234.867188 38.148438 235.09375 37.960938 235.300781 37.753906 C 235.507812 37.546875 235.691406 37.320312 235.855469 37.078125 C 236.015625 36.835938 236.15625 36.578125 236.265625 36.304688 C 236.378906 36.035156 236.464844 35.757812 236.519531 35.46875 C 236.578125 35.183594 236.605469 34.890625 236.605469 34.597656 C 236.605469 34.304688 236.578125 34.015625 236.519531 33.726562 C 236.464844 33.441406 236.378906 33.160156 236.265625 32.890625 C 236.15625 32.617188 236.015625 32.363281 235.855469 32.117188 C 235.691406 31.875 235.507812 31.648438 235.300781 31.441406 C 235.09375 31.234375 234.867188 31.050781 234.621094 30.886719 C 234.378906 30.722656 234.121094 30.585938 233.851562 30.472656 C 233.582031 30.363281 233.300781 30.277344 233.015625 30.21875 C 232.726562 30.164062 232.4375 30.132812 232.144531 30.132812 C 231.851562 30.132812 231.558594 30.164062 231.273438 30.21875 C 230.984375 30.277344 230.707031 30.363281 230.433594 30.472656 C 230.164062 30.585938 229.90625 30.722656 229.664062 30.886719 C 229.417969 31.050781 229.195312 31.234375 228.984375 31.441406 C 228.777344 31.648438 228.59375 31.875 228.429688 32.117188 C 228.269531 32.363281 228.128906 32.617188 228.019531 32.890625 C 227.90625 33.160156 227.820312 33.441406 227.765625 33.726562 C 227.707031 34.015625 227.679688 34.304688 227.679688 34.597656 C 227.679688 34.890625 227.707031 35.179688 227.765625 35.46875 C 227.824219 35.757812 227.90625 36.035156 228.019531 36.304688 C 228.132812 36.578125 228.269531 36.832031 228.433594 37.078125 C 228.59375 37.320312 228.78125 37.546875 228.988281 37.753906 C 229.195312 37.960938 229.421875 38.144531 229.664062 38.308594 C 229.90625 38.472656 230.164062 38.609375 230.433594 38.722656 C 230.707031 38.832031 230.984375 38.917969 231.273438 38.976562 C 231.558594 39.035156 231.851562 39.0625 232.144531 39.0625 Z M 232.144531 32.367188 C 232.4375 32.367188 232.722656 32.421875 232.996094 32.535156 C 233.269531 32.648438 233.511719 32.808594 233.722656 33.019531 C 233.929688 33.230469 234.089844 33.46875 234.203125 33.742188 C 234.316406 34.015625 234.375 34.300781 234.375 34.597656 C 234.375 34.894531 234.316406 35.179688 234.203125 35.453125 C 234.089844 35.726562 233.929688 35.96875 233.722656 36.175781 C 233.511719 36.386719 233.269531 36.546875 232.996094 36.660156 C 232.722656 36.773438 232.4375 36.832031 232.144531 36.832031 C 231.847656 36.832031 231.5625 36.773438 231.289062 36.660156 C 231.015625 36.546875 230.773438 36.386719 230.566406 36.175781 C 230.355469 35.96875 230.195312 35.726562 230.082031 35.453125 C 229.96875 35.179688 229.910156 34.894531 229.910156 34.597656 C 229.910156 34.300781 229.96875 34.019531 230.082031 33.746094 C 230.195312 33.472656 230.355469 33.230469 230.566406 33.019531 C 230.773438 32.8125 231.015625 32.648438 231.289062 32.535156 C 231.5625 32.421875 231.847656 32.367188 232.144531 32.367188 Z M 15.625 106.027344 C 15.625 105.734375 15.597656 105.441406 15.539062 105.15625 C 15.480469 104.867188 15.398438 104.589844 15.285156 104.320312 C 15.171875 104.046875 15.035156 103.789062 14.871094 103.546875 C 14.710938 103.304688 14.523438 103.078125 14.316406 102.871094 C 14.109375 102.664062 13.882812 102.476562 13.640625 102.316406 C 13.398438 102.152344 13.140625 102.015625 12.867188 101.902344 C 12.597656 101.789062 12.320312 101.707031 12.03125 101.648438 C 11.746094 101.589844 11.453125 101.5625 11.160156 101.5625 C 10.867188 101.5625 10.578125 101.589844 10.289062 101.648438 C 10.003906 101.707031 9.722656 101.789062 9.453125 101.902344 C 9.179688 102.015625 8.925781 102.152344 8.679688 102.316406 C 8.4375 102.476562 8.210938 102.664062 8.003906 102.871094 C 7.796875 103.078125 7.613281 103.304688 7.449219 103.546875 C 7.285156 103.789062 7.148438 104.046875 7.035156 104.316406 C 6.925781 104.589844 6.839844 104.867188 6.78125 105.15625 C 6.726562 105.441406 6.695312 105.734375 6.695312 106.027344 C 6.695312 106.320312 6.726562 106.609375 6.78125 106.898438 C 6.839844 107.183594 6.925781 107.464844 7.035156 107.734375 C 7.148438 108.007812 7.285156 108.261719 7.449219 108.507812 C 7.613281 108.75 7.796875 108.976562 8.003906 109.183594 C 8.210938 109.390625 8.4375 109.574219 8.679688 109.738281 C 8.925781 109.902344 9.179688 110.039062 9.453125 110.152344 C 9.722656 110.261719 10.003906 110.347656 10.289062 110.40625 C 10.578125 110.460938 10.867188 110.492188 11.160156 110.492188 C 11.453125 110.492188 11.742188 110.460938 12.03125 110.40625 C 12.320312 110.347656 12.597656 110.261719 12.867188 110.148438 C 13.140625 110.039062 13.394531 109.898438 13.640625 109.738281 C 13.882812 109.574219 14.109375 109.390625 14.316406 109.183594 C 14.523438 108.976562 14.707031 108.75 14.871094 108.503906 C 15.035156 108.261719 15.171875 108.003906 15.285156 107.734375 C 15.394531 107.464844 15.480469 107.183594 15.539062 106.898438 C 15.597656 106.609375 15.625 106.320312 15.625 106.027344 Z M 8.929688 106.027344 C 8.929688 105.730469 8.984375 105.445312 9.097656 105.171875 C 9.210938 104.898438 9.375 104.65625 9.582031 104.449219 C 9.792969 104.238281 10.03125 104.078125 10.304688 103.964844 C 10.578125 103.851562 10.863281 103.792969 11.160156 103.792969 C 11.457031 103.792969 11.742188 103.851562 12.015625 103.964844 C 12.289062 104.078125 12.53125 104.238281 12.738281 104.449219 C 12.949219 104.65625 13.109375 104.898438 13.222656 105.171875 C 13.335938 105.445312 13.394531 105.730469 13.394531 106.027344 C 13.394531 106.324219 13.335938 106.609375 13.222656 106.882812 C 13.109375 107.15625 12.949219 107.394531 12.738281 107.605469 C 12.53125 107.8125 12.289062 107.976562 12.015625 108.089844 C 11.742188 108.203125 11.457031 108.257812 11.160156 108.257812 C 10.863281 108.257812 10.582031 108.203125 10.308594 108.089844 C 10.035156 107.976562 9.792969 107.8125 9.582031 107.605469 C 9.375 107.394531 9.210938 107.152344 9.097656 106.878906 C 8.984375 106.605469 8.929688 106.324219 8.929688 106.027344 Z M 8.929688 106.027344 " fill-opacity="1" fill-rule="nonzero"/><path fill="#2d4356" d="M 339.285156 323.660156 L 330.355469 323.660156 L 330.355469 320.3125 C 330.355469 320.019531 330.328125 319.730469 330.269531 319.441406 C 330.210938 319.15625 330.125 318.875 330.015625 318.605469 C 329.902344 318.335938 329.765625 318.078125 329.601562 317.835938 C 329.4375 317.59375 329.253906 317.367188 329.046875 317.160156 C 328.839844 316.953125 328.613281 316.765625 328.371094 316.605469 C 328.125 316.441406 327.871094 316.304688 327.597656 316.191406 C 327.328125 316.078125 327.050781 315.992188 326.761719 315.9375 C 326.476562 315.878906 326.1875 315.847656 325.894531 315.847656 L 316.964844 315.847656 L 316.964844 131.71875 C 316.980469 131.5 316.976562 131.285156 316.949219 131.070312 C 316.917969 130.851562 316.867188 130.640625 316.796875 130.4375 C 316.722656 130.230469 316.632812 130.035156 316.519531 129.851562 C 316.40625 129.664062 316.273438 129.492188 316.125 129.332031 C 315.976562 129.175781 315.8125 129.03125 315.632812 128.90625 C 315.453125 128.785156 315.265625 128.679688 315.0625 128.59375 C 314.863281 128.507812 314.65625 128.445312 314.441406 128.40625 C 314.226562 128.363281 314.011719 128.34375 313.792969 128.347656 C 313.398438 128.34375 313.011719 128.402344 312.632812 128.527344 L 234.375 152.632812 L 234.375 131.585938 C 234.34375 130.949219 234.21875 130.332031 234 129.734375 C 233.78125 129.136719 233.476562 128.582031 233.089844 128.078125 C 232.703125 127.570312 232.25 127.132812 231.730469 126.765625 C 231.210938 126.398438 230.648438 126.113281 230.042969 125.914062 L 225.445312 124.621094 L 225.445312 101.5625 L 227.679688 101.5625 C 227.972656 101.5625 228.257812 101.503906 228.53125 101.390625 C 228.804688 101.277344 229.046875 101.117188 229.257812 100.910156 C 229.464844 100.699219 229.628906 100.457031 229.742188 100.183594 C 229.855469 99.910156 229.910156 99.625 229.910156 99.332031 C 229.910156 99.035156 229.855469 98.75 229.742188 98.476562 C 229.628906 98.203125 229.464844 97.960938 229.257812 97.753906 C 229.046875 97.542969 228.804688 97.382812 228.53125 97.269531 C 228.257812 97.15625 227.972656 97.097656 227.679688 97.097656 L 203.125 97.097656 C 202.828125 97.097656 202.542969 97.15625 202.269531 97.269531 C 201.996094 97.382812 201.757812 97.542969 201.546875 97.753906 C 201.335938 97.960938 201.175781 98.203125 201.0625 98.476562 C 200.949219 98.75 200.894531 99.035156 200.894531 99.332031 C 200.894531 99.625 200.949219 99.910156 201.0625 100.183594 C 201.175781 100.457031 201.335938 100.699219 201.546875 100.910156 C 201.757812 101.117188 201.996094 101.277344 202.269531 101.390625 C 202.542969 101.503906 202.828125 101.5625 203.125 101.5625 L 205.355469 101.5625 L 205.355469 118.90625 L 144.957031 101.742188 C 144.578125 101.617188 144.191406 101.558594 143.792969 101.5625 C 143.578125 101.558594 143.359375 101.578125 143.148438 101.621094 C 142.933594 101.660156 142.726562 101.722656 142.527344 101.808594 C 142.324219 101.894531 142.136719 101.996094 141.957031 102.121094 C 141.777344 102.246094 141.613281 102.386719 141.464844 102.546875 C 141.316406 102.707031 141.183594 102.878906 141.070312 103.0625 C 140.957031 103.25 140.863281 103.445312 140.792969 103.652344 C 140.71875 103.855469 140.671875 104.066406 140.640625 104.285156 C 140.613281 104.5 140.609375 104.714844 140.625 104.933594 L 140.625 152.632812 L 62.367188 128.527344 C 61.988281 128.402344 61.601562 128.34375 61.207031 128.347656 C 60.988281 128.34375 60.773438 128.363281 60.558594 128.40625 C 60.34375 128.445312 60.136719 128.507812 59.9375 128.59375 C 59.734375 128.679688 59.546875 128.785156 59.367188 128.90625 C 59.1875 129.03125 59.023438 129.175781 58.875 129.332031 C 58.726562 129.492188 58.59375 129.664062 58.480469 129.851562 C 58.367188 130.035156 58.277344 130.230469 58.203125 130.4375 C 58.132812 130.640625 58.082031 130.851562 58.050781 131.070312 C 58.023438 131.285156 58.019531 131.5 58.035156 131.71875 L 58.035156 315.847656 L 49.105469 315.847656 C 48.8125 315.847656 48.523438 315.878906 48.238281 315.9375 C 47.949219 315.992188 47.671875 316.078125 47.402344 316.191406 C 47.128906 316.304688 46.875 316.441406 46.628906 316.605469 C 46.386719 316.765625 46.160156 316.953125 45.953125 317.160156 C 45.746094 317.367188 45.5625 317.59375 45.398438 317.835938 C 45.238281 318.078125 45.097656 318.335938 44.984375 318.605469 C 44.875 318.875 44.789062 319.15625 44.730469 319.441406 C 44.671875 319.730469 44.644531 320.019531 44.644531 320.3125 L 44.644531 323.660156 L 35.714844 323.660156 C 35.417969 323.660156 35.132812 323.71875 34.859375 323.832031 C 34.585938 323.945312 34.34375 324.105469 34.136719 324.316406 C 33.925781 324.523438 33.765625 324.765625 33.652344 325.039062 C 33.539062 325.3125 33.480469 325.597656 33.480469 325.894531 C 33.480469 326.1875 33.539062 326.472656 33.652344 326.746094 C 33.765625 327.019531 33.925781 327.261719 34.136719 327.472656 C 34.34375 327.679688 34.585938 327.839844 34.859375 327.953125 C 35.132812 328.066406 35.417969 328.125 35.714844 328.125 L 339.285156 328.125 C 339.582031 328.125 339.867188 328.066406 340.140625 327.953125 C 340.414062 327.839844 340.65625 327.679688 340.863281 327.472656 C 341.074219 327.261719 341.234375 327.019531 341.347656 326.746094 C 341.460938 326.472656 341.519531 326.1875 341.519531 325.894531 C 341.519531 325.597656 341.460938 325.3125 341.347656 325.039062 C 341.234375 324.765625 341.074219 324.523438 340.863281 324.316406 C 340.65625 324.105469 340.414062 323.945312 340.140625 323.832031 C 339.867188 323.71875 339.582031 323.660156 339.285156 323.660156 Z M 234.375 158.347656 C 234.441406 158.027344 234.578125 157.746094 234.789062 157.496094 C 234.996094 157.246094 235.253906 157.0625 235.558594 156.941406 L 312.5 133.238281 L 312.5 150.132812 L 234.375 171.832031 Z M 234.375 172.992188 L 234.664062 174.0625 L 312.5 152.457031 L 312.5 167.992188 L 234.375 189.6875 Z M 234.375 190.847656 L 234.664062 191.917969 L 312.5 170.3125 L 312.5 315.847656 L 254.464844 315.847656 L 254.464844 235.492188 C 254.464844 235.199219 254.433594 234.90625 254.375 234.621094 C 254.320312 234.332031 254.234375 234.054688 254.121094 233.785156 C 254.007812 233.515625 253.871094 233.257812 253.707031 233.015625 C 253.546875 232.769531 253.359375 232.546875 253.152344 232.339844 C 252.945312 232.132812 252.71875 231.945312 252.476562 231.78125 C 252.234375 231.621094 251.976562 231.484375 251.707031 231.371094 C 251.4375 231.257812 251.15625 231.171875 250.871094 231.113281 C 250.582031 231.058594 250.292969 231.027344 250 231.027344 L 234.375 231.027344 Z M 209.820312 101.5625 L 220.980469 101.5625 L 220.980469 123.347656 L 209.820312 120.179688 Z M 145.089844 106.40625 L 228.816406 130.222656 C 229.417969 130.488281 229.78125 130.941406 229.910156 131.585938 L 229.910156 231.027344 L 145.089844 231.027344 Z M 250 235.492188 L 250 315.847656 L 212.054688 315.847656 L 212.054688 269.175781 C 212.066406 268.734375 212.039062 268.300781 211.964844 267.867188 C 211.894531 267.433594 211.78125 267.011719 211.625 266.601562 C 211.46875 266.1875 211.277344 265.796875 211.042969 265.425781 C 210.8125 265.050781 210.542969 264.707031 210.246094 264.386719 C 209.945312 264.066406 209.613281 263.777344 209.257812 263.523438 C 208.902344 263.265625 208.523438 263.046875 208.121094 262.867188 C 207.722656 262.6875 207.308594 262.546875 206.878906 262.445312 C 206.453125 262.347656 206.019531 262.289062 205.582031 262.277344 L 169.417969 262.277344 C 168.980469 262.289062 168.546875 262.347656 168.121094 262.445312 C 167.691406 262.546875 167.277344 262.6875 166.878906 262.867188 C 166.476562 263.046875 166.097656 263.265625 165.742188 263.523438 C 165.386719 263.777344 165.054688 264.066406 164.753906 264.386719 C 164.457031 264.707031 164.1875 265.050781 163.957031 265.425781 C 163.722656 265.796875 163.53125 266.1875 163.375 266.601562 C 163.21875 267.011719 163.105469 267.433594 163.035156 267.867188 C 162.960938 268.300781 162.933594 268.734375 162.945312 269.175781 L 162.945312 299.84375 C 162.945312 300.140625 163.003906 300.425781 163.117188 300.699219 C 163.230469 300.972656 163.390625 301.210938 163.601562 301.421875 C 163.808594 301.632812 164.050781 301.792969 164.324219 301.90625 C 164.597656 302.019531 164.882812 302.074219 165.179688 302.074219 C 165.472656 302.074219 165.757812 302.019531 166.03125 301.90625 C 166.304688 301.792969 166.546875 301.632812 166.757812 301.421875 C 166.964844 301.210938 167.128906 300.972656 167.242188 300.699219 C 167.355469 300.425781 167.410156 300.140625 167.410156 299.84375 L 167.410156 269.175781 C 167.386719 268.878906 167.417969 268.59375 167.507812 268.3125 C 167.597656 268.03125 167.734375 267.777344 167.921875 267.550781 C 168.109375 267.324219 168.332031 267.140625 168.59375 267 C 168.851562 266.859375 169.125 266.773438 169.417969 266.742188 L 205.582031 266.742188 C 205.875 266.773438 206.148438 266.859375 206.40625 267 C 206.667969 267.140625 206.890625 267.324219 207.078125 267.550781 C 207.265625 267.777344 207.402344 268.03125 207.492188 268.3125 C 207.582031 268.59375 207.613281 268.878906 207.589844 269.175781 L 207.589844 315.847656 L 125 315.847656 L 125 235.492188 Z M 62.5 133.238281 L 139.53125 156.964844 C 140.132812 157.238281 140.496094 157.699219 140.625 158.347656 L 140.625 171.832031 L 62.5 150.132812 Z M 62.5 152.457031 L 140.335938 174.0625 L 140.625 172.992188 L 140.625 189.6875 L 62.5 167.992188 Z M 62.5 170.3125 L 140.335938 191.917969 L 140.625 190.847656 L 140.625 231.027344 L 125 231.027344 C 124.707031 231.027344 124.417969 231.058594 124.128906 231.113281 C 123.84375 231.171875 123.5625 231.257812 123.292969 231.371094 C 123.023438 231.484375 122.765625 231.621094 122.523438 231.78125 C 122.28125 231.945312 122.054688 232.132812 121.847656 232.339844 C 121.640625 232.546875 121.453125 232.769531 121.292969 233.015625 C 121.128906 233.257812 120.992188 233.515625 120.878906 233.785156 C 120.765625 234.054688 120.679688 234.332031 120.625 234.621094 C 120.566406 234.90625 120.535156 235.199219 120.535156 235.492188 L 120.535156 315.847656 L 62.5 315.847656 Z M 49.105469 320.3125 L 325.894531 320.3125 L 325.894531 323.660156 L 49.105469 323.660156 Z M 24.554688 323.660156 L 13.394531 323.660156 C 13.097656 323.660156 12.8125 323.71875 12.539062 323.832031 C 12.265625 323.945312 12.023438 324.105469 11.816406 324.316406 C 11.605469 324.523438 11.445312 324.765625 11.332031 325.039062 C 11.21875 325.3125 11.160156 325.597656 11.160156 325.894531 C 11.160156 326.1875 11.21875 326.472656 11.332031 326.746094 C 11.445312 327.019531 11.605469 327.261719 11.816406 327.472656 C 12.023438 327.679688 12.265625 327.839844 12.539062 327.953125 C 12.8125 328.066406 13.097656 328.125 13.394531 328.125 L 24.554688 328.125 C 24.847656 328.125 25.132812 328.066406 25.40625 327.953125 C 25.679688 327.839844 25.921875 327.679688 26.132812 327.472656 C 26.339844 327.261719 26.503906 327.019531 26.617188 326.746094 C 26.730469 326.472656 26.785156 326.1875 26.785156 325.894531 C 26.785156 325.597656 26.730469 325.3125 26.617188 325.039062 C 26.503906 324.765625 26.339844 324.523438 26.132812 324.316406 C 25.921875 324.105469 25.679688 323.945312 25.40625 323.832031 C 25.132812 323.71875 24.847656 323.660156 24.554688 323.660156 Z M 24.554688 323.660156 " fill-opacity="1" fill-rule="nonzero"/><path fill="#2d4356" d="M 4.464844 325.894531 C 4.464844 326.1875 4.40625 326.472656 4.292969 326.746094 C 4.179688 327.019531 4.019531 327.261719 3.808594 327.472656 C 3.601562 327.679688 3.359375 327.839844 3.085938 327.953125 C 2.8125 328.066406 2.527344 328.125 2.230469 328.125 C 1.9375 328.125 1.652344 328.066406 1.378906 327.953125 C 1.105469 327.839844 0.863281 327.679688 0.652344 327.472656 C 0.445312 327.261719 0.28125 327.019531 0.167969 326.746094 C 0.0585938 326.472656 0 326.1875 0 325.894531 C 0 325.597656 0.0585938 325.3125 0.167969 325.039062 C 0.28125 324.765625 0.445312 324.523438 0.652344 324.316406 C 0.863281 324.105469 1.105469 323.945312 1.378906 323.832031 C 1.652344 323.71875 1.9375 323.660156 2.230469 323.660156 C 2.527344 323.660156 2.8125 323.71875 3.085938 323.832031 C 3.359375 323.945312 3.601562 324.105469 3.808594 324.316406 C 4.019531 324.523438 4.179688 324.765625 4.292969 325.039062 C 4.40625 325.3125 4.464844 325.597656 4.464844 325.894531 Z M 4.464844 325.894531 " fill-opacity="1" fill-rule="nonzero"/><path fill="#2d4356" d="M 361.605469 323.660156 L 350.445312 323.660156 C 350.148438 323.660156 349.867188 323.71875 349.59375 323.832031 C 349.320312 323.945312 349.078125 324.105469 348.867188 324.316406 C 348.660156 324.523438 348.496094 324.765625 348.382812 325.039062 C 348.269531 325.3125 348.214844 325.597656 348.214844 325.894531 C 348.214844 326.1875 348.269531 326.472656 348.382812 326.746094 C 348.496094 327.019531 348.660156 327.261719 348.867188 327.472656 C 349.078125 327.679688 349.320312 327.839844 349.59375 327.953125 C 349.867188 328.066406 350.148438 328.125 350.445312 328.125 L 361.605469 328.125 C 361.902344 328.125 362.1875 328.066406 362.460938 327.953125 C 362.734375 327.839844 362.976562 327.679688 363.183594 327.472656 C 363.394531 327.261719 363.554688 327.019531 363.667969 326.746094 C 363.78125 326.472656 363.839844 326.1875 363.839844 325.894531 C 363.839844 325.597656 363.78125 325.3125 363.667969 325.039062 C 363.554688 324.765625 363.394531 324.523438 363.183594 324.316406 C 362.976562 324.105469 362.734375 323.945312 362.460938 323.832031 C 362.1875 323.71875 361.902344 323.660156 361.605469 323.660156 Z M 361.605469 323.660156 " fill-opacity="1" fill-rule="nonzero"/><path fill="#2d4356" d="M 375 325.894531 C 375 326.1875 374.941406 326.472656 374.828125 326.746094 C 374.714844 327.019531 374.554688 327.261719 374.347656 327.472656 C 374.136719 327.679688 373.894531 327.839844 373.621094 327.953125 C 373.347656 328.066406 373.0625 328.125 372.769531 328.125 C 372.472656 328.125 372.1875 328.066406 371.914062 327.953125 C 371.640625 327.839844 371.398438 327.679688 371.191406 327.472656 C 370.980469 327.261719 370.820312 327.019531 370.707031 326.746094 C 370.59375 326.472656 370.535156 326.1875 370.535156 325.894531 C 370.535156 325.597656 370.59375 325.3125 370.707031 325.039062 C 370.820312 324.765625 370.980469 324.523438 371.191406 324.316406 C 371.398438 324.105469 371.640625 323.945312 371.914062 323.832031 C 372.1875 323.71875 372.472656 323.660156 372.769531 323.660156 C 373.0625 323.660156 373.347656 323.71875 373.621094 323.832031 C 373.894531 323.945312 374.136719 324.105469 374.347656 324.316406 C 374.554688 324.523438 374.714844 324.765625 374.828125 325.039062 C 374.941406 325.3125 375 325.597656 375 325.894531 Z M 375 325.894531 " fill-opacity="1" fill-rule="nonzero"/><path fill="#004aad" d="M 167.410156 309.152344 C 167.410156 309.449219 167.355469 309.734375 167.242188 310.007812 C 167.128906 310.28125 166.964844 310.519531 166.757812 310.730469 C 166.546875 310.9375 166.304688 311.101562 166.03125 311.214844 C 165.757812 311.328125 165.472656 311.382812 165.179688 311.382812 C 164.882812 311.382812 164.597656 311.328125 164.324219 311.214844 C 164.050781 311.101562 163.808594 310.9375 163.601562 310.730469 C 163.390625 310.519531 163.230469 310.28125 163.117188 310.007812 C 163.003906 309.734375 162.945312 309.449219 162.945312 309.152344 C 162.945312 308.855469 163.003906 308.570312 163.117188 308.296875 C 163.230469 308.023438 163.390625 307.78125 163.601562 307.574219 C 163.808594 307.363281 164.050781 307.203125 164.324219 307.089844 C 164.597656 306.976562 164.882812 306.917969 165.179688 306.917969 C 165.472656 306.917969 165.757812 306.976562 166.03125 307.089844 C 166.304688 307.203125 166.546875 307.363281 166.757812 307.574219 C 166.964844 307.78125 167.128906 308.023438 167.242188 308.296875 C 167.355469 308.570312 167.410156 308.855469 167.410156 309.152344 Z M 167.410156 309.152344 " fill-opacity="1" fill-rule="nonzero"/><path fill="#004aad" d="M 34.785156 14.535156 L 38.101562 10.167969 L 36.007812 8.980469 L 33.878906 13.871094 L 33.804688 13.871094 L 31.640625 9.015625 L 29.507812 10.238281 L 32.792969 14.5 L 32.792969 14.570312 L 27.660156 13.90625 L 27.660156 16.28125 L 32.828125 15.617188 L 32.828125 15.6875 L 29.507812 19.945312 L 31.5 21.207031 L 33.773438 16.28125 L 33.839844 16.28125 L 35.933594 21.167969 L 38.136719 19.914062 L 34.785156 15.722656 L 34.785156 15.652344 L 40.054688 16.28125 L 40.054688 13.90625 L 34.785156 14.601562 Z M 34.785156 14.535156 " fill-opacity="1" fill-rule="nonzero"/><path fill="#004aad" d="M 105.539062 43.695312 L 105.539062 43.652344 L 108.574219 44.019531 L 108.574219 42.648438 L 105.539062 43.050781 L 105.539062 43.011719 L 107.449219 40.496094 L 106.242188 39.816406 L 105.015625 42.628906 L 104.976562 42.628906 L 103.730469 39.832031 L 102.5 40.539062 L 104.394531 42.992188 L 104.394531 43.03125 L 101.433594 42.648438 L 101.433594 44.019531 L 104.414062 43.636719 L 104.414062 43.675781 L 102.5 46.128906 L 103.648438 46.851562 L 104.957031 44.019531 L 104.996094 44.019531 L 106.199219 46.832031 L 107.46875 46.109375 Z M 105.539062 43.695312 " fill-opacity="1" fill-rule="nonzero"/><path fill="#004aad" d="M 113.339844 101.710938 L 111.429688 104.164062 L 112.574219 104.886719 L 113.882812 102.054688 L 113.925781 102.054688 L 115.128906 104.867188 L 116.398438 104.144531 L 114.464844 101.730469 L 114.464844 101.691406 L 117.503906 102.054688 L 117.503906 100.683594 L 114.464844 101.085938 L 114.464844 101.046875 L 116.378906 98.535156 L 115.171875 97.851562 L 113.945312 100.664062 L 113.902344 100.664062 L 112.660156 97.867188 L 111.429688 98.574219 L 113.320312 101.027344 L 113.320312 101.066406 L 110.363281 100.683594 L 110.363281 102.054688 L 113.339844 101.671875 Z M 113.339844 101.710938 " fill-opacity="1" fill-rule="nonzero"/><path fill="#004aad" d="M 357.144531 62.976562 L 357.144531 60.648438 L 351.972656 61.332031 L 351.972656 61.261719 L 355.226562 56.980469 L 353.171875 55.816406 L 351.082031 60.613281 L 351.011719 60.613281 L 348.886719 55.851562 L 346.796875 57.050781 L 350.019531 61.230469 L 350.019531 61.300781 L 344.980469 60.648438 L 344.980469 62.976562 L 350.050781 62.324219 L 350.050781 62.394531 L 346.796875 66.574219 L 348.75 67.808594 L 350.976562 62.976562 L 351.042969 62.976562 L 353.101562 67.773438 L 355.257812 66.539062 L 351.972656 62.429688 L 351.972656 62.359375 Z M 357.144531 62.976562 " fill-opacity="1" fill-rule="nonzero"/><path fill="#004aad" d="M 291.167969 15.816406 L 293.976562 12.121094 L 292.203125 11.117188 L 290.398438 15.253906 L 290.339844 15.253906 L 288.507812 11.148438 L 286.707031 12.183594 L 289.484375 15.789062 L 289.484375 15.847656 L 285.136719 15.285156 L 285.136719 17.292969 L 289.511719 16.730469 L 289.511719 16.792969 L 286.707031 20.398438 L 288.386719 21.460938 L 290.3125 17.292969 L 290.367188 17.292969 L 292.144531 21.429688 L 294.003906 20.367188 L 291.167969 16.820312 L 291.167969 16.761719 L 295.628906 17.292969 L 295.628906 15.285156 L 291.167969 15.875 Z M 291.167969 15.816406 " fill-opacity="1" fill-rule="nonzero"/><path fill="#004aad" d="M 234.375 337.054688 L 140.625 337.054688 C 140.328125 337.054688 140.042969 337.109375 139.769531 337.222656 C 139.496094 337.335938 139.257812 337.496094 139.046875 337.707031 C 138.835938 337.917969 138.675781 338.15625 138.5625 338.429688 C 138.449219 338.703125 138.394531 338.988281 138.394531 339.285156 C 138.394531 339.582031 138.449219 339.867188 138.5625 340.140625 C 138.675781 340.414062 138.835938 340.65625 139.046875 340.863281 C 139.257812 341.074219 139.496094 341.234375 139.769531 341.347656 C 140.042969 341.460938 140.328125 341.519531 140.625 341.519531 L 180.804688 341.519531 L 180.804688 345.980469 L 158.480469 345.980469 C 158.1875 345.980469 157.902344 346.039062 157.628906 346.152344 C 157.355469 346.265625 157.113281 346.425781 156.902344 346.636719 C 156.695312 346.84375 156.53125 347.085938 156.417969 347.359375 C 156.304688 347.632812 156.25 347.917969 156.25 348.214844 C 156.25 348.511719 156.304688 348.796875 156.417969 349.070312 C 156.53125 349.34375 156.695312 349.582031 156.902344 349.792969 C 157.113281 350 157.355469 350.164062 157.628906 350.277344 C 157.902344 350.390625 158.1875 350.445312 158.480469 350.445312 L 218.75 350.445312 C 219.046875 350.445312 219.332031 350.390625 219.605469 350.277344 C 219.878906 350.164062 220.117188 350 220.328125 349.792969 C 220.539062 349.582031 220.699219 349.34375 220.8125 349.070312 C 220.925781 348.796875 220.980469 348.511719 220.980469 348.214844 C 220.980469 347.917969 220.925781 347.632812 220.8125 347.359375 C 220.699219 347.085938 220.539062 346.84375 220.328125 346.636719 C 220.117188 346.425781 219.878906 346.265625 219.605469 346.152344 C 219.332031 346.039062 219.046875 345.980469 218.75 345.980469 L 194.195312 345.980469 L 194.195312 341.519531 L 234.375 341.519531 C 234.671875 341.519531 234.957031 341.460938 235.230469 341.347656 C 235.503906 341.234375 235.742188 341.074219 235.953125 340.863281 C 236.164062 340.65625 236.324219 340.414062 236.4375 340.140625 C 236.550781 339.867188 236.605469 339.582031 236.605469 339.285156 C 236.605469 338.988281 236.550781 338.703125 236.4375 338.429688 C 236.324219 338.15625 236.164062 337.917969 235.953125 337.707031 C 235.742188 337.496094 235.503906 337.335938 235.230469 337.222656 C 234.957031 337.109375 234.671875 337.054688 234.375 337.054688 Z M 265.625 337.054688 L 243.304688 337.054688 C 243.007812 337.054688 242.722656 337.109375 242.449219 337.222656 C 242.175781 337.335938 241.933594 337.496094 241.726562 337.707031 C 241.515625 337.917969 241.355469 338.15625 241.242188 338.429688 C 241.128906 338.703125 241.070312 338.988281 241.070312 339.285156 C 241.070312 339.582031 241.128906 339.867188 241.242188 340.140625 C 241.355469 340.414062 241.515625 340.65625 241.726562 340.863281 C 241.933594 341.074219 242.175781 341.234375 242.449219 341.347656 C 242.722656 341.460938 243.007812 341.519531 243.304688 341.519531 L 265.625 341.519531 C 265.921875 341.519531 266.207031 341.460938 266.480469 341.347656 C 266.753906 341.234375 266.992188 341.074219 267.203125 340.863281 C 267.414062 340.65625 267.574219 340.414062 267.6875 340.140625 C 267.800781 339.867188 267.855469 339.582031 267.855469 339.285156 C 267.855469 338.988281 267.800781 338.703125 267.6875 338.429688 C 267.574219 338.15625 267.414062 337.917969 267.203125 337.707031 C 266.992188 337.496094 266.753906 337.335938 266.480469 337.222656 C 266.207031 337.109375 265.921875 337.054688 265.625 337.054688 Z M 131.695312 337.054688 L 109.375 337.054688 C 109.078125 337.054688 108.792969 337.109375 108.519531 337.222656 C 108.246094 337.335938 108.007812 337.496094 107.796875 337.707031 C 107.585938 337.917969 107.425781 338.15625 107.3125 338.429688 C 107.199219 338.703125 107.144531 338.988281 107.144531 339.285156 C 107.144531 339.582031 107.199219 339.867188 107.3125 340.140625 C 107.425781 340.414062 107.585938 340.65625 107.796875 340.863281 C 108.007812 341.074219 108.246094 341.234375 108.519531 341.347656 C 108.792969 341.460938 109.078125 341.519531 109.375 341.519531 L 131.695312 341.519531 C 131.992188 341.519531 132.277344 341.460938 132.550781 341.347656 C 132.824219 341.234375 133.066406 341.074219 133.273438 340.863281 C 133.484375 340.65625 133.644531 340.414062 133.757812 340.140625 C 133.871094 339.867188 133.929688 339.582031 133.929688 339.285156 C 133.929688 338.988281 133.871094 338.703125 133.757812 338.429688 C 133.644531 338.15625 133.484375 337.917969 133.273438 337.707031 C 133.066406 337.496094 132.824219 337.335938 132.550781 337.222656 C 132.277344 337.109375 131.992188 337.054688 131.695312 337.054688 Z M 131.695312 337.054688 " fill-opacity="1" fill-rule="nonzero"/></svg>