<svg xmlns="http://www.w3.org/2000/svg" xmlns:xlink="http://www.w3.org/1999/xlink" width="500" zoomAndPan="magnify" viewBox="0 0 375 374.999991" height="500" preserveAspectRatio="xMidYMid meet" version="1.0"><rect x="-37.5" width="450" fill="#ffffff" y="-37.499999" height="449.999989" fill-opacity="1"/><rect x="-37.5" width="450" fill="#ffffff" y="-37.499999" height="449.999989" fill-opacity="1"/><rect x="-37.5" width="450" fill="#ffffff" y="-37.499999" height="449.999989" fill-opacity="1"/><path fill="#004aad" d="M 187.5 113.839844 C 186.148438 113.839844 184.796875 113.871094 183.449219 113.9375 C 182.097656 114.003906 180.75 114.105469 179.40625 114.238281 C 178.058594 114.371094 176.71875 114.535156 175.382812 114.734375 C 174.042969 114.929688 172.714844 115.164062 171.386719 115.425781 C 170.0625 115.691406 168.742188 115.984375 167.433594 116.3125 C 166.121094 116.644531 164.820312 117.003906 163.527344 117.394531 C 162.230469 117.789062 160.949219 118.210938 159.675781 118.667969 C 158.402344 119.121094 157.144531 119.609375 155.894531 120.125 C 154.644531 120.644531 153.410156 121.191406 152.1875 121.769531 C 150.964844 122.347656 149.757812 122.953125 148.566406 123.589844 C 147.375 124.226562 146.199219 124.894531 145.039062 125.589844 C 143.882812 126.285156 142.738281 127.007812 141.617188 127.757812 C 140.492188 128.507812 139.386719 129.285156 138.300781 130.09375 C 137.214844 130.898438 136.152344 131.730469 135.105469 132.585938 C 134.0625 133.445312 133.039062 134.328125 132.035156 135.234375 C 131.035156 136.140625 130.054688 137.074219 129.101562 138.027344 C 128.144531 138.984375 127.214844 139.964844 126.304688 140.964844 C 125.398438 141.964844 124.515625 142.988281 123.65625 144.035156 C 122.800781 145.078125 121.96875 146.144531 121.164062 147.230469 C 120.359375 148.316406 119.582031 149.421875 118.828125 150.542969 C 118.078125 151.667969 117.355469 152.808594 116.660156 153.96875 C 115.964844 155.128906 115.300781 156.304688 114.664062 157.496094 C 114.027344 158.6875 113.417969 159.894531 112.839844 161.117188 C 112.261719 162.339844 111.714844 163.574219 111.199219 164.824219 C 110.679688 166.070312 110.195312 167.332031 109.738281 168.605469 C 109.28125 169.878906 108.859375 171.160156 108.46875 172.453125 C 108.074219 173.746094 107.714844 175.050781 107.386719 176.359375 C 107.058594 177.671875 106.761719 178.992188 106.496094 180.316406 C 106.234375 181.640625 106.003906 182.972656 105.804688 184.308594 C 105.605469 185.648438 105.441406 186.988281 105.308594 188.332031 C 105.175781 189.679688 105.078125 191.027344 105.011719 192.375 C 104.945312 193.726562 104.910156 195.078125 104.910156 196.429688 C 104.910156 197.78125 104.945312 199.132812 105.011719 200.480469 C 105.078125 201.832031 105.175781 203.179688 105.308594 204.523438 C 105.441406 205.867188 105.605469 207.210938 105.804688 208.546875 C 106.003906 209.882812 106.234375 211.214844 106.496094 212.539062 C 106.761719 213.867188 107.058594 215.183594 107.386719 216.496094 C 107.714844 217.808594 108.074219 219.109375 108.46875 220.402344 C 108.859375 221.695312 109.28125 222.980469 109.738281 224.253906 C 110.195312 225.523438 110.679688 226.785156 111.199219 228.035156 C 111.714844 229.28125 112.261719 230.519531 112.839844 231.738281 C 113.417969 232.960938 114.027344 234.167969 114.664062 235.359375 C 115.300781 236.554688 115.964844 237.730469 116.660156 238.886719 C 117.355469 240.046875 118.078125 241.1875 118.828125 242.3125 C 119.582031 243.4375 120.359375 244.542969 121.164062 245.625 C 121.96875 246.710938 122.800781 247.777344 123.65625 248.824219 C 124.515625 249.867188 125.398438 250.890625 126.304688 251.890625 C 127.214844 252.894531 128.144531 253.871094 129.101562 254.828125 C 130.054688 255.785156 131.035156 256.714844 132.035156 257.625 C 133.039062 258.53125 134.0625 259.414062 135.105469 260.269531 C 136.152344 261.128906 137.214844 261.960938 138.300781 262.765625 C 139.386719 263.570312 140.492188 264.347656 141.617188 265.097656 C 142.738281 265.851562 143.882812 266.574219 145.039062 267.269531 C 146.199219 267.960938 147.375 268.628906 148.566406 269.265625 C 149.757812 269.902344 150.964844 270.511719 152.1875 271.089844 C 153.410156 271.667969 154.644531 272.214844 155.894531 272.730469 C 157.144531 273.25 158.402344 273.734375 159.675781 274.191406 C 160.949219 274.644531 162.230469 275.070312 163.527344 275.460938 C 164.820312 275.855469 166.121094 276.214844 167.433594 276.542969 C 168.742188 276.871094 170.0625 277.167969 171.386719 277.429688 C 172.714844 277.695312 174.042969 277.925781 175.382812 278.125 C 176.71875 278.320312 178.058594 278.488281 179.40625 278.621094 C 180.75 278.753906 182.097656 278.851562 183.449219 278.917969 C 184.796875 278.984375 186.148438 279.019531 187.5 279.019531 C 188.851562 279.019531 190.203125 278.984375 191.550781 278.917969 C 192.902344 278.851562 194.25 278.753906 195.59375 278.621094 C 196.941406 278.488281 198.28125 278.320312 199.617188 278.125 C 200.957031 277.925781 202.285156 277.695312 203.613281 277.429688 C 204.9375 277.167969 206.257812 276.871094 207.566406 276.542969 C 208.878906 276.214844 210.179688 275.855469 211.472656 275.460938 C 212.769531 275.070312 214.050781 274.644531 215.324219 274.191406 C 216.597656 273.734375 217.855469 273.25 219.105469 272.730469 C 220.355469 272.214844 221.589844 271.667969 222.8125 271.089844 C 224.035156 270.511719 225.242188 269.902344 226.433594 269.265625 C 227.625 268.628906 228.800781 267.960938 229.960938 267.269531 C 231.117188 266.574219 232.261719 265.851562 233.382812 265.097656 C 234.507812 264.347656 235.613281 263.570312 236.699219 262.765625 C 237.785156 261.960938 238.847656 261.128906 239.894531 260.269531 C 240.9375 259.414062 241.960938 258.53125 242.964844 257.625 C 243.964844 256.714844 244.945312 255.785156 245.898438 254.828125 C 246.855469 253.871094 247.785156 252.894531 248.695312 251.890625 C 249.601562 250.890625 250.484375 249.867188 251.34375 248.824219 C 252.199219 247.777344 253.03125 246.710938 253.835938 245.625 C 254.640625 244.542969 255.417969 243.4375 256.171875 242.3125 C 256.921875 241.1875 257.644531 240.046875 258.339844 238.886719 C 259.035156 237.730469 259.699219 236.554688 260.335938 235.359375 C 260.972656 234.167969 261.582031 232.960938 262.160156 231.738281 C 262.738281 230.519531 263.285156 229.28125 263.800781 228.035156 C 264.320312 226.785156 264.804688 225.523438 265.261719 224.253906 C 265.714844 222.980469 266.140625 221.695312 266.53125 220.402344 C 266.925781 219.109375 267.285156 217.808594 267.613281 216.496094 C 267.941406 215.183594 268.238281 213.867188 268.503906 212.539062 C 268.765625 211.214844 268.996094 209.882812 269.195312 208.546875 C 269.394531 207.210938 269.558594 205.867188 269.691406 204.523438 C 269.824219 203.179688 269.921875 201.832031 269.988281 200.480469 C 270.054688 199.132812 270.089844 197.78125 270.089844 196.429688 C 270.085938 195.078125 270.054688 193.726562 269.984375 192.378906 C 269.917969 191.027344 269.816406 189.679688 269.683594 188.335938 C 269.550781 186.992188 269.382812 185.652344 269.183594 184.316406 C 268.984375 182.976562 268.75 181.648438 268.488281 180.324219 C 268.222656 178.996094 267.925781 177.679688 267.597656 176.371094 C 267.265625 175.058594 266.90625 173.757812 266.511719 172.464844 C 266.117188 171.171875 265.695312 169.890625 265.238281 168.617188 C 264.78125 167.34375 264.296875 166.085938 263.777344 164.835938 C 263.261719 163.589844 262.710938 162.355469 262.132812 161.132812 C 261.554688 159.914062 260.949219 158.707031 260.308594 157.515625 C 259.671875 156.324219 259.007812 155.148438 258.3125 153.988281 C 257.617188 152.832031 256.894531 151.691406 256.140625 150.566406 C 255.390625 149.441406 254.613281 148.339844 253.808594 147.253906 C 253.003906 146.167969 252.171875 145.105469 251.3125 144.058594 C 250.457031 143.015625 249.574219 141.992188 248.667969 140.992188 C 247.757812 139.988281 246.828125 139.011719 245.871094 138.054688 C 244.917969 137.101562 243.9375 136.167969 242.9375 135.261719 C 241.9375 134.355469 240.914062 133.472656 239.867188 132.613281 C 238.824219 131.757812 237.761719 130.925781 236.675781 130.121094 C 235.589844 129.316406 234.484375 128.539062 233.363281 127.785156 C 232.238281 127.035156 231.097656 126.3125 229.9375 125.617188 C 228.78125 124.921875 227.605469 124.257812 226.414062 123.617188 C 225.222656 122.980469 224.015625 122.375 222.796875 121.796875 C 221.574219 121.214844 220.339844 120.667969 219.089844 120.152344 C 217.84375 119.632812 216.582031 119.144531 215.3125 118.691406 C 214.039062 118.234375 212.757812 117.808594 211.464844 117.417969 C 210.171875 117.023438 208.871094 116.660156 207.558594 116.332031 C 206.25 116.003906 204.929688 115.707031 203.605469 115.441406 C 202.28125 115.175781 200.949219 114.945312 199.613281 114.746094 C 198.277344 114.546875 196.9375 114.378906 195.59375 114.246094 C 194.246094 114.113281 192.902344 114.011719 191.550781 113.941406 C 190.203125 113.875 188.851562 113.839844 187.5 113.839844 Z M 187.5 270.089844 C 186.292969 270.089844 185.089844 270.058594 183.886719 270 C 182.679688 269.941406 181.480469 269.851562 180.28125 269.734375 C 179.082031 269.617188 177.882812 269.46875 176.691406 269.292969 C 175.5 269.113281 174.3125 268.910156 173.128906 268.675781 C 171.945312 268.4375 170.769531 268.175781 169.601562 267.882812 C 168.433594 267.589844 167.269531 267.265625 166.117188 266.917969 C 164.964844 266.566406 163.820312 266.191406 162.683594 265.785156 C 161.550781 265.378906 160.425781 264.945312 159.3125 264.480469 C 158.199219 264.019531 157.097656 263.53125 156.007812 263.015625 C 154.917969 262.5 153.839844 261.960938 152.777344 261.390625 C 151.714844 260.824219 150.664062 260.230469 149.628906 259.609375 C 148.597656 258.988281 147.578125 258.34375 146.578125 257.675781 C 145.574219 257.003906 144.589844 256.3125 143.621094 255.59375 C 142.652344 254.875 141.703125 254.132812 140.769531 253.367188 C 139.839844 252.605469 138.925781 251.816406 138.03125 251.007812 C 137.140625 250.199219 136.265625 249.367188 135.414062 248.515625 C 134.5625 247.660156 133.730469 246.789062 132.921875 245.894531 C 132.113281 245.003906 131.324219 244.089844 130.558594 243.160156 C 129.792969 242.226562 129.054688 241.277344 128.335938 240.308594 C 127.617188 239.339844 126.921875 238.355469 126.253906 237.351562 C 125.582031 236.351562 124.9375 235.332031 124.320312 234.296875 C 123.699219 233.265625 123.105469 232.214844 122.535156 231.152344 C 121.96875 230.089844 121.425781 229.011719 120.910156 227.921875 C 120.394531 226.832031 119.90625 225.730469 119.445312 224.617188 C 118.984375 223.503906 118.550781 222.378906 118.144531 221.242188 C 117.738281 220.109375 117.359375 218.964844 117.011719 217.8125 C 116.660156 216.65625 116.339844 215.496094 116.046875 214.328125 C 115.753906 213.15625 115.488281 211.980469 115.253906 210.800781 C 115.019531 209.617188 114.8125 208.429688 114.636719 207.238281 C 114.460938 206.042969 114.3125 204.847656 114.195312 203.648438 C 114.074219 202.449219 113.988281 201.246094 113.929688 200.042969 C 113.867188 198.839844 113.839844 197.632812 113.839844 196.429688 C 113.839844 195.222656 113.867188 194.019531 113.929688 192.8125 C 113.988281 191.609375 114.074219 190.410156 114.195312 189.207031 C 114.3125 188.007812 114.460938 186.8125 114.636719 185.621094 C 114.8125 184.429688 115.019531 183.242188 115.253906 182.058594 C 115.488281 180.875 115.753906 179.699219 116.046875 178.53125 C 116.339844 177.359375 116.660156 176.199219 117.011719 175.046875 C 117.359375 173.890625 117.738281 172.746094 118.144531 171.613281 C 118.550781 170.476562 118.984375 169.355469 119.445312 168.238281 C 119.90625 167.125 120.394531 166.023438 120.910156 164.933594 C 121.425781 163.84375 121.96875 162.769531 122.535156 161.707031 C 123.105469 160.640625 123.699219 159.59375 124.320312 158.558594 C 124.9375 157.523438 125.582031 156.507812 126.253906 155.503906 C 126.921875 154.503906 127.617188 153.515625 128.335938 152.550781 C 129.054688 151.582031 129.792969 150.628906 130.558594 149.699219 C 131.324219 148.765625 132.113281 147.855469 132.921875 146.960938 C 133.730469 146.066406 134.5625 145.195312 135.414062 144.34375 C 136.265625 143.488281 137.140625 142.660156 138.03125 141.847656 C 138.925781 141.039062 139.839844 140.253906 140.769531 139.488281 C 141.703125 138.722656 142.652344 137.980469 143.621094 137.265625 C 144.589844 136.546875 145.574219 135.851562 146.578125 135.183594 C 147.578125 134.511719 148.597656 133.867188 149.628906 133.246094 C 150.664062 132.628906 151.714844 132.035156 152.777344 131.464844 C 153.839844 130.898438 154.917969 130.355469 156.007812 129.839844 C 157.097656 129.324219 158.199219 128.835938 159.3125 128.375 C 160.425781 127.914062 161.550781 127.480469 162.683594 127.074219 C 163.820312 126.667969 164.964844 126.289062 166.117188 125.941406 C 167.269531 125.589844 168.433594 125.269531 169.601562 124.976562 C 170.769531 124.683594 171.945312 124.417969 173.128906 124.183594 C 174.3125 123.949219 175.5 123.742188 176.691406 123.566406 C 177.882812 123.386719 179.082031 123.242188 180.28125 123.121094 C 181.480469 123.003906 182.679688 122.914062 183.886719 122.855469 C 185.089844 122.796875 186.292969 122.769531 187.5 122.769531 C 188.707031 122.769531 189.910156 122.796875 191.113281 122.855469 C 192.320312 122.914062 193.519531 123.003906 194.71875 123.121094 C 195.917969 123.242188 197.117188 123.386719 198.308594 123.566406 C 199.5 123.742188 200.6875 123.949219 201.871094 124.183594 C 203.054688 124.417969 204.230469 124.683594 205.398438 124.976562 C 206.566406 125.269531 207.730469 125.589844 208.882812 125.941406 C 210.035156 126.289062 211.179688 126.667969 212.316406 127.074219 C 213.449219 127.480469 214.574219 127.914062 215.6875 128.375 C 216.800781 128.835938 217.902344 129.324219 218.992188 129.839844 C 220.082031 130.355469 221.160156 130.898438 222.222656 131.464844 C 223.285156 132.035156 224.335938 132.628906 225.367188 133.246094 C 226.402344 133.867188 227.421875 134.511719 228.421875 135.183594 C 229.425781 135.851562 230.410156 136.546875 231.378906 137.265625 C 232.347656 137.980469 233.296875 138.722656 234.230469 139.488281 C 235.160156 140.253906 236.074219 141.039062 236.96875 141.847656 C 237.859375 142.660156 238.734375 143.488281 239.585938 144.34375 C 240.4375 145.195312 241.269531 146.066406 242.078125 146.960938 C 242.886719 147.855469 243.675781 148.765625 244.441406 149.699219 C 245.207031 150.628906 245.945312 151.582031 246.664062 152.550781 C 247.382812 153.515625 248.078125 154.503906 248.746094 155.503906 C 249.417969 156.507812 250.0625 157.523438 250.679688 158.558594 C 251.300781 159.59375 251.894531 160.640625 252.464844 161.707031 C 253.03125 162.769531 253.574219 163.84375 254.089844 164.933594 C 254.605469 166.023438 255.09375 167.125 255.554688 168.238281 C 256.015625 169.355469 256.449219 170.476562 256.855469 171.613281 C 257.261719 172.746094 257.640625 173.890625 257.988281 175.046875 C 258.339844 176.199219 258.660156 177.359375 258.953125 178.53125 C 259.246094 179.699219 259.511719 180.875 259.746094 182.058594 C 259.980469 183.242188 260.1875 184.429688 260.363281 185.621094 C 260.539062 186.8125 260.6875 188.007812 260.804688 189.207031 C 260.925781 190.410156 261.011719 191.609375 261.070312 192.8125 C 261.132812 194.019531 261.160156 195.222656 261.160156 196.429688 C 261.160156 197.632812 261.128906 198.839844 261.066406 200.042969 C 261.007812 201.246094 260.917969 202.445312 260.796875 203.644531 C 260.679688 204.84375 260.53125 206.039062 260.351562 207.234375 C 260.175781 208.425781 259.96875 209.613281 259.730469 210.792969 C 259.496094 211.976562 259.230469 213.148438 258.9375 214.320312 C 258.644531 215.488281 258.320312 216.648438 257.96875 217.800781 C 257.621094 218.953125 257.242188 220.097656 256.835938 221.234375 C 256.425781 222.367188 255.992188 223.492188 255.53125 224.605469 C 255.070312 225.71875 254.582031 226.820312 254.066406 227.90625 C 253.550781 228.996094 253.007812 230.074219 252.4375 231.136719 C 251.871094 232.199219 251.277344 233.246094 250.65625 234.28125 C 250.035156 235.3125 249.390625 236.332031 248.722656 237.332031 C 248.050781 238.335938 247.355469 239.320312 246.640625 240.285156 C 245.921875 241.253906 245.179688 242.203125 244.414062 243.136719 C 243.648438 244.066406 242.863281 244.980469 242.054688 245.871094 C 241.246094 246.765625 240.414062 247.636719 239.5625 248.488281 C 238.710938 249.34375 237.835938 250.171875 236.945312 250.984375 C 236.050781 251.792969 235.140625 252.578125 234.207031 253.34375 C 233.277344 254.109375 232.328125 254.851562 231.359375 255.566406 C 230.390625 256.285156 229.40625 256.980469 228.402344 257.648438 C 227.402344 258.320312 226.382812 258.964844 225.351562 259.585938 C 224.316406 260.203125 223.269531 260.796875 222.207031 261.367188 C 221.144531 261.933594 220.070312 262.476562 218.980469 262.992188 C 217.890625 263.507812 216.789062 264 215.675781 264.460938 C 214.5625 264.921875 213.4375 265.355469 212.304688 265.761719 C 211.171875 266.167969 210.027344 266.546875 208.875 266.898438 C 207.71875 267.25 206.558594 267.570312 205.390625 267.867188 C 204.222656 268.160156 203.046875 268.425781 201.863281 268.660156 C 200.683594 268.894531 199.496094 269.101562 198.304688 269.28125 C 197.113281 269.460938 195.917969 269.609375 194.71875 269.726562 C 193.519531 269.847656 192.316406 269.9375 191.113281 269.996094 C 189.910156 270.058594 188.707031 270.089844 187.5 270.089844 Z M 187.5 270.089844 " fill-opacity="1" fill-rule="nonzero"/><path fill="#2d4356" d="M 8.929688 334.820312 C 8.929688 335.113281 8.898438 335.40625 8.84375 335.691406 C 8.785156 335.980469 8.699219 336.257812 8.589844 336.53125 C 8.476562 336.800781 8.339844 337.058594 8.175781 337.300781 C 8.011719 337.546875 7.828125 337.769531 7.621094 337.976562 C 7.414062 338.183594 7.1875 338.371094 6.945312 338.535156 C 6.699219 338.695312 6.445312 338.832031 6.171875 338.945312 C 5.902344 339.058594 5.621094 339.144531 5.335938 339.199219 C 5.046875 339.257812 4.757812 339.285156 4.464844 339.285156 C 4.171875 339.285156 3.878906 339.257812 3.59375 339.199219 C 3.304688 339.144531 3.027344 339.058594 2.757812 338.945312 C 2.484375 338.832031 2.226562 338.695312 1.984375 338.535156 C 1.742188 338.371094 1.515625 338.183594 1.308594 337.976562 C 1.101562 337.769531 0.914062 337.546875 0.753906 337.300781 C 0.589844 337.058594 0.453125 336.800781 0.339844 336.53125 C 0.226562 336.257812 0.144531 335.980469 0.0859375 335.691406 C 0.0273438 335.40625 0 335.113281 0 334.820312 C 0 334.527344 0.0273438 334.238281 0.0859375 333.949219 C 0.144531 333.664062 0.226562 333.382812 0.339844 333.113281 C 0.453125 332.84375 0.589844 332.585938 0.753906 332.339844 C 0.914062 332.097656 1.101562 331.871094 1.308594 331.664062 C 1.515625 331.457031 1.742188 331.273438 1.984375 331.109375 C 2.226562 330.945312 2.484375 330.808594 2.757812 330.695312 C 3.027344 330.585938 3.304688 330.5 3.59375 330.441406 C 3.878906 330.386719 4.171875 330.355469 4.464844 330.355469 C 4.757812 330.355469 5.046875 330.386719 5.335938 330.441406 C 5.621094 330.5 5.902344 330.585938 6.171875 330.695312 C 6.445312 330.808594 6.699219 330.945312 6.945312 331.109375 C 7.1875 331.273438 7.414062 331.457031 7.621094 331.664062 C 7.828125 331.871094 8.011719 332.097656 8.175781 332.339844 C 8.339844 332.585938 8.476562 332.84375 8.589844 333.113281 C 8.699219 333.382812 8.785156 333.664062 8.84375 333.949219 C 8.898438 334.238281 8.929688 334.527344 8.929688 334.820312 Z M 8.929688 334.820312 " fill-opacity="1" fill-rule="nonzero"/><path fill="#2d4356" d="M 24.554688 330.355469 L 17.855469 330.355469 C 17.5625 330.355469 17.273438 330.386719 16.984375 330.441406 C 16.699219 330.5 16.417969 330.585938 16.148438 330.695312 C 15.878906 330.808594 15.621094 330.945312 15.375 331.109375 C 15.132812 331.273438 14.90625 331.457031 14.699219 331.664062 C 14.492188 331.871094 14.308594 332.097656 14.144531 332.339844 C 13.980469 332.585938 13.84375 332.84375 13.734375 333.113281 C 13.621094 333.382812 13.535156 333.664062 13.480469 333.949219 C 13.421875 334.238281 13.394531 334.527344 13.394531 334.820312 C 13.394531 335.113281 13.421875 335.40625 13.480469 335.691406 C 13.535156 335.980469 13.621094 336.257812 13.734375 336.53125 C 13.84375 336.800781 13.980469 337.058594 14.144531 337.300781 C 14.308594 337.546875 14.492188 337.769531 14.699219 337.976562 C 14.90625 338.183594 15.132812 338.371094 15.375 338.535156 C 15.621094 338.695312 15.878906 338.832031 16.148438 338.945312 C 16.417969 339.058594 16.699219 339.144531 16.984375 339.199219 C 17.273438 339.257812 17.5625 339.285156 17.855469 339.285156 L 24.554688 339.285156 C 24.847656 339.285156 25.136719 339.257812 25.425781 339.199219 C 25.710938 339.144531 25.992188 339.058594 26.261719 338.945312 C 26.53125 338.832031 26.789062 338.695312 27.035156 338.535156 C 27.277344 338.371094 27.503906 338.183594 27.710938 337.976562 C 27.917969 337.769531 28.101562 337.546875 28.265625 337.300781 C 28.429688 337.058594 28.566406 336.800781 28.679688 336.53125 C 28.789062 336.257812 28.875 335.980469 28.933594 335.691406 C 28.988281 335.40625 29.019531 335.113281 29.019531 334.820312 C 29.019531 334.527344 28.988281 334.238281 28.933594 333.949219 C 28.875 333.664062 28.789062 333.382812 28.679688 333.113281 C 28.566406 332.84375 28.429688 332.585938 28.265625 332.339844 C 28.101562 332.097656 27.917969 331.871094 27.710938 331.664062 C 27.503906 331.457031 27.277344 331.273438 27.035156 331.109375 C 26.789062 330.945312 26.53125 330.808594 26.261719 330.695312 C 25.992188 330.585938 25.710938 330.5 25.425781 330.441406 C 25.136719 330.386719 24.847656 330.355469 24.554688 330.355469 Z M 357.144531 330.355469 L 350.445312 330.355469 C 350.152344 330.355469 349.863281 330.386719 349.574219 330.441406 C 349.289062 330.5 349.007812 330.585938 348.738281 330.695312 C 348.46875 330.808594 348.210938 330.945312 347.964844 331.109375 C 347.722656 331.273438 347.496094 331.457031 347.289062 331.664062 C 347.082031 331.871094 346.898438 332.097656 346.734375 332.339844 C 346.570312 332.585938 346.433594 332.84375 346.320312 333.113281 C 346.210938 333.382812 346.125 333.664062 346.066406 333.949219 C 346.011719 334.238281 345.980469 334.527344 345.980469 334.820312 C 345.980469 335.113281 346.011719 335.40625 346.066406 335.691406 C 346.125 335.980469 346.210938 336.257812 346.320312 336.53125 C 346.433594 336.800781 346.570312 337.058594 346.734375 337.300781 C 346.898438 337.546875 347.082031 337.769531 347.289062 337.976562 C 347.496094 338.183594 347.722656 338.371094 347.964844 338.535156 C 348.210938 338.695312 348.46875 338.832031 348.738281 338.945312 C 349.007812 339.058594 349.289062 339.144531 349.574219 339.199219 C 349.863281 339.257812 350.152344 339.285156 350.445312 339.285156 L 357.144531 339.285156 C 357.4375 339.285156 357.726562 339.257812 358.015625 339.199219 C 358.300781 339.144531 358.582031 339.058594 358.851562 338.945312 C 359.121094 338.832031 359.378906 338.695312 359.621094 338.535156 C 359.867188 338.371094 360.09375 338.183594 360.300781 337.976562 C 360.507812 337.769531 360.691406 337.546875 360.855469 337.300781 C 361.015625 337.058594 361.15625 336.800781 361.265625 336.53125 C 361.378906 336.257812 361.464844 335.980469 361.519531 335.691406 C 361.578125 335.40625 361.605469 335.113281 361.605469 334.820312 C 361.605469 334.527344 361.578125 334.238281 361.519531 333.949219 C 361.464844 333.664062 361.378906 333.382812 361.265625 333.113281 C 361.15625 332.84375 361.015625 332.585938 360.855469 332.339844 C 360.691406 332.097656 360.507812 331.871094 360.300781 331.664062 C 360.09375 331.457031 359.867188 331.273438 359.621094 331.109375 C 359.378906 330.945312 359.121094 330.808594 358.851562 330.695312 C 358.582031 330.585938 358.300781 330.5 358.015625 330.441406 C 357.726562 330.386719 357.4375 330.355469 357.144531 330.355469 Z M 357.144531 330.355469 " fill-opacity="1" fill-rule="nonzero"/><path fill="#2d4356" d="M 375 334.820312 C 375 335.113281 374.972656 335.40625 374.914062 335.691406 C 374.855469 335.980469 374.773438 336.257812 374.660156 336.53125 C 374.546875 336.800781 374.410156 337.058594 374.246094 337.300781 C 374.085938 337.546875 373.898438 337.769531 373.691406 337.976562 C 373.484375 338.183594 373.257812 338.371094 373.015625 338.535156 C 372.773438 338.695312 372.515625 338.832031 372.242188 338.945312 C 371.972656 339.058594 371.695312 339.144531 371.40625 339.199219 C 371.117188 339.257812 370.828125 339.285156 370.535156 339.285156 C 370.242188 339.285156 369.953125 339.257812 369.664062 339.199219 C 369.378906 339.144531 369.097656 339.058594 368.828125 338.945312 C 368.554688 338.832031 368.300781 338.695312 368.054688 338.535156 C 367.8125 338.371094 367.585938 338.183594 367.378906 337.976562 C 367.171875 337.769531 366.988281 337.546875 366.824219 337.300781 C 366.660156 337.058594 366.523438 336.800781 366.410156 336.53125 C 366.300781 336.257812 366.214844 335.980469 366.15625 335.691406 C 366.101562 335.40625 366.070312 335.113281 366.070312 334.820312 C 366.070312 334.527344 366.101562 334.238281 366.15625 333.949219 C 366.214844 333.664062 366.300781 333.382812 366.410156 333.113281 C 366.523438 332.84375 366.660156 332.585938 366.824219 332.339844 C 366.988281 332.097656 367.171875 331.871094 367.378906 331.664062 C 367.585938 331.457031 367.8125 331.273438 368.054688 331.109375 C 368.300781 330.945312 368.554688 330.808594 368.828125 330.695312 C 369.097656 330.585938 369.378906 330.5 369.664062 330.441406 C 369.953125 330.386719 370.242188 330.355469 370.535156 330.355469 C 370.828125 330.355469 371.117188 330.386719 371.40625 330.441406 C 371.695312 330.5 371.972656 330.585938 372.242188 330.695312 C 372.515625 330.808594 372.773438 330.945312 373.015625 331.109375 C 373.257812 331.273438 373.484375 331.457031 373.691406 331.664062 C 373.898438 331.871094 374.085938 332.097656 374.246094 332.339844 C 374.410156 332.585938 374.546875 332.84375 374.660156 333.113281 C 374.773438 333.382812 374.855469 333.664062 374.914062 333.949219 C 374.972656 334.238281 375 334.527344 375 334.820312 Z M 375 334.820312 " fill-opacity="1" fill-rule="nonzero"/><path fill="#004aad" d="M 263.734375 348.214844 L 245.191406 348.214844 C 244.632812 348.257812 244.097656 348.40625 243.589844 348.652344 C 243.085938 348.898438 242.640625 349.226562 242.257812 349.640625 C 241.878906 350.054688 241.582031 350.523438 241.378906 351.046875 C 241.175781 351.570312 241.070312 352.117188 241.070312 352.679688 C 241.070312 353.242188 241.175781 353.785156 241.378906 354.308594 C 241.582031 354.832031 241.878906 355.300781 242.257812 355.714844 C 242.640625 356.128906 243.085938 356.460938 243.589844 356.707031 C 244.097656 356.953125 244.632812 357.097656 245.191406 357.144531 L 263.734375 357.144531 C 264.296875 357.097656 264.832031 356.953125 265.335938 356.707031 C 265.84375 356.460938 266.289062 356.128906 266.667969 355.714844 C 267.050781 355.300781 267.34375 354.832031 267.550781 354.308594 C 267.753906 353.785156 267.855469 353.242188 267.855469 352.679688 C 267.855469 352.117188 267.753906 351.570312 267.550781 351.046875 C 267.34375 350.523438 267.050781 350.054688 266.667969 349.640625 C 266.289062 349.226562 265.84375 348.898438 265.335938 348.652344 C 264.832031 348.40625 264.296875 348.257812 263.734375 348.214844 Z M 129.808594 348.214844 L 111.265625 348.214844 C 110.703125 348.257812 110.167969 348.40625 109.664062 348.652344 C 109.15625 348.898438 108.710938 349.226562 108.332031 349.640625 C 107.949219 350.054688 107.65625 350.523438 107.449219 351.046875 C 107.246094 351.570312 107.144531 352.117188 107.144531 352.679688 C 107.144531 353.242188 107.246094 353.785156 107.449219 354.308594 C 107.65625 354.832031 107.949219 355.300781 108.332031 355.714844 C 108.710938 356.128906 109.15625 356.460938 109.664062 356.707031 C 110.167969 356.953125 110.703125 357.097656 111.265625 357.144531 L 129.808594 357.144531 C 130.367188 357.097656 130.902344 356.953125 131.410156 356.707031 C 131.914062 356.460938 132.359375 356.128906 132.742188 355.714844 C 133.121094 355.300781 133.417969 354.832031 133.621094 354.308594 C 133.824219 353.785156 133.929688 353.242188 133.929688 352.679688 C 133.929688 352.117188 133.824219 351.570312 133.621094 351.046875 C 133.417969 350.523438 133.121094 350.054688 132.742188 349.640625 C 132.359375 349.226562 131.914062 348.898438 131.410156 348.652344 C 130.902344 348.40625 130.367188 348.257812 129.808594 348.214844 Z M 232.144531 348.214844 L 142.855469 348.214844 C 142.5625 348.214844 142.273438 348.242188 141.984375 348.300781 C 141.699219 348.355469 141.417969 348.441406 141.148438 348.554688 C 140.878906 348.667969 140.621094 348.804688 140.375 348.964844 C 140.132812 349.128906 139.90625 349.316406 139.699219 349.523438 C 139.492188 349.730469 139.308594 349.953125 139.144531 350.199219 C 138.980469 350.441406 138.84375 350.699219 138.734375 350.96875 C 138.621094 351.242188 138.535156 351.519531 138.480469 351.808594 C 138.421875 352.09375 138.394531 352.386719 138.394531 352.679688 C 138.394531 352.972656 138.421875 353.261719 138.480469 353.550781 C 138.535156 353.835938 138.621094 354.117188 138.734375 354.386719 C 138.84375 354.65625 138.980469 354.914062 139.144531 355.160156 C 139.308594 355.402344 139.492188 355.628906 139.699219 355.835938 C 139.90625 356.042969 140.132812 356.226562 140.375 356.390625 C 140.621094 356.554688 140.878906 356.691406 141.148438 356.804688 C 141.417969 356.914062 141.699219 357 141.984375 357.058594 C 142.273438 357.113281 142.5625 357.144531 142.855469 357.144531 L 178.4375 357.144531 L 178.4375 361.605469 L 160.714844 361.605469 C 160.421875 361.605469 160.128906 361.636719 159.84375 361.691406 C 159.554688 361.75 159.277344 361.835938 159.003906 361.945312 C 158.734375 362.058594 158.476562 362.195312 158.234375 362.359375 C 157.992188 362.523438 157.765625 362.707031 157.558594 362.914062 C 157.351562 363.121094 157.164062 363.347656 157.003906 363.589844 C 156.839844 363.835938 156.703125 364.09375 156.589844 364.363281 C 156.476562 364.632812 156.394531 364.914062 156.335938 365.199219 C 156.277344 365.488281 156.25 365.777344 156.25 366.070312 C 156.25 366.363281 156.277344 366.65625 156.335938 366.941406 C 156.394531 367.230469 156.476562 367.507812 156.589844 367.78125 C 156.703125 368.050781 156.839844 368.308594 157.003906 368.550781 C 157.164062 368.796875 157.351562 369.019531 157.558594 369.226562 C 157.765625 369.433594 157.992188 369.621094 158.234375 369.785156 C 158.476562 369.945312 158.734375 370.082031 159.003906 370.195312 C 159.277344 370.308594 159.554688 370.394531 159.84375 370.449219 C 160.128906 370.507812 160.421875 370.535156 160.714844 370.535156 L 216.519531 370.535156 C 216.8125 370.535156 217.101562 370.507812 217.390625 370.449219 C 217.675781 370.394531 217.957031 370.308594 218.226562 370.195312 C 218.496094 370.082031 218.753906 369.945312 219 369.785156 C 219.242188 369.621094 219.46875 369.433594 219.675781 369.226562 C 219.882812 369.019531 220.066406 368.796875 220.230469 368.550781 C 220.394531 368.308594 220.53125 368.050781 220.640625 367.78125 C 220.753906 367.507812 220.839844 367.230469 220.894531 366.941406 C 220.953125 366.65625 220.980469 366.363281 220.980469 366.070312 C 220.980469 365.777344 220.953125 365.488281 220.894531 365.199219 C 220.839844 364.914062 220.753906 364.632812 220.640625 364.363281 C 220.53125 364.09375 220.394531 363.835938 220.230469 363.589844 C 220.066406 363.347656 219.882812 363.121094 219.675781 362.914062 C 219.46875 362.707031 219.242188 362.523438 219 362.359375 C 218.753906 362.195312 218.496094 362.058594 218.226562 361.945312 C 217.957031 361.835938 217.675781 361.75 217.390625 361.691406 C 217.101562 361.636719 216.8125 361.605469 216.519531 361.605469 L 196.5625 361.605469 L 196.5625 357.144531 L 232.144531 357.144531 C 232.4375 357.144531 232.726562 357.113281 233.015625 357.058594 C 233.300781 357 233.582031 356.914062 233.851562 356.804688 C 234.121094 356.691406 234.378906 356.554688 234.625 356.390625 C 234.867188 356.226562 235.09375 356.042969 235.300781 355.835938 C 235.507812 355.628906 235.691406 355.402344 235.855469 355.160156 C 236.015625 354.914062 236.15625 354.65625 236.265625 354.386719 C 236.378906 354.117188 236.464844 353.835938 236.519531 353.550781 C 236.578125 353.261719 236.605469 352.972656 236.605469 352.679688 C 236.605469 352.386719 236.578125 352.09375 236.519531 351.808594 C 236.464844 351.519531 236.378906 351.242188 236.265625 350.96875 C 236.15625 350.699219 236.015625 350.441406 235.855469 350.199219 C 235.691406 349.953125 235.507812 349.730469 235.300781 349.523438 C 235.09375 349.316406 234.867188 349.128906 234.621094 348.964844 C 234.378906 348.804688 234.121094 348.667969 233.851562 348.554688 C 233.582031 348.441406 233.300781 348.355469 233.015625 348.300781 C 232.726562 348.242188 232.4375 348.214844 232.144531 348.214844 Z M 232.144531 348.214844 " fill-opacity="1" fill-rule="nonzero"/><path fill="#2d4356" d="M 336.429688 330.355469 L 237.472656 330.355469 L 250.417969 324.996094 C 250.960938 324.769531 251.472656 324.496094 251.960938 324.167969 C 252.449219 323.84375 252.898438 323.472656 253.3125 323.058594 C 253.730469 322.644531 254.097656 322.191406 254.425781 321.707031 C 254.75 321.21875 255.023438 320.703125 255.25 320.160156 C 255.472656 319.621094 255.644531 319.0625 255.757812 318.488281 C 255.871094 317.910156 255.929688 317.332031 255.929688 316.746094 C 255.929688 316.160156 255.871094 315.578125 255.757812 315.003906 C 255.644531 314.429688 255.472656 313.871094 255.25 313.328125 L 251.34375 303.894531 C 255.136719 301.628906 258.804688 299.171875 262.335938 296.523438 L 269.574219 303.757812 C 269.996094 304.160156 270.453125 304.519531 270.941406 304.832031 C 271.429688 305.148438 271.945312 305.414062 272.488281 305.632812 C 273.027344 305.847656 273.585938 306.011719 274.15625 306.121094 C 274.726562 306.230469 275.304688 306.289062 275.886719 306.289062 C 276.46875 306.289062 277.046875 306.230469 277.621094 306.121094 C 278.191406 306.011719 278.746094 305.847656 279.289062 305.632812 C 279.828125 305.414062 280.34375 305.148438 280.832031 304.832031 C 281.324219 304.519531 281.777344 304.160156 282.199219 303.757812 L 294.824219 291.132812 C 295.242188 290.714844 295.609375 290.265625 295.9375 289.777344 C 296.261719 289.292969 296.539062 288.777344 296.761719 288.234375 C 296.988281 287.691406 297.15625 287.136719 297.273438 286.558594 C 297.386719 285.984375 297.445312 285.402344 297.445312 284.816406 C 297.445312 284.230469 297.386719 283.652344 297.273438 283.074219 C 297.15625 282.5 296.988281 281.941406 296.765625 281.398438 C 296.539062 280.859375 296.265625 280.34375 295.9375 279.855469 C 295.613281 279.367188 295.242188 278.917969 294.828125 278.503906 L 287.59375 271.265625 C 290.246094 267.730469 292.703125 264.066406 294.964844 260.269531 L 304.398438 264.175781 C 304.941406 264.402344 305.5 264.570312 306.074219 264.683594 C 306.648438 264.800781 307.230469 264.855469 307.816406 264.855469 C 308.402344 264.855469 308.984375 264.800781 309.558594 264.6875 C 310.132812 264.570312 310.691406 264.402344 311.234375 264.179688 C 311.773438 263.953125 312.289062 263.679688 312.777344 263.351562 C 313.265625 263.027344 313.714844 262.65625 314.128906 262.242188 C 314.542969 261.828125 314.914062 261.378906 315.242188 260.890625 C 315.566406 260.402344 315.839844 259.886719 316.066406 259.347656 L 322.898438 242.851562 C 323.125 242.308594 323.292969 241.75 323.40625 241.175781 C 323.519531 240.601562 323.578125 240.019531 323.578125 239.433594 C 323.578125 238.847656 323.519531 238.265625 323.40625 237.691406 C 323.289062 237.117188 323.121094 236.558594 322.894531 236.019531 C 322.671875 235.476562 322.398438 234.960938 322.070312 234.472656 C 321.746094 233.988281 321.375 233.535156 320.960938 233.121094 C 320.546875 232.707031 320.097656 232.335938 319.609375 232.011719 C 319.121094 231.683594 318.609375 231.410156 318.066406 231.183594 L 308.628906 227.273438 C 309.71875 222.988281 310.578125 218.660156 311.210938 214.285156 L 321.429688 214.285156 C 322.015625 214.285156 322.59375 214.226562 323.167969 214.113281 C 323.746094 213.996094 324.300781 213.828125 324.84375 213.605469 C 325.386719 213.378906 325.898438 213.105469 326.386719 212.777344 C 326.875 212.453125 327.324219 212.082031 327.738281 211.667969 C 328.152344 211.253906 328.523438 210.800781 328.851562 210.316406 C 329.175781 209.828125 329.449219 209.3125 329.675781 208.773438 C 329.898438 208.230469 330.070312 207.671875 330.183594 207.097656 C 330.300781 206.523438 330.355469 205.941406 330.355469 205.355469 L 330.355469 187.5 C 330.355469 186.914062 330.300781 186.332031 330.183594 185.757812 C 330.070312 185.183594 329.898438 184.625 329.675781 184.085938 C 329.449219 183.542969 329.175781 183.027344 328.851562 182.542969 C 328.523438 182.054688 328.152344 181.605469 327.738281 181.1875 C 327.324219 180.773438 326.875 180.40625 326.386719 180.078125 C 325.898438 179.753906 325.386719 179.476562 324.84375 179.253906 C 324.300781 179.027344 323.746094 178.859375 323.167969 178.746094 C 322.59375 178.628906 322.015625 178.570312 321.429688 178.570312 L 311.210938 178.570312 C 310.578125 174.195312 309.71875 169.867188 308.628906 165.585938 L 318.066406 161.671875 C 318.609375 161.449219 319.121094 161.171875 319.609375 160.847656 C 320.097656 160.519531 320.546875 160.152344 320.960938 159.734375 C 321.375 159.320312 321.746094 158.871094 322.070312 158.382812 C 322.398438 157.894531 322.671875 157.382812 322.894531 156.839844 C 323.121094 156.296875 323.289062 155.738281 323.40625 155.164062 C 323.519531 154.589844 323.578125 154.007812 323.578125 153.421875 C 323.578125 152.835938 323.519531 152.257812 323.40625 151.683594 C 323.292969 151.105469 323.125 150.546875 322.898438 150.007812 L 316.066406 133.511719 C 315.839844 132.96875 315.566406 132.453125 315.242188 131.964844 C 314.914062 131.480469 314.542969 131.027344 314.128906 130.613281 C 313.714844 130.199219 313.265625 129.828125 312.777344 129.503906 C 312.289062 129.179688 311.773438 128.902344 311.234375 128.679688 C 310.691406 128.453125 310.132812 128.285156 309.558594 128.171875 C 308.984375 128.058594 308.402344 128 307.816406 128 C 307.230469 128 306.648438 128.058594 306.074219 128.171875 C 305.5 128.285156 304.941406 128.457031 304.398438 128.679688 L 294.964844 132.585938 C 292.703125 128.789062 290.246094 125.125 287.59375 121.589844 L 294.828125 114.355469 C 295.242188 113.9375 295.613281 113.488281 295.9375 113 C 296.265625 112.511719 296.539062 112 296.765625 111.457031 C 296.988281 110.914062 297.15625 110.359375 297.273438 109.78125 C 297.386719 109.207031 297.445312 108.628906 297.445312 108.039062 C 297.445312 107.453125 297.386719 106.875 297.273438 106.300781 C 297.15625 105.722656 296.988281 105.164062 296.765625 104.625 C 296.539062 104.082031 296.265625 103.566406 295.9375 103.082031 C 295.613281 102.59375 295.242188 102.140625 294.828125 101.726562 L 282.203125 89.101562 C 281.78125 88.699219 281.324219 88.339844 280.835938 88.023438 C 280.347656 87.710938 279.832031 87.445312 279.289062 87.226562 C 278.75 87.007812 278.191406 86.84375 277.621094 86.734375 C 277.050781 86.625 276.472656 86.570312 275.890625 86.570312 C 275.304688 86.570312 274.730469 86.625 274.15625 86.734375 C 273.585938 86.84375 273.027344 87.007812 272.488281 87.226562 C 271.945312 87.441406 271.429688 87.707031 270.941406 88.023438 C 270.453125 88.339844 269.996094 88.699219 269.574219 89.101562 L 262.335938 96.335938 C 258.804688 93.683594 255.136719 91.226562 251.34375 88.964844 L 255.25 79.527344 C 255.472656 78.988281 255.644531 78.429688 255.757812 77.855469 C 255.871094 77.277344 255.929688 76.699219 255.929688 76.113281 C 255.929688 75.527344 255.871094 74.945312 255.757812 74.371094 C 255.644531 73.796875 255.472656 73.238281 255.25 72.695312 C 255.023438 72.152344 254.75 71.640625 254.425781 71.152344 C 254.097656 70.664062 253.730469 70.214844 253.3125 69.796875 C 252.898438 69.382812 252.449219 69.015625 251.960938 68.6875 C 251.472656 68.363281 250.960938 68.085938 250.417969 67.863281 L 233.921875 61.027344 C 233.378906 60.804688 232.820312 60.636719 232.246094 60.519531 C 231.671875 60.40625 231.089844 60.351562 230.503906 60.351562 C 229.917969 60.351562 229.335938 60.40625 228.761719 60.523438 C 228.1875 60.636719 227.628906 60.804688 227.089844 61.03125 C 226.546875 61.253906 226.03125 61.527344 225.542969 61.855469 C 225.058594 62.179688 224.605469 62.550781 224.191406 62.964844 C 223.777344 63.378906 223.40625 63.832031 223.082031 64.316406 C 222.753906 64.804688 222.480469 65.320312 222.253906 65.859375 L 218.34375 75.300781 C 214.0625 74.210938 209.730469 73.351562 205.355469 72.71875 L 205.355469 62.5 C 205.355469 61.914062 205.300781 61.332031 205.183594 60.757812 C 205.070312 60.183594 204.898438 59.625 204.675781 59.085938 C 204.449219 58.542969 204.175781 58.027344 203.851562 57.542969 C 203.523438 57.054688 203.152344 56.605469 202.738281 56.1875 C 202.324219 55.773438 201.875 55.40625 201.386719 55.078125 C 200.898438 54.753906 200.386719 54.476562 199.84375 54.253906 C 199.300781 54.027344 198.746094 53.859375 198.167969 53.746094 C 197.59375 53.628906 197.015625 53.570312 196.429688 53.570312 L 178.570312 53.570312 C 177.984375 53.570312 177.40625 53.628906 176.832031 53.746094 C 176.253906 53.859375 175.699219 54.027344 175.15625 54.253906 C 174.613281 54.476562 174.101562 54.753906 173.613281 55.078125 C 173.125 55.40625 172.675781 55.773438 172.261719 56.1875 C 171.847656 56.605469 171.476562 57.054688 171.152344 57.542969 C 170.824219 58.027344 170.550781 58.542969 170.324219 59.085938 C 170.101562 59.625 169.929688 60.183594 169.816406 60.757812 C 169.703125 61.332031 169.644531 61.914062 169.644531 62.5 L 169.644531 72.71875 C 165.269531 73.347656 160.9375 74.210938 156.65625 75.300781 L 152.746094 65.863281 C 152.523438 65.320312 152.246094 64.808594 151.921875 64.320312 C 151.597656 63.832031 151.226562 63.378906 150.8125 62.964844 C 150.398438 62.550781 149.945312 62.179688 149.457031 61.855469 C 148.972656 61.527344 148.457031 61.253906 147.914062 61.027344 C 147.375 60.804688 146.816406 60.632812 146.238281 60.519531 C 145.664062 60.40625 145.085938 60.347656 144.496094 60.347656 C 143.910156 60.347656 143.332031 60.40625 142.753906 60.519531 C 142.179688 60.632812 141.621094 60.804688 141.082031 61.027344 L 124.582031 67.863281 C 124.039062 68.085938 123.527344 68.363281 123.039062 68.6875 C 122.550781 69.015625 122.101562 69.386719 121.6875 69.800781 C 121.273438 70.214844 120.902344 70.667969 120.578125 71.152344 C 120.253906 71.640625 119.976562 72.15625 119.753906 72.695312 C 119.53125 73.238281 119.359375 73.796875 119.246094 74.371094 C 119.132812 74.945312 119.074219 75.527344 119.074219 76.113281 C 119.074219 76.699219 119.128906 77.277344 119.242188 77.855469 C 119.359375 78.429688 119.527344 78.988281 119.75 79.527344 L 123.65625 88.964844 C 119.863281 91.226562 116.195312 93.683594 112.660156 96.335938 L 105.425781 89.101562 C 105.011719 88.6875 104.558594 88.316406 104.070312 87.992188 C 103.585938 87.664062 103.070312 87.390625 102.527344 87.167969 C 101.988281 86.941406 101.429688 86.773438 100.851562 86.660156 C 100.277344 86.546875 99.699219 86.488281 99.113281 86.488281 C 98.527344 86.488281 97.945312 86.546875 97.371094 86.660156 C 96.796875 86.773438 96.238281 86.941406 95.695312 87.167969 C 95.152344 87.390625 94.640625 87.664062 94.152344 87.992188 C 93.664062 88.316406 93.214844 88.6875 92.796875 89.101562 L 80.171875 101.726562 C 79.757812 102.140625 79.386719 102.589844 79.0625 103.078125 C 78.734375 103.566406 78.460938 104.082031 78.238281 104.621094 C 78.011719 105.164062 77.84375 105.722656 77.726562 106.296875 C 77.613281 106.871094 77.554688 107.453125 77.554688 108.039062 C 77.554688 108.625 77.613281 109.207031 77.726562 109.78125 C 77.84375 110.355469 78.011719 110.914062 78.234375 111.457031 C 78.460938 112 78.734375 112.511719 79.0625 113 C 79.386719 113.488281 79.757812 113.9375 80.171875 114.355469 L 87.40625 121.589844 C 84.757812 125.125 82.296875 128.789062 80.035156 132.585938 L 70.601562 128.679688 C 70.058594 128.457031 69.5 128.285156 68.925781 128.171875 C 68.351562 128.058594 67.769531 128 67.183594 128 C 66.597656 128 66.015625 128.058594 65.441406 128.171875 C 64.867188 128.285156 64.308594 128.457031 63.765625 128.679688 C 63.226562 128.902344 62.710938 129.179688 62.222656 129.503906 C 61.734375 129.828125 61.285156 130.199219 60.871094 130.613281 C 60.457031 131.027344 60.085938 131.480469 59.757812 131.96875 C 59.433594 132.453125 59.160156 132.96875 58.933594 133.511719 L 52.097656 150.007812 C 51.875 150.550781 51.707031 151.109375 51.59375 151.683594 C 51.480469 152.257812 51.421875 152.839844 51.421875 153.425781 C 51.425781 154.011719 51.480469 154.59375 51.597656 155.167969 C 51.710938 155.742188 51.878906 156.300781 52.105469 156.839844 C 52.328125 157.382812 52.605469 157.894531 52.929688 158.382812 C 53.253906 158.871094 53.625 159.320312 54.039062 159.738281 C 54.453125 160.152344 54.902344 160.519531 55.390625 160.847656 C 55.878906 161.171875 56.390625 161.449219 56.933594 161.671875 L 66.371094 165.585938 C 65.28125 169.867188 64.421875 174.195312 63.792969 178.570312 L 53.570312 178.570312 C 52.984375 178.570312 52.40625 178.628906 51.832031 178.746094 C 51.253906 178.859375 50.699219 179.027344 50.15625 179.253906 C 49.613281 179.476562 49.101562 179.753906 48.613281 180.078125 C 48.125 180.40625 47.675781 180.773438 47.261719 181.1875 C 46.847656 181.605469 46.476562 182.054688 46.152344 182.542969 C 45.824219 183.027344 45.550781 183.542969 45.324219 184.085938 C 45.101562 184.625 44.929688 185.183594 44.816406 185.757812 C 44.703125 186.332031 44.644531 186.914062 44.644531 187.5 L 44.644531 205.355469 C 44.644531 205.941406 44.703125 206.523438 44.816406 207.097656 C 44.929688 207.671875 45.101562 208.230469 45.324219 208.773438 C 45.550781 209.3125 45.824219 209.828125 46.152344 210.316406 C 46.476562 210.800781 46.847656 211.253906 47.261719 211.667969 C 47.675781 212.082031 48.125 212.453125 48.613281 212.777344 C 49.101562 213.105469 49.613281 213.378906 50.15625 213.605469 C 50.699219 213.828125 51.253906 213.996094 51.832031 214.113281 C 52.40625 214.226562 52.984375 214.285156 53.570312 214.285156 L 63.792969 214.285156 C 64.421875 218.660156 65.28125 222.988281 66.371094 227.273438 L 56.929688 231.183594 C 56.390625 231.410156 55.875 231.683594 55.390625 232.011719 C 54.902344 232.335938 54.453125 232.707031 54.039062 233.121094 C 53.625 233.535156 53.253906 233.988281 52.929688 234.476562 C 52.601562 234.960938 52.328125 235.476562 52.105469 236.019531 C 51.878906 236.558594 51.710938 237.117188 51.597656 237.691406 C 51.480469 238.265625 51.425781 238.847656 51.421875 239.433594 C 51.421875 240.019531 51.480469 240.601562 51.59375 241.175781 C 51.707031 241.75 51.875 242.308594 52.101562 242.851562 L 58.933594 259.347656 C 59.160156 259.886719 59.433594 260.402344 59.757812 260.890625 C 60.085938 261.378906 60.457031 261.828125 60.871094 262.242188 C 61.285156 262.65625 61.734375 263.027344 62.222656 263.351562 C 62.710938 263.679688 63.226562 263.953125 63.765625 264.175781 C 64.308594 264.402344 64.867188 264.570312 65.441406 264.683594 C 66.015625 264.800781 66.597656 264.855469 67.183594 264.855469 C 67.769531 264.855469 68.347656 264.800781 68.925781 264.6875 C 69.5 264.570312 70.058594 264.402344 70.597656 264.175781 L 80.035156 260.269531 C 82.296875 264.066406 84.757812 267.730469 87.40625 271.265625 L 80.171875 278.503906 C 79.757812 278.917969 79.386719 279.367188 79.0625 279.855469 C 78.734375 280.34375 78.460938 280.859375 78.234375 281.398438 C 78.011719 281.941406 77.84375 282.5 77.726562 283.074219 C 77.613281 283.648438 77.554688 284.230469 77.554688 284.816406 C 77.554688 285.402344 77.613281 285.984375 77.726562 286.558594 C 77.84375 287.132812 78.011719 287.691406 78.234375 288.234375 C 78.460938 288.773438 78.734375 289.289062 79.0625 289.777344 C 79.386719 290.265625 79.757812 290.714844 80.171875 291.128906 L 92.796875 303.757812 C 93.214844 304.171875 93.664062 304.539062 94.152344 304.867188 C 94.640625 305.191406 95.152344 305.46875 95.695312 305.691406 C 96.238281 305.914062 96.796875 306.085938 97.371094 306.199219 C 97.945312 306.3125 98.527344 306.371094 99.113281 306.371094 C 99.699219 306.371094 100.277344 306.3125 100.851562 306.199219 C 101.429688 306.085938 101.988281 305.914062 102.527344 305.691406 C 103.070312 305.46875 103.585938 305.191406 104.070312 304.867188 C 104.558594 304.539062 105.011719 304.171875 105.425781 303.757812 L 112.660156 296.523438 C 116.195312 299.171875 119.863281 301.628906 123.65625 303.894531 L 119.75 313.332031 C 119.523438 313.871094 119.355469 314.429688 119.242188 315.003906 C 119.128906 315.582031 119.074219 316.160156 119.074219 316.746094 C 119.074219 317.332031 119.132812 317.914062 119.246094 318.488281 C 119.359375 319.0625 119.53125 319.621094 119.753906 320.160156 C 119.980469 320.703125 120.253906 321.21875 120.578125 321.703125 C 120.90625 322.191406 121.273438 322.644531 121.6875 323.058594 C 122.101562 323.472656 122.554688 323.84375 123.039062 324.167969 C 123.527344 324.496094 124.042969 324.769531 124.582031 324.996094 L 137.527344 330.355469 L 38.570312 330.355469 C 38.25 330.316406 37.933594 330.308594 37.613281 330.335938 C 37.292969 330.359375 36.980469 330.421875 36.675781 330.515625 C 36.367188 330.605469 36.074219 330.730469 35.796875 330.886719 C 35.515625 331.042969 35.253906 331.226562 35.015625 331.4375 C 34.773438 331.648438 34.558594 331.882812 34.367188 332.140625 C 34.175781 332.398438 34.015625 332.671875 33.882812 332.964844 C 33.75 333.257812 33.652344 333.558594 33.585938 333.871094 C 33.515625 334.183594 33.484375 334.5 33.484375 334.820312 C 33.484375 335.140625 33.515625 335.457031 33.585938 335.769531 C 33.652344 336.085938 33.75 336.386719 33.882812 336.679688 C 34.015625 336.96875 34.175781 337.246094 34.367188 337.503906 C 34.558594 337.757812 34.773438 337.992188 35.015625 338.203125 C 35.253906 338.417969 35.515625 338.601562 35.796875 338.753906 C 36.074219 338.910156 36.367188 339.035156 36.675781 339.128906 C 36.980469 339.222656 37.292969 339.28125 37.613281 339.308594 C 37.933594 339.335938 38.25 339.328125 38.570312 339.285156 L 336.429688 339.285156 C 336.75 339.328125 337.066406 339.335938 337.386719 339.308594 C 337.707031 339.28125 338.019531 339.222656 338.324219 339.128906 C 338.632812 339.035156 338.925781 338.910156 339.203125 338.753906 C 339.484375 338.601562 339.746094 338.417969 339.984375 338.203125 C 340.226562 337.992188 340.441406 337.757812 340.632812 337.503906 C 340.824219 337.246094 340.984375 336.96875 341.117188 336.679688 C 341.25 336.386719 341.347656 336.085938 341.414062 335.769531 C 341.484375 335.457031 341.515625 335.140625 341.515625 334.820312 C 341.515625 334.5 341.484375 334.183594 341.414062 333.871094 C 341.347656 333.558594 341.25 333.257812 341.117188 332.964844 C 340.984375 332.671875 340.824219 332.398438 340.632812 332.140625 C 340.441406 331.882812 340.226562 331.648438 339.984375 331.4375 C 339.746094 331.226562 339.484375 331.042969 339.203125 330.886719 C 338.925781 330.730469 338.632812 330.605469 338.324219 330.515625 C 338.019531 330.421875 337.707031 330.359375 337.386719 330.335938 C 337.066406 330.308594 336.75 330.316406 336.429688 330.355469 Z M 150.25 330.355469 C 151.355469 329.4375 152.1875 328.320312 152.746094 326.996094 L 156.65625 317.558594 C 160.9375 318.648438 165.269531 319.507812 169.644531 320.136719 L 169.644531 330.355469 Z M 178.570312 330.355469 L 178.570312 316.207031 C 178.570312 315.65625 178.472656 315.125 178.277344 314.613281 C 178.082031 314.097656 177.800781 313.636719 177.433594 313.226562 C 177.066406 312.816406 176.636719 312.488281 176.148438 312.234375 C 175.660156 311.984375 175.144531 311.828125 174.597656 311.765625 C 168.046875 311.039062 161.605469 309.761719 155.269531 307.929688 C 154.742188 307.777344 154.207031 307.726562 153.660156 307.773438 C 153.113281 307.820312 152.59375 307.960938 152.097656 308.199219 C 151.605469 308.4375 151.167969 308.753906 150.789062 309.152344 C 150.414062 309.550781 150.121094 310.003906 149.910156 310.511719 L 144.496094 323.578125 L 128 316.746094 L 133.40625 303.6875 C 133.617188 303.179688 133.730469 302.652344 133.746094 302.101562 C 133.761719 301.554688 133.679688 301.019531 133.496094 300.503906 C 133.316406 299.984375 133.046875 299.515625 132.695312 299.097656 C 132.339844 298.675781 131.921875 298.335938 131.441406 298.070312 C 125.675781 294.875 120.21875 291.21875 115.074219 287.097656 C 114.644531 286.753906 114.167969 286.5 113.644531 286.332031 C 113.121094 286.164062 112.585938 286.09375 112.039062 286.125 C 111.488281 286.15625 110.964844 286.28125 110.464844 286.507812 C 109.960938 286.730469 109.515625 287.039062 109.128906 287.425781 L 99.109375 297.445312 L 86.484375 284.816406 L 96.5 274.800781 C 96.890625 274.410156 97.195312 273.96875 97.421875 273.464844 C 97.644531 272.964844 97.769531 272.4375 97.800781 271.890625 C 97.832031 271.34375 97.761719 270.804688 97.597656 270.285156 C 97.429688 269.761719 97.171875 269.285156 96.832031 268.855469 C 92.710938 263.710938 89.050781 258.253906 85.859375 252.484375 C 85.59375 252.003906 85.25 251.585938 84.832031 251.234375 C 84.410156 250.878906 83.941406 250.613281 83.425781 250.429688 C 82.90625 250.25 82.375 250.167969 81.824219 250.183594 C 81.277344 250.199219 80.75 250.3125 80.242188 250.519531 L 67.183594 255.929688 L 60.347656 239.433594 L 73.417969 234.019531 C 73.925781 233.808594 74.375 233.515625 74.777344 233.140625 C 75.175781 232.761719 75.492188 232.328125 75.730469 231.832031 C 75.96875 231.335938 76.113281 230.816406 76.15625 230.269531 C 76.203125 229.722656 76.148438 229.183594 75.996094 228.65625 C 74.167969 222.324219 72.890625 215.882812 72.160156 209.332031 C 72.101562 208.785156 71.945312 208.265625 71.691406 207.777344 C 71.441406 207.289062 71.109375 206.863281 70.703125 206.496094 C 70.292969 206.128906 69.832031 205.847656 69.316406 205.652344 C 68.804688 205.457031 68.273438 205.355469 67.722656 205.355469 L 53.570312 205.355469 L 53.570312 187.5 L 67.722656 187.5 C 68.273438 187.5 68.804688 187.402344 69.316406 187.207031 C 69.832031 187.007812 70.292969 186.726562 70.703125 186.363281 C 71.109375 185.996094 71.441406 185.566406 71.691406 185.078125 C 71.945312 184.589844 72.101562 184.074219 72.160156 183.527344 C 72.890625 176.976562 74.167969 170.53125 75.996094 164.199219 C 76.148438 163.671875 76.203125 163.136719 76.15625 162.589844 C 76.109375 162.042969 75.96875 161.519531 75.730469 161.027344 C 75.492188 160.53125 75.175781 160.09375 74.777344 159.71875 C 74.375 159.339844 73.921875 159.046875 73.417969 158.835938 L 60.347656 153.425781 L 67.183594 136.929688 L 80.242188 142.335938 C 80.75 142.546875 81.277344 142.660156 81.824219 142.675781 C 82.375 142.691406 82.90625 142.609375 83.425781 142.429688 C 83.945312 142.246094 84.414062 141.980469 84.832031 141.625 C 85.25 141.269531 85.59375 140.851562 85.859375 140.371094 C 89.050781 134.605469 92.710938 129.148438 96.832031 124 C 97.171875 123.574219 97.429688 123.097656 97.597656 122.574219 C 97.761719 122.050781 97.832031 121.515625 97.800781 120.964844 C 97.769531 120.417969 97.644531 119.894531 97.417969 119.390625 C 97.195312 118.890625 96.890625 118.445312 96.5 118.058594 L 86.484375 108.039062 L 99.113281 95.414062 L 109.128906 105.429688 C 109.515625 105.816406 109.960938 106.125 110.464844 106.347656 C 110.964844 106.574219 111.488281 106.699219 112.039062 106.730469 C 112.585938 106.761719 113.121094 106.691406 113.644531 106.523438 C 114.167969 106.355469 114.644531 106.101562 115.074219 105.757812 C 120.21875 101.636719 125.675781 97.980469 131.441406 94.789062 C 131.921875 94.523438 132.339844 94.179688 132.695312 93.761719 C 133.046875 93.339844 133.316406 92.871094 133.496094 92.355469 C 133.679688 91.835938 133.761719 91.300781 133.746094 90.753906 C 133.730469 90.207031 133.617188 89.675781 133.40625 89.171875 L 128 76.109375 L 144.496094 69.28125 L 149.910156 82.34375 C 150.121094 82.851562 150.414062 83.304688 150.792969 83.703125 C 151.167969 84.101562 151.605469 84.417969 152.097656 84.65625 C 152.59375 84.894531 153.113281 85.035156 153.660156 85.082031 C 154.207031 85.128906 154.742188 85.078125 155.269531 84.925781 C 161.605469 83.097656 168.046875 81.816406 174.597656 81.089844 C 175.144531 81.027344 175.660156 80.871094 176.148438 80.621094 C 176.636719 80.371094 177.066406 80.039062 177.433594 79.628906 C 177.800781 79.21875 178.082031 78.757812 178.277344 78.246094 C 178.472656 77.734375 178.570312 77.199219 178.570312 76.652344 L 178.570312 62.5 L 196.429688 62.5 L 196.429688 76.652344 C 196.429688 77.199219 196.527344 77.734375 196.722656 78.246094 C 196.917969 78.757812 197.199219 79.21875 197.566406 79.628906 C 197.933594 80.039062 198.363281 80.371094 198.851562 80.621094 C 199.339844 80.875 199.855469 81.027344 200.402344 81.089844 C 206.953125 81.816406 213.394531 83.097656 219.730469 84.925781 C 220.257812 85.078125 220.792969 85.128906 221.339844 85.082031 C 221.886719 85.035156 222.40625 84.894531 222.902344 84.65625 C 223.394531 84.417969 223.832031 84.101562 224.207031 83.703125 C 224.585938 83.304688 224.878906 82.851562 225.089844 82.34375 L 230.503906 69.277344 L 247 76.109375 L 241.59375 89.171875 C 241.382812 89.675781 241.269531 90.207031 241.253906 90.753906 C 241.238281 91.300781 241.320312 91.835938 241.503906 92.355469 C 241.683594 92.871094 241.953125 93.339844 242.304688 93.761719 C 242.660156 94.179688 243.078125 94.523438 243.558594 94.789062 C 249.324219 97.980469 254.78125 101.636719 259.925781 105.757812 C 260.355469 106.101562 260.832031 106.355469 261.355469 106.523438 C 261.878906 106.691406 262.414062 106.761719 262.960938 106.730469 C 263.511719 106.699219 264.035156 106.574219 264.535156 106.347656 C 265.039062 106.125 265.484375 105.816406 265.871094 105.429688 L 275.886719 95.414062 L 288.515625 108.039062 L 278.5 118.058594 C 278.109375 118.445312 277.804688 118.890625 277.582031 119.390625 C 277.355469 119.894531 277.230469 120.417969 277.199219 120.964844 C 277.167969 121.515625 277.238281 122.050781 277.402344 122.574219 C 277.570312 123.097656 277.828125 123.574219 278.167969 124 C 282.289062 129.148438 285.945312 134.601562 289.140625 140.371094 C 289.40625 140.851562 289.75 141.269531 290.167969 141.621094 C 290.585938 141.976562 291.054688 142.246094 291.574219 142.425781 C 292.09375 142.609375 292.625 142.691406 293.175781 142.675781 C 293.722656 142.660156 294.25 142.546875 294.757812 142.335938 L 307.816406 136.929688 L 314.648438 153.425781 L 301.582031 158.835938 C 301.078125 159.046875 300.625 159.339844 300.222656 159.71875 C 299.824219 160.09375 299.507812 160.53125 299.269531 161.027344 C 299.03125 161.519531 298.890625 162.042969 298.84375 162.589844 C 298.796875 163.136719 298.851562 163.671875 299.003906 164.199219 C 300.832031 170.53125 302.109375 176.972656 302.839844 183.527344 C 302.898438 184.074219 303.054688 184.589844 303.308594 185.078125 C 303.558594 185.566406 303.890625 185.996094 304.296875 186.363281 C 304.707031 186.726562 305.167969 187.007812 305.683594 187.207031 C 306.195312 187.402344 306.726562 187.5 307.277344 187.5 L 321.429688 187.5 L 321.429688 205.355469 L 307.277344 205.355469 C 306.726562 205.355469 306.195312 205.457031 305.683594 205.652344 C 305.167969 205.847656 304.707031 206.128906 304.296875 206.496094 C 303.890625 206.863281 303.558594 207.289062 303.308594 207.777344 C 303.054688 208.265625 302.898438 208.785156 302.839844 209.332031 C 302.109375 215.882812 300.832031 222.324219 299.003906 228.65625 C 298.851562 229.183594 298.796875 229.722656 298.84375 230.269531 C 298.890625 230.816406 299.03125 231.335938 299.269531 231.832031 C 299.507812 232.324219 299.824219 232.761719 300.222656 233.140625 C 300.625 233.515625 301.078125 233.808594 301.582031 234.019531 L 314.652344 239.433594 L 307.816406 255.929688 L 294.757812 250.519531 C 294.25 250.308594 293.722656 250.195312 293.175781 250.179688 C 292.625 250.164062 292.09375 250.25 291.574219 250.429688 C 291.054688 250.609375 290.585938 250.878906 290.167969 251.234375 C 289.746094 251.589844 289.40625 252.007812 289.140625 252.488281 C 285.945312 258.253906 282.289062 263.710938 278.171875 268.855469 C 277.828125 269.285156 277.570312 269.761719 277.402344 270.285156 C 277.238281 270.804688 277.167969 271.34375 277.199219 271.890625 C 277.230469 272.4375 277.355469 272.964844 277.582031 273.464844 C 277.804688 273.964844 278.109375 274.410156 278.5 274.800781 L 288.515625 284.816406 L 275.886719 297.445312 L 265.871094 287.425781 C 265.484375 287.039062 265.039062 286.730469 264.539062 286.507812 C 264.035156 286.28125 263.511719 286.15625 262.960938 286.125 C 262.414062 286.09375 261.878906 286.164062 261.355469 286.332031 C 260.832031 286.5 260.355469 286.753906 259.925781 287.097656 C 254.78125 291.21875 249.324219 294.875 243.558594 298.070312 C 243.078125 298.335938 242.660156 298.675781 242.304688 299.097656 C 241.953125 299.515625 241.683594 299.984375 241.503906 300.503906 C 241.320312 301.019531 241.238281 301.554688 241.253906 302.101562 C 241.269531 302.652344 241.382812 303.179688 241.59375 303.6875 L 247 316.746094 L 230.503906 323.578125 L 225.089844 310.511719 C 224.882812 310.003906 224.585938 309.550781 224.210938 309.152344 C 223.832031 308.753906 223.398438 308.4375 222.902344 308.199219 C 222.40625 307.960938 221.886719 307.816406 221.339844 307.773438 C 220.792969 307.726562 220.257812 307.777344 219.730469 307.929688 C 213.394531 309.761719 206.953125 311.039062 200.402344 311.765625 C 199.855469 311.828125 199.339844 311.984375 198.851562 312.234375 C 198.363281 312.488281 197.933594 312.816406 197.566406 313.226562 C 197.199219 313.636719 196.917969 314.097656 196.722656 314.609375 C 196.527344 315.125 196.429688 315.65625 196.429688 316.207031 L 196.429688 330.355469 Z M 205.355469 320.136719 C 209.730469 319.507812 214.0625 318.644531 218.34375 317.558594 L 222.253906 326.996094 C 222.816406 328.320312 223.648438 329.441406 224.753906 330.355469 L 205.355469 330.355469 Z M 152.464844 17.855469 C 152.90625 17.855469 153.339844 17.8125 153.773438 17.726562 C 154.203125 17.644531 154.621094 17.515625 155.027344 17.347656 C 155.433594 17.179688 155.820312 16.972656 156.1875 16.730469 C 156.550781 16.484375 156.890625 16.207031 157.199219 15.894531 C 157.511719 15.585938 157.789062 15.246094 158.035156 14.882812 C 158.277344 14.515625 158.484375 14.128906 158.652344 13.722656 C 158.820312 13.316406 158.949219 12.898438 159.035156 12.46875 C 159.121094 12.035156 159.164062 11.601562 159.164062 11.160156 C 159.164062 10.722656 159.121094 10.285156 159.035156 9.855469 C 158.949219 9.421875 158.820312 9.003906 158.652344 8.597656 C 158.484375 8.191406 158.277344 7.804688 158.035156 7.441406 C 157.789062 7.074219 157.511719 6.738281 157.199219 6.425781 C 156.890625 6.113281 156.550781 5.835938 156.1875 5.59375 C 155.820312 5.347656 155.433594 5.140625 155.027344 4.972656 C 154.621094 4.804688 154.203125 4.679688 153.773438 4.59375 C 153.339844 4.507812 152.90625 4.464844 152.464844 4.464844 C 152.027344 4.464844 151.589844 4.507812 151.160156 4.59375 C 150.726562 4.679688 150.308594 4.804688 149.902344 4.972656 C 149.496094 5.140625 149.109375 5.347656 148.746094 5.59375 C 148.378906 5.835938 148.042969 6.113281 147.730469 6.425781 C 147.417969 6.738281 147.140625 7.074219 146.898438 7.441406 C 146.652344 7.804688 146.449219 8.191406 146.277344 8.597656 C 146.109375 9.003906 145.984375 9.421875 145.898438 9.855469 C 145.8125 10.285156 145.769531 10.722656 145.769531 11.160156 C 145.769531 11.601562 145.8125 12.035156 145.898438 12.464844 C 145.984375 12.898438 146.113281 13.316406 146.28125 13.722656 C 146.449219 14.128906 146.65625 14.515625 146.898438 14.878906 C 147.144531 15.246094 147.421875 15.582031 147.734375 15.894531 C 148.042969 16.203125 148.382812 16.480469 148.746094 16.726562 C 149.113281 16.96875 149.5 17.175781 149.90625 17.34375 C 150.308594 17.515625 150.730469 17.640625 151.160156 17.726562 C 151.589844 17.8125 152.027344 17.855469 152.464844 17.855469 Z M 152.464844 7.8125 C 152.910156 7.8125 153.335938 7.898438 153.746094 8.066406 C 154.15625 8.238281 154.519531 8.480469 154.832031 8.792969 C 155.148438 9.105469 155.390625 9.46875 155.558594 9.878906 C 155.730469 10.289062 155.8125 10.714844 155.8125 11.160156 C 155.8125 11.605469 155.730469 12.03125 155.558594 12.441406 C 155.390625 12.851562 155.148438 13.214844 154.832031 13.527344 C 154.519531 13.84375 154.15625 14.085938 153.746094 14.253906 C 153.335938 14.425781 152.910156 14.507812 152.464844 14.507812 C 152.023438 14.507812 151.59375 14.425781 151.183594 14.253906 C 150.773438 14.085938 150.414062 13.84375 150.097656 13.527344 C 149.785156 13.214844 149.542969 12.851562 149.371094 12.441406 C 149.203125 12.03125 149.117188 11.605469 149.117188 11.160156 C 149.117188 10.71875 149.203125 10.289062 149.375 9.878906 C 149.542969 9.46875 149.785156 9.109375 150.097656 8.792969 C 150.414062 8.480469 150.773438 8.238281 151.183594 8.066406 C 151.59375 7.898438 152.023438 7.8125 152.464844 7.8125 Z M 353.359375 154.019531 C 353.066406 154.019531 352.773438 154.046875 352.488281 154.105469 C 352.199219 154.160156 351.921875 154.246094 351.648438 154.359375 C 351.378906 154.46875 351.121094 154.605469 350.878906 154.769531 C 350.632812 154.933594 350.410156 155.117188 350.203125 155.324219 C 349.996094 155.53125 349.808594 155.757812 349.648438 156 C 349.484375 156.246094 349.347656 156.503906 349.234375 156.773438 C 349.121094 157.042969 349.039062 157.324219 348.980469 157.609375 C 348.921875 157.898438 348.894531 158.1875 348.894531 158.480469 C 348.894531 158.773438 348.921875 159.066406 348.980469 159.351562 C 349.039062 159.640625 349.121094 159.917969 349.234375 160.191406 C 349.347656 160.460938 349.484375 160.71875 349.648438 160.960938 C 349.808594 161.207031 349.996094 161.429688 350.203125 161.640625 C 350.410156 161.847656 350.632812 162.03125 350.878906 162.195312 C 351.121094 162.355469 351.378906 162.496094 351.648438 162.605469 C 351.921875 162.71875 352.199219 162.804688 352.488281 162.859375 C 352.773438 162.917969 353.066406 162.945312 353.359375 162.945312 C 353.652344 162.945312 353.941406 162.917969 354.230469 162.859375 C 354.515625 162.804688 354.796875 162.71875 355.066406 162.605469 C 355.335938 162.496094 355.59375 162.355469 355.839844 162.195312 C 356.082031 162.03125 356.308594 161.847656 356.515625 161.640625 C 356.722656 161.429688 356.90625 161.207031 357.070312 160.960938 C 357.234375 160.71875 357.371094 160.460938 357.484375 160.191406 C 357.59375 159.917969 357.679688 159.640625 357.738281 159.351562 C 357.792969 159.066406 357.824219 158.773438 357.824219 158.480469 C 357.824219 158.1875 357.792969 157.898438 357.738281 157.613281 C 357.679688 157.324219 357.59375 157.046875 357.480469 156.773438 C 357.371094 156.503906 357.230469 156.246094 357.070312 156.003906 C 356.90625 155.757812 356.722656 155.535156 356.515625 155.328125 C 356.308594 155.121094 356.082031 154.933594 355.835938 154.773438 C 355.59375 154.609375 355.335938 154.472656 355.066406 154.359375 C 354.796875 154.246094 354.515625 154.160156 354.230469 154.105469 C 353.941406 154.046875 353.652344 154.019531 353.359375 154.019531 Z M 353.359375 160.714844 C 353.0625 160.714844 352.777344 160.65625 352.503906 160.542969 C 352.230469 160.429688 351.988281 160.269531 351.78125 160.058594 C 351.570312 159.851562 351.410156 159.609375 351.296875 159.335938 C 351.183594 159.0625 351.125 158.777344 351.125 158.480469 C 351.125 158.1875 351.183594 157.902344 351.296875 157.628906 C 351.410156 157.355469 351.570312 157.113281 351.78125 156.902344 C 351.988281 156.695312 352.230469 156.53125 352.503906 156.417969 C 352.777344 156.304688 353.0625 156.25 353.359375 156.25 C 353.65625 156.25 353.9375 156.304688 354.210938 156.417969 C 354.484375 156.53125 354.726562 156.695312 354.9375 156.902344 C 355.144531 157.113281 355.308594 157.355469 355.421875 157.628906 C 355.535156 157.902344 355.589844 158.1875 355.589844 158.480469 C 355.589844 158.777344 355.535156 159.0625 355.421875 159.335938 C 355.308594 159.609375 355.144531 159.851562 354.9375 160.058594 C 354.726562 160.269531 354.484375 160.429688 354.210938 160.542969 C 353.9375 160.65625 353.65625 160.714844 353.359375 160.714844 Z M 325.894531 8.929688 C 325.601562 8.929688 325.308594 8.957031 325.023438 9.015625 C 324.734375 9.070312 324.457031 9.15625 324.183594 9.269531 C 323.914062 9.378906 323.65625 9.519531 323.414062 9.679688 C 323.167969 9.84375 322.941406 10.027344 322.734375 10.234375 C 322.527344 10.445312 322.34375 10.667969 322.179688 10.914062 C 322.019531 11.15625 321.878906 11.414062 321.769531 11.683594 C 321.65625 11.957031 321.570312 12.234375 321.515625 12.523438 C 321.457031 12.808594 321.429688 13.101562 321.429688 13.394531 C 321.429688 13.6875 321.457031 13.976562 321.515625 14.265625 C 321.570312 14.550781 321.65625 14.832031 321.769531 15.101562 C 321.878906 15.371094 322.019531 15.628906 322.179688 15.875 C 322.34375 16.117188 322.527344 16.34375 322.734375 16.550781 C 322.941406 16.757812 323.167969 16.941406 323.414062 17.105469 C 323.65625 17.269531 323.914062 17.40625 324.183594 17.515625 C 324.457031 17.628906 324.734375 17.714844 325.023438 17.769531 C 325.308594 17.828125 325.601562 17.855469 325.894531 17.855469 C 326.1875 17.855469 326.476562 17.828125 326.765625 17.769531 C 327.050781 17.714844 327.332031 17.628906 327.601562 17.515625 C 327.871094 17.40625 328.128906 17.269531 328.371094 17.105469 C 328.617188 16.941406 328.84375 16.757812 329.050781 16.550781 C 329.257812 16.34375 329.441406 16.117188 329.605469 15.875 C 329.765625 15.628906 329.90625 15.371094 330.015625 15.101562 C 330.128906 14.832031 330.214844 14.550781 330.269531 14.265625 C 330.328125 13.976562 330.355469 13.6875 330.355469 13.394531 C 330.355469 13.101562 330.328125 12.808594 330.269531 12.523438 C 330.214844 12.234375 330.128906 11.957031 330.015625 11.683594 C 329.902344 11.414062 329.765625 11.15625 329.601562 10.914062 C 329.441406 10.671875 329.253906 10.445312 329.046875 10.238281 C 328.839844 10.03125 328.617188 9.84375 328.371094 9.683594 C 328.128906 9.519531 327.871094 9.382812 327.601562 9.269531 C 327.328125 9.15625 327.050781 9.074219 326.761719 9.015625 C 326.476562 8.957031 326.1875 8.929688 325.894531 8.929688 Z M 325.894531 15.625 C 325.597656 15.625 325.3125 15.570312 325.039062 15.457031 C 324.765625 15.34375 324.523438 15.179688 324.316406 14.972656 C 324.105469 14.761719 323.945312 14.519531 323.832031 14.246094 C 323.71875 13.972656 323.660156 13.6875 323.660156 13.394531 C 323.660156 13.097656 323.71875 12.8125 323.832031 12.539062 C 323.945312 12.265625 324.105469 12.023438 324.316406 11.816406 C 324.523438 11.605469 324.765625 11.445312 325.039062 11.332031 C 325.3125 11.21875 325.597656 11.160156 325.894531 11.160156 C 326.1875 11.160156 326.472656 11.21875 326.746094 11.332031 C 327.019531 11.445312 327.261719 11.605469 327.472656 11.816406 C 327.679688 12.023438 327.839844 12.265625 327.953125 12.539062 C 328.066406 12.8125 328.125 13.097656 328.125 13.394531 C 328.125 13.6875 328.066406 13.972656 327.953125 14.246094 C 327.839844 14.519531 327.679688 14.761719 327.46875 14.96875 C 327.261719 15.179688 327.019531 15.339844 326.746094 15.453125 C 326.472656 15.566406 326.1875 15.625 325.894531 15.625 Z M 325.894531 101.933594 C 325.601562 101.933594 325.308594 101.964844 325.023438 102.019531 C 324.734375 102.078125 324.457031 102.164062 324.183594 102.273438 C 323.914062 102.386719 323.65625 102.523438 323.414062 102.6875 C 323.167969 102.851562 322.941406 103.035156 322.734375 103.242188 C 322.527344 103.449219 322.34375 103.675781 322.179688 103.917969 C 322.019531 104.164062 321.878906 104.417969 321.769531 104.691406 C 321.65625 104.960938 321.570312 105.242188 321.515625 105.527344 C 321.457031 105.816406 321.429688 106.105469 321.429688 106.398438 C 321.429688 106.691406 321.457031 106.980469 321.515625 107.269531 C 321.570312 107.558594 321.65625 107.835938 321.769531 108.105469 C 321.878906 108.378906 322.019531 108.636719 322.179688 108.878906 C 322.34375 109.121094 322.527344 109.347656 322.734375 109.554688 C 322.941406 109.761719 323.167969 109.949219 323.414062 110.109375 C 323.65625 110.273438 323.914062 110.410156 324.183594 110.523438 C 324.457031 110.636719 324.734375 110.71875 325.023438 110.777344 C 325.308594 110.835938 325.601562 110.863281 325.894531 110.863281 C 326.1875 110.863281 326.476562 110.835938 326.765625 110.777344 C 327.050781 110.71875 327.332031 110.636719 327.601562 110.523438 C 327.871094 110.410156 328.128906 110.273438 328.371094 110.109375 C 328.617188 109.949219 328.84375 109.761719 329.050781 109.554688 C 329.257812 109.347656 329.441406 109.121094 329.605469 108.878906 C 329.765625 108.636719 329.90625 108.378906 330.015625 108.105469 C 330.128906 107.835938 330.214844 107.558594 330.269531 107.269531 C 330.328125 106.980469 330.355469 106.691406 330.355469 106.398438 C 330.355469 106.105469 330.328125 105.816406 330.269531 105.527344 C 330.214844 105.242188 330.128906 104.960938 330.015625 104.691406 C 329.902344 104.421875 329.765625 104.164062 329.601562 103.917969 C 329.441406 103.675781 329.253906 103.449219 329.046875 103.242188 C 328.839844 103.035156 328.617188 102.851562 328.371094 102.6875 C 328.128906 102.527344 327.871094 102.386719 327.601562 102.277344 C 327.328125 102.164062 327.050781 102.078125 326.761719 102.019531 C 326.476562 101.964844 326.1875 101.933594 325.894531 101.933594 Z M 325.894531 108.632812 C 325.597656 108.632812 325.3125 108.574219 325.039062 108.460938 C 324.765625 108.347656 324.523438 108.1875 324.316406 107.976562 C 324.105469 107.769531 323.945312 107.527344 323.832031 107.253906 C 323.71875 106.980469 323.660156 106.695312 323.660156 106.398438 C 323.660156 106.101562 323.71875 105.816406 323.832031 105.542969 C 323.945312 105.269531 324.105469 105.03125 324.316406 104.820312 C 324.523438 104.609375 324.765625 104.449219 325.039062 104.335938 C 325.3125 104.222656 325.597656 104.167969 325.894531 104.167969 C 326.1875 104.167969 326.472656 104.222656 326.746094 104.335938 C 327.019531 104.449219 327.261719 104.609375 327.472656 104.820312 C 327.679688 105.03125 327.839844 105.269531 327.953125 105.542969 C 328.066406 105.816406 328.125 106.101562 328.125 106.398438 C 328.125 106.695312 328.066406 106.980469 327.953125 107.253906 C 327.839844 107.527344 327.679688 107.765625 327.46875 107.976562 C 327.261719 108.1875 327.019531 108.347656 326.746094 108.460938 C 326.472656 108.574219 326.1875 108.628906 325.894531 108.632812 Z M 60.269531 78.125 C 60.269531 77.832031 60.238281 77.542969 60.183594 77.253906 C 60.125 76.964844 60.039062 76.6875 59.929688 76.417969 C 59.816406 76.144531 59.679688 75.886719 59.515625 75.644531 C 59.351562 75.402344 59.167969 75.175781 58.960938 74.96875 C 58.753906 74.761719 58.527344 74.574219 58.285156 74.414062 C 58.039062 74.25 57.78125 74.113281 57.511719 74 C 57.242188 73.886719 56.960938 73.804688 56.675781 73.746094 C 56.386719 73.6875 56.097656 73.660156 55.804688 73.660156 C 55.511719 73.660156 55.21875 73.6875 54.933594 73.746094 C 54.644531 73.804688 54.367188 73.886719 54.09375 74 C 53.824219 74.113281 53.566406 74.25 53.324219 74.414062 C 53.078125 74.574219 52.855469 74.761719 52.648438 74.96875 C 52.441406 75.175781 52.253906 75.402344 52.089844 75.644531 C 51.929688 75.886719 51.792969 76.144531 51.679688 76.417969 C 51.566406 76.6875 51.480469 76.964844 51.425781 77.253906 C 51.367188 77.542969 51.339844 77.832031 51.339844 78.125 C 51.339844 78.417969 51.367188 78.707031 51.425781 78.996094 C 51.480469 79.285156 51.566406 79.5625 51.679688 79.832031 C 51.792969 80.105469 51.929688 80.363281 52.089844 80.605469 C 52.253906 80.847656 52.441406 81.074219 52.648438 81.28125 C 52.855469 81.488281 53.078125 81.675781 53.324219 81.835938 C 53.566406 82 53.824219 82.136719 54.09375 82.25 C 54.367188 82.363281 54.644531 82.445312 54.933594 82.503906 C 55.21875 82.5625 55.511719 82.589844 55.804688 82.589844 C 56.097656 82.589844 56.386719 82.558594 56.675781 82.503906 C 56.960938 82.445312 57.242188 82.359375 57.511719 82.25 C 57.78125 82.136719 58.039062 82 58.28125 81.835938 C 58.527344 81.671875 58.75 81.488281 58.957031 81.28125 C 59.164062 81.074219 59.351562 80.847656 59.515625 80.605469 C 59.675781 80.359375 59.8125 80.101562 59.925781 79.832031 C 60.039062 79.5625 60.125 79.28125 60.179688 78.996094 C 60.238281 78.707031 60.265625 78.417969 60.269531 78.125 Z M 53.570312 78.125 C 53.570312 77.828125 53.628906 77.542969 53.742188 77.269531 C 53.855469 76.996094 54.015625 76.757812 54.226562 76.546875 C 54.433594 76.335938 54.675781 76.175781 54.949219 76.0625 C 55.222656 75.949219 55.507812 75.894531 55.804688 75.894531 C 56.097656 75.894531 56.382812 75.949219 56.65625 76.0625 C 56.929688 76.175781 57.171875 76.335938 57.382812 76.546875 C 57.589844 76.757812 57.753906 76.996094 57.867188 77.269531 C 57.980469 77.542969 58.035156 77.828125 58.035156 78.125 C 58.035156 78.421875 57.980469 78.707031 57.867188 78.980469 C 57.753906 79.253906 57.589844 79.492188 57.382812 79.703125 C 57.171875 79.914062 56.929688 80.074219 56.65625 80.1875 C 56.382812 80.300781 56.097656 80.355469 55.804688 80.355469 C 55.507812 80.355469 55.222656 80.300781 54.949219 80.1875 C 54.675781 80.074219 54.433594 79.910156 54.226562 79.703125 C 54.015625 79.492188 53.855469 79.253906 53.742188 78.980469 C 53.628906 78.707031 53.570312 78.421875 53.570312 78.125 Z M 53.570312 78.125 " fill-opacity="1" fill-rule="nonzero"/><path fill="#004aad" d="M 24.304688 154.042969 L 27.621094 149.679688 L 25.527344 148.492188 L 23.394531 153.378906 L 23.324219 153.378906 L 21.160156 148.523438 L 19.027344 149.746094 L 22.3125 154.007812 L 22.3125 154.078125 L 17.175781 153.414062 L 17.175781 155.789062 L 22.347656 155.128906 L 22.347656 155.195312 L 19.027344 159.457031 L 21.019531 160.714844 L 23.289062 155.789062 L 23.359375 155.789062 L 25.457031 160.679688 L 27.65625 159.421875 L 24.304688 155.230469 L 24.304688 155.160156 L 29.574219 155.789062 L 29.574219 153.414062 L 24.304688 154.113281 Z M 24.304688 154.042969 " fill-opacity="1" fill-rule="nonzero"/><path fill="#004aad" d="M 14.882812 29.761719 L 12.96875 32.214844 L 14.117188 32.941406 L 15.425781 30.101562 L 15.464844 30.101562 L 16.671875 32.917969 L 17.9375 32.195312 L 16.007812 29.78125 L 16.007812 29.742188 L 19.042969 30.101562 L 19.042969 28.738281 L 16.007812 29.136719 L 16.007812 29.097656 L 17.917969 26.585938 L 16.710938 25.898438 L 15.484375 28.714844 L 15.445312 28.714844 L 14.199219 25.917969 L 12.96875 26.625 L 14.863281 29.078125 L 14.863281 29.117188 L 11.902344 28.738281 L 11.902344 30.101562 L 14.882812 29.722656 Z M 14.882812 29.761719 " fill-opacity="1" fill-rule="nonzero"/><path fill="#004aad" d="M 368.265625 62.304688 L 368.265625 59.976562 L 363.097656 60.660156 L 363.097656 60.589844 L 366.351562 56.308594 L 364.292969 55.144531 L 362.207031 59.941406 L 362.136719 59.941406 L 360.011719 55.179688 L 357.921875 56.378906 L 361.144531 60.558594 L 361.144531 60.628906 L 356.105469 59.976562 L 356.105469 62.304688 L 361.175781 61.652344 L 361.175781 61.722656 L 357.921875 65.902344 L 359.871094 67.136719 L 362.101562 62.304688 L 362.167969 62.304688 L 364.226562 67.101562 L 366.382812 65.867188 L 363.097656 61.757812 L 363.097656 61.6875 Z M 368.265625 62.304688 " fill-opacity="1" fill-rule="nonzero"/><path fill="#004aad" d="M 260.597656 43.71875 L 263.40625 40.023438 L 261.632812 39.019531 L 259.832031 43.15625 L 259.769531 43.15625 L 257.941406 39.050781 L 256.132812 40.085938 L 258.914062 43.691406 L 258.914062 43.746094 L 254.570312 43.1875 L 254.570312 45.195312 L 258.941406 44.632812 L 258.941406 44.695312 L 256.132812 48.300781 L 257.820312 49.363281 L 259.742188 45.195312 L 259.800781 45.195312 L 261.574219 49.332031 L 263.433594 48.269531 L 260.597656 44.722656 L 260.597656 44.664062 L 265.058594 45.195312 L 265.058594 43.1875 L 260.597656 43.777344 Z M 260.597656 43.71875 " fill-opacity="1" fill-rule="nonzero"/></svg>