<svg xmlns="http://www.w3.org/2000/svg" xmlns:xlink="http://www.w3.org/1999/xlink" width="500" zoomAndPan="magnify" viewBox="0 0 375 374.999991" height="500" preserveAspectRatio="xMidYMid meet" version="1.0"><rect x="-37.5" width="450" fill="#ffffff" y="-37.499999" height="449.999989" fill-opacity="1"/><rect x="-37.5" width="450" fill="#ffffff" y="-37.499999" height="449.999989" fill-opacity="1"/><rect x="-37.5" width="450" fill="#ffffff" y="-37.499999" height="449.999989" fill-opacity="1"/><path fill="#2d4356" d="M 8.929688 332.589844 C 8.929688 332.882812 8.898438 333.171875 8.84375 333.460938 C 8.785156 333.746094 8.699219 334.027344 8.589844 334.296875 C 8.476562 334.570312 8.339844 334.824219 8.175781 335.070312 C 8.011719 335.3125 7.828125 335.539062 7.621094 335.746094 C 7.414062 335.953125 7.1875 336.136719 6.945312 336.300781 C 6.699219 336.464844 6.445312 336.601562 6.171875 336.714844 C 5.902344 336.824219 5.621094 336.910156 5.335938 336.96875 C 5.046875 337.023438 4.757812 337.054688 4.464844 337.054688 C 4.171875 337.054688 3.878906 337.023438 3.59375 336.96875 C 3.304688 336.910156 3.027344 336.824219 2.757812 336.714844 C 2.484375 336.601562 2.226562 336.464844 1.984375 336.300781 C 1.742188 336.136719 1.515625 335.953125 1.308594 335.746094 C 1.101562 335.539062 0.914062 335.3125 0.753906 335.070312 C 0.589844 334.824219 0.453125 334.570312 0.339844 334.296875 C 0.226562 334.027344 0.144531 333.746094 0.0859375 333.460938 C 0.0273438 333.171875 0 332.882812 0 332.589844 C 0 332.296875 0.0273438 332.003906 0.0859375 331.71875 C 0.144531 331.429688 0.226562 331.152344 0.339844 330.878906 C 0.453125 330.609375 0.589844 330.351562 0.753906 330.109375 C 0.914062 329.867188 1.101562 329.640625 1.308594 329.433594 C 1.515625 329.226562 1.742188 329.039062 1.984375 328.878906 C 2.226562 328.714844 2.484375 328.578125 2.757812 328.464844 C 3.027344 328.351562 3.304688 328.269531 3.59375 328.210938 C 3.878906 328.152344 4.171875 328.125 4.464844 328.125 C 4.757812 328.125 5.046875 328.152344 5.335938 328.210938 C 5.621094 328.269531 5.902344 328.351562 6.171875 328.464844 C 6.445312 328.578125 6.699219 328.714844 6.945312 328.878906 C 7.1875 329.039062 7.414062 329.226562 7.621094 329.433594 C 7.828125 329.640625 8.011719 329.867188 8.175781 330.109375 C 8.339844 330.351562 8.476562 330.609375 8.589844 330.878906 C 8.699219 331.152344 8.785156 331.429688 8.84375 331.71875 C 8.898438 332.003906 8.929688 332.296875 8.929688 332.589844 Z M 8.929688 332.589844 " fill-opacity="1" fill-rule="nonzero"/><path fill="#2d4356" d="M 24.554688 328.125 L 17.855469 328.125 C 17.5625 328.125 17.273438 328.152344 16.984375 328.210938 C 16.699219 328.269531 16.417969 328.351562 16.148438 328.464844 C 15.878906 328.578125 15.621094 328.714844 15.375 328.878906 C 15.132812 329.039062 14.90625 329.226562 14.699219 329.433594 C 14.492188 329.640625 14.308594 329.867188 14.144531 330.109375 C 13.980469 330.351562 13.84375 330.609375 13.734375 330.878906 C 13.621094 331.152344 13.535156 331.429688 13.480469 331.71875 C 13.421875 332.003906 13.394531 332.296875 13.394531 332.589844 C 13.394531 332.882812 13.421875 333.171875 13.480469 333.460938 C 13.535156 333.746094 13.621094 334.027344 13.734375 334.296875 C 13.84375 334.570312 13.980469 334.824219 14.144531 335.070312 C 14.308594 335.3125 14.492188 335.539062 14.699219 335.746094 C 14.90625 335.953125 15.132812 336.136719 15.375 336.300781 C 15.621094 336.464844 15.878906 336.601562 16.148438 336.714844 C 16.417969 336.824219 16.699219 336.910156 16.984375 336.96875 C 17.273438 337.023438 17.5625 337.054688 17.855469 337.054688 L 24.554688 337.054688 C 24.847656 337.054688 25.136719 337.023438 25.425781 336.96875 C 25.710938 336.910156 25.992188 336.824219 26.261719 336.714844 C 26.53125 336.601562 26.789062 336.464844 27.035156 336.300781 C 27.277344 336.136719 27.503906 335.953125 27.710938 335.746094 C 27.917969 335.539062 28.101562 335.3125 28.265625 335.070312 C 28.429688 334.824219 28.566406 334.570312 28.679688 334.296875 C 28.789062 334.027344 28.875 333.746094 28.933594 333.460938 C 28.988281 333.171875 29.019531 332.882812 29.019531 332.589844 C 29.019531 332.296875 28.988281 332.003906 28.933594 331.71875 C 28.875 331.429688 28.789062 331.152344 28.679688 330.878906 C 28.566406 330.609375 28.429688 330.351562 28.265625 330.109375 C 28.101562 329.867188 27.917969 329.640625 27.710938 329.433594 C 27.503906 329.226562 27.277344 329.039062 27.035156 328.878906 C 26.789062 328.714844 26.53125 328.578125 26.261719 328.464844 C 25.992188 328.351562 25.710938 328.269531 25.425781 328.210938 C 25.136719 328.152344 24.847656 328.125 24.554688 328.125 Z M 357.144531 328.125 L 350.445312 328.125 C 350.152344 328.125 349.863281 328.152344 349.574219 328.210938 C 349.289062 328.269531 349.007812 328.351562 348.738281 328.464844 C 348.46875 328.578125 348.210938 328.714844 347.964844 328.878906 C 347.722656 329.039062 347.496094 329.226562 347.289062 329.433594 C 347.082031 329.640625 346.898438 329.867188 346.734375 330.109375 C 346.570312 330.351562 346.433594 330.609375 346.320312 330.878906 C 346.210938 331.152344 346.125 331.429688 346.066406 331.71875 C 346.011719 332.003906 345.980469 332.296875 345.980469 332.589844 C 345.980469 332.882812 346.011719 333.171875 346.066406 333.460938 C 346.125 333.746094 346.210938 334.027344 346.320312 334.296875 C 346.433594 334.570312 346.570312 334.824219 346.734375 335.070312 C 346.898438 335.3125 347.082031 335.539062 347.289062 335.746094 C 347.496094 335.953125 347.722656 336.136719 347.964844 336.300781 C 348.210938 336.464844 348.46875 336.601562 348.738281 336.714844 C 349.007812 336.824219 349.289062 336.910156 349.574219 336.96875 C 349.863281 337.023438 350.152344 337.054688 350.445312 337.054688 L 357.144531 337.054688 C 357.4375 337.054688 357.726562 337.023438 358.015625 336.96875 C 358.300781 336.910156 358.582031 336.824219 358.851562 336.714844 C 359.121094 336.601562 359.378906 336.464844 359.621094 336.300781 C 359.867188 336.136719 360.09375 335.953125 360.300781 335.746094 C 360.507812 335.539062 360.691406 335.3125 360.855469 335.070312 C 361.015625 334.824219 361.15625 334.570312 361.265625 334.296875 C 361.378906 334.027344 361.464844 333.746094 361.519531 333.460938 C 361.578125 333.171875 361.605469 332.882812 361.605469 332.589844 C 361.605469 332.296875 361.578125 332.003906 361.519531 331.71875 C 361.464844 331.429688 361.378906 331.152344 361.265625 330.878906 C 361.15625 330.609375 361.015625 330.351562 360.855469 330.109375 C 360.691406 329.867188 360.507812 329.640625 360.300781 329.433594 C 360.09375 329.226562 359.867188 329.039062 359.621094 328.878906 C 359.378906 328.714844 359.121094 328.578125 358.851562 328.464844 C 358.582031 328.351562 358.300781 328.269531 358.015625 328.210938 C 357.726562 328.152344 357.4375 328.125 357.144531 328.125 Z M 357.144531 328.125 " fill-opacity="1" fill-rule="nonzero"/><path fill="#2d4356" d="M 375 332.589844 C 375 332.882812 374.972656 333.171875 374.914062 333.460938 C 374.855469 333.746094 374.773438 334.027344 374.660156 334.296875 C 374.546875 334.570312 374.410156 334.824219 374.246094 335.070312 C 374.085938 335.3125 373.898438 335.539062 373.691406 335.746094 C 373.484375 335.953125 373.257812 336.136719 373.015625 336.300781 C 372.773438 336.464844 372.515625 336.601562 372.242188 336.714844 C 371.972656 336.824219 371.695312 336.910156 371.40625 336.96875 C 371.117188 337.023438 370.828125 337.054688 370.535156 337.054688 C 370.242188 337.054688 369.953125 337.023438 369.664062 336.96875 C 369.378906 336.910156 369.097656 336.824219 368.828125 336.714844 C 368.554688 336.601562 368.300781 336.464844 368.054688 336.300781 C 367.8125 336.136719 367.585938 335.953125 367.378906 335.746094 C 367.171875 335.539062 366.988281 335.3125 366.824219 335.070312 C 366.660156 334.824219 366.523438 334.570312 366.410156 334.296875 C 366.300781 334.027344 366.214844 333.746094 366.15625 333.460938 C 366.101562 333.171875 366.070312 332.882812 366.070312 332.589844 C 366.070312 332.296875 366.101562 332.003906 366.15625 331.71875 C 366.214844 331.429688 366.300781 331.152344 366.410156 330.878906 C 366.523438 330.609375 366.660156 330.351562 366.824219 330.109375 C 366.988281 329.867188 367.171875 329.640625 367.378906 329.433594 C 367.585938 329.226562 367.8125 329.039062 368.054688 328.878906 C 368.300781 328.714844 368.554688 328.578125 368.828125 328.464844 C 369.097656 328.351562 369.378906 328.269531 369.664062 328.210938 C 369.953125 328.152344 370.242188 328.125 370.535156 328.125 C 370.828125 328.125 371.117188 328.152344 371.40625 328.210938 C 371.695312 328.269531 371.972656 328.351562 372.242188 328.464844 C 372.515625 328.578125 372.773438 328.714844 373.015625 328.878906 C 373.257812 329.039062 373.484375 329.226562 373.691406 329.433594 C 373.898438 329.640625 374.085938 329.867188 374.246094 330.109375 C 374.410156 330.351562 374.546875 330.609375 374.660156 330.878906 C 374.773438 331.152344 374.855469 331.429688 374.914062 331.71875 C 374.972656 332.003906 375 332.296875 375 332.589844 Z M 375 332.589844 " fill-opacity="1" fill-rule="nonzero"/><path fill="#004aad" d="M 263.738281 345.980469 L 245.191406 345.980469 C 244.628906 346.027344 244.09375 346.171875 243.585938 346.414062 C 243.078125 346.660156 242.632812 346.992188 242.25 347.40625 C 241.867188 347.820312 241.574219 348.289062 241.367188 348.8125 C 241.164062 349.339844 241.058594 349.882812 241.058594 350.445312 C 241.058594 351.011719 241.164062 351.554688 241.367188 352.078125 C 241.574219 352.605469 241.867188 353.074219 242.25 353.488281 C 242.632812 353.902344 243.078125 354.230469 243.585938 354.476562 C 244.09375 354.722656 244.628906 354.867188 245.191406 354.910156 L 263.738281 354.910156 C 264.296875 354.867188 264.832031 354.722656 265.339844 354.476562 C 265.847656 354.230469 266.292969 353.902344 266.675781 353.488281 C 267.058594 353.074219 267.355469 352.605469 267.558594 352.078125 C 267.765625 351.554688 267.867188 351.011719 267.867188 350.445312 C 267.867188 349.882812 267.765625 349.339844 267.558594 348.8125 C 267.355469 348.289062 267.058594 347.820312 266.675781 347.40625 C 266.292969 346.992188 265.847656 346.660156 265.339844 346.414062 C 264.832031 346.171875 264.296875 346.027344 263.738281 345.980469 Z M 129.808594 345.980469 L 111.261719 345.980469 C 110.703125 346.027344 110.167969 346.171875 109.660156 346.414062 C 109.152344 346.660156 108.707031 346.992188 108.324219 347.40625 C 107.941406 347.820312 107.644531 348.289062 107.441406 348.8125 C 107.234375 349.339844 107.132812 349.882812 107.132812 350.445312 C 107.132812 351.011719 107.234375 351.554688 107.441406 352.078125 C 107.644531 352.605469 107.941406 353.074219 108.324219 353.488281 C 108.707031 353.902344 109.152344 354.230469 109.660156 354.476562 C 110.167969 354.722656 110.703125 354.867188 111.261719 354.910156 L 129.808594 354.910156 C 130.371094 354.867188 130.90625 354.722656 131.414062 354.476562 C 131.921875 354.230469 132.367188 353.902344 132.75 353.488281 C 133.132812 353.074219 133.425781 352.605469 133.632812 352.078125 C 133.835938 351.554688 133.941406 351.011719 133.941406 350.445312 C 133.941406 349.882812 133.835938 349.339844 133.632812 348.8125 C 133.425781 348.289062 133.132812 347.820312 132.75 347.40625 C 132.367188 346.992188 131.921875 346.660156 131.414062 346.414062 C 130.90625 346.171875 130.371094 346.027344 129.808594 345.980469 Z M 232.144531 345.980469 L 142.855469 345.980469 C 142.5625 345.980469 142.273438 346.011719 141.984375 346.066406 C 141.699219 346.125 141.417969 346.210938 141.148438 346.320312 C 140.878906 346.433594 140.621094 346.570312 140.375 346.734375 C 140.132812 346.898438 139.90625 347.082031 139.699219 347.289062 C 139.492188 347.496094 139.308594 347.722656 139.144531 347.964844 C 138.980469 348.210938 138.84375 348.46875 138.734375 348.738281 C 138.621094 349.007812 138.535156 349.289062 138.480469 349.574219 C 138.421875 349.863281 138.394531 350.152344 138.394531 350.445312 C 138.394531 350.738281 138.421875 351.03125 138.480469 351.316406 C 138.535156 351.605469 138.621094 351.882812 138.734375 352.15625 C 138.84375 352.425781 138.980469 352.683594 139.144531 352.925781 C 139.308594 353.171875 139.492188 353.394531 139.699219 353.601562 C 139.90625 353.808594 140.132812 353.996094 140.375 354.160156 C 140.621094 354.320312 140.878906 354.457031 141.148438 354.570312 C 141.417969 354.683594 141.699219 354.769531 141.984375 354.824219 C 142.273438 354.882812 142.5625 354.910156 142.855469 354.910156 L 178.4375 354.910156 L 178.4375 359.375 L 160.714844 359.375 C 160.421875 359.375 160.128906 359.402344 159.84375 359.460938 C 159.554688 359.519531 159.277344 359.601562 159.003906 359.714844 C 158.734375 359.828125 158.476562 359.964844 158.234375 360.128906 C 157.992188 360.289062 157.765625 360.476562 157.558594 360.683594 C 157.351562 360.890625 157.164062 361.113281 157.003906 361.359375 C 156.839844 361.601562 156.703125 361.859375 156.589844 362.128906 C 156.476562 362.402344 156.394531 362.679688 156.335938 362.96875 C 156.277344 363.253906 156.25 363.546875 156.25 363.839844 C 156.25 364.132812 156.277344 364.421875 156.335938 364.710938 C 156.394531 364.996094 156.476562 365.277344 156.589844 365.546875 C 156.703125 365.820312 156.839844 366.074219 157.003906 366.320312 C 157.164062 366.5625 157.351562 366.789062 157.558594 366.996094 C 157.765625 367.203125 157.992188 367.386719 158.234375 367.550781 C 158.476562 367.714844 158.734375 367.851562 159.003906 367.964844 C 159.277344 368.074219 159.554688 368.160156 159.84375 368.21875 C 160.128906 368.273438 160.421875 368.304688 160.714844 368.304688 L 216.519531 368.304688 C 216.8125 368.304688 217.101562 368.273438 217.390625 368.21875 C 217.675781 368.160156 217.957031 368.074219 218.226562 367.964844 C 218.496094 367.851562 218.753906 367.714844 219 367.550781 C 219.242188 367.386719 219.46875 367.203125 219.675781 366.996094 C 219.882812 366.789062 220.066406 366.5625 220.230469 366.320312 C 220.394531 366.074219 220.53125 365.820312 220.640625 365.546875 C 220.753906 365.277344 220.839844 364.996094 220.894531 364.710938 C 220.953125 364.421875 220.980469 364.132812 220.980469 363.839844 C 220.980469 363.546875 220.953125 363.253906 220.894531 362.96875 C 220.839844 362.679688 220.753906 362.402344 220.640625 362.128906 C 220.53125 361.859375 220.394531 361.601562 220.230469 361.359375 C 220.066406 361.113281 219.882812 360.890625 219.675781 360.683594 C 219.46875 360.476562 219.242188 360.289062 219 360.128906 C 218.753906 359.964844 218.496094 359.828125 218.226562 359.714844 C 217.957031 359.601562 217.675781 359.519531 217.390625 359.460938 C 217.101562 359.402344 216.8125 359.375 216.519531 359.375 L 196.5625 359.375 L 196.5625 354.910156 L 232.144531 354.910156 C 232.4375 354.910156 232.726562 354.882812 233.015625 354.824219 C 233.300781 354.769531 233.582031 354.683594 233.851562 354.570312 C 234.121094 354.457031 234.378906 354.320312 234.625 354.160156 C 234.867188 353.996094 235.09375 353.808594 235.300781 353.601562 C 235.507812 353.394531 235.691406 353.171875 235.855469 352.925781 C 236.015625 352.683594 236.15625 352.425781 236.265625 352.15625 C 236.378906 351.882812 236.464844 351.605469 236.519531 351.316406 C 236.578125 351.03125 236.605469 350.738281 236.605469 350.445312 C 236.605469 350.152344 236.578125 349.863281 236.519531 349.574219 C 236.464844 349.289062 236.378906 349.007812 236.265625 348.738281 C 236.15625 348.46875 236.015625 348.210938 235.855469 347.964844 C 235.691406 347.722656 235.507812 347.496094 235.300781 347.289062 C 235.09375 347.082031 234.867188 346.898438 234.621094 346.734375 C 234.378906 346.570312 234.121094 346.433594 233.851562 346.320312 C 233.582031 346.210938 233.300781 346.125 233.015625 346.066406 C 232.726562 346.011719 232.4375 345.980469 232.144531 345.980469 Z M 226.960938 230.308594 C 226.746094 230.515625 226.554688 230.738281 226.386719 230.984375 C 226.21875 231.226562 226.078125 231.484375 225.960938 231.757812 C 225.84375 232.03125 225.753906 232.3125 225.691406 232.601562 C 225.632812 232.890625 225.601562 233.183594 225.597656 233.480469 C 225.59375 233.777344 225.621094 234.070312 225.675781 234.363281 C 225.734375 234.652344 225.816406 234.933594 225.929688 235.210938 C 226.042969 235.484375 226.179688 235.746094 226.34375 235.992188 C 226.507812 236.238281 226.695312 236.464844 226.90625 236.675781 C 227.113281 236.886719 227.34375 237.070312 227.589844 237.234375 C 227.835938 237.398438 228.097656 237.539062 228.371094 237.652344 C 228.644531 237.761719 228.929688 237.847656 229.21875 237.902344 C 229.511719 237.957031 229.804688 237.984375 230.101562 237.984375 C 230.394531 237.980469 230.691406 237.949219 230.980469 237.886719 C 231.269531 237.828125 231.550781 237.738281 231.824219 237.621094 C 232.09375 237.503906 232.355469 237.359375 232.597656 237.191406 C 232.839844 237.023438 233.066406 236.832031 233.273438 236.621094 C 234.019531 235.871094 234.75 235.105469 235.464844 234.320312 C 236.175781 233.535156 236.867188 232.734375 237.539062 231.914062 C 238.210938 231.09375 238.863281 230.261719 239.492188 229.410156 C 240.125 228.558594 240.734375 227.691406 241.324219 226.8125 C 241.910156 225.929688 242.476562 225.035156 243.023438 224.128906 C 243.566406 223.21875 244.089844 222.296875 244.589844 221.363281 C 245.089844 220.429688 245.5625 219.484375 246.015625 218.523438 C 246.46875 217.566406 246.898438 216.597656 247.304688 215.621094 C 247.710938 214.640625 248.089844 213.652344 248.449219 212.65625 C 248.804688 211.660156 249.136719 210.652344 249.445312 209.640625 C 249.753906 208.625 250.035156 207.605469 250.292969 206.578125 C 250.550781 205.550781 250.78125 204.515625 250.988281 203.476562 C 251.195312 202.4375 251.375 201.394531 251.53125 200.347656 C 251.6875 199.296875 251.816406 198.246094 251.921875 197.191406 C 252.023438 196.140625 252.101562 195.082031 252.15625 194.023438 C 252.207031 192.964844 252.234375 191.90625 252.234375 190.847656 C 252.234375 189.789062 252.207031 188.730469 252.15625 187.671875 C 252.101562 186.613281 252.023438 185.558594 251.921875 184.503906 C 251.816406 183.449219 251.6875 182.398438 251.53125 181.351562 C 251.375 180.300781 251.195312 179.257812 250.988281 178.21875 C 250.78125 177.179688 250.550781 176.148438 250.292969 175.121094 C 250.035156 174.09375 249.753906 173.070312 249.445312 172.058594 C 249.136719 171.042969 248.804688 170.039062 248.449219 169.039062 C 248.089844 168.042969 247.710938 167.054688 247.304688 166.078125 C 246.898438 165.097656 246.46875 164.128906 246.015625 163.171875 C 245.5625 162.214844 245.089844 161.269531 244.589844 160.332031 C 244.089844 159.398438 243.566406 158.476562 243.023438 157.570312 C 242.476562 156.660156 241.910156 155.765625 241.324219 154.886719 C 240.734375 154.003906 240.125 153.136719 239.492188 152.289062 C 238.863281 151.4375 238.210938 150.601562 237.539062 149.78125 C 236.867188 148.964844 236.175781 148.160156 235.464844 147.375 C 234.75 146.59375 234.019531 145.824219 233.273438 145.074219 C 233.0625 144.875 232.835938 144.695312 232.59375 144.539062 C 232.351562 144.378906 232.09375 144.246094 231.824219 144.140625 C 231.554688 144.03125 231.277344 143.953125 230.996094 143.898438 C 230.710938 143.84375 230.421875 143.820312 230.132812 143.824219 C 229.84375 143.824219 229.554688 143.855469 229.269531 143.914062 C 228.988281 143.972656 228.710938 144.058594 228.445312 144.167969 C 228.175781 144.28125 227.921875 144.417969 227.683594 144.582031 C 227.441406 144.742188 227.21875 144.925781 227.015625 145.128906 C 226.808594 145.335938 226.625 145.558594 226.464844 145.796875 C 226.300781 146.039062 226.164062 146.292969 226.054688 146.5625 C 225.941406 146.828125 225.855469 147.105469 225.796875 147.386719 C 225.738281 147.671875 225.710938 147.957031 225.707031 148.25 C 225.703125 148.539062 225.730469 148.824219 225.78125 149.109375 C 225.835938 149.394531 225.917969 149.671875 226.023438 149.941406 C 226.132812 150.210938 226.265625 150.46875 226.421875 150.710938 C 226.578125 150.953125 226.757812 151.179688 226.960938 151.386719 C 228.253906 152.679688 229.476562 154.035156 230.636719 155.445312 C 231.796875 156.859375 232.882812 158.324219 233.898438 159.84375 C 234.914062 161.363281 235.855469 162.929688 236.714844 164.542969 C 237.578125 166.152344 238.359375 167.804688 239.058594 169.492188 C 239.757812 171.179688 240.371094 172.898438 240.902344 174.648438 C 241.433594 176.398438 241.875 178.167969 242.234375 179.960938 C 242.589844 181.753906 242.855469 183.558594 243.035156 185.378906 C 243.214844 187.199219 243.304688 189.019531 243.304688 190.847656 C 243.304688 192.675781 243.214844 194.5 243.035156 196.316406 C 242.855469 198.136719 242.589844 199.941406 242.234375 201.734375 C 241.875 203.527344 241.433594 205.296875 240.902344 207.046875 C 240.371094 208.796875 239.757812 210.515625 239.058594 212.203125 C 238.359375 213.890625 237.578125 215.542969 236.714844 217.15625 C 235.855469 218.765625 234.914062 220.332031 233.898438 221.851562 C 232.882812 223.371094 231.796875 224.835938 230.636719 226.25 C 229.476562 227.664062 228.253906 229.015625 226.960938 230.308594 Z M 148.039062 151.386719 C 148.253906 151.183594 148.445312 150.957031 148.613281 150.714844 C 148.78125 150.46875 148.921875 150.210938 149.039062 149.9375 C 149.15625 149.667969 149.246094 149.386719 149.308594 149.097656 C 149.367188 148.804688 149.398438 148.511719 149.402344 148.214844 C 149.40625 147.917969 149.378906 147.625 149.324219 147.335938 C 149.265625 147.042969 149.183594 146.761719 149.070312 146.488281 C 148.957031 146.210938 148.820312 145.953125 148.65625 145.707031 C 148.492188 145.457031 148.304688 145.230469 148.09375 145.019531 C 147.886719 144.8125 147.65625 144.625 147.410156 144.460938 C 147.164062 144.296875 146.902344 144.15625 146.628906 144.046875 C 146.355469 143.933594 146.070312 143.847656 145.78125 143.792969 C 145.488281 143.738281 145.195312 143.710938 144.898438 143.714844 C 144.605469 143.714844 144.308594 143.746094 144.019531 143.808594 C 143.730469 143.871094 143.449219 143.957031 143.175781 144.074219 C 142.90625 144.191406 142.644531 144.335938 142.402344 144.503906 C 142.160156 144.671875 141.933594 144.863281 141.726562 145.074219 C 140.980469 145.824219 140.25 146.59375 139.535156 147.375 C 138.824219 148.160156 138.132812 148.964844 137.460938 149.78125 C 136.789062 150.601562 136.136719 151.4375 135.507812 152.289062 C 134.875 153.136719 134.265625 154.003906 133.675781 154.886719 C 133.089844 155.765625 132.523438 156.660156 131.976562 157.570312 C 131.433594 158.476562 130.910156 159.398438 130.410156 160.332031 C 129.910156 161.269531 129.4375 162.214844 128.984375 163.171875 C 128.53125 164.128906 128.101562 165.097656 127.695312 166.078125 C 127.289062 167.054688 126.910156 168.042969 126.550781 169.039062 C 126.195312 170.039062 125.863281 171.042969 125.554688 172.058594 C 125.246094 173.070312 124.964844 174.09375 124.707031 175.121094 C 124.449219 176.148438 124.21875 177.179688 124.011719 178.21875 C 123.804688 179.257812 123.625 180.300781 123.46875 181.351562 C 123.3125 182.398438 123.183594 183.449219 123.078125 184.503906 C 122.976562 185.558594 122.898438 186.613281 122.84375 187.671875 C 122.792969 188.730469 122.765625 189.789062 122.765625 190.847656 C 122.765625 191.90625 122.792969 192.964844 122.84375 194.023438 C 122.898438 195.082031 122.976562 196.140625 123.078125 197.191406 C 123.183594 198.246094 123.3125 199.296875 123.46875 200.347656 C 123.625 201.394531 123.804688 202.4375 124.011719 203.476562 C 124.21875 204.515625 124.449219 205.550781 124.707031 206.578125 C 124.964844 207.605469 125.246094 208.625 125.554688 209.640625 C 125.863281 210.652344 126.195312 211.660156 126.550781 212.65625 C 126.910156 213.652344 127.289062 214.640625 127.695312 215.621094 C 128.101562 216.597656 128.53125 217.566406 128.984375 218.523438 C 129.4375 219.484375 129.910156 220.429688 130.410156 221.363281 C 130.910156 222.296875 131.433594 223.21875 131.976562 224.128906 C 132.523438 225.035156 133.089844 225.929688 133.675781 226.8125 C 134.265625 227.691406 134.875 228.558594 135.507812 229.410156 C 136.136719 230.261719 136.789062 231.09375 137.460938 231.914062 C 138.132812 232.734375 138.824219 233.535156 139.535156 234.320312 C 140.25 235.105469 140.980469 235.871094 141.726562 236.621094 C 141.933594 236.832031 142.160156 237.023438 142.402344 237.191406 C 142.644531 237.359375 142.90625 237.503906 143.175781 237.621094 C 143.449219 237.738281 143.730469 237.828125 144.019531 237.886719 C 144.308594 237.949219 144.605469 237.980469 144.898438 237.984375 C 145.195312 237.984375 145.488281 237.960938 145.78125 237.902344 C 146.070312 237.847656 146.355469 237.761719 146.628906 237.652344 C 146.902344 237.539062 147.164062 237.402344 147.410156 237.238281 C 147.65625 237.070312 147.886719 236.886719 148.09375 236.675781 C 148.304688 236.464844 148.492188 236.238281 148.65625 235.992188 C 148.820312 235.746094 148.957031 235.484375 149.070312 235.210938 C 149.183594 234.933594 149.265625 234.652344 149.324219 234.363281 C 149.378906 234.070312 149.40625 233.777344 149.402344 233.480469 C 149.398438 233.183594 149.367188 232.890625 149.308594 232.601562 C 149.246094 232.3125 149.15625 232.03125 149.039062 231.757812 C 148.921875 231.484375 148.78125 231.226562 148.613281 230.984375 C 148.445312 230.738281 148.253906 230.515625 148.039062 230.308594 C 146.746094 229.015625 145.523438 227.664062 144.363281 226.25 C 143.203125 224.835938 142.117188 223.371094 141.101562 221.851562 C 140.085938 220.332031 139.144531 218.765625 138.285156 217.15625 C 137.421875 215.542969 136.640625 213.890625 135.941406 212.203125 C 135.242188 210.515625 134.628906 208.796875 134.097656 207.046875 C 133.566406 205.296875 133.125 203.527344 132.765625 201.734375 C 132.410156 199.941406 132.144531 198.136719 131.964844 196.316406 C 131.785156 194.5 131.695312 192.675781 131.695312 190.847656 C 131.695312 189.019531 131.785156 187.195312 131.964844 185.378906 C 132.144531 183.558594 132.410156 181.753906 132.765625 179.960938 C 133.125 178.167969 133.566406 176.398438 134.097656 174.648438 C 134.628906 172.898438 135.242188 171.179688 135.941406 169.492188 C 136.640625 167.804688 137.421875 166.152344 138.285156 164.542969 C 139.144531 162.929688 140.085938 161.363281 141.101562 159.84375 C 142.117188 158.324219 143.203125 156.859375 144.363281 155.445312 C 145.523438 154.035156 146.746094 152.679688 148.039062 151.386719 Z M 148.039062 151.386719 " fill-opacity="1" fill-rule="nonzero"/><path fill="#004aad" d="M 214.238281 226.515625 C 215.476562 225.585938 216.667969 224.597656 217.808594 223.542969 C 218.945312 222.492188 220.027344 221.382812 221.050781 220.214844 C 222.074219 219.050781 223.03125 217.835938 223.929688 216.570312 C 224.824219 215.304688 225.652344 213.996094 226.414062 212.644531 C 227.175781 211.292969 227.863281 209.90625 228.476562 208.480469 C 229.09375 207.058594 229.632812 205.605469 230.097656 204.128906 C 230.5625 202.648438 230.945312 201.148438 231.253906 199.628906 C 231.5625 198.109375 231.789062 196.578125 231.9375 195.03125 C 232.085938 193.488281 232.15625 191.941406 232.140625 190.390625 C 232.128906 188.839844 232.035156 187.292969 231.863281 185.753906 C 231.6875 184.210938 231.433594 182.683594 231.101562 181.171875 C 230.765625 179.65625 230.355469 178.164062 229.867188 176.691406 C 229.378906 175.21875 228.816406 173.777344 228.175781 172.363281 C 227.535156 170.953125 226.824219 169.574219 226.042969 168.238281 C 225.261719 166.898438 224.410156 165.601562 223.492188 164.351562 C 222.574219 163.101562 221.597656 161.902344 220.554688 160.753906 C 219.511719 159.605469 218.410156 158.515625 217.253906 157.484375 C 216.101562 156.449219 214.894531 155.480469 213.636719 154.570312 C 212.378906 153.664062 211.078125 152.824219 209.734375 152.050781 C 208.386719 151.277344 207.007812 150.578125 205.589844 149.949219 C 204.171875 149.320312 202.726562 148.769531 201.25 148.289062 C 199.773438 147.8125 198.277344 147.414062 196.761719 147.09375 C 195.242188 146.769531 193.714844 146.527344 192.171875 146.367188 C 190.628906 146.203125 189.082031 146.121094 187.53125 146.121094 C 185.980469 146.121094 184.433594 146.199219 182.894531 146.359375 C 181.351562 146.519531 179.820312 146.757812 178.300781 147.078125 C 176.785156 147.398438 175.289062 147.796875 173.8125 148.269531 C 172.335938 148.746094 170.890625 149.296875 169.46875 149.925781 C 168.050781 150.550781 166.667969 151.25 165.324219 152.019531 C 163.976562 152.789062 162.675781 153.628906 161.417969 154.535156 C 160.160156 155.441406 158.949219 156.410156 157.792969 157.441406 C 156.636719 158.472656 155.535156 159.5625 154.492188 160.707031 C 153.445312 161.855469 152.464844 163.054688 151.546875 164.300781 C 150.625 165.550781 149.773438 166.84375 148.992188 168.183594 C 148.207031 169.519531 147.492188 170.894531 146.851562 172.308594 C 146.210938 173.71875 145.644531 175.160156 145.152344 176.632812 C 144.664062 178.101562 144.25 179.59375 143.914062 181.109375 C 143.578125 182.621094 143.324219 184.148438 143.148438 185.691406 C 142.972656 187.230469 142.875 188.777344 142.859375 190.328125 C 142.84375 191.878906 142.910156 193.425781 143.054688 194.96875 C 143.203125 196.511719 143.429688 198.046875 143.734375 199.566406 C 144.039062 201.085938 144.425781 202.585938 144.886719 204.066406 C 145.347656 205.546875 145.886719 207 146.5 208.421875 C 147.113281 209.847656 147.796875 211.238281 148.558594 212.589844 C 149.316406 213.941406 150.140625 215.25 151.035156 216.519531 C 151.929688 217.785156 152.886719 219 153.910156 220.167969 C 154.929688 221.335938 156.011719 222.445312 157.148438 223.5 C 158.285156 224.554688 159.472656 225.546875 160.714844 226.476562 L 160.714844 214.417969 C 159.957031 213.5625 159.246094 212.667969 158.574219 211.746094 C 157.90625 210.820312 157.28125 209.863281 156.703125 208.878906 C 156.125 207.894531 155.59375 206.882812 155.109375 205.847656 C 154.628906 204.8125 154.199219 203.753906 153.816406 202.679688 C 153.4375 201.601562 153.109375 200.507812 152.835938 199.398438 C 152.558594 198.289062 152.335938 197.171875 152.167969 196.039062 C 152 194.910156 151.886719 193.777344 151.828125 192.632812 C 151.769531 191.492188 151.765625 190.351562 151.816406 189.210938 C 151.867188 188.070312 151.972656 186.933594 152.132812 185.800781 C 152.289062 184.671875 152.503906 183.550781 152.769531 182.4375 C 153.039062 181.328125 153.359375 180.234375 153.730469 179.152344 C 154.101562 178.074219 154.523438 177.011719 155 175.972656 C 155.472656 174.933594 155.996094 173.917969 156.566406 172.929688 C 157.136719 171.941406 157.753906 170.980469 158.417969 170.050781 C 159.082031 169.121094 159.789062 168.226562 160.539062 167.363281 C 161.285156 166.5 162.074219 165.675781 162.90625 164.890625 C 163.734375 164.101562 164.597656 163.355469 165.496094 162.652344 C 166.398438 161.949219 167.328125 161.289062 168.292969 160.675781 C 169.253906 160.0625 170.246094 159.496094 171.261719 158.976562 C 172.28125 158.457031 173.320312 157.988281 174.382812 157.566406 C 175.445312 157.148438 176.527344 156.78125 177.625 156.464844 C 178.722656 156.148438 179.832031 155.886719 180.957031 155.675781 C 182.078125 155.46875 183.210938 155.3125 184.347656 155.210938 C 185.484375 155.109375 186.625 155.066406 187.769531 155.074219 C 188.910156 155.082031 190.050781 155.144531 191.1875 155.261719 C 192.320312 155.382812 193.449219 155.554688 194.570312 155.78125 C 195.691406 156.003906 196.796875 156.285156 197.890625 156.617188 C 198.980469 156.949219 200.058594 157.332031 201.113281 157.769531 C 202.167969 158.203125 203.203125 158.691406 204.210938 159.222656 C 205.222656 159.757812 206.203125 160.339844 207.15625 160.96875 C 208.109375 161.597656 209.03125 162.269531 209.921875 162.988281 C 210.8125 163.707031 211.664062 164.464844 212.480469 165.261719 C 213.296875 166.0625 214.074219 166.898438 214.808594 167.773438 C 215.546875 168.644531 216.238281 169.550781 216.886719 170.492188 C 217.535156 171.433594 218.140625 172.402344 218.695312 173.398438 C 219.25 174.398438 219.757812 175.417969 220.21875 176.464844 C 220.675781 177.511719 221.082031 178.578125 221.4375 179.664062 C 221.792969 180.75 222.097656 181.851562 222.347656 182.964844 C 222.597656 184.078125 222.792969 185.203125 222.9375 186.335938 C 223.078125 187.46875 223.167969 188.609375 223.199219 189.75 C 223.234375 190.890625 223.210938 192.03125 223.136719 193.171875 C 223.058594 194.3125 222.929688 195.445312 222.742188 196.574219 C 222.558594 197.699219 222.320312 198.816406 222.027344 199.921875 C 221.734375 201.027344 221.390625 202.113281 220.996094 203.183594 C 220.597656 204.257812 220.152344 205.308594 219.652344 206.335938 C 219.15625 207.363281 218.609375 208.367188 218.015625 209.34375 C 217.425781 210.320312 216.785156 211.265625 216.101562 212.179688 C 215.417969 213.09375 214.691406 213.972656 213.921875 214.820312 C 213.929688 215.25 213.964844 215.679688 213.941406 216.113281 C 213.8125 218.523438 213.222656 220.8125 212.167969 222.980469 C 212.992188 224.078125 213.683594 225.257812 214.238281 226.515625 Z M 214.238281 226.515625 " fill-opacity="1" fill-rule="nonzero"/><path fill="#2d4356" d="M 102.679688 262.730469 L 152.601562 262.730469 C 155.09375 260.316406 157.796875 258.167969 160.714844 256.289062 L 160.714844 253.722656 L 102.679688 253.722656 C 101.808594 253.71875 100.941406 253.695312 100.074219 253.648438 C 99.207031 253.597656 98.34375 253.527344 97.480469 253.433594 C 96.617188 253.339844 95.757812 253.222656 94.898438 253.082031 C 94.042969 252.945312 93.191406 252.78125 92.34375 252.597656 C 91.492188 252.410156 90.652344 252.203125 89.8125 251.972656 C 88.976562 251.742188 88.144531 251.492188 87.320312 251.214844 C 86.5 250.941406 85.683594 250.644531 84.875 250.328125 C 84.066406 250.007812 83.265625 249.667969 82.476562 249.308594 C 81.6875 248.949219 80.90625 248.566406 80.136719 248.164062 C 79.367188 247.761719 78.609375 247.339844 77.863281 246.898438 C 77.117188 246.453125 76.382812 245.992188 75.660156 245.511719 C 74.9375 245.027344 74.226562 244.527344 73.53125 244.007812 C 72.835938 243.488281 72.15625 242.953125 71.488281 242.394531 C 70.820312 241.839844 70.167969 241.265625 69.53125 240.675781 C 68.894531 240.085938 68.277344 239.476562 67.671875 238.855469 C 67.066406 238.230469 66.480469 237.589844 65.910156 236.9375 C 65.339844 236.28125 64.789062 235.609375 64.253906 234.925781 C 63.71875 234.242188 63.203125 233.542969 62.707031 232.832031 C 62.210938 232.121094 61.734375 231.394531 61.273438 230.65625 C 60.816406 229.917969 60.378906 229.171875 59.960938 228.410156 C 59.539062 227.648438 59.144531 226.878906 58.765625 226.09375 C 58.386719 225.3125 58.03125 224.523438 57.695312 223.722656 C 57.363281 222.917969 57.046875 222.109375 56.757812 221.292969 C 56.464844 220.476562 56.195312 219.648438 55.945312 218.816406 C 55.699219 217.984375 55.472656 217.148438 55.269531 216.304688 C 55.066406 215.457031 54.886719 214.609375 54.726562 213.757812 C 54.570312 212.902344 54.433594 212.042969 54.324219 211.183594 C 54.210938 210.324219 54.121094 209.460938 54.054688 208.59375 C 53.988281 207.726562 53.945312 206.859375 53.925781 205.992188 C 53.90625 205.125 53.910156 204.257812 53.933594 203.386719 C 53.960938 202.519531 54.011719 201.652344 54.082031 200.789062 C 54.15625 199.921875 54.25 199.0625 54.371094 198.199219 C 54.488281 197.339844 54.628906 196.484375 54.792969 195.632812 C 54.957031 194.777344 55.144531 193.929688 55.355469 193.089844 C 55.5625 192.246094 55.796875 191.410156 56.050781 190.578125 C 56.304688 189.75 56.578125 188.925781 56.878906 188.109375 C 57.175781 187.292969 57.496094 186.488281 57.835938 185.6875 C 58.175781 184.890625 58.539062 184.101562 58.921875 183.320312 C 59.304688 182.542969 59.707031 181.773438 60.132812 181.015625 C 60.554688 180.257812 61 179.511719 61.464844 178.777344 C 61.925781 178.042969 62.410156 177.324219 62.914062 176.613281 C 63.414062 175.90625 63.933594 175.210938 64.472656 174.53125 C 65.015625 173.851562 65.570312 173.183594 66.144531 172.535156 C 66.71875 171.882812 67.3125 171.246094 67.921875 170.628906 C 68.527344 170.007812 69.152344 169.40625 69.792969 168.820312 C 70.433594 168.234375 71.089844 167.664062 71.761719 167.113281 C 72.433594 166.5625 73.117188 166.03125 73.816406 165.515625 C 74.515625 165 75.230469 164.507812 75.957031 164.03125 C 76.683594 163.554688 77.417969 163.097656 78.171875 162.660156 C 78.921875 162.222656 79.683594 161.804688 80.453125 161.410156 C 81.226562 161.011719 82.007812 160.636719 82.800781 160.28125 C 83.59375 159.925781 84.394531 159.59375 85.207031 159.28125 C 86.015625 158.96875 86.835938 158.679688 87.660156 158.410156 C 88.484375 158.140625 89.316406 157.894531 90.15625 157.671875 C 90.996094 157.445312 91.839844 157.246094 92.691406 157.066406 C 93.539062 156.886719 94.394531 156.730469 95.25 156.597656 C 96.109375 156.464844 96.96875 156.351562 97.835938 156.265625 C 98.699219 156.175781 99.5625 156.113281 100.429688 156.070312 C 101.296875 156.03125 102.167969 156.011719 103.035156 156.015625 C 103.902344 156.019531 104.769531 156.050781 105.636719 156.101562 C 106.503906 156.152344 107.367188 156.226562 108.230469 156.324219 C 109.09375 156.417969 109.953125 156.539062 110.8125 156.683594 C 111.667969 156.824219 112.519531 156.992188 113.367188 157.179688 C 114.214844 157.367188 115.054688 157.578125 115.894531 157.8125 C 113.761719 154.582031 112.140625 151.109375 111.03125 147.402344 C 109.917969 143.691406 109.367188 139.902344 109.375 136.03125 C 109.382812 134.878906 109.4375 133.726562 109.542969 132.578125 C 109.648438 131.429688 109.804688 130.289062 110.007812 129.152344 C 110.214844 128.015625 110.464844 126.894531 110.765625 125.78125 C 111.070312 124.667969 111.417969 123.566406 111.8125 122.484375 C 112.207031 121.402344 112.648438 120.335938 113.136719 119.289062 C 113.625 118.246094 114.15625 117.222656 114.730469 116.222656 C 115.304688 115.222656 115.921875 114.25 116.582031 113.304688 C 117.238281 112.355469 117.9375 111.441406 118.675781 110.554688 C 119.414062 109.667969 120.1875 108.8125 121 107.992188 C 121.808594 107.171875 122.65625 106.390625 123.535156 105.640625 C 124.410156 104.894531 125.320312 104.1875 126.261719 103.515625 C 127.199219 102.847656 128.167969 102.222656 129.160156 101.636719 C 130.152344 101.050781 131.171875 100.507812 132.210938 100.007812 C 133.25 99.511719 134.3125 99.058594 135.390625 98.648438 C 136.46875 98.242188 137.5625 97.882812 138.671875 97.570312 C 139.785156 97.257812 140.90625 96.992188 142.039062 96.777344 C 143.171875 96.558594 144.3125 96.390625 145.457031 96.273438 C 146.605469 96.15625 147.757812 96.085938 148.910156 96.066406 C 150.0625 96.046875 151.214844 96.078125 152.367188 96.15625 C 153.515625 96.238281 154.660156 96.367188 155.800781 96.542969 C 156.941406 96.722656 158.070312 96.949219 159.191406 97.226562 C 160.308594 97.5 161.417969 97.824219 162.507812 98.195312 C 163.601562 98.566406 164.675781 98.980469 165.730469 99.445312 C 166.789062 99.90625 167.824219 100.414062 168.835938 100.96875 C 169.847656 101.519531 170.835938 102.113281 171.796875 102.75 C 172.757812 103.386719 173.691406 104.066406 174.59375 104.78125 C 175.496094 105.5 176.367188 106.253906 177.207031 107.046875 C 178.042969 107.839844 178.847656 108.664062 179.613281 109.527344 C 180.382812 110.386719 181.109375 111.28125 181.800781 112.207031 C 182.492188 113.128906 183.140625 114.082031 183.75 115.0625 C 184.355469 116.042969 184.921875 117.046875 185.445312 118.074219 C 185.964844 119.101562 186.441406 120.152344 186.875 121.222656 C 187.359375 120.203125 187.886719 119.207031 188.453125 118.230469 C 189.023438 117.257812 189.632812 116.308594 190.277344 115.382812 C 190.925781 114.460938 191.613281 113.566406 192.335938 112.703125 C 193.058594 111.835938 193.820312 111.003906 194.613281 110.199219 C 195.40625 109.398438 196.230469 108.632812 197.089844 107.898438 C 197.949219 107.167969 198.835938 106.472656 199.753906 105.816406 C 200.667969 105.15625 201.613281 104.539062 202.582031 103.960938 C 203.550781 103.382812 204.539062 102.847656 205.554688 102.351562 C 206.566406 101.859375 207.601562 101.40625 208.652344 101 C 209.703125 100.589844 210.773438 100.230469 211.855469 99.910156 C 212.9375 99.59375 214.03125 99.320312 215.136719 99.09375 C 216.242188 98.871094 217.351562 98.691406 218.472656 98.558594 C 219.59375 98.425781 220.71875 98.339844 221.84375 98.304688 C 222.972656 98.265625 224.101562 98.277344 225.226562 98.332031 C 226.351562 98.390625 227.476562 98.496094 228.59375 98.644531 C 229.710938 98.796875 230.820312 98.996094 231.921875 99.242188 C 233.023438 99.488281 234.113281 99.777344 235.1875 100.113281 C 236.265625 100.449219 237.324219 100.832031 238.371094 101.257812 C 239.414062 101.683594 240.4375 102.152344 241.445312 102.664062 C 242.449219 103.179688 243.429688 103.730469 244.390625 104.328125 C 245.347656 104.921875 246.28125 105.554688 247.183594 106.230469 C 248.089844 106.902344 248.964844 107.613281 249.8125 108.359375 C 250.65625 109.105469 251.46875 109.886719 252.246094 110.703125 C 253.027344 111.519531 253.773438 112.363281 254.480469 113.242188 C 255.1875 114.121094 255.859375 115.027344 256.492188 115.960938 C 257.121094 116.894531 257.714844 117.855469 258.265625 118.839844 C 258.816406 119.824219 259.324219 120.828125 259.792969 121.855469 C 260.257812 122.882812 260.679688 123.929688 261.058594 124.992188 C 261.4375 126.054688 261.773438 127.128906 262.058594 128.21875 C 262.347656 129.3125 262.589844 130.410156 262.785156 131.523438 C 262.980469 132.632812 263.128906 133.75 263.230469 134.875 C 263.332031 136 263.386719 137.125 263.394531 138.253906 C 263.398438 141.738281 262.949219 145.164062 262.046875 148.53125 C 261.148438 151.894531 259.824219 155.085938 258.082031 158.105469 C 258.917969 157.84375 259.765625 157.609375 260.617188 157.394531 C 261.464844 157.179688 262.324219 156.992188 263.183594 156.824219 C 264.046875 156.65625 264.910156 156.511719 265.78125 156.390625 C 266.652344 156.269531 267.523438 156.171875 268.398438 156.097656 C 269.273438 156.023438 270.148438 155.972656 271.023438 155.945312 C 271.902344 155.917969 272.78125 155.914062 273.65625 155.933594 C 274.535156 155.957031 275.410156 156 276.285156 156.066406 C 277.160156 156.132812 278.035156 156.226562 278.90625 156.339844 C 279.773438 156.453125 280.640625 156.59375 281.503906 156.753906 C 282.367188 156.914062 283.226562 157.097656 284.078125 157.304688 C 284.929688 157.511719 285.777344 157.742188 286.617188 157.996094 C 287.460938 158.25 288.292969 158.523438 289.117188 158.824219 C 289.945312 159.121094 290.761719 159.441406 291.570312 159.78125 C 292.378906 160.125 293.175781 160.488281 293.964844 160.871094 C 294.753906 161.257812 295.53125 161.664062 296.300781 162.089844 C 297.066406 162.515625 297.820312 162.964844 298.5625 163.429688 C 299.308594 163.898438 300.039062 164.386719 300.753906 164.890625 C 301.472656 165.398438 302.171875 165.925781 302.863281 166.46875 C 303.550781 167.011719 304.222656 167.578125 304.882812 168.15625 C 305.539062 168.738281 306.183594 169.335938 306.808594 169.953125 C 307.433594 170.566406 308.042969 171.199219 308.632812 171.847656 C 309.226562 172.496094 309.800781 173.160156 310.355469 173.835938 C 310.914062 174.515625 311.449219 175.210938 311.96875 175.917969 C 312.488281 176.625 312.988281 177.347656 313.46875 178.082031 C 313.949219 178.816406 314.40625 179.566406 314.847656 180.324219 C 315.285156 181.085938 315.707031 181.855469 316.105469 182.636719 C 316.503906 183.417969 316.878906 184.210938 317.234375 185.015625 C 317.589844 185.816406 317.925781 186.628906 318.234375 187.449219 C 318.546875 188.269531 318.835938 189.097656 319.105469 189.933594 C 319.371094 190.769531 319.617188 191.613281 319.839844 192.460938 C 320.058594 193.3125 320.257812 194.164062 320.433594 195.027344 C 320.609375 195.886719 320.761719 196.75 320.894531 197.617188 C 321.023438 198.488281 321.128906 199.359375 321.210938 200.230469 C 321.292969 201.105469 321.351562 201.980469 321.386719 202.859375 C 321.421875 203.734375 321.433594 204.613281 321.421875 205.488281 C 321.410156 206.367188 321.375 207.246094 321.316406 208.121094 C 321.253906 208.996094 321.171875 209.871094 321.066406 210.742188 C 320.960938 211.613281 320.832031 212.480469 320.679688 213.34375 C 320.523438 214.207031 320.347656 215.066406 320.148438 215.921875 C 319.949219 216.777344 319.726562 217.625 319.484375 218.46875 C 319.238281 219.3125 318.96875 220.148438 318.679688 220.976562 C 318.390625 221.804688 318.078125 222.625 317.746094 223.4375 C 317.410156 224.25 317.054688 225.050781 316.675781 225.84375 C 316.300781 226.636719 315.902344 227.417969 315.480469 228.1875 C 315.0625 228.960938 314.621094 229.71875 314.164062 230.464844 C 313.703125 231.214844 313.222656 231.949219 312.722656 232.667969 C 312.222656 233.390625 311.703125 234.097656 311.164062 234.792969 C 310.628906 235.484375 310.070312 236.164062 309.496094 236.828125 C 308.921875 237.492188 308.328125 238.140625 307.71875 238.769531 C 307.109375 239.402344 306.484375 240.019531 305.84375 240.617188 C 305.199219 241.214844 304.542969 241.792969 303.867188 242.355469 C 303.195312 242.917969 302.503906 243.464844 301.800781 243.988281 C 301.097656 244.515625 300.382812 245.019531 299.652344 245.507812 C 298.921875 245.996094 298.179688 246.460938 297.421875 246.910156 C 296.667969 247.355469 295.902344 247.78125 295.121094 248.1875 C 294.34375 248.59375 293.554688 248.976562 292.757812 249.339844 C 291.957031 249.703125 291.148438 250.046875 290.332031 250.363281 C 289.515625 250.683594 288.6875 250.980469 287.855469 251.257812 C 287.019531 251.53125 286.179688 251.785156 285.332031 252.015625 C 284.488281 252.246094 283.632812 252.453125 282.777344 252.636719 C 281.917969 252.820312 281.054688 252.980469 280.1875 253.117188 C 279.320312 253.253906 278.449219 253.371094 277.578125 253.460938 C 276.703125 253.550781 275.828125 253.617188 274.953125 253.660156 C 274.078125 253.703125 273.199219 253.726562 272.320312 253.722656 L 216.183594 253.722656 L 216.183594 255.871094 C 218.898438 257.90625 221.382812 260.191406 223.632812 262.730469 L 272.320312 262.730469 C 274.214844 262.730469 276.105469 262.636719 277.992188 262.453125 C 279.878906 262.265625 281.75 261.988281 283.609375 261.617188 C 285.46875 261.25 287.304688 260.789062 289.117188 260.238281 C 290.929688 259.6875 292.714844 259.050781 294.464844 258.324219 C 296.214844 257.601562 297.925781 256.789062 299.597656 255.898438 C 301.269531 255.003906 302.890625 254.03125 304.46875 252.976562 C 306.042969 251.925781 307.5625 250.796875 309.027344 249.597656 C 310.492188 248.394531 311.894531 247.121094 313.234375 245.78125 C 314.574219 244.441406 315.847656 243.039062 317.050781 241.574219 C 318.25 240.109375 319.378906 238.589844 320.429688 237.015625 C 321.484375 235.4375 322.457031 233.816406 323.351562 232.144531 C 324.246094 230.472656 325.054688 228.761719 325.777344 227.011719 C 326.503906 225.261719 327.140625 223.476562 327.691406 221.664062 C 328.242188 219.851562 328.703125 218.015625 329.070312 216.15625 C 329.441406 214.296875 329.71875 212.425781 329.90625 210.539062 C 330.089844 208.652344 330.183594 206.761719 330.183594 204.867188 C 330.183594 202.972656 330.089844 201.082031 329.90625 199.195312 C 329.71875 197.3125 329.441406 195.4375 329.070312 193.578125 C 328.703125 191.722656 328.242188 189.886719 327.691406 188.070312 C 327.140625 186.257812 326.503906 184.476562 325.777344 182.726562 C 325.054688 180.976562 324.246094 179.265625 323.351562 177.59375 C 322.457031 175.921875 321.484375 174.296875 320.429688 172.722656 C 319.378906 171.144531 318.25 169.625 317.050781 168.160156 C 315.847656 166.695312 314.574219 165.292969 313.234375 163.953125 C 311.894531 162.613281 310.492188 161.34375 309.027344 160.140625 C 307.5625 158.9375 306.042969 157.8125 304.46875 156.757812 C 302.890625 155.707031 301.269531 154.730469 299.597656 153.839844 C 297.925781 152.945312 296.214844 152.136719 294.464844 151.410156 C 292.714844 150.6875 290.929688 150.046875 289.117188 149.5 C 287.304688 148.949219 285.46875 148.488281 283.609375 148.117188 C 281.75 147.75 279.878906 147.472656 277.992188 147.285156 C 276.105469 147.097656 274.214844 147.007812 272.320312 147.007812 C 272.054688 147.007812 271.792969 147.007812 271.527344 147.011719 C 271.6875 146.132812 271.824219 145.25 271.9375 144.359375 C 272.050781 143.472656 272.136719 142.582031 272.199219 141.691406 C 272.261719 140.796875 272.300781 139.90625 272.316406 139.011719 C 272.332031 138.113281 272.320312 137.21875 272.285156 136.328125 C 272.25 135.433594 272.191406 134.539062 272.105469 133.648438 C 272.023438 132.757812 271.914062 131.871094 271.78125 130.984375 C 271.648438 130.101562 271.492188 129.21875 271.3125 128.34375 C 271.132812 127.46875 270.925781 126.597656 270.699219 125.730469 C 270.46875 124.867188 270.21875 124.007812 269.941406 123.15625 C 269.667969 122.304688 269.367188 121.460938 269.046875 120.628906 C 268.722656 119.792969 268.378906 118.964844 268.011719 118.152344 C 267.644531 117.335938 267.257812 116.527344 266.84375 115.734375 C 266.433594 114.941406 266 114.15625 265.546875 113.386719 C 265.09375 112.613281 264.617188 111.855469 264.121094 111.113281 C 263.625 110.367188 263.109375 109.636719 262.574219 108.917969 C 262.039062 108.203125 261.484375 107.5 260.910156 106.816406 C 260.335938 106.128906 259.742188 105.460938 259.132812 104.804688 C 258.519531 104.152344 257.894531 103.515625 257.246094 102.894531 C 256.601562 102.277344 255.9375 101.675781 255.261719 101.09375 C 254.582031 100.507812 253.886719 99.945312 253.175781 99.402344 C 252.46875 98.855469 251.742188 98.332031 251.003906 97.824219 C 250.265625 97.320312 249.515625 96.835938 248.75 96.371094 C 247.984375 95.90625 247.207031 95.464844 246.417969 95.042969 C 245.628906 94.621094 244.828125 94.222656 244.015625 93.84375 C 243.207031 93.46875 242.382812 93.113281 241.554688 92.78125 C 240.722656 92.449219 239.882812 92.136719 239.035156 91.851562 C 238.1875 91.566406 237.332031 91.300781 236.472656 91.0625 C 235.609375 90.824219 234.742188 90.605469 233.867188 90.414062 C 232.992188 90.222656 232.113281 90.054688 231.230469 89.910156 C 230.347656 89.765625 229.460938 89.648438 228.570312 89.550781 C 227.683594 89.457031 226.789062 89.386719 225.898438 89.339844 C 225.003906 89.292969 224.109375 89.273438 223.214844 89.273438 C 219.859375 89.28125 216.539062 89.625 213.253906 90.308594 C 209.972656 90.992188 206.789062 92.003906 203.710938 93.335938 C 200.632812 94.667969 197.71875 96.296875 194.972656 98.222656 C 192.226562 100.148438 189.699219 102.332031 187.398438 104.773438 C 186.527344 103.714844 185.613281 102.699219 184.65625 101.71875 C 183.699219 100.738281 182.699219 99.800781 181.664062 98.90625 C 180.628906 98.007812 179.558594 97.15625 178.449219 96.351562 C 177.34375 95.542969 176.203125 94.785156 175.035156 94.074219 C 173.863281 93.363281 172.664062 92.703125 171.4375 92.09375 C 170.210938 91.480469 168.960938 90.921875 167.691406 90.417969 C 166.417969 89.910156 165.125 89.457031 163.816406 89.058594 C 162.503906 88.660156 161.179688 88.320312 159.839844 88.03125 C 158.5 87.746094 157.152344 87.511719 155.792969 87.339844 C 154.433594 87.164062 153.070312 87.046875 151.703125 86.988281 C 150.335938 86.925781 148.964844 86.925781 147.597656 86.976562 C 146.226562 87.03125 144.863281 87.144531 143.503906 87.3125 C 142.144531 87.480469 140.796875 87.707031 139.453125 87.988281 C 138.113281 88.269531 136.789062 88.605469 135.476562 89 C 134.164062 89.390625 132.871094 89.839844 131.59375 90.339844 C 130.320312 90.839844 129.066406 91.394531 127.839844 92 C 126.609375 92.605469 125.410156 93.257812 124.234375 93.964844 C 123.0625 94.671875 121.917969 95.425781 120.808594 96.226562 C 119.699219 97.027344 118.625 97.875 117.582031 98.769531 C 116.542969 99.660156 115.542969 100.59375 114.582031 101.570312 C 113.621094 102.542969 112.699219 103.558594 111.824219 104.609375 C 110.945312 105.664062 110.117188 106.75 109.328125 107.871094 C 108.542969 108.992188 107.808594 110.148438 107.117188 111.332031 C 106.429688 112.515625 105.789062 113.722656 105.203125 114.960938 C 104.613281 116.199219 104.078125 117.457031 103.597656 118.742188 C 103.113281 120.023438 102.683594 121.320312 102.3125 122.640625 C 101.9375 123.957031 101.621094 125.289062 101.355469 126.632812 C 101.09375 127.976562 100.890625 129.332031 100.738281 130.691406 C 100.589844 132.054688 100.5 133.417969 100.464844 134.789062 C 100.429688 136.15625 100.453125 137.527344 100.53125 138.894531 C 100.613281 140.261719 100.75 141.621094 100.941406 142.980469 C 101.136719 144.335938 101.386719 145.679688 101.691406 147.015625 C 99.800781 147.035156 97.914062 147.148438 96.03125 147.351562 C 94.148438 147.558594 92.285156 147.855469 90.429688 148.242188 C 88.578125 148.632812 86.75 149.109375 84.945312 149.679688 C 83.140625 150.246094 81.367188 150.902344 79.625 151.640625 C 77.882812 152.382812 76.183594 153.210938 74.523438 154.117188 C 72.863281 155.027344 71.253906 156.015625 69.6875 157.082031 C 68.125 158.148438 66.617188 159.289062 65.167969 160.503906 C 63.714844 161.71875 62.328125 163 61.003906 164.351562 C 59.679688 165.703125 58.421875 167.117188 57.234375 168.589844 C 56.046875 170.0625 54.9375 171.59375 53.898438 173.175781 C 52.863281 174.757812 51.90625 176.390625 51.03125 178.066406 C 50.152344 179.742188 49.359375 181.460938 48.652344 183.214844 C 47.945312 184.96875 47.324219 186.753906 46.789062 188.570312 C 46.257812 190.386719 45.8125 192.222656 45.460938 194.082031 C 45.109375 195.941406 44.847656 197.8125 44.675781 199.699219 C 44.507812 201.585938 44.433594 203.472656 44.449219 205.363281 C 44.464844 207.257812 44.574219 209.144531 44.773438 211.027344 C 44.976562 212.90625 45.269531 214.773438 45.652344 216.628906 C 46.039062 218.480469 46.511719 220.3125 47.074219 222.117188 C 47.640625 223.925781 48.289062 225.699219 49.027344 227.441406 C 49.765625 229.183594 50.589844 230.886719 51.496094 232.546875 C 52.398438 234.210938 53.382812 235.824219 54.449219 237.386719 C 55.511719 238.953125 56.648438 240.464844 57.859375 241.917969 C 59.070312 243.371094 60.351562 244.761719 61.699219 246.089844 C 63.046875 247.417969 64.457031 248.675781 65.929688 249.867188 C 67.402344 251.054688 68.929688 252.171875 70.507812 253.210938 C 72.089844 254.25 73.71875 255.210938 75.394531 256.089844 C 77.070312 256.972656 78.78125 257.769531 80.535156 258.480469 C 82.289062 259.191406 84.074219 259.816406 85.890625 260.351562 C 87.703125 260.890625 89.539062 261.335938 91.398438 261.695312 C 93.257812 262.050781 95.128906 262.316406 97.011719 262.488281 C 98.898438 262.660156 100.785156 262.742188 102.679688 262.730469 Z M 102.679688 262.730469 " fill-opacity="1" fill-rule="nonzero"/><path fill="#004aad" d="M 187.5 315.847656 C 188.085938 315.847656 188.667969 315.820312 189.25 315.761719 C 189.832031 315.703125 190.410156 315.621094 190.984375 315.503906 C 191.558594 315.390625 192.125 315.25 192.683594 315.078125 C 193.242188 314.910156 193.792969 314.710938 194.332031 314.488281 C 194.875 314.265625 195.402344 314.015625 195.917969 313.738281 C 196.433594 313.464844 196.933594 313.164062 197.421875 312.839844 C 197.90625 312.515625 198.375 312.164062 198.828125 311.792969 C 199.28125 311.421875 199.714844 311.03125 200.125 310.617188 C 200.539062 310.203125 200.933594 309.773438 201.304688 309.320312 C 201.675781 308.867188 202.023438 308.398438 202.347656 307.910156 C 202.671875 307.425781 202.972656 306.925781 203.25 306.410156 C 203.523438 305.894531 203.773438 305.363281 203.996094 304.824219 C 204.222656 304.285156 204.417969 303.734375 204.589844 303.175781 C 204.757812 302.613281 204.898438 302.046875 205.015625 301.476562 C 205.128906 300.902344 205.214844 300.324219 205.269531 299.742188 C 205.328125 299.160156 205.355469 298.574219 205.355469 297.992188 C 205.355469 297.40625 205.328125 296.824219 205.269531 296.242188 C 205.214844 295.660156 205.128906 295.082031 205.015625 294.507812 C 204.898438 293.933594 204.757812 293.367188 204.589844 292.808594 C 204.417969 292.246094 204.222656 291.699219 203.996094 291.15625 C 203.773438 290.617188 203.523438 290.089844 203.25 289.574219 C 202.972656 289.058594 202.671875 288.554688 202.347656 288.070312 C 202.023438 287.582031 201.675781 287.113281 201.304688 286.664062 C 200.933594 286.210938 200.539062 285.777344 200.125 285.363281 C 199.714844 284.949219 199.28125 284.558594 198.828125 284.1875 C 198.375 283.816406 197.90625 283.46875 197.421875 283.144531 C 196.933594 282.820312 196.433594 282.519531 195.917969 282.242188 C 195.402344 281.964844 194.875 281.71875 194.332031 281.492188 C 193.792969 281.269531 193.242188 281.074219 192.683594 280.902344 C 192.125 280.734375 191.558594 280.589844 190.984375 280.476562 C 190.410156 280.363281 189.832031 280.277344 189.25 280.21875 C 188.667969 280.164062 188.085938 280.132812 187.5 280.132812 C 186.914062 280.132812 186.332031 280.164062 185.75 280.21875 C 185.167969 280.277344 184.589844 280.363281 184.015625 280.476562 C 183.441406 280.589844 182.875 280.734375 182.316406 280.902344 C 181.757812 281.074219 181.207031 281.269531 180.667969 281.492188 C 180.125 281.71875 179.597656 281.964844 179.082031 282.242188 C 178.566406 282.519531 178.066406 282.820312 177.578125 283.144531 C 177.09375 283.46875 176.625 283.816406 176.171875 284.1875 C 175.71875 284.558594 175.285156 284.949219 174.875 285.363281 C 174.460938 285.777344 174.066406 286.210938 173.695312 286.664062 C 173.324219 287.113281 172.976562 287.582031 172.652344 288.070312 C 172.328125 288.554688 172.027344 289.058594 171.75 289.574219 C 171.476562 290.089844 171.226562 290.617188 171.003906 291.15625 C 170.777344 291.699219 170.582031 292.246094 170.410156 292.808594 C 170.242188 293.367188 170.101562 293.933594 169.984375 294.507812 C 169.871094 295.082031 169.785156 295.660156 169.730469 296.242188 C 169.671875 296.824219 169.644531 297.40625 169.644531 297.992188 C 169.644531 298.574219 169.671875 299.160156 169.730469 299.742188 C 169.789062 300.324219 169.875 300.898438 169.988281 301.472656 C 170.105469 302.046875 170.246094 302.613281 170.417969 303.171875 C 170.585938 303.730469 170.785156 304.28125 171.007812 304.820312 C 171.230469 305.363281 171.480469 305.890625 171.757812 306.40625 C 172.03125 306.921875 172.332031 307.421875 172.660156 307.90625 C 172.984375 308.394531 173.332031 308.863281 173.703125 309.3125 C 174.074219 309.765625 174.464844 310.199219 174.878906 310.613281 C 175.292969 311.027344 175.726562 311.417969 176.175781 311.789062 C 176.628906 312.160156 177.097656 312.507812 177.582031 312.832031 C 178.070312 313.15625 178.570312 313.457031 179.085938 313.734375 C 179.601562 314.007812 180.128906 314.257812 180.667969 314.484375 C 181.210938 314.707031 181.757812 314.90625 182.320312 315.074219 C 182.878906 315.246094 183.445312 315.386719 184.019531 315.5 C 184.589844 315.617188 185.167969 315.703125 185.75 315.761719 C 186.332031 315.816406 186.914062 315.847656 187.5 315.847656 Z M 187.5 289.0625 C 188.085938 289.0625 188.667969 289.121094 189.242188 289.234375 C 189.816406 289.347656 190.375 289.519531 190.917969 289.742188 C 191.457031 289.964844 191.972656 290.242188 192.460938 290.566406 C 192.949219 290.894531 193.398438 291.261719 193.8125 291.675781 C 194.226562 292.09375 194.597656 292.542969 194.921875 293.03125 C 195.25 293.519531 195.523438 294.03125 195.75 294.574219 C 195.972656 295.117188 196.144531 295.675781 196.257812 296.25 C 196.371094 296.824219 196.429688 297.40625 196.429688 297.992188 C 196.429688 298.578125 196.371094 299.15625 196.257812 299.734375 C 196.144531 300.308594 195.972656 300.867188 195.75 301.40625 C 195.523438 301.949219 195.25 302.464844 194.921875 302.953125 C 194.597656 303.4375 194.226562 303.890625 193.8125 304.304688 C 193.398438 304.71875 192.949219 305.089844 192.460938 305.414062 C 191.972656 305.742188 191.457031 306.015625 190.917969 306.238281 C 190.375 306.464844 189.816406 306.632812 189.242188 306.746094 C 188.667969 306.863281 188.085938 306.917969 187.5 306.917969 C 186.914062 306.917969 186.332031 306.863281 185.757812 306.746094 C 185.183594 306.632812 184.625 306.464844 184.082031 306.238281 C 183.542969 306.015625 183.027344 305.742188 182.539062 305.414062 C 182.050781 305.089844 181.601562 304.71875 181.1875 304.304688 C 180.773438 303.890625 180.402344 303.4375 180.074219 302.953125 C 179.75 302.464844 179.476562 301.949219 179.25 301.40625 C 179.027344 300.867188 178.855469 300.308594 178.742188 299.734375 C 178.628906 299.15625 178.570312 298.578125 178.570312 297.992188 C 178.570312 297.40625 178.628906 296.824219 178.742188 296.25 C 178.855469 295.675781 179.027344 295.117188 179.25 294.574219 C 179.476562 294.03125 179.75 293.519531 180.074219 293.03125 C 180.402344 292.542969 180.773438 292.09375 181.1875 291.675781 C 181.601562 291.261719 182.050781 290.894531 182.539062 290.566406 C 183.027344 290.242188 183.542969 289.964844 184.082031 289.742188 C 184.625 289.519531 185.183594 289.347656 185.757812 289.234375 C 186.332031 289.121094 186.914062 289.0625 187.5 289.0625 Z M 187.5 289.0625 " fill-opacity="1" fill-rule="nonzero"/><path fill="#2d4356" d="M 336.429688 328.125 L 212.972656 328.125 C 213.996094 327.277344 214.988281 326.378906 215.941406 325.425781 C 217.816406 323.53125 219.492188 321.472656 220.960938 319.246094 C 222.429688 317.023438 223.667969 314.675781 224.675781 312.210938 C 225.683594 309.742188 226.441406 307.199219 226.945312 304.582031 C 227.449219 301.964844 227.695312 299.320312 227.679688 296.65625 C 227.671875 294.851562 227.550781 293.058594 227.316406 291.269531 C 227.078125 289.484375 226.730469 287.71875 226.265625 285.976562 C 225.804688 284.234375 225.230469 282.527344 224.546875 280.859375 C 223.867188 279.1875 223.078125 277.570312 222.1875 276.003906 C 221.296875 274.433594 220.3125 272.929688 219.226562 271.488281 C 218.144531 270.046875 216.972656 268.683594 215.714844 267.390625 C 214.457031 266.101562 213.117188 264.894531 211.703125 263.777344 C 210.289062 262.65625 208.8125 261.632812 207.265625 260.707031 L 207.253906 252.425781 C 207.25 251.21875 207.019531 250.0625 206.554688 248.949219 C 206.089844 247.835938 205.429688 246.855469 204.574219 246.007812 L 201.054688 242.523438 C 201.152344 242.488281 201.25 242.449219 201.347656 242.410156 C 202.140625 242.082031 202.867188 241.652344 203.539062 241.117188 C 204.207031 240.585938 204.789062 239.96875 205.28125 239.269531 C 205.773438 238.570312 206.160156 237.816406 206.441406 237.007812 C 206.722656 236.199219 206.882812 235.367188 206.925781 234.511719 C 206.96875 233.65625 206.894531 232.8125 206.695312 231.980469 C 206.5 231.148438 206.191406 230.355469 205.773438 229.613281 C 205.351562 228.867188 204.835938 228.195312 204.226562 227.59375 C 203.613281 226.996094 202.933594 226.492188 202.179688 226.085938 C 202.109375 226.050781 202.039062 226.015625 201.964844 225.980469 C 201.609375 225.605469 201.226562 225.269531 200.808594 224.960938 L 199.554688 224.035156 L 201.820312 222.136719 C 202.292969 221.734375 202.722656 221.292969 203.105469 220.804688 C 203.488281 220.316406 203.816406 219.792969 204.09375 219.238281 C 204.367188 218.683594 204.585938 218.105469 204.742188 217.503906 C 204.898438 216.90625 204.992188 216.296875 205.027344 215.675781 C 205.058594 215.054688 205.027344 214.441406 204.933594 213.828125 C 204.835938 213.214844 204.679688 212.617188 204.464844 212.035156 C 204.246094 211.453125 203.972656 210.902344 203.640625 210.375 C 203.3125 209.851562 202.929688 209.367188 202.5 208.917969 L 199.929688 206.261719 L 203.929688 202.425781 C 204.003906 202.355469 204.074219 202.285156 204.144531 202.214844 C 204.8125 201.617188 205.382812 200.9375 205.851562 200.175781 C 206.316406 199.410156 206.664062 198.597656 206.890625 197.730469 C 207.117188 196.863281 207.214844 195.984375 207.179688 195.089844 C 207.144531 194.191406 206.984375 193.320312 206.691406 192.476562 C 206.597656 190.410156 205.878906 188.589844 204.535156 187.019531 L 192.996094 173.511719 C 192.152344 172.519531 191.140625 171.753906 189.957031 171.207031 C 188.777344 170.660156 187.535156 170.386719 186.234375 170.386719 C 186.066406 170.386719 185.898438 170.390625 185.730469 170.398438 C 184.34375 170.480469 183.046875 170.863281 181.835938 171.550781 C 180.628906 172.242188 179.632812 173.160156 178.855469 174.316406 L 171.167969 185.683594 C 170.59375 186.535156 170.175781 187.457031 169.914062 188.445312 C 169.652344 189.4375 169.5625 190.445312 169.640625 191.464844 L 169.644531 261.511719 C 155.605469 268.6875 147.320312 281.222656 147.320312 295.527344 C 147.328125 298.65625 147.679688 301.746094 148.378906 304.796875 C 149.078125 307.847656 150.105469 310.785156 151.460938 313.605469 C 152.820312 316.425781 154.472656 319.0625 156.417969 321.511719 C 158.367188 323.960938 160.5625 326.167969 163.003906 328.125 L 38.570312 328.125 C 38.253906 328.082031 37.933594 328.074219 37.617188 328.101562 C 37.296875 328.128906 36.984375 328.1875 36.679688 328.28125 C 36.371094 328.375 36.078125 328.5 35.796875 328.65625 C 35.519531 328.8125 35.257812 328.996094 35.019531 329.207031 C 34.777344 329.417969 34.5625 329.652344 34.371094 329.910156 C 34.179688 330.164062 34.019531 330.441406 33.886719 330.730469 C 33.753906 331.023438 33.65625 331.328125 33.585938 331.640625 C 33.519531 331.953125 33.484375 332.269531 33.484375 332.589844 C 33.484375 332.910156 33.519531 333.226562 33.585938 333.539062 C 33.65625 333.851562 33.753906 334.15625 33.886719 334.445312 C 34.019531 334.738281 34.179688 335.011719 34.371094 335.269531 C 34.5625 335.527344 34.777344 335.761719 35.019531 335.972656 C 35.257812 336.183594 35.519531 336.367188 35.796875 336.523438 C 36.078125 336.679688 36.371094 336.804688 36.679688 336.898438 C 36.984375 336.988281 37.296875 337.050781 37.617188 337.074219 C 37.933594 337.101562 38.253906 337.09375 38.570312 337.054688 L 336.429688 337.054688 C 336.746094 337.09375 337.066406 337.101562 337.382812 337.074219 C 337.703125 337.050781 338.015625 336.988281 338.320312 336.898438 C 338.628906 336.804688 338.921875 336.679688 339.203125 336.523438 C 339.480469 336.367188 339.742188 336.183594 339.980469 335.972656 C 340.222656 335.761719 340.4375 335.527344 340.628906 335.269531 C 340.820312 335.011719 340.980469 334.738281 341.113281 334.445312 C 341.246094 334.15625 341.34375 333.851562 341.414062 333.539062 C 341.480469 333.226562 341.515625 332.910156 341.515625 332.589844 C 341.515625 332.269531 341.480469 331.953125 341.414062 331.640625 C 341.34375 331.328125 341.246094 331.023438 341.113281 330.730469 C 340.980469 330.441406 340.820312 330.164062 340.628906 329.910156 C 340.4375 329.652344 340.222656 329.417969 339.980469 329.207031 C 339.742188 328.996094 339.480469 328.8125 339.203125 328.65625 C 338.921875 328.5 338.628906 328.375 338.320312 328.28125 C 338.015625 328.1875 337.703125 328.128906 337.382812 328.101562 C 337.066406 328.074219 336.746094 328.082031 336.429688 328.125 Z M 198.011719 234.058594 L 198.007812 234.054688 Z M 156.25 295.585938 L 156.25 295.527344 C 156.25 278.957031 169.972656 271.109375 175.878906 268.503906 C 176.28125 268.324219 176.652344 268.089844 176.984375 267.800781 C 177.320312 267.515625 177.605469 267.1875 177.847656 266.816406 C 178.085938 266.445312 178.265625 266.046875 178.390625 265.625 C 178.511719 265.199219 178.574219 264.765625 178.570312 264.324219 L 178.570312 191.5 C 178.570312 191.230469 178.558594 190.988281 178.542969 190.761719 L 186.234375 179.394531 L 197.773438 192.902344 L 197.78125 195.894531 L 190.550781 202.824219 C 190.332031 203.035156 190.136719 203.265625 189.964844 203.511719 C 189.792969 203.761719 189.644531 204.023438 189.523438 204.300781 C 189.402344 204.578125 189.3125 204.867188 189.246094 205.160156 C 189.183594 205.457031 189.148438 205.753906 189.140625 206.058594 C 189.136719 206.359375 189.160156 206.660156 189.214844 206.957031 C 189.265625 207.253906 189.347656 207.542969 189.460938 207.828125 C 189.570312 208.109375 189.707031 208.375 189.871094 208.628906 C 190.03125 208.886719 190.21875 209.121094 190.429688 209.339844 L 196.105469 215.210938 L 189.503906 220.753906 C 189.242188 220.980469 189.003906 221.230469 188.796875 221.507812 C 188.589844 221.785156 188.414062 222.082031 188.273438 222.398438 C 188.132812 222.714844 188.03125 223.042969 187.964844 223.382812 C 187.898438 223.722656 187.871094 224.0625 187.878906 224.410156 C 187.890625 224.753906 187.941406 225.097656 188.027344 225.429688 C 188.117188 225.765625 188.238281 226.085938 188.398438 226.394531 C 188.558594 226.703125 188.75 226.988281 188.976562 227.25 C 189.199219 227.515625 189.449219 227.75 189.726562 227.957031 L 195.546875 232.242188 L 189.898438 237.191406 C 189.421875 237.613281 189.046875 238.109375 188.777344 238.6875 C 188.507812 239.261719 188.363281 239.867188 188.347656 240.503906 C 188.320312 241.140625 188.425781 241.757812 188.664062 242.347656 C 188.898438 242.941406 189.242188 243.460938 189.699219 243.910156 L 198.324219 252.441406 L 198.339844 263.355469 C 198.339844 264.21875 198.5625 265.015625 199.011719 265.746094 C 199.460938 266.480469 200.066406 267.042969 200.835938 267.433594 C 202.171875 268.117188 203.457031 268.890625 204.6875 269.75 C 205.921875 270.609375 207.085938 271.550781 208.191406 272.570312 C 209.292969 273.589844 210.320312 274.679688 211.273438 275.839844 C 212.230469 277 213.097656 278.222656 213.886719 279.5 C 214.671875 280.78125 215.367188 282.109375 215.972656 283.484375 C 216.574219 284.859375 217.082031 286.269531 217.492188 287.714844 C 217.90625 289.160156 218.214844 290.625 218.425781 292.113281 C 218.636719 293.601562 218.746094 295.097656 218.75 296.597656 L 218.75 296.660156 C 218.765625 298.730469 218.574219 300.789062 218.183594 302.824219 C 217.792969 304.859375 217.203125 306.839844 216.421875 308.761719 C 215.640625 310.683594 214.679688 312.507812 213.535156 314.238281 C 212.394531 315.96875 211.09375 317.574219 209.632812 319.046875 C 208.226562 320.476562 206.691406 321.753906 205.027344 322.875 C 203.367188 324 201.609375 324.945312 199.757812 325.71875 C 197.90625 326.492188 195.996094 327.074219 194.027344 327.464844 C 192.058594 327.855469 190.074219 328.046875 188.066406 328.042969 L 187.632812 328.042969 C 186.589844 328.011719 185.550781 327.929688 184.519531 327.800781 C 183.484375 327.671875 182.460938 327.488281 181.445312 327.261719 C 180.425781 327.03125 179.425781 326.75 178.433594 326.425781 C 177.445312 326.097656 176.472656 325.722656 175.519531 325.304688 C 174.566406 324.882812 173.636719 324.417969 172.730469 323.90625 C 171.820312 323.394531 170.9375 322.84375 170.085938 322.246094 C 169.230469 321.648438 168.40625 321.015625 167.613281 320.339844 C 166.820312 319.664062 166.058594 318.949219 165.335938 318.199219 C 164.613281 317.453125 163.925781 316.667969 163.277344 315.855469 C 162.628906 315.039062 162.019531 314.195312 161.453125 313.320312 C 160.886719 312.445312 160.363281 311.546875 159.882812 310.621094 C 159.402344 309.695312 158.96875 308.75 158.578125 307.785156 C 158.191406 306.816406 157.851562 305.832031 157.558594 304.832031 C 157.265625 303.832031 157.019531 302.820312 156.824219 301.796875 C 156.628906 300.773438 156.484375 299.742188 156.386719 298.707031 C 156.289062 297.667969 156.246094 296.628906 156.25 295.585938 Z M 217.199219 75.894531 C 217.636719 75.894531 218.074219 75.851562 218.503906 75.765625 C 218.9375 75.679688 219.355469 75.550781 219.761719 75.382812 C 220.167969 75.214844 220.554688 75.007812 220.917969 74.765625 C 221.285156 74.519531 221.621094 74.242188 221.933594 73.929688 C 222.246094 73.621094 222.523438 73.28125 222.765625 72.917969 C 223.011719 72.550781 223.21875 72.164062 223.386719 71.757812 C 223.554688 71.351562 223.679688 70.933594 223.765625 70.503906 C 223.851562 70.070312 223.894531 69.636719 223.894531 69.195312 C 223.894531 68.757812 223.851562 68.320312 223.765625 67.890625 C 223.679688 67.457031 223.554688 67.039062 223.386719 66.632812 C 223.21875 66.226562 223.011719 65.839844 222.765625 65.476562 C 222.523438 65.109375 222.246094 64.773438 221.933594 64.460938 C 221.621094 64.152344 221.285156 63.871094 220.917969 63.628906 C 220.554688 63.382812 220.167969 63.179688 219.761719 63.007812 C 219.355469 62.839844 218.9375 62.714844 218.503906 62.628906 C 218.074219 62.542969 217.636719 62.5 217.199219 62.5 C 216.757812 62.5 216.324219 62.542969 215.890625 62.628906 C 215.460938 62.714844 215.042969 62.839844 214.636719 63.007812 C 214.230469 63.179688 213.84375 63.382812 213.476562 63.628906 C 213.113281 63.871094 212.773438 64.152344 212.464844 64.460938 C 212.152344 64.773438 211.875 65.109375 211.628906 65.476562 C 211.386719 65.839844 211.179688 66.226562 211.011719 66.632812 C 210.84375 67.039062 210.714844 67.457031 210.632812 67.890625 C 210.546875 68.320312 210.503906 68.757812 210.503906 69.195312 C 210.503906 69.636719 210.546875 70.070312 210.632812 70.503906 C 210.71875 70.933594 210.84375 71.351562 211.015625 71.757812 C 211.183594 72.164062 211.386719 72.550781 211.632812 72.914062 C 211.878906 73.28125 212.15625 73.617188 212.464844 73.929688 C 212.777344 74.242188 213.113281 74.519531 213.480469 74.761719 C 213.84375 75.007812 214.230469 75.214844 214.636719 75.382812 C 215.042969 75.550781 215.460938 75.675781 215.894531 75.761719 C 216.324219 75.847656 216.757812 75.890625 217.199219 75.894531 Z M 217.199219 65.847656 C 217.644531 65.847656 218.070312 65.933594 218.480469 66.101562 C 218.890625 66.273438 219.253906 66.515625 219.566406 66.828125 C 219.878906 67.144531 220.121094 67.503906 220.292969 67.914062 C 220.460938 68.324219 220.546875 68.753906 220.546875 69.195312 C 220.546875 69.640625 220.460938 70.066406 220.292969 70.476562 C 220.121094 70.886719 219.878906 71.25 219.566406 71.5625 C 219.253906 71.878906 218.890625 72.121094 218.480469 72.289062 C 218.070312 72.460938 217.644531 72.542969 217.199219 72.542969 C 216.753906 72.542969 216.328125 72.460938 215.917969 72.289062 C 215.507812 72.121094 215.144531 71.878906 214.832031 71.5625 C 214.515625 71.25 214.273438 70.886719 214.105469 70.476562 C 213.933594 70.066406 213.851562 69.640625 213.851562 69.195312 C 213.851562 68.753906 213.9375 68.324219 214.105469 67.914062 C 214.277344 67.503906 214.519531 67.144531 214.832031 66.828125 C 215.144531 66.515625 215.507812 66.273438 215.917969 66.105469 C 216.328125 65.933594 216.753906 65.847656 217.199219 65.847656 Z M 302.019531 118.304688 C 301.726562 118.304688 301.4375 118.332031 301.148438 118.390625 C 300.863281 118.445312 300.582031 118.53125 300.3125 118.644531 C 300.039062 118.753906 299.785156 118.894531 299.539062 119.054688 C 299.296875 119.21875 299.070312 119.402344 298.863281 119.609375 C 298.65625 119.820312 298.472656 120.042969 298.308594 120.289062 C 298.144531 120.53125 298.007812 120.789062 297.894531 121.058594 C 297.785156 121.332031 297.699219 121.609375 297.640625 121.898438 C 297.585938 122.183594 297.554688 122.476562 297.554688 122.769531 C 297.554688 123.0625 297.585938 123.351562 297.640625 123.640625 C 297.699219 123.925781 297.785156 124.207031 297.894531 124.476562 C 298.007812 124.746094 298.144531 125.003906 298.308594 125.25 C 298.472656 125.492188 298.65625 125.71875 298.863281 125.925781 C 299.070312 126.132812 299.296875 126.316406 299.539062 126.480469 C 299.785156 126.644531 300.039062 126.78125 300.3125 126.890625 C 300.582031 127.003906 300.863281 127.089844 301.148438 127.144531 C 301.4375 127.203125 301.726562 127.230469 302.019531 127.230469 C 302.3125 127.230469 302.601562 127.203125 302.890625 127.144531 C 303.179688 127.089844 303.457031 127.003906 303.726562 126.890625 C 304 126.78125 304.257812 126.644531 304.5 126.480469 C 304.742188 126.316406 304.96875 126.132812 305.175781 125.925781 C 305.382812 125.71875 305.570312 125.492188 305.730469 125.25 C 305.894531 125.003906 306.03125 124.746094 306.144531 124.476562 C 306.257812 124.207031 306.339844 123.925781 306.398438 123.640625 C 306.457031 123.351562 306.484375 123.0625 306.484375 122.769531 C 306.484375 122.476562 306.457031 122.183594 306.398438 121.898438 C 306.339844 121.609375 306.253906 121.332031 306.144531 121.058594 C 306.03125 120.789062 305.894531 120.53125 305.730469 120.289062 C 305.566406 120.046875 305.382812 119.820312 305.175781 119.613281 C 304.96875 119.40625 304.742188 119.21875 304.5 119.058594 C 304.253906 118.894531 304 118.757812 303.726562 118.644531 C 303.457031 118.53125 303.179688 118.449219 302.890625 118.390625 C 302.601562 118.332031 302.3125 118.304688 302.019531 118.304688 Z M 302.019531 125 C 301.722656 125 301.4375 124.941406 301.164062 124.828125 C 300.890625 124.714844 300.652344 124.554688 300.441406 124.347656 C 300.230469 124.136719 300.070312 123.894531 299.957031 123.621094 C 299.84375 123.347656 299.789062 123.0625 299.789062 122.769531 C 299.789062 122.472656 299.84375 122.1875 299.957031 121.914062 C 300.070312 121.640625 300.230469 121.398438 300.441406 121.191406 C 300.652344 120.980469 300.890625 120.820312 301.164062 120.707031 C 301.4375 120.59375 301.722656 120.535156 302.019531 120.535156 C 302.316406 120.535156 302.601562 120.59375 302.875 120.707031 C 303.148438 120.820312 303.390625 120.980469 303.597656 121.191406 C 303.808594 121.398438 303.96875 121.640625 304.082031 121.914062 C 304.195312 122.1875 304.253906 122.472656 304.253906 122.769531 C 304.25 123.0625 304.195312 123.347656 304.082031 123.621094 C 303.96875 123.894531 303.808594 124.136719 303.597656 124.34375 C 303.386719 124.554688 303.148438 124.714844 302.875 124.828125 C 302.601562 124.941406 302.316406 125 302.019531 125 Z M 29.699219 17.855469 C 29.40625 17.855469 29.113281 17.886719 28.828125 17.941406 C 28.539062 18 28.261719 18.085938 27.992188 18.195312 C 27.71875 18.308594 27.460938 18.445312 27.21875 18.609375 C 26.976562 18.773438 26.75 18.957031 26.542969 19.164062 C 26.335938 19.371094 26.148438 19.597656 25.988281 19.839844 C 25.824219 20.085938 25.6875 20.34375 25.574219 20.613281 C 25.460938 20.882812 25.378906 21.164062 25.320312 21.449219 C 25.261719 21.738281 25.234375 22.027344 25.234375 22.320312 C 25.234375 22.613281 25.261719 22.90625 25.320312 23.191406 C 25.378906 23.480469 25.460938 23.757812 25.574219 24.03125 C 25.6875 24.300781 25.824219 24.558594 25.988281 24.800781 C 26.148438 25.046875 26.335938 25.269531 26.542969 25.476562 C 26.75 25.683594 26.976562 25.871094 27.21875 26.035156 C 27.460938 26.195312 27.71875 26.332031 27.992188 26.445312 C 28.261719 26.558594 28.539062 26.644531 28.828125 26.699219 C 29.113281 26.757812 29.40625 26.785156 29.699219 26.785156 C 29.992188 26.785156 30.28125 26.757812 30.570312 26.699219 C 30.855469 26.644531 31.136719 26.558594 31.40625 26.445312 C 31.679688 26.332031 31.933594 26.195312 32.179688 26.035156 C 32.421875 25.871094 32.648438 25.683594 32.855469 25.476562 C 33.0625 25.269531 33.246094 25.046875 33.410156 24.800781 C 33.574219 24.558594 33.710938 24.300781 33.824219 24.03125 C 33.933594 23.757812 34.019531 23.480469 34.078125 23.191406 C 34.132812 22.90625 34.164062 22.613281 34.164062 22.320312 C 34.164062 22.027344 34.132812 21.738281 34.078125 21.449219 C 34.019531 21.164062 33.933594 20.882812 33.820312 20.613281 C 33.710938 20.34375 33.570312 20.085938 33.410156 19.84375 C 33.246094 19.597656 33.0625 19.375 32.855469 19.164062 C 32.648438 18.957031 32.421875 18.773438 32.179688 18.609375 C 31.933594 18.449219 31.675781 18.308594 31.40625 18.199219 C 31.136719 18.085938 30.855469 18 30.570312 17.945312 C 30.28125 17.886719 29.992188 17.859375 29.699219 17.855469 Z M 29.699219 24.554688 C 29.402344 24.554688 29.117188 24.496094 28.84375 24.382812 C 28.570312 24.269531 28.328125 24.109375 28.121094 23.898438 C 27.910156 23.691406 27.75 23.449219 27.636719 23.175781 C 27.523438 22.902344 27.464844 22.617188 27.464844 22.320312 C 27.464844 22.027344 27.523438 21.742188 27.636719 21.46875 C 27.75 21.195312 27.910156 20.953125 28.121094 20.742188 C 28.328125 20.535156 28.570312 20.371094 28.84375 20.257812 C 29.117188 20.144531 29.402344 20.089844 29.699219 20.089844 C 29.996094 20.089844 30.28125 20.144531 30.554688 20.257812 C 30.828125 20.371094 31.066406 20.535156 31.277344 20.742188 C 31.484375 20.953125 31.648438 21.195312 31.761719 21.46875 C 31.875 21.742188 31.929688 22.027344 31.929688 22.320312 C 31.929688 22.617188 31.875 22.902344 31.761719 23.175781 C 31.648438 23.449219 31.484375 23.691406 31.277344 23.898438 C 31.066406 24.109375 30.824219 24.269531 30.550781 24.382812 C 30.277344 24.496094 29.996094 24.554688 29.699219 24.554688 Z M 288.628906 6.695312 C 288.335938 6.695312 288.042969 6.726562 287.757812 6.78125 C 287.46875 6.839844 287.191406 6.925781 286.917969 7.035156 C 286.648438 7.148438 286.390625 7.285156 286.148438 7.449219 C 285.902344 7.613281 285.675781 7.796875 285.46875 8.003906 C 285.261719 8.210938 285.078125 8.4375 284.914062 8.679688 C 284.753906 8.925781 284.613281 9.179688 284.503906 9.453125 C 284.390625 9.722656 284.304688 10.003906 284.25 10.289062 C 284.191406 10.578125 284.164062 10.867188 284.164062 11.160156 C 284.164062 11.453125 284.191406 11.746094 284.25 12.03125 C 284.304688 12.320312 284.390625 12.597656 284.503906 12.867188 C 284.613281 13.140625 284.753906 13.398438 284.914062 13.640625 C 285.078125 13.882812 285.261719 14.109375 285.46875 14.316406 C 285.675781 14.523438 285.902344 14.710938 286.148438 14.871094 C 286.390625 15.035156 286.648438 15.171875 286.917969 15.285156 C 287.191406 15.398438 287.46875 15.480469 287.757812 15.539062 C 288.042969 15.597656 288.335938 15.625 288.628906 15.625 C 288.921875 15.625 289.210938 15.597656 289.5 15.539062 C 289.785156 15.480469 290.066406 15.398438 290.335938 15.285156 C 290.605469 15.171875 290.863281 15.035156 291.105469 14.871094 C 291.351562 14.710938 291.578125 14.523438 291.785156 14.316406 C 291.992188 14.109375 292.175781 13.882812 292.339844 13.640625 C 292.5 13.398438 292.640625 13.140625 292.75 12.867188 C 292.863281 12.597656 292.949219 12.320312 293.003906 12.03125 C 293.0625 11.746094 293.089844 11.453125 293.089844 11.160156 C 293.089844 10.867188 293.0625 10.578125 293.003906 10.289062 C 292.949219 10.003906 292.863281 9.722656 292.75 9.453125 C 292.636719 9.183594 292.5 8.925781 292.335938 8.679688 C 292.175781 8.4375 291.988281 8.210938 291.78125 8.003906 C 291.574219 7.796875 291.351562 7.613281 291.105469 7.449219 C 290.863281 7.289062 290.605469 7.148438 290.335938 7.039062 C 290.0625 6.925781 289.785156 6.839844 289.496094 6.78125 C 289.210938 6.726562 288.921875 6.695312 288.628906 6.695312 Z M 288.628906 13.394531 C 288.332031 13.394531 288.046875 13.335938 287.773438 13.222656 C 287.5 13.109375 287.257812 12.949219 287.046875 12.738281 C 286.839844 12.53125 286.679688 12.289062 286.566406 12.015625 C 286.453125 11.742188 286.394531 11.457031 286.394531 11.160156 C 286.394531 10.863281 286.453125 10.578125 286.566406 10.304688 C 286.679688 10.03125 286.839844 9.792969 287.046875 9.582031 C 287.257812 9.371094 287.5 9.210938 287.773438 9.097656 C 288.046875 8.984375 288.332031 8.929688 288.628906 8.929688 C 288.921875 8.929688 289.207031 8.984375 289.480469 9.097656 C 289.753906 9.210938 289.996094 9.371094 290.207031 9.582031 C 290.414062 9.792969 290.574219 10.03125 290.6875 10.304688 C 290.800781 10.578125 290.859375 10.863281 290.859375 11.160156 C 290.859375 11.457031 290.800781 11.742188 290.6875 12.015625 C 290.574219 12.289062 290.414062 12.527344 290.203125 12.738281 C 289.996094 12.949219 289.753906 13.109375 289.480469 13.222656 C 289.207031 13.335938 288.921875 13.390625 288.628906 13.394531 Z M 58.714844 136.160156 C 58.714844 135.867188 58.6875 135.578125 58.628906 135.289062 C 58.574219 135.003906 58.488281 134.722656 58.375 134.453125 C 58.265625 134.179688 58.128906 133.925781 57.964844 133.679688 C 57.800781 133.4375 57.617188 133.210938 57.410156 133.003906 C 57.203125 132.796875 56.976562 132.613281 56.734375 132.449219 C 56.488281 132.285156 56.230469 132.148438 55.960938 132.035156 C 55.691406 131.925781 55.410156 131.839844 55.125 131.78125 C 54.835938 131.726562 54.546875 131.695312 54.253906 131.695312 C 53.960938 131.695312 53.667969 131.726562 53.382812 131.78125 C 53.09375 131.839844 52.816406 131.925781 52.542969 132.035156 C 52.273438 132.148438 52.015625 132.285156 51.773438 132.449219 C 51.527344 132.613281 51.304688 132.796875 51.09375 133.003906 C 50.886719 133.210938 50.703125 133.4375 50.539062 133.679688 C 50.378906 133.925781 50.238281 134.179688 50.128906 134.453125 C 50.015625 134.722656 49.929688 135.003906 49.875 135.289062 C 49.816406 135.578125 49.789062 135.867188 49.789062 136.160156 C 49.789062 136.453125 49.816406 136.746094 49.875 137.03125 C 49.929688 137.320312 50.015625 137.597656 50.128906 137.867188 C 50.238281 138.140625 50.378906 138.398438 50.539062 138.640625 C 50.703125 138.882812 50.886719 139.109375 51.09375 139.316406 C 51.304688 139.523438 51.527344 139.710938 51.773438 139.871094 C 52.015625 140.035156 52.273438 140.171875 52.542969 140.285156 C 52.816406 140.398438 53.09375 140.480469 53.382812 140.539062 C 53.667969 140.597656 53.960938 140.625 54.253906 140.625 C 54.546875 140.625 54.835938 140.597656 55.121094 140.539062 C 55.410156 140.480469 55.6875 140.394531 55.960938 140.285156 C 56.230469 140.171875 56.488281 140.035156 56.730469 139.871094 C 56.976562 139.707031 57.199219 139.523438 57.40625 139.316406 C 57.613281 139.109375 57.800781 138.882812 57.960938 138.640625 C 58.125 138.394531 58.261719 138.140625 58.375 137.867188 C 58.488281 137.597656 58.574219 137.320312 58.628906 137.03125 C 58.6875 136.742188 58.714844 136.453125 58.714844 136.160156 Z M 52.019531 136.160156 C 52.019531 135.863281 52.078125 135.578125 52.191406 135.304688 C 52.304688 135.03125 52.464844 134.792969 52.675781 134.582031 C 52.882812 134.371094 53.125 134.210938 53.398438 134.097656 C 53.671875 133.984375 53.957031 133.929688 54.253906 133.929688 C 54.546875 133.929688 54.832031 133.984375 55.105469 134.097656 C 55.378906 134.210938 55.621094 134.371094 55.832031 134.582031 C 56.039062 134.792969 56.199219 135.03125 56.3125 135.304688 C 56.425781 135.578125 56.484375 135.863281 56.484375 136.160156 C 56.484375 136.457031 56.425781 136.742188 56.3125 137.015625 C 56.199219 137.289062 56.039062 137.53125 55.832031 137.738281 C 55.621094 137.949219 55.378906 138.109375 55.105469 138.222656 C 54.832031 138.335938 54.546875 138.394531 54.253906 138.394531 C 53.957031 138.390625 53.671875 138.335938 53.398438 138.222656 C 53.125 138.109375 52.882812 137.949219 52.675781 137.738281 C 52.464844 137.527344 52.304688 137.289062 52.191406 137.015625 C 52.078125 136.742188 52.019531 136.457031 52.019531 136.160156 Z M 52.019531 136.160156 " fill-opacity="1" fill-rule="nonzero"/><path fill="#004aad" d="M 15.375 87.078125 L 18.695312 82.714844 L 16.597656 81.527344 L 14.464844 86.414062 L 14.398438 86.414062 L 12.230469 81.558594 L 10.101562 82.785156 L 13.382812 87.042969 L 13.382812 87.113281 L 8.246094 86.449219 L 8.246094 88.824219 L 13.417969 88.164062 L 13.417969 88.230469 L 10.101562 92.492188 L 12.089844 93.75 L 14.363281 88.824219 L 14.429688 88.824219 L 16.527344 93.714844 L 18.726562 92.457031 L 15.375 88.265625 L 15.375 88.195312 L 20.648438 88.824219 L 20.648438 86.449219 L 15.375 87.148438 Z M 116.253906 76.042969 L 114.339844 78.496094 L 115.488281 79.21875 L 116.796875 76.382812 L 116.835938 76.382812 L 118.042969 79.199219 L 119.308594 78.476562 L 117.378906 76.058594 L 117.378906 76.019531 L 120.414062 76.382812 L 120.414062 75.015625 L 117.378906 75.417969 L 117.378906 75.378906 L 119.289062 72.863281 L 118.085938 72.179688 L 116.855469 74.996094 L 116.816406 74.996094 L 115.570312 72.199219 L 114.339844 72.902344 L 116.230469 75.355469 L 116.230469 75.398438 L 113.273438 75.015625 L 113.273438 76.382812 L 116.253906 76.003906 Z M 364.519531 39.539062 L 364.519531 37.210938 L 359.347656 37.894531 L 359.347656 37.824219 L 362.601562 33.542969 L 360.546875 32.378906 L 358.457031 37.175781 L 358.386719 37.175781 L 356.265625 32.414062 L 354.175781 33.613281 L 357.394531 37.792969 L 357.394531 37.863281 L 352.355469 37.210938 L 352.355469 39.539062 L 357.429688 38.886719 L 357.429688 38.957031 L 354.175781 43.136719 L 356.128906 44.371094 L 358.355469 39.539062 L 358.421875 39.539062 L 360.476562 44.335938 L 362.636719 43.101562 L 359.347656 38.992188 L 359.347656 38.921875 Z M 160.152344 16.933594 L 162.960938 13.238281 L 161.183594 12.234375 L 159.382812 16.371094 L 159.324219 16.371094 L 157.492188 12.261719 L 155.6875 13.300781 L 158.464844 16.902344 L 158.464844 16.960938 L 154.121094 16.402344 L 154.121094 18.410156 L 158.496094 17.847656 L 158.496094 17.910156 L 155.6875 21.511719 L 157.371094 22.578125 L 159.292969 18.410156 L 159.351562 18.410156 L 161.128906 22.546875 L 162.988281 21.484375 L 160.152344 17.9375 L 160.152344 17.878906 L 164.613281 18.410156 L 164.613281 16.402344 L 160.152344 16.992188 Z M 160.152344 16.933594 " fill-opacity="1" fill-rule="nonzero"/></svg>