<?xml version="1.0" encoding="UTF-8" standalone="no"?>
<!-- Created with Inkscape (http://www.inkscape.org/) -->

<svg
   version="1.1"
   id="svg1012"
   xml:space="preserve"
   width="420mm"
   height="117mm"
   viewBox="0 0 1587.4017 442.20526"
   sodipodi:docname="bundlebee_no-fir.svg"
   inkscape:version="1.1.2 (0a00cf5339, 2022-02-04)"
   xmlns:inkscape="http://www.inkscape.org/namespaces/inkscape"
   xmlns:sodipodi="http://sodipodi.sourceforge.net/DTD/sodipodi-0.dtd"
   xmlns="http://www.w3.org/2000/svg"
   xmlns:svg="http://www.w3.org/2000/svg"><defs
     id="defs1016"><rect
       x="777.99866"
       y="1092.8792"
       width="991.30701"
       height="321.5722"
       id="rect6942" /><clipPath
       clipPathUnits="userSpaceOnUse"
       id="clipPath1026"><path
         d="M 0,1600 H 1600 V 0 H 0 Z"
         id="path1024" /></clipPath></defs><sodipodi:namedview
     id="namedview1014"
     pagecolor="#ffffff"
     bordercolor="#666666"
     borderopacity="1.0"
     inkscape:pageshadow="2"
     inkscape:pageopacity="0.0"
     inkscape:pagecheckerboard="0"
     showgrid="false"
     inkscape:zoom="0.40781252"
     inkscape:cx="668.1992"
     inkscape:cy="674.32947"
     inkscape:window-width="1870"
     inkscape:window-height="1021"
     inkscape:window-x="50"
     inkscape:window-y="27"
     inkscape:window-maximized="1"
     inkscape:current-layer="g1018"
     units="mm"
     inkscape:document-units="mm" /><g
     id="g1018"
     inkscape:groupmode="layer"
     inkscape:label="Copy of Yupiik_logo_MASTER"
     transform="matrix(1.3333333,0,0,-1.3333333,0,2133.3333)"><path
       d="m 893.62126,1593.3143 h 29.35055 v -160.0986 h -29.35055 z m 246.59404,-2e-4 h 37.5597 l -66.9918,-80.0501 66.9903,-80.0485 h -37.5582 l -54.7009,65.3709 h -37.8035 v -65.3709 h -29.5722 c -2.2654,102.995 -1.5623,140.9559 0,160.0986 h 29.5722 v -65.3756 h 37.8035 z M 636.80672,1464.1219 v 129.193 h 29.57373 v -129.193 c 0,-8.599 -3.03773,-15.8993 -9.11471,-21.9024 -6.08171,-6.0047 -13.34429,-9.0032 -21.79238,-9.0032 h -98.27954 c -8.60068,0 -15.9009,2.9985 -21.90405,9.0032 -6.00313,6.0031 -9.00627,13.3034 -9.00627,21.9024 v 129.193 h 29.35053 v -129.193 c 0,-1.0377 0.51734,-1.555 1.55979,-1.555 h 98.27954 c 0.88831,0 1.33336,0.5173 1.33336,1.555 m 319.07222,129.1924 h 29.35054 v -160.0986 h -29.35054 z m -121.17695,-74.2695 v 43.1398 c 0,1.0346 -0.52206,1.5551 -1.55507,1.5551 h -98.05937 c -1.04091,0 -1.55825,-0.5205 -1.55825,-1.5551 v -43.1398 c 0,-1.0393 0.51734,-1.555 1.55825,-1.555 h 98.05937 c 1.03301,0 1.55507,0.5157 1.55507,1.555 m -130.52318,74.0454 h 128.96811 c 8.59596,0 15.93238,-3.0393 22.01408,-9.1163 6.0771,-6.0802 9.11483,-13.3396 9.11483,-21.7893 v -43.1398 c 0,-8.4496 -3.03773,-15.7137 -9.11483,-21.7908 -6.0817,-6.0817 -13.41812,-9.1179 -22.01408,-9.1179 l -98.95088,-0.2232 -0.66674,0.2232 v -54.9196 h -29.35049 z m -256.37483,0.2239 h 35.13195 l -74.04536,-100.2858 v -59.8128 h -29.35212 v 59.8128 l -74.04537,100.2858 h 34.91185 l 53.81115,-68.0438 z"
       style="fill:#1b449b;fill-opacity:1;fill-rule:nonzero;stroke:none;stroke-width:1.17924"
       id="path1578" /><text
       xml:space="preserve"
       transform="matrix(1.1792417,0,0,-1.1792417,-585.02075,2720.9031)"
       id="text6940"
       style="font-style:normal;font-weight:normal;font-size:133.333px;line-height:1.25;font-family:sans-serif;white-space:pre;shape-inside:url(#rect6942);fill:#ff7837;fill-opacity:1;stroke:none"><tspan
         x="777.99805"
         y="1210.8474"
         id="tspan1114"><tspan
           style="font-family:Purisa;-inkscape-font-specification:Purisa"
           id="tspan1112">BundleBee</tspan></tspan></text><g
       id="g29861"
       transform="matrix(0.60176875,-0.38667166,0.38667166,0.60176875,-811.38241,1020.1742)"><path
         style="fill:#325763;stroke-width:0.75"
         d="m 857.79563,1370.166 h -25.04325 v -30.387 c 5.00775,-12.8332 15.86025,-34.5375 25.04325,-52.9027 z"
         id="path29418" /><path
         style="fill:#6b8f9c;stroke-width:0.75"
         d="m 807.70912,1370.166 h -25.04325 v -84.1245 c 9.1815,14.1915 18.3645,37.5653 25.04325,53.739 z"
         id="path29420" /><g
         id="g29426"
         transform="matrix(0.75000002,0,0,-0.75000002,628.22962,1374.5288)"><path
           style="fill:#325763"
           d="m 349.836,361.203 c -13.697,0 -18.149,-0.174 -33.395,-0.174 l -0.048,145.133 33.391,0.012 0.062,-144.971 c -0.117,-0.002 -0.737,0 -0.01,0 z"
           id="path29422" /><path
           style="fill:#325763"
           d="m 328.466,218.202 c -0.065,13.925 0.756,69.902 0.756,85.017 l 64.457,54.024 v 70.092 H 427.07 V 341.6 Z"
           id="path29424" /></g><g
         id="g29432"
         transform="matrix(0.75000002,0,0,-0.75000002,628.22962,1374.5288)"><path
           style="fill:#6b8f9c"
           d="m 162.144,361.203 0.063,144.98 33.391,-0.011 -0.048,-144.764 c -13.691,0 -22.381,-0.205 -33.406,-0.205 z"
           id="path29428" /><path
           style="fill:#6b8f9c"
           d="M 191.683,201.954 84.93,341.599 v 85.734 h 33.391 v -70.092 l 73.74,-60.448 c -0.001,-16.245 -0.313,-80.91 -0.378,-94.839 z"
           id="path29430" /></g><polygon
         style="fill:#325763"
         points="393.679,69.29 393.679,139.381 370.082,159.995 370.03,202.709 427.07,155.025 427.07,69.29 "
         id="polygon29434"
         transform="matrix(0.75000002,0,0,-0.75000002,628.22962,1374.5288)" /><polygon
         style="fill:#6b8f9c"
         points="84.93,69.29 84.93,155.025 142.184,202.709 141.918,159.995 118.321,139.381 118.321,69.29 "
         id="polygon29436"
         transform="matrix(0.75000002,0,0,-0.75000002,628.22962,1374.5288)" /><path
         style="fill:#f6d76f;stroke-width:0.75"
         d="m 966.68063,1191.8903 -86.71725,31.7392 25.8285,-69.6945 42.741,-35.6062 c 22.398,7e-4 18.14775,48.6232 18.14775,73.5615 z"
         id="path29438" /><g
         id="g29444"
         transform="matrix(0.75000002,0,0,-0.75000002,628.22962,1374.5288)"><path
           style="fill:#fae8ac"
           d="m 493.352,262.017 -123.27,-102.022 -27.258,28.734 27.258,38.326 50.343,41.605 c 21.971,18.31 24.954,50.955 6.645,72.938 21.971,18.298 54.628,15.327 72.938,-6.645 18.298,-21.981 15.326,-54.627 -6.656,-72.936 z"
           id="path29440" /><path
           style="fill:#fae8ac"
           d="M 171.657,182.305 54.711,266.756 c -21.971,18.31 -20.215,66.691 30.218,74.843 l 56.988,-47.475 z"
           id="path29442" /></g><path
         style="fill:#fdf3d3;stroke-width:0.75"
         d="m 696.91087,1173.0323 37.75725,31.2037 23.43825,25.911 -23.43825,24.3848 -92.45175,-76.5158 c -16.48725,-13.7325 -18.7155,-38.2162 -4.992,-54.7035 13.7325,-16.4775 38.2245,-18.7072 54.7035,-4.9837 -13.7325,16.4872 -11.49525,40.9717 4.983,54.7035 z"
         id="path29446" /><polygon
         style="fill:#05232e"
         points="370.082,227.067 202.641,195.153 202.641,329.668 370.082,294.128 "
         id="polygon29448"
         transform="matrix(0.75000002,0,0,-0.75000002,628.22962,1374.5288)" /><polygon
         style="fill:#fbb071"
         points="370.082,159.995 197.729,110.514 197.729,227.067 370.082,227.067 "
         id="polygon29450"
         transform="matrix(0.75000002,0,0,-0.75000002,628.22962,1374.5288)" /><path
         style="fill:#05232e;stroke-width:0.75"
         d="m 905.79113,1254.5325 c 0,34.0733 -19.47225,63.5175 -47.9955,77.4968 -7.749,3.798 -16.16625,6.4522 -25.04325,7.749 -4.08525,0.597 -8.26275,0.9112 -12.52275,0.9112 l -45.40351,-86.1577 h 130.96501 z"
         id="path29452" /><path
         style="fill:#fbb071;stroke-width:0.75"
         d="m 777.37612,1153.9328 c 0,0 17.56275,-71.7143 17.57025,-71.7143 l 95.66851,21.4073 c 4.4145,6.3945 8.02575,13.5855 10.626,21.5047 2.868,8.7375 4.50225,18.3585 4.55025,28.8023 z"
         id="path29454" /><path
         style="fill:#05232e;stroke-width:0.75"
         d="m 820.22963,1103.6265 c -0.005,0 -7.99651,-29.6257 -12.52201,-45.3705 v -37.863 h 25.04326 v 37.866 c 8.72025,3.9015 20.88075,10.2428 32.8095,19.4423 9.00975,6.948 17.886,15.5302 25.04625,25.926 -0.54525,-8e-4 -70.377,-8e-4 -70.377,-8e-4 z"
         id="path29456" /><path
         style="fill:#325763;stroke-width:0.75"
         d="m 820.22963,1103.757 c -4.87951,15.5865 -12.53101,29.4728 -34.63426,29.4728 -35.424,0 -35.7555,-29.6033 -35.75775,-29.6033 7.16325,-10.3957 16.0425,-18.9787 25.0545,-25.9275 11.93325,-9.201 24.09525,-15.5407 32.8155,-19.443 7.54875,-3.3772 12.52201,-4.9305 12.52201,-4.9305 v 50.4308 0 z"
         id="path29458" /><path
         style="fill:#f6d76f;stroke-width:0.75"
         d="m 820.22963,1103.6265 0.25275,50.2598 -41.40676,26.103 -44.406,-26.055 c 0.0488,-10.443 1.68225,-20.0633 4.551,-28.8 2.601,-7.9185 6.21525,-15.1163 10.62525,-21.507 h 70.38376 z"
         id="path29460" /><polygon
         style="fill:#325763"
         points="256,294.128 256,226.892 203.774,190.24 141.92,227.067 141.92,294.128 "
         id="polygon29462"
         transform="matrix(0.75000002,0,0,-0.75000002,628.22962,1374.5288)" /><polygon
         style="fill:#f6d76f"
         points="256,159.995 204.152,112.781 141.92,159.995 141.92,227.067 256,227.067 "
         id="polygon29464"
         transform="matrix(0.75000002,0,0,-0.75000002,628.22962,1374.5288)" /><path
         style="fill:#325763;stroke-width:0.75"
         d="m 820.22963,1340.6903 c -4.25625,0 -8.43826,-0.3143 -12.52051,-0.9098 -8.877,-1.2975 -17.29425,-3.9495 -25.04325,-7.7467 -28.5255,-13.9785 -47.9955,-43.4243 -47.9955,-77.5013 h 85.55926 z"
         id="path29466" /><g
         id="g29468"
         transform="matrix(0.75000002,0,0,-0.75000002,628.22962,1374.5288)" /><g
         id="g29470"
         transform="matrix(0.75000002,0,0,-0.75000002,628.22962,1374.5288)" /><g
         id="g29472"
         transform="matrix(0.75000002,0,0,-0.75000002,628.22962,1374.5288)" /><g
         id="g29474"
         transform="matrix(0.75000002,0,0,-0.75000002,628.22962,1374.5288)" /><g
         id="g29476"
         transform="matrix(0.75000002,0,0,-0.75000002,628.22962,1374.5288)" /><g
         id="g29478"
         transform="matrix(0.75000002,0,0,-0.75000002,628.22962,1374.5288)" /><g
         id="g29480"
         transform="matrix(0.75000002,0,0,-0.75000002,628.22962,1374.5288)" /><g
         id="g29482"
         transform="matrix(0.75000002,0,0,-0.75000002,628.22962,1374.5288)" /><g
         id="g29484"
         transform="matrix(0.75000002,0,0,-0.75000002,628.22962,1374.5288)" /><g
         id="g29486"
         transform="matrix(0.75000002,0,0,-0.75000002,628.22962,1374.5288)" /><g
         id="g29488"
         transform="matrix(0.75000002,0,0,-0.75000002,628.22962,1374.5288)" /><g
         id="g29490"
         transform="matrix(0.75000002,0,0,-0.75000002,628.22962,1374.5288)" /><g
         id="g29492"
         transform="matrix(0.75000002,0,0,-0.75000002,628.22962,1374.5288)" /><g
         id="g29494"
         transform="matrix(0.75000002,0,0,-0.75000002,628.22962,1374.5288)" /><g
         id="g29496"
         transform="matrix(0.75000002,0,0,-0.75000002,628.22962,1374.5288)" /></g></g></svg>
