<?xml version="1.0" encoding="UTF-8" standalone="no"?>
<!-- Created with Inkscape (http://www.inkscape.org/) -->

<svg
   version="1.1"
   id="svg1012"
   xml:space="preserve"
   width="420mm"
   height="117mm"
   viewBox="0 0 1587.4017 442.20526"
   sodipodi:docname="jaas-login-module_no-fir.svg"
   inkscape:version="1.1.2 (0a00cf5339, 2022-02-04)"
   xmlns:inkscape="http://www.inkscape.org/namespaces/inkscape"
   xmlns:sodipodi="http://sodipodi.sourceforge.net/DTD/sodipodi-0.dtd"
   xmlns="http://www.w3.org/2000/svg"
   xmlns:svg="http://www.w3.org/2000/svg"><defs
     id="defs1016"><rect
       x="777.99866"
       y="1092.8792"
       width="991.30701"
       height="321.5722"
       id="rect6942" /><clipPath
       clipPathUnits="userSpaceOnUse"
       id="clipPath1026"><path
         d="M 0,1600 H 1600 V 0 H 0 Z"
         id="path1024" /></clipPath></defs><sodipodi:namedview
     id="namedview1014"
     pagecolor="#ffffff"
     bordercolor="#666666"
     borderopacity="1.0"
     inkscape:pageshadow="2"
     inkscape:pageopacity="0.0"
     inkscape:pagecheckerboard="0"
     showgrid="false"
     inkscape:zoom="0.40781252"
     inkscape:cx="668.1992"
     inkscape:cy="674.32947"
     inkscape:window-width="1870"
     inkscape:window-height="1021"
     inkscape:window-x="50"
     inkscape:window-y="27"
     inkscape:window-maximized="1"
     inkscape:current-layer="g1018"
     units="mm"
     inkscape:document-units="mm" /><g
     id="g1018"
     inkscape:groupmode="layer"
     inkscape:label="Copy of Yupiik_logo_MASTER"
     transform="matrix(1.3333333,0,0,-1.3333333,0,2133.3333)"><path
       d="m 893.62126,1593.3143 h 29.35055 v -160.0986 h -29.35055 z m 246.59404,-2e-4 h 37.5597 l -66.9918,-80.0501 66.9903,-80.0485 h -37.5582 l -54.7009,65.3709 h -37.8035 v -65.3709 h -29.5722 c -2.2654,102.995 -1.5623,140.9559 0,160.0986 h 29.5722 v -65.3756 h 37.8035 z M 636.80672,1464.1219 v 129.193 h 29.57373 v -129.193 c 0,-8.599 -3.03773,-15.8993 -9.11471,-21.9024 -6.08171,-6.0047 -13.34429,-9.0032 -21.79238,-9.0032 h -98.27954 c -8.60068,0 -15.9009,2.9985 -21.90405,9.0032 -6.00313,6.0031 -9.00627,13.3034 -9.00627,21.9024 v 129.193 h 29.35053 v -129.193 c 0,-1.0377 0.51734,-1.555 1.55979,-1.555 h 98.27954 c 0.88831,0 1.33336,0.5173 1.33336,1.555 m 319.07222,129.1924 h 29.35054 v -160.0986 h -29.35054 z m -121.17695,-74.2695 v 43.1398 c 0,1.0346 -0.52206,1.5551 -1.55507,1.5551 h -98.05937 c -1.04091,0 -1.55825,-0.5205 -1.55825,-1.5551 v -43.1398 c 0,-1.0393 0.51734,-1.555 1.55825,-1.555 h 98.05937 c 1.03301,0 1.55507,0.5157 1.55507,1.555 m -130.52318,74.0454 h 128.96811 c 8.59596,0 15.93238,-3.0393 22.01408,-9.1163 6.0771,-6.0802 9.11483,-13.3396 9.11483,-21.7893 v -43.1398 c 0,-8.4496 -3.03773,-15.7137 -9.11483,-21.7908 -6.0817,-6.0817 -13.41812,-9.1179 -22.01408,-9.1179 l -98.95088,-0.2232 -0.66674,0.2232 v -54.9196 h -29.35049 z m -256.37483,0.2239 h 35.13195 l -74.04536,-100.2858 v -59.8128 h -29.35212 v 59.8128 l -74.04537,100.2858 h 34.91185 l 53.81115,-68.0438 z"
       style="fill:#1b449b;fill-opacity:1;fill-rule:nonzero;stroke:none;stroke-width:1.17924"
       id="path1578" /><text
       xml:space="preserve"
       transform="matrix(1.1792417,0,0,-1.1792417,-613.18496,2695.6029)"
       id="text6940"
       style="font-style:normal;font-weight:normal;font-size:76.3203px;line-height:1.25;font-family:sans-serif;white-space:pre;shape-inside:url(#rect6942);fill:#ff7837;fill-opacity:1;stroke:none"><tspan
         x="777.99805"
         y="1160.4045"
         id="tspan20774"><tspan
           style="font-family:Purisa;-inkscape-font-specification:Purisa;fill:#4d4d4d"
           id="tspan20772">JAASLoginModules</tspan></tspan></text><g
       id="g11125"
       transform="matrix(0.69279265,0,0,-0.69279265,16.698306,1579.2859)"><path
         style="fill:#56ace0"
         d="m 353.834,84.962 c -0.065,-6.012 -4.784,-11.184 -11.507,-11.184 0.388,0 0.776,0 0,0 -69.495,1.487 -116.752,-30.707 -138.861,-49.002 -4.202,-3.491 -10.343,-3.491 -14.545,0 -22.626,18.747 -71.37,50.618 -138.473,49.002 v 0 c -7.176,0.517 -11.313,4.202 -11.83,11.184 0.065,72.275 15.321,244.622 154.699,284.897 1.875,0.517 3.943,0.517 5.818,0 C 338.578,329.584 353.77,157.172 353.834,84.962 Z"
         id="path10988" /><path
         style="fill:#194f82"
         d="M 341.422,51.41 C 281.43,52.897 238.052,24.388 217.689,7.515 205.535,-2.505 186.723,-2.505 174.634,7.515 154.4,24.388 111.022,52.962 51.03,51.41 h -0.84 c -19.717,0.323 -33.293,15.127 -33.875,33.552 0,77.382 16.873,261.883 170.796,306.295 6.723,1.681 12.8,1.681 18.166,0 153.988,-44.412 170.861,-228.978 170.925,-306.295 0,-17.972 -14.287,-33.875 -34.78,-33.552 z M 193.382,369.859 C 53.875,329.584 38.683,157.172 38.618,84.962 39.135,77.916 43.273,74.36 50.448,73.778 v 0 c 67.103,1.552 115.846,-30.19 138.473,-49.002 4.202,-3.491 10.343,-3.491 14.545,0 22.174,18.295 69.495,50.489 138.861,49.002 0.776,0 0.388,0 0,0 6.723,0 11.442,5.172 11.507,11.184 -0.065,72.275 -15.321,244.622 -154.699,284.897 -1.874,0.517 -4.008,0.517 -5.753,0 z"
         id="path10990" /><path
         style="fill:#ffc10d"
         d="M 185.042,186.327 V 80.372 c -29.737,18.683 -61.737,30.707 -95.224,35.556 -5.883,0.84 -10.02,6.206 -9.503,12.154 1.939,20.493 5.107,40.016 9.568,58.182 h 95.095 v 0.065 h 0.064 z"
         id="path10992" /><g
         id="g10998"><path
           style="fill:#ffffff"
           d="M 185.042,319.952 V 208.566 H 96.154 c 17.842,55.725 47.709,93.026 88.888,111.386 z"
           id="path10994" /><path
           style="fill:#ffffff"
           d="m 302.958,115.992 c -33.616,-4.848 -65.681,-16.873 -95.612,-35.62 v 105.891 h 95.677 c 4.396,-18.23 7.564,-37.689 9.374,-58.182 0.516,-5.883 -3.557,-11.249 -9.439,-12.089 z"
           id="path10996" /></g><path
         style="fill:#ffc10d"
         d="m 207.345,208.566 v 111.451 c 41.632,-18.36 71.693,-55.79 89.471,-111.451 z"
         id="path11000" /><g
         id="g11006"><path
           style="fill:#194f82"
           d="m 342.327,73.713 v 0 c -1.163,0 -0.517,0 0,0 z"
           id="path11002" /><path
           style="fill:#194f82"
           d="M 306.125,93.883 C 273.931,89.164 243.159,77.269 214.65,58.521 c -10.99,-7.24 -25.859,-7.24 -36.848,0 -28.444,18.747 -59.087,30.707 -91.152,35.297 -17.648,2.651 -30.125,18.554 -28.444,36.331 6.012,64.129 30.384,177.131 125.931,213.527 7.628,2.844 15.774,2.715 24.242,0 96.517,-36.655 120.566,-149.592 126.255,-213.657 1.616,-17.647 -10.925,-33.55 -28.509,-36.136 z M 185.042,319.952 C 137.85,298.942 111.022,255.564 96.088,208.825 h 88.954 z m 0,-133.495 h -95.16 c -4.784,-19.846 -7.822,-39.822 -9.503,-58.44 -0.517,-5.947 3.62,-11.313 9.503,-12.154 33.487,-4.913 65.422,-17.002 95.224,-35.685 v 106.279 z m 22.303,133.559 V 208.824 h 89.535 c -14.868,46.74 -41.761,90.182 -89.535,111.192 z M 303.087,186.457 H 207.346 V 80.307 c 29.802,18.747 61.996,30.836 95.612,35.685 5.883,0.84 10.02,6.206 9.503,12.024 -1.746,18.683 -4.59,38.594 -9.374,58.441 z"
           id="path11004" /></g><g
         id="g11008" /><g
         id="g11010" /><g
         id="g11012" /><g
         id="g11014" /><g
         id="g11016" /><g
         id="g11018" /><g
         id="g11020" /><g
         id="g11022" /><g
         id="g11024" /><g
         id="g11026" /><g
         id="g11028" /><g
         id="g11030" /><g
         id="g11032" /><g
         id="g11034" /><g
         id="g11036" /></g></g></svg>
