<?xml version="1.0" encoding="UTF-8" standalone="no"?>
<!-- Created with Inkscape (http://www.inkscape.org/) -->

<svg
   version="1.1"
   id="svg1012"
   xml:space="preserve"
   width="420mm"
   height="117mm"
   viewBox="0 0 1587.4017 442.20526"
   sodipodi:docname="kubernetes-java-descriptors_no-fir.svg"
   inkscape:version="1.1.2 (0a00cf5339, 2022-02-04)"
   xmlns:inkscape="http://www.inkscape.org/namespaces/inkscape"
   xmlns:sodipodi="http://sodipodi.sourceforge.net/DTD/sodipodi-0.dtd"
   xmlns="http://www.w3.org/2000/svg"
   xmlns:svg="http://www.w3.org/2000/svg"><defs
     id="defs1016"><rect
       x="-130.92863"
       y="-21.797248"
       width="233.57223"
       height="765.11289"
       id="rect95456" /><rect
       x="777.99866"
       y="1092.8792"
       width="991.30701"
       height="321.5722"
       id="rect6942" /><clipPath
       clipPathUnits="userSpaceOnUse"
       id="clipPath1026"><path
         d="M 0,1600 H 1600 V 0 H 0 Z"
         id="path1024" /></clipPath><rect
       x="-130.92863"
       y="-21.797249"
       width="233.57224"
       height="765.11292"
       id="rect95456-4" /></defs><sodipodi:namedview
     id="namedview1014"
     pagecolor="#ffffff"
     bordercolor="#666666"
     borderopacity="1.0"
     inkscape:pageshadow="2"
     inkscape:pageopacity="0.0"
     inkscape:pagecheckerboard="0"
     showgrid="false"
     inkscape:zoom="0.40781252"
     inkscape:cx="319.99998"
     inkscape:cy="478.1609"
     inkscape:window-width="1870"
     inkscape:window-height="1021"
     inkscape:window-x="50"
     inkscape:window-y="27"
     inkscape:window-maximized="1"
     inkscape:current-layer="g1018"
     units="mm"
     inkscape:document-units="mm" /><g
     id="g1018"
     inkscape:groupmode="layer"
     inkscape:label="Copy of Yupiik_logo_MASTER"
     transform="matrix(1.3333333,0,0,-1.3333333,0,2133.3333)"><path
       d="m 893.62126,1593.3143 h 29.35055 v -160.0986 h -29.35055 z m 246.59404,-2e-4 h 37.5597 l -66.9918,-80.0501 66.9903,-80.0485 h -37.5582 l -54.7009,65.3709 h -37.8035 v -65.3709 h -29.5722 c -2.2654,102.995 -1.5623,140.9559 0,160.0986 h 29.5722 v -65.3756 h 37.8035 z M 636.80672,1464.1219 v 129.193 h 29.57373 v -129.193 c 0,-8.599 -3.03773,-15.8993 -9.11471,-21.9024 -6.08171,-6.0047 -13.34429,-9.0032 -21.79238,-9.0032 h -98.27954 c -8.60068,0 -15.9009,2.9985 -21.90405,9.0032 -6.00313,6.0031 -9.00627,13.3034 -9.00627,21.9024 v 129.193 h 29.35053 v -129.193 c 0,-1.0377 0.51734,-1.555 1.55979,-1.555 h 98.27954 c 0.88831,0 1.33336,0.5173 1.33336,1.555 m 319.07222,129.1924 h 29.35054 v -160.0986 h -29.35054 z m -121.17695,-74.2695 v 43.1398 c 0,1.0346 -0.52206,1.5551 -1.55507,1.5551 h -98.05937 c -1.04091,0 -1.55825,-0.5205 -1.55825,-1.5551 v -43.1398 c 0,-1.0393 0.51734,-1.555 1.55825,-1.555 h 98.05937 c 1.03301,0 1.55507,0.5157 1.55507,1.555 m -130.52318,74.0454 h 128.96811 c 8.59596,0 15.93238,-3.0393 22.01408,-9.1163 6.0771,-6.0802 9.11483,-13.3396 9.11483,-21.7893 v -43.1398 c 0,-8.4496 -3.03773,-15.7137 -9.11483,-21.7908 -6.0817,-6.0817 -13.41812,-9.1179 -22.01408,-9.1179 l -98.95088,-0.2232 -0.66674,0.2232 v -54.9196 h -29.35049 z m -256.37483,0.2239 h 35.13195 l -74.04536,-100.2858 v -59.8128 h -29.35212 v 59.8128 l -74.04537,100.2858 h 34.91185 l 53.81115,-68.0438 z"
       style="fill:#1b449b;fill-opacity:1;fill-rule:nonzero;stroke:none;stroke-width:1.17924"
       id="path1578" /><text
       xml:space="preserve"
       transform="matrix(1.1792417,0,0,-1.1792417,-581.77415,2697.3066)"
       id="text6940"
       style="font-style:normal;font-weight:normal;font-size:84.8004px;line-height:1.25;font-family:sans-serif;white-space:pre;shape-inside:url(#rect6942);fill:#007462;fill-opacity:1;stroke:none"><tspan
         x="777.99805"
         y="1167.9074"
         id="tspan2571"><tspan
           style="font-family:Purisa;-inkscape-font-specification:Purisa;fill:#0042ff"
           id="tspan2569">K8s Descriptors</tspan></tspan></text><g
       id="g93213"
       transform="matrix(0.3473137,0,0,-0.3473137,33.120163,1561.4931)"><path
         d="M 358.986,10.06 A 46.725,46.342 0 0 0 341.08,14.591 L 96.736,131.341 a 46.725,46.342 0 0 0 -25.28,31.438 l -60.282,262.25 a 46.725,46.342 0 0 0 6.344,35.531 46.725,46.342 0 0 0 2.656,3.688 l 169.125,210.28 a 46.725,46.342 0 0 0 36.531,17.438 l 271.219,-0.062 A 46.725,46.342 0 0 0 533.58,674.498 L 702.643,464.185 a 46.725,46.342 0 0 0 9.03,-39.219 L 651.3,162.716 A 46.725,46.342 0 0 0 626.019,131.279 L 381.643,14.59 a 46.725,46.342 0 0 0 -22.657,-4.53 z"
         fill="#326ce5"
         id="path93144" /><path
         d="m 361.408,99.307 c -8.077,0.001 -14.626,7.276 -14.625,16.25 0,0.138 0.028,0.27 0.03,0.406 -0.011,1.22 -0.07,2.689 -0.03,3.75 0.192,5.176 1.32,9.138 2,13.907 1.23,10.206 2.26,18.667 1.625,26.531 -0.62,2.965 -2.803,5.677 -4.75,7.562 l -0.344,6.188 a 190.337,190.337 0 0 0 -26.438,4.062 c -37.974,8.623 -70.67,28.184 -95.562,54.594 a 245.167,245.167 0 0 1 -5.281,-3.75 c -2.612,0.353 -5.25,1.159 -8.688,-0.844 -6.545,-4.405 -12.506,-10.486 -19.719,-17.812 -3.305,-3.504 -5.698,-6.841 -9.625,-10.219 -0.891,-0.767 -2.252,-1.804 -3.25,-2.594 -3.07,-2.447 -6.69,-3.724 -10.187,-3.843 -4.496,-0.154 -8.824,1.604 -11.656,5.156 -5.036,6.315 -3.424,15.968 3.593,21.562 0.071,0.057 0.147,0.101 0.219,0.157 0.964,0.781 2.145,1.783 3.031,2.437 4.167,3.077 7.973,4.652 12.125,7.094 8.747,5.402 15.999,9.88 21.75,15.281 2.246,2.394 2.639,6.613 2.938,8.438 l 4.687,4.187 c -25.093,37.764 -36.707,84.41 -29.843,131.938 l -6.125,1.781 c -1.615,2.085 -3.896,5.365 -6.282,6.344 -7.525,2.37 -15.994,3.24 -26.218,4.312 -4.8,0.4 -8.943,0.161 -14.032,1.125 -1.12,0.212 -2.68,0.619 -3.906,0.906 l -0.125,0.032 c -0.067,0.015 -0.155,0.048 -0.219,0.062 -8.62,2.083 -14.157,10.006 -12.375,17.813 1.783,7.808 10.203,12.556 18.875,10.687 0.063,-0.014 0.154,-0.017 0.219,-0.031 0.098,-0.022 0.184,-0.07 0.281,-0.094 1.21,-0.265 2.724,-0.56 3.782,-0.843 5.003,-1.34 8.626,-3.308 13.125,-5.032 9.676,-3.47 17.691,-6.37 25.5,-7.5 3.26,-0.255 6.697,2.012 8.406,2.969 l 6.375,-1.094 c 14.67,45.483 45.414,82.245 84.344,105.313 l -2.657,6.375 c 0.958,2.475 2.014,5.824 1.3,8.27 -2.838,7.36 -7.7,15.13 -13.237,23.792 -2.681,4.002 -5.425,7.108 -7.844,11.688 -0.579,1.096 -1.316,2.78 -1.875,3.937 -3.759,8.043 -1.002,17.305 6.219,20.782 7.266,3.497 16.284,-0.192 20.187,-8.25 0.006,-0.012 0.026,-0.02 0.031,-0.032 0.004,-0.009 -0.004,-0.022 0,-0.03 0.556,-1.143 1.344,-2.645 1.813,-3.72 2.072,-4.747 2.762,-8.815 4.219,-13.406 3.87,-9.72 5.995,-19.919 11.322,-26.274 1.459,-1.74 3.837,-2.41 6.303,-3.07 l 3.312,-6 c 33.938,13.027 71.927,16.523 109.875,7.907 a 189.77,189.77 0 0 0 25.094,-7.563 c 0.93,1.651 2.661,4.826 3.125,5.625 2.506,0.815 5.24,1.236 7.469,4.531 3.985,6.81 6.71,14.865 10.031,24.594 1.457,4.591 2.178,8.66 4.25,13.406 0.472,1.082 1.256,2.605 1.812,3.75 3.895,8.085 12.943,11.787 20.22,8.282 7.219,-3.478 9.979,-12.74 6.218,-20.782 -0.559,-1.158 -1.327,-2.841 -1.906,-3.937 -2.42,-4.58 -5.163,-7.655 -7.844,-11.656 -5.537,-8.662 -10.13,-15.858 -12.969,-23.22 -1.187,-3.796 0.2,-6.157 1.125,-8.624 -0.554,-0.635 -1.739,-4.22 -2.437,-5.906 40.457,-23.889 70.298,-62.022 84.312,-106.063 1.893,0.298 5.182,0.88 6.25,1.094 2.2,-1.45 4.222,-3.344 8.188,-3.031 7.808,1.129 15.823,4.03 25.5,7.5 4.498,1.723 8.121,3.723 13.125,5.062 1.057,0.283 2.572,0.547 3.781,0.813 0.097,0.023 0.183,0.071 0.281,0.093 0.066,0.015 0.156,0.017 0.219,0.032 8.672,1.866 17.094,-2.88 18.875,-10.688 1.78,-7.807 -3.754,-15.732 -12.375,-17.812 -1.254,-0.286 -3.032,-0.77 -4.25,-1 -5.09,-0.964 -9.231,-0.727 -14.031,-1.125 -10.225,-1.072 -18.694,-1.943 -26.219,-4.313 -3.068,-1.19 -5.251,-4.841 -6.313,-6.344 l -5.906,-1.718 c 3.062,-22.155 2.237,-45.212 -3.062,-68.282 -5.349,-23.284 -14.8,-44.58 -27.407,-63.343 1.515,-1.378 4.377,-3.911 5.188,-4.657 0.237,-2.624 0.033,-5.375 2.75,-8.281 5.751,-5.4 13.003,-9.879 21.75,-15.281 4.152,-2.443 7.99,-4.017 12.156,-7.094 0.942,-0.696 2.23,-1.798 3.219,-2.594 7.015,-5.596 8.63,-15.248 3.594,-21.562 -5.037,-6.314 -14.797,-6.91 -21.813,-1.313 -0.998,0.791 -2.353,1.823 -3.25,2.594 -3.926,3.378 -6.351,6.714 -9.656,10.219 -7.213,7.326 -13.174,13.438 -19.719,17.844 -2.836,1.65 -6.99,1.08 -8.875,0.968 l -5.562,3.969 c -31.72,-33.26 -74.905,-54.525 -121.406,-58.656 -0.13,-1.949 -0.3,-5.471 -0.344,-6.532 -1.904,-1.821 -4.204,-3.376 -4.781,-7.312 -0.637,-7.864 0.426,-16.325 1.656,-26.531 0.679,-4.769 1.807,-8.73 2,-13.907 0.044,-1.176 -0.027,-2.884 -0.031,-4.156 -0.001,-8.974 -6.548,-16.25 -14.625,-16.25 z m -18.313,113.438 -4.344,76.718 -0.312,0.157 c -0.292,6.863 -5.94,12.343 -12.875,12.343 -2.841,0 -5.463,-0.912 -7.594,-2.468 l -0.125,0.062 -62.906,-44.594 c 19.333,-19.01 44.063,-33.06 72.562,-39.53 a 154.125,154.125 0 0 1 15.594,-2.688 z m 36.656,0 c 33.274,4.092 64.045,19.159 87.625,42.25 l -62.5,44.312 -0.218,-0.093 c -5.548,4.051 -13.364,3.046 -17.688,-2.375 a 12.807,12.807 0 0 1 -2.812,-7.47 l -0.063,-0.03 z m -147.625,70.875 57.438,51.375 -0.063,0.312 c 5.185,4.507 5.95,12.328 1.625,17.75 a 12.892,12.892 0 0 1 -6.687,4.406 l -0.063,0.25 -73.625,21.25 c -3.747,-34.265 4.329,-67.573 21.375,-95.343 z m 258.157,0.03 c 8.534,13.833 14.996,29.283 18.843,46.032 3.801,16.548 4.755,33.067 3.188,49.031 l -74,-21.312 -0.063,-0.313 c -6.626,-1.81 -10.699,-8.551 -9.156,-15.312 a 12.786,12.786 0 0 1 4.094,-6.844 l -0.031,-0.156 57.125,-51.125 z m -140.657,55.313 h 23.532 l 14.625,18.282 -5.25,22.812 -21.125,10.156 -21.188,-10.187 -5.25,-22.813 z m 75.438,62.563 c 1,-0.05 1.995,0.04 2.969,0.219 l 0.125,-0.157 76.156,12.875 c -11.146,31.314 -32.473,58.44 -60.969,76.594 l -29.562,-71.406 0.093,-0.125 c -2.715,-6.31 0.002,-13.71 6.25,-16.719 1.6,-0.77 3.271,-1.197 4.938,-1.281 z m -127.906,0.312 c 5.811,0.082 11.024,4.116 12.375,10.032 0.632,2.77 0.324,5.513 -0.72,7.937 l 0.22,0.281 -29.25,70.688 c -27.348,-17.549 -49.13,-43.824 -60.782,-76.063 l 75.5,-12.812 0.125,0.156 c 0.845,-0.155 1.701,-0.23 2.532,-0.219 z m 63.78,30.97 a 12.764,12.764 0 0 1 6.032,1.28 c 2.56,1.233 4.537,3.174 5.781,5.5 h 0.282 l 37.218,67.25 a 154.256,154.256 0 0 1 -14.875,4.157 c -28.464,6.463 -56.838,4.504 -82.53,-4.25 L 349.97,439.62 h 0.063 a 12.91,12.91 0 0 1 10.906,-6.813 z"
         style="line-height:normal;-inkscape-font-specification:Sans;text-indent:0;text-align:start;text-transform:none;marker:none"
         font-weight="400"
         color="#000000"
         fill="#ffffff"
         stroke="#ffffff"
         stroke-width="0.25"
         overflow="visible"
         font-family="Sans"
         id="path93146" /></g><text
       xml:space="preserve"
       transform="matrix(1.1404761,0,0,-1.1404761,129.12413,1630.2425)"
       id="text95454"
       style="font-style:normal;font-weight:normal;font-size:333.333px;line-height:1.25;font-family:sans-serif;white-space:pre;shape-inside:url(#rect95456);fill:#000000;fill-opacity:1;stroke:none"><tspan
         x="-130.92773"
         y="273.12471"
         id="tspan2575"><tspan
           style="font-family:Purisa;-inkscape-font-specification:Purisa;fill:#0064ff"
           id="tspan2573">{</tspan></tspan></text><text
       xml:space="preserve"
       transform="matrix(1.0949088,0,0,-1.0949088,365.12893,1618.5424)"
       id="text95454-8"
       style="font-style:normal;font-weight:normal;font-size:333.333px;line-height:1.25;font-family:sans-serif;white-space:pre;shape-inside:url(#rect95456-4);fill:#000000;fill-opacity:1;stroke:none"><tspan
         x="-130.92773"
         y="273.12471"
         id="tspan2579"><tspan
           style="font-family:Purisa;-inkscape-font-specification:Purisa;fill:#0064ff"
           id="tspan2577">}</tspan></tspan></text></g></svg>
