<svg xmlns="http://www.w3.org/2000/svg" xmlns:xlink="http://www.w3.org/1999/xlink" width="500" zoomAndPan="magnify" viewBox="0 0 375 374.999991" height="500" preserveAspectRatio="xMidYMid meet" version="1.0"><rect x="-37.5" width="450" fill="#ffffff" y="-37.499999" height="449.999989" fill-opacity="1"/><rect x="-37.5" width="450" fill="#ffffff" y="-37.499999" height="449.999989" fill-opacity="1"/><rect x="-37.5" width="450" fill="#ffffff" y="-37.499999" height="449.999989" fill-opacity="1"/><path fill="#2d4356" d="M 205.355469 185.269531 L 205.355469 263.394531 C 205.359375 263.976562 205.390625 264.558594 205.449219 265.140625 C 205.507812 265.722656 205.59375 266.300781 205.707031 266.875 C 205.824219 267.445312 205.96875 268.011719 206.136719 268.570312 C 206.308594 269.128906 206.503906 269.679688 206.730469 270.21875 C 206.953125 270.757812 207.203125 271.285156 207.480469 271.800781 C 207.757812 272.316406 208.058594 272.816406 208.382812 273.300781 C 208.707031 273.789062 209.054688 274.257812 209.425781 274.707031 C 209.796875 275.160156 210.1875 275.589844 210.601562 276.003906 C 211.015625 276.417969 211.449219 276.808594 211.898438 277.179688 C 212.351562 277.550781 212.820312 277.898438 213.304688 278.226562 C 213.792969 278.550781 214.292969 278.851562 214.804688 279.125 C 215.320312 279.402344 215.847656 279.652344 216.386719 279.878906 C 216.929688 280.101562 217.476562 280.300781 218.035156 280.46875 C 218.59375 280.640625 219.160156 280.78125 219.734375 280.898438 C 220.308594 281.011719 220.882812 281.101562 221.464844 281.160156 C 222.046875 281.21875 222.628906 281.25 223.214844 281.25 L 312.5 281.25 C 313.085938 281.25 313.667969 281.21875 314.25 281.160156 C 314.832031 281.101562 315.40625 281.011719 315.980469 280.898438 C 316.554688 280.78125 317.117188 280.640625 317.679688 280.46875 C 318.238281 280.300781 318.785156 280.101562 319.324219 279.878906 C 319.867188 279.652344 320.394531 279.402344 320.90625 279.125 C 321.421875 278.851562 321.921875 278.550781 322.410156 278.226562 C 322.894531 277.898438 323.363281 277.550781 323.816406 277.179688 C 324.265625 276.808594 324.699219 276.417969 325.113281 276.003906 C 325.523438 275.589844 325.917969 275.160156 326.289062 274.707031 C 326.660156 274.257812 327.007812 273.789062 327.332031 273.300781 C 327.65625 272.816406 327.957031 272.316406 328.234375 271.800781 C 328.507812 271.285156 328.757812 270.757812 328.984375 270.21875 C 329.207031 269.679688 329.40625 269.128906 329.578125 268.570312 C 329.746094 268.011719 329.890625 267.445312 330.003906 266.875 C 330.121094 266.300781 330.207031 265.722656 330.265625 265.140625 C 330.324219 264.558594 330.355469 263.976562 330.355469 263.394531 L 330.355469 185.269531 C 330.355469 184.683594 330.324219 184.101562 330.265625 183.519531 C 330.207031 182.9375 330.121094 182.359375 330.003906 181.789062 C 329.890625 181.214844 329.746094 180.648438 329.578125 180.089844 C 329.40625 179.53125 329.207031 178.980469 328.984375 178.441406 C 328.757812 177.902344 328.507812 177.375 328.234375 176.859375 C 327.957031 176.34375 327.65625 175.84375 327.332031 175.359375 C 327.007812 174.875 326.660156 174.40625 326.289062 173.953125 C 325.917969 173.5 325.523438 173.070312 325.113281 172.65625 C 324.699219 172.242188 324.265625 171.851562 323.816406 171.480469 C 323.363281 171.109375 322.894531 170.761719 322.410156 170.4375 C 321.921875 170.109375 321.421875 169.808594 320.90625 169.535156 C 320.394531 169.257812 319.867188 169.007812 319.324219 168.785156 C 318.785156 168.558594 318.238281 168.363281 317.679688 168.191406 C 317.117188 168.019531 316.554688 167.878906 315.980469 167.761719 C 315.40625 167.648438 314.832031 167.558594 314.25 167.5 C 313.667969 167.441406 313.085938 167.414062 312.5 167.410156 L 223.214844 167.410156 C 222.628906 167.414062 222.046875 167.441406 221.464844 167.5 C 220.882812 167.558594 220.308594 167.648438 219.734375 167.761719 C 219.160156 167.878906 218.59375 168.019531 218.035156 168.191406 C 217.476562 168.363281 216.929688 168.558594 216.386719 168.785156 C 215.847656 169.007812 215.320312 169.257812 214.804688 169.535156 C 214.292969 169.808594 213.792969 170.109375 213.304688 170.4375 C 212.820312 170.761719 212.351562 171.109375 211.898438 171.480469 C 211.449219 171.851562 211.015625 172.242188 210.601562 172.65625 C 210.1875 173.070312 209.796875 173.5 209.425781 173.953125 C 209.054688 174.40625 208.707031 174.875 208.382812 175.359375 C 208.058594 175.84375 207.757812 176.34375 207.480469 176.859375 C 207.203125 177.375 206.953125 177.902344 206.730469 178.441406 C 206.503906 178.980469 206.308594 179.53125 206.136719 180.089844 C 205.96875 180.648438 205.824219 181.214844 205.707031 181.789062 C 205.59375 182.359375 205.507812 182.9375 205.449219 183.519531 C 205.390625 184.101562 205.359375 184.683594 205.355469 185.269531 Z M 321.429688 263.394531 C 321.429688 263.980469 321.371094 264.558594 321.253906 265.132812 C 321.140625 265.707031 320.972656 266.265625 320.746094 266.808594 C 320.523438 267.347656 320.246094 267.863281 319.921875 268.351562 C 319.59375 268.839844 319.226562 269.289062 318.8125 269.703125 C 318.394531 270.117188 317.945312 270.488281 317.457031 270.8125 C 316.972656 271.140625 316.457031 271.414062 315.914062 271.640625 C 315.375 271.863281 314.816406 272.035156 314.242188 272.148438 C 313.667969 272.261719 313.085938 272.320312 312.5 272.320312 L 223.214844 272.320312 C 222.628906 272.320312 222.046875 272.261719 221.472656 272.148438 C 220.898438 272.035156 220.339844 271.863281 219.800781 271.640625 C 219.257812 271.414062 218.742188 271.140625 218.257812 270.8125 C 217.769531 270.488281 217.316406 270.117188 216.902344 269.703125 C 216.488281 269.289062 216.117188 268.839844 215.792969 268.351562 C 215.46875 267.863281 215.191406 267.351562 214.96875 266.808594 C 214.742188 266.265625 214.574219 265.707031 214.457031 265.132812 C 214.34375 264.558594 214.285156 263.980469 214.285156 263.394531 L 214.285156 203.125 L 321.429688 203.125 Z M 321.429688 185.269531 L 321.429688 194.195312 L 214.285156 194.195312 L 214.285156 185.269531 C 214.285156 184.683594 214.34375 184.101562 214.457031 183.527344 C 214.574219 182.953125 214.742188 182.394531 214.96875 181.851562 C 215.191406 181.3125 215.46875 180.796875 215.792969 180.308594 C 216.117188 179.820312 216.488281 179.371094 216.902344 178.957031 C 217.316406 178.542969 217.769531 178.171875 218.257812 177.847656 C 218.742188 177.519531 219.257812 177.246094 219.800781 177.019531 C 220.339844 176.796875 220.898438 176.628906 221.472656 176.511719 C 222.046875 176.398438 222.628906 176.339844 223.214844 176.339844 L 312.5 176.339844 C 313.085938 176.339844 313.667969 176.398438 314.242188 176.511719 C 314.816406 176.628906 315.375 176.796875 315.914062 177.019531 C 316.457031 177.246094 316.972656 177.519531 317.457031 177.847656 C 317.945312 178.171875 318.394531 178.542969 318.8125 178.957031 C 319.226562 179.371094 319.59375 179.820312 319.921875 180.308594 C 320.246094 180.796875 320.523438 181.3125 320.746094 181.851562 C 320.972656 182.394531 321.140625 182.953125 321.253906 183.527344 C 321.371094 184.101562 321.429688 184.683594 321.429688 185.269531 Z M 321.429688 185.269531 " fill-opacity="1" fill-rule="nonzero"/><path fill="#2d4356" d="M 293.527344 185.269531 C 293.527344 185.5625 293.5 185.851562 293.441406 186.140625 C 293.382812 186.425781 293.300781 186.707031 293.1875 186.976562 C 293.074219 187.246094 292.9375 187.503906 292.773438 187.75 C 292.613281 187.992188 292.425781 188.21875 292.21875 188.425781 C 292.011719 188.632812 291.785156 188.816406 291.542969 188.980469 C 291.300781 189.144531 291.042969 189.28125 290.769531 189.390625 C 290.5 189.503906 290.222656 189.589844 289.933594 189.644531 C 289.644531 189.703125 289.355469 189.730469 289.0625 189.730469 C 288.769531 189.730469 288.480469 189.703125 288.191406 189.644531 C 287.902344 189.589844 287.625 189.503906 287.355469 189.390625 C 287.082031 189.28125 286.824219 189.144531 286.582031 188.980469 C 286.339844 188.816406 286.113281 188.632812 285.90625 188.425781 C 285.699219 188.21875 285.511719 187.992188 285.351562 187.75 C 285.1875 187.503906 285.050781 187.246094 284.9375 186.976562 C 284.824219 186.707031 284.742188 186.425781 284.683594 186.140625 C 284.625 185.851562 284.597656 185.5625 284.597656 185.269531 C 284.597656 184.976562 284.625 184.683594 284.683594 184.398438 C 284.742188 184.109375 284.824219 183.832031 284.9375 183.558594 C 285.050781 183.289062 285.1875 183.03125 285.351562 182.789062 C 285.511719 182.542969 285.699219 182.320312 285.90625 182.109375 C 286.113281 181.902344 286.339844 181.71875 286.582031 181.554688 C 286.824219 181.394531 287.082031 181.253906 287.355469 181.144531 C 287.625 181.03125 287.902344 180.945312 288.191406 180.890625 C 288.480469 180.832031 288.769531 180.804688 289.0625 180.804688 C 289.355469 180.804688 289.644531 180.832031 289.933594 180.890625 C 290.222656 180.945312 290.5 181.03125 290.769531 181.144531 C 291.042969 181.253906 291.300781 181.394531 291.542969 181.554688 C 291.785156 181.71875 292.011719 181.902344 292.21875 182.109375 C 292.425781 182.320312 292.613281 182.542969 292.773438 182.789062 C 292.9375 183.03125 293.074219 183.289062 293.1875 183.558594 C 293.300781 183.832031 293.382812 184.109375 293.441406 184.398438 C 293.5 184.683594 293.527344 184.976562 293.527344 185.269531 Z M 293.527344 185.269531 " fill-opacity="1" fill-rule="nonzero"/><path fill="#2d4356" d="M 311.382812 185.269531 C 311.382812 185.5625 311.355469 185.851562 311.296875 186.140625 C 311.242188 186.425781 311.15625 186.707031 311.042969 186.976562 C 310.933594 187.246094 310.792969 187.503906 310.632812 187.75 C 310.46875 187.992188 310.285156 188.21875 310.078125 188.425781 C 309.867188 188.632812 309.644531 188.816406 309.398438 188.980469 C 309.15625 189.144531 308.898438 189.28125 308.628906 189.390625 C 308.355469 189.503906 308.078125 189.589844 307.789062 189.644531 C 307.503906 189.703125 307.210938 189.730469 306.917969 189.730469 C 306.625 189.730469 306.335938 189.703125 306.046875 189.644531 C 305.761719 189.589844 305.480469 189.503906 305.210938 189.390625 C 304.941406 189.28125 304.683594 189.144531 304.4375 188.980469 C 304.195312 188.816406 303.96875 188.632812 303.761719 188.425781 C 303.554688 188.21875 303.371094 187.992188 303.207031 187.75 C 303.042969 187.503906 302.90625 187.246094 302.796875 186.976562 C 302.683594 186.707031 302.597656 186.425781 302.542969 186.140625 C 302.484375 185.851562 302.457031 185.5625 302.457031 185.269531 C 302.457031 184.976562 302.484375 184.683594 302.542969 184.398438 C 302.597656 184.109375 302.683594 183.832031 302.796875 183.558594 C 302.90625 183.289062 303.042969 183.03125 303.207031 182.789062 C 303.371094 182.542969 303.554688 182.320312 303.761719 182.109375 C 303.96875 181.902344 304.195312 181.71875 304.4375 181.554688 C 304.683594 181.394531 304.941406 181.253906 305.210938 181.144531 C 305.480469 181.03125 305.761719 180.945312 306.046875 180.890625 C 306.335938 180.832031 306.625 180.804688 306.917969 180.804688 C 307.210938 180.804688 307.503906 180.832031 307.789062 180.890625 C 308.078125 180.945312 308.355469 181.03125 308.628906 181.144531 C 308.898438 181.253906 309.15625 181.394531 309.398438 181.554688 C 309.644531 181.71875 309.867188 181.902344 310.078125 182.109375 C 310.285156 182.320312 310.46875 182.542969 310.632812 182.789062 C 310.792969 183.03125 310.933594 183.289062 311.042969 183.558594 C 311.15625 183.832031 311.242188 184.109375 311.296875 184.398438 C 311.355469 184.683594 311.382812 184.976562 311.382812 185.269531 Z M 311.382812 185.269531 " fill-opacity="1" fill-rule="nonzero"/><path fill="#2d4356" d="M 62.5 281.25 L 151.785156 281.25 C 152.371094 281.25 152.953125 281.21875 153.535156 281.160156 C 154.117188 281.101562 154.691406 281.011719 155.265625 280.898438 C 155.839844 280.78125 156.40625 280.640625 156.964844 280.46875 C 157.523438 280.300781 158.070312 280.101562 158.613281 279.878906 C 159.152344 279.652344 159.679688 279.402344 160.195312 279.125 C 160.707031 278.851562 161.207031 278.550781 161.695312 278.226562 C 162.179688 277.898438 162.648438 277.550781 163.101562 277.179688 C 163.550781 276.808594 163.984375 276.417969 164.398438 276.003906 C 164.8125 275.589844 165.203125 275.160156 165.574219 274.707031 C 165.945312 274.257812 166.292969 273.789062 166.617188 273.300781 C 166.941406 272.816406 167.242188 272.316406 167.519531 271.800781 C 167.796875 271.285156 168.046875 270.757812 168.269531 270.21875 C 168.496094 269.679688 168.691406 269.128906 168.863281 268.570312 C 169.03125 268.011719 169.175781 267.445312 169.292969 266.875 C 169.40625 266.300781 169.492188 265.722656 169.550781 265.140625 C 169.609375 264.558594 169.640625 263.976562 169.644531 263.394531 L 169.644531 185.269531 C 169.640625 184.683594 169.609375 184.101562 169.550781 183.519531 C 169.492188 182.9375 169.40625 182.359375 169.292969 181.789062 C 169.175781 181.214844 169.03125 180.648438 168.863281 180.089844 C 168.691406 179.53125 168.496094 178.980469 168.269531 178.441406 C 168.046875 177.902344 167.796875 177.375 167.519531 176.859375 C 167.242188 176.34375 166.941406 175.84375 166.617188 175.359375 C 166.292969 174.875 165.945312 174.40625 165.574219 173.953125 C 165.203125 173.5 164.8125 173.070312 164.398438 172.65625 C 163.984375 172.242188 163.550781 171.851562 163.101562 171.480469 C 162.648438 171.109375 162.179688 170.761719 161.695312 170.4375 C 161.207031 170.109375 160.707031 169.808594 160.195312 169.535156 C 159.679688 169.257812 159.152344 169.007812 158.613281 168.785156 C 158.070312 168.558594 157.523438 168.363281 156.964844 168.191406 C 156.40625 168.019531 155.839844 167.878906 155.265625 167.761719 C 154.691406 167.648438 154.117188 167.558594 153.535156 167.5 C 152.953125 167.441406 152.371094 167.414062 151.785156 167.410156 L 62.5 167.410156 C 61.914062 167.414062 61.332031 167.441406 60.75 167.5 C 60.167969 167.558594 59.59375 167.648438 59.019531 167.761719 C 58.445312 167.878906 57.882812 168.019531 57.320312 168.191406 C 56.761719 168.363281 56.214844 168.558594 55.675781 168.785156 C 55.132812 169.007812 54.605469 169.257812 54.09375 169.535156 C 53.578125 169.808594 53.078125 170.109375 52.589844 170.4375 C 52.105469 170.761719 51.636719 171.109375 51.183594 171.480469 C 50.734375 171.851562 50.300781 172.242188 49.886719 172.65625 C 49.476562 173.070312 49.082031 173.5 48.710938 173.953125 C 48.339844 174.40625 47.992188 174.875 47.667969 175.359375 C 47.34375 175.84375 47.042969 176.34375 46.765625 176.859375 C 46.492188 177.375 46.238281 177.902344 46.015625 178.441406 C 45.792969 178.980469 45.59375 179.53125 45.421875 180.089844 C 45.253906 180.648438 45.109375 181.214844 44.996094 181.789062 C 44.878906 182.359375 44.792969 182.9375 44.734375 183.519531 C 44.675781 184.101562 44.644531 184.683594 44.644531 185.269531 L 44.644531 263.394531 C 44.644531 263.976562 44.675781 264.558594 44.734375 265.140625 C 44.792969 265.722656 44.878906 266.300781 44.996094 266.875 C 45.109375 267.445312 45.253906 268.011719 45.421875 268.570312 C 45.59375 269.128906 45.792969 269.679688 46.015625 270.21875 C 46.238281 270.757812 46.492188 271.285156 46.765625 271.800781 C 47.042969 272.316406 47.34375 272.816406 47.667969 273.300781 C 47.992188 273.789062 48.339844 274.257812 48.710938 274.707031 C 49.082031 275.160156 49.476562 275.589844 49.886719 276.003906 C 50.300781 276.417969 50.734375 276.808594 51.183594 277.179688 C 51.636719 277.550781 52.105469 277.898438 52.589844 278.226562 C 53.078125 278.550781 53.578125 278.851562 54.09375 279.125 C 54.605469 279.402344 55.132812 279.652344 55.675781 279.878906 C 56.214844 280.101562 56.761719 280.300781 57.320312 280.46875 C 57.882812 280.640625 58.445312 280.78125 59.019531 280.898438 C 59.59375 281.011719 60.167969 281.101562 60.75 281.160156 C 61.332031 281.21875 61.914062 281.25 62.5 281.25 Z M 53.570312 185.269531 C 53.570312 184.683594 53.628906 184.101562 53.746094 183.527344 C 53.859375 182.953125 54.027344 182.394531 54.253906 181.851562 C 54.476562 181.3125 54.753906 180.796875 55.078125 180.308594 C 55.40625 179.820312 55.773438 179.371094 56.1875 178.957031 C 56.605469 178.542969 57.054688 178.171875 57.542969 177.847656 C 58.027344 177.519531 58.542969 177.246094 59.085938 177.019531 C 59.625 176.796875 60.183594 176.628906 60.757812 176.511719 C 61.332031 176.398438 61.914062 176.339844 62.5 176.339844 L 151.785156 176.339844 C 152.371094 176.339844 152.953125 176.398438 153.527344 176.511719 C 154.101562 176.628906 154.660156 176.796875 155.199219 177.019531 C 155.742188 177.246094 156.257812 177.519531 156.742188 177.847656 C 157.230469 178.171875 157.683594 178.542969 158.097656 178.957031 C 158.511719 179.371094 158.882812 179.820312 159.207031 180.308594 C 159.53125 180.796875 159.808594 181.3125 160.03125 181.851562 C 160.257812 182.394531 160.425781 182.953125 160.542969 183.527344 C 160.65625 184.101562 160.714844 184.683594 160.714844 185.269531 L 160.714844 194.195312 L 53.570312 194.195312 Z M 53.570312 203.125 L 160.714844 203.125 L 160.714844 263.394531 C 160.714844 263.980469 160.65625 264.558594 160.542969 265.132812 C 160.425781 265.707031 160.257812 266.265625 160.03125 266.808594 C 159.808594 267.347656 159.53125 267.863281 159.207031 268.351562 C 158.882812 268.839844 158.511719 269.289062 158.097656 269.703125 C 157.683594 270.117188 157.230469 270.488281 156.742188 270.8125 C 156.257812 271.140625 155.742188 271.414062 155.199219 271.640625 C 154.660156 271.863281 154.101562 272.035156 153.527344 272.148438 C 152.953125 272.261719 152.371094 272.320312 151.785156 272.320312 L 62.5 272.320312 C 61.914062 272.320312 61.332031 272.261719 60.757812 272.148438 C 60.183594 272.035156 59.625 271.863281 59.085938 271.640625 C 58.542969 271.414062 58.027344 271.140625 57.542969 270.8125 C 57.054688 270.488281 56.605469 270.117188 56.1875 269.703125 C 55.773438 269.289062 55.40625 268.839844 55.078125 268.351562 C 54.753906 267.863281 54.476562 267.351562 54.253906 266.808594 C 54.027344 266.265625 53.859375 265.707031 53.746094 265.132812 C 53.628906 264.558594 53.570312 263.980469 53.570312 263.394531 Z M 53.570312 203.125 " fill-opacity="1" fill-rule="nonzero"/><path fill="#2d4356" d="M 132.8125 185.269531 C 132.8125 185.5625 132.785156 185.851562 132.726562 186.140625 C 132.667969 186.425781 132.585938 186.707031 132.472656 186.976562 C 132.359375 187.246094 132.222656 187.503906 132.058594 187.75 C 131.898438 187.992188 131.710938 188.21875 131.503906 188.425781 C 131.296875 188.632812 131.070312 188.816406 130.828125 188.980469 C 130.585938 189.144531 130.328125 189.28125 130.054688 189.390625 C 129.785156 189.503906 129.507812 189.589844 129.21875 189.644531 C 128.933594 189.703125 128.640625 189.730469 128.347656 189.730469 C 128.054688 189.730469 127.765625 189.703125 127.476562 189.644531 C 127.191406 189.589844 126.910156 189.503906 126.640625 189.390625 C 126.367188 189.28125 126.113281 189.144531 125.867188 188.980469 C 125.625 188.816406 125.398438 188.632812 125.191406 188.425781 C 124.984375 188.21875 124.800781 187.992188 124.636719 187.75 C 124.472656 187.503906 124.335938 187.246094 124.222656 186.976562 C 124.113281 186.707031 124.027344 186.425781 123.96875 186.140625 C 123.914062 185.851562 123.882812 185.5625 123.882812 185.269531 C 123.882812 184.976562 123.914062 184.683594 123.96875 184.398438 C 124.027344 184.109375 124.113281 183.832031 124.222656 183.558594 C 124.335938 183.289062 124.472656 183.03125 124.636719 182.789062 C 124.800781 182.542969 124.984375 182.320312 125.191406 182.109375 C 125.398438 181.902344 125.625 181.71875 125.867188 181.554688 C 126.113281 181.394531 126.367188 181.253906 126.640625 181.144531 C 126.910156 181.03125 127.191406 180.945312 127.476562 180.890625 C 127.765625 180.832031 128.054688 180.804688 128.347656 180.804688 C 128.640625 180.804688 128.933594 180.832031 129.21875 180.890625 C 129.507812 180.945312 129.785156 181.03125 130.054688 181.144531 C 130.328125 181.253906 130.585938 181.394531 130.828125 181.554688 C 131.070312 181.71875 131.296875 181.902344 131.503906 182.109375 C 131.710938 182.320312 131.898438 182.542969 132.058594 182.789062 C 132.222656 183.03125 132.359375 183.289062 132.472656 183.558594 C 132.585938 183.832031 132.667969 184.109375 132.726562 184.398438 C 132.785156 184.683594 132.8125 184.976562 132.8125 185.269531 Z M 132.8125 185.269531 " fill-opacity="1" fill-rule="nonzero"/><path fill="#2d4356" d="M 150.667969 185.269531 C 150.667969 185.5625 150.640625 185.851562 150.582031 186.140625 C 150.527344 186.425781 150.441406 186.707031 150.328125 186.976562 C 150.21875 187.246094 150.082031 187.503906 149.917969 187.75 C 149.753906 187.992188 149.570312 188.21875 149.363281 188.425781 C 149.15625 188.632812 148.929688 188.816406 148.6875 188.980469 C 148.441406 189.144531 148.183594 189.28125 147.914062 189.390625 C 147.644531 189.503906 147.363281 189.589844 147.078125 189.644531 C 146.789062 189.703125 146.5 189.730469 146.207031 189.730469 C 145.914062 189.730469 145.621094 189.703125 145.335938 189.644531 C 145.046875 189.589844 144.769531 189.503906 144.496094 189.390625 C 144.226562 189.28125 143.96875 189.144531 143.726562 188.980469 C 143.480469 188.816406 143.257812 188.632812 143.046875 188.425781 C 142.839844 188.21875 142.65625 187.992188 142.492188 187.75 C 142.332031 187.503906 142.191406 187.246094 142.082031 186.976562 C 141.96875 186.707031 141.882812 186.425781 141.828125 186.140625 C 141.769531 185.851562 141.742188 185.5625 141.742188 185.269531 C 141.742188 184.976562 141.769531 184.683594 141.828125 184.398438 C 141.882812 184.109375 141.96875 183.832031 142.082031 183.558594 C 142.191406 183.289062 142.332031 183.03125 142.492188 182.789062 C 142.65625 182.542969 142.839844 182.320312 143.046875 182.109375 C 143.257812 181.902344 143.480469 181.71875 143.726562 181.554688 C 143.96875 181.394531 144.226562 181.253906 144.496094 181.144531 C 144.769531 181.03125 145.046875 180.945312 145.335938 180.890625 C 145.621094 180.832031 145.914062 180.804688 146.207031 180.804688 C 146.5 180.804688 146.789062 180.832031 147.078125 180.890625 C 147.363281 180.945312 147.644531 181.03125 147.914062 181.144531 C 148.183594 181.253906 148.441406 181.394531 148.6875 181.554688 C 148.929688 181.71875 149.15625 181.902344 149.363281 182.109375 C 149.570312 182.320312 149.753906 182.542969 149.917969 182.789062 C 150.082031 183.03125 150.21875 183.289062 150.328125 183.558594 C 150.441406 183.832031 150.527344 184.109375 150.582031 184.398438 C 150.640625 184.683594 150.667969 184.976562 150.667969 185.269531 Z M 150.667969 185.269531 " fill-opacity="1" fill-rule="nonzero"/><path fill="#2d4356" d="M 142.855469 158.480469 L 232.144531 158.480469 C 232.726562 158.480469 233.308594 158.449219 233.890625 158.390625 C 234.472656 158.332031 235.050781 158.246094 235.625 158.128906 C 236.195312 158.015625 236.761719 157.871094 237.320312 157.703125 C 237.878906 157.53125 238.429688 157.332031 238.96875 157.109375 C 239.507812 156.886719 240.035156 156.632812 240.550781 156.359375 C 241.066406 156.082031 241.566406 155.78125 242.050781 155.457031 C 242.539062 155.132812 243.007812 154.785156 243.457031 154.414062 C 243.910156 154.042969 244.339844 153.648438 244.753906 153.238281 C 245.167969 152.824219 245.558594 152.390625 245.929688 151.941406 C 246.300781 151.488281 246.648438 151.019531 246.976562 150.535156 C 247.300781 150.046875 247.601562 149.546875 247.875 149.03125 C 248.152344 148.519531 248.402344 147.992188 248.628906 147.449219 C 248.851562 146.910156 249.050781 146.363281 249.21875 145.804688 C 249.390625 145.242188 249.53125 144.679688 249.648438 144.105469 C 249.761719 143.53125 249.851562 142.957031 249.910156 142.375 C 249.96875 141.792969 250 141.210938 250 140.625 L 250 62.5 C 250 61.914062 249.96875 61.332031 249.910156 60.75 C 249.851562 60.167969 249.761719 59.59375 249.648438 59.019531 C 249.53125 58.445312 249.390625 57.882812 249.21875 57.320312 C 249.050781 56.761719 248.851562 56.214844 248.628906 55.675781 C 248.402344 55.132812 248.152344 54.605469 247.875 54.09375 C 247.601562 53.578125 247.300781 53.078125 246.976562 52.589844 C 246.648438 52.105469 246.300781 51.636719 245.929688 51.183594 C 245.558594 50.734375 245.167969 50.300781 244.753906 49.886719 C 244.339844 49.476562 243.910156 49.082031 243.457031 48.710938 C 243.007812 48.339844 242.539062 47.992188 242.050781 47.667969 C 241.566406 47.34375 241.066406 47.042969 240.550781 46.765625 C 240.035156 46.492188 239.507812 46.238281 238.96875 46.015625 C 238.429688 45.792969 237.878906 45.59375 237.320312 45.421875 C 236.761719 45.253906 236.195312 45.109375 235.621094 44.996094 C 235.050781 44.878906 234.472656 44.792969 233.890625 44.734375 C 233.308594 44.675781 232.726562 44.644531 232.144531 44.644531 L 142.855469 44.644531 C 142.273438 44.644531 141.691406 44.675781 141.109375 44.734375 C 140.527344 44.792969 139.949219 44.878906 139.375 44.996094 C 138.804688 45.109375 138.238281 45.253906 137.679688 45.421875 C 137.121094 45.59375 136.570312 45.792969 136.03125 46.015625 C 135.492188 46.238281 134.964844 46.492188 134.449219 46.765625 C 133.933594 47.042969 133.433594 47.34375 132.949219 47.667969 C 132.460938 47.992188 131.992188 48.339844 131.542969 48.710938 C 131.089844 49.082031 130.660156 49.476562 130.246094 49.886719 C 129.832031 50.300781 129.441406 50.734375 129.070312 51.183594 C 128.699219 51.636719 128.351562 52.105469 128.023438 52.589844 C 127.699219 53.078125 127.398438 53.578125 127.125 54.09375 C 126.847656 54.605469 126.597656 55.132812 126.371094 55.675781 C 126.148438 56.214844 125.949219 56.761719 125.78125 57.320312 C 125.609375 57.882812 125.46875 58.445312 125.351562 59.019531 C 125.238281 59.59375 125.148438 60.167969 125.089844 60.75 C 125.03125 61.332031 125 61.914062 125 62.5 L 125 140.625 C 125 141.210938 125.03125 141.792969 125.089844 142.375 C 125.148438 142.957031 125.238281 143.53125 125.351562 144.105469 C 125.46875 144.679688 125.609375 145.242188 125.78125 145.804688 C 125.949219 146.363281 126.148438 146.910156 126.371094 147.449219 C 126.597656 147.992188 126.847656 148.519531 127.125 149.03125 C 127.398438 149.546875 127.699219 150.046875 128.023438 150.535156 C 128.351562 151.019531 128.699219 151.488281 129.070312 151.941406 C 129.441406 152.390625 129.832031 152.824219 130.246094 153.238281 C 130.660156 153.648438 131.089844 154.042969 131.542969 154.414062 C 131.992188 154.785156 132.460938 155.132812 132.949219 155.457031 C 133.433594 155.78125 133.933594 156.082031 134.449219 156.359375 C 134.964844 156.632812 135.492188 156.886719 136.03125 157.109375 C 136.570312 157.332031 137.121094 157.53125 137.679688 157.703125 C 138.238281 157.871094 138.804688 158.015625 139.375 158.128906 C 139.949219 158.246094 140.527344 158.332031 141.109375 158.390625 C 141.691406 158.449219 142.273438 158.480469 142.855469 158.480469 Z M 133.929688 62.5 C 133.929688 61.914062 133.988281 61.332031 134.101562 60.757812 C 134.214844 60.183594 134.386719 59.625 134.609375 59.085938 C 134.835938 58.542969 135.109375 58.027344 135.4375 57.542969 C 135.761719 57.054688 136.132812 56.605469 136.546875 56.1875 C 136.960938 55.773438 137.410156 55.40625 137.898438 55.078125 C 138.386719 54.753906 138.898438 54.476562 139.441406 54.253906 C 139.984375 54.027344 140.542969 53.859375 141.117188 53.746094 C 141.691406 53.628906 142.269531 53.570312 142.855469 53.570312 L 232.144531 53.570312 C 232.730469 53.570312 233.308594 53.628906 233.882812 53.746094 C 234.457031 53.859375 235.015625 54.027344 235.558594 54.253906 C 236.101562 54.476562 236.613281 54.753906 237.101562 55.078125 C 237.589844 55.40625 238.039062 55.773438 238.453125 56.1875 C 238.867188 56.605469 239.238281 57.054688 239.5625 57.542969 C 239.890625 58.027344 240.164062 58.542969 240.390625 59.085938 C 240.613281 59.625 240.785156 60.183594 240.898438 60.757812 C 241.011719 61.332031 241.070312 61.914062 241.070312 62.5 L 241.070312 71.429688 L 133.929688 71.429688 Z M 133.929688 80.355469 L 241.070312 80.355469 L 241.070312 140.625 C 241.070312 141.210938 241.011719 141.792969 240.898438 142.367188 C 240.785156 142.941406 240.613281 143.5 240.390625 144.039062 C 240.164062 144.582031 239.890625 145.097656 239.5625 145.582031 C 239.238281 146.070312 238.867188 146.519531 238.453125 146.9375 C 238.039062 147.351562 237.589844 147.71875 237.101562 148.046875 C 236.613281 148.371094 236.101562 148.648438 235.558594 148.871094 C 235.015625 149.097656 234.457031 149.265625 233.882812 149.378906 C 233.308594 149.496094 232.730469 149.554688 232.144531 149.554688 L 142.855469 149.554688 C 142.269531 149.554688 141.691406 149.496094 141.117188 149.378906 C 140.542969 149.265625 139.984375 149.097656 139.441406 148.871094 C 138.898438 148.648438 138.386719 148.371094 137.898438 148.046875 C 137.410156 147.71875 136.960938 147.351562 136.546875 146.9375 C 136.132812 146.519531 135.761719 146.070312 135.4375 145.582031 C 135.109375 145.097656 134.835938 144.582031 134.609375 144.039062 C 134.386719 143.5 134.214844 142.941406 134.101562 142.367188 C 133.988281 141.792969 133.929688 141.210938 133.929688 140.625 Z M 133.929688 80.355469 " fill-opacity="1" fill-rule="nonzero"/><path fill="#2d4356" d="M 213.167969 62.5 C 213.167969 62.792969 213.140625 63.082031 213.082031 63.371094 C 213.027344 63.660156 212.941406 63.9375 212.828125 64.207031 C 212.71875 64.480469 212.578125 64.738281 212.417969 64.980469 C 212.253906 65.222656 212.070312 65.449219 211.863281 65.65625 C 211.65625 65.863281 211.429688 66.050781 211.183594 66.210938 C 210.941406 66.375 210.683594 66.511719 210.414062 66.625 C 210.144531 66.738281 209.863281 66.820312 209.578125 66.878906 C 209.289062 66.9375 209 66.964844 208.707031 66.964844 C 208.414062 66.964844 208.121094 66.9375 207.835938 66.878906 C 207.546875 66.820312 207.269531 66.738281 206.996094 66.625 C 206.726562 66.511719 206.46875 66.375 206.226562 66.210938 C 205.980469 66.050781 205.757812 65.863281 205.546875 65.65625 C 205.339844 65.449219 205.15625 65.222656 204.992188 64.980469 C 204.832031 64.738281 204.691406 64.480469 204.582031 64.207031 C 204.46875 63.9375 204.382812 63.660156 204.328125 63.371094 C 204.269531 63.082031 204.242188 62.792969 204.242188 62.5 C 204.242188 62.207031 204.269531 61.917969 204.328125 61.628906 C 204.382812 61.339844 204.46875 61.0625 204.582031 60.792969 C 204.691406 60.519531 204.832031 60.261719 204.992188 60.019531 C 205.15625 59.777344 205.339844 59.550781 205.546875 59.34375 C 205.757812 59.136719 205.980469 58.949219 206.226562 58.789062 C 206.46875 58.625 206.726562 58.488281 206.996094 58.375 C 207.269531 58.261719 207.546875 58.179688 207.835938 58.121094 C 208.121094 58.0625 208.414062 58.035156 208.707031 58.035156 C 209 58.035156 209.289062 58.0625 209.578125 58.121094 C 209.863281 58.179688 210.144531 58.261719 210.414062 58.375 C 210.683594 58.488281 210.941406 58.625 211.183594 58.789062 C 211.429688 58.949219 211.65625 59.136719 211.863281 59.34375 C 212.070312 59.550781 212.253906 59.777344 212.417969 60.019531 C 212.578125 60.261719 212.71875 60.519531 212.828125 60.792969 C 212.941406 61.0625 213.027344 61.339844 213.082031 61.628906 C 213.140625 61.917969 213.167969 62.207031 213.167969 62.5 Z M 213.167969 62.5 " fill-opacity="1" fill-rule="nonzero"/><path fill="#2d4356" d="M 231.027344 62.5 C 231.027344 62.792969 231 63.082031 230.941406 63.371094 C 230.882812 63.660156 230.800781 63.9375 230.6875 64.207031 C 230.574219 64.480469 230.4375 64.738281 230.273438 64.980469 C 230.113281 65.222656 229.925781 65.449219 229.71875 65.65625 C 229.511719 65.863281 229.285156 66.050781 229.042969 66.210938 C 228.800781 66.375 228.542969 66.511719 228.269531 66.625 C 228 66.738281 227.722656 66.820312 227.433594 66.878906 C 227.144531 66.9375 226.855469 66.964844 226.5625 66.964844 C 226.269531 66.964844 225.980469 66.9375 225.691406 66.878906 C 225.402344 66.820312 225.125 66.738281 224.855469 66.625 C 224.582031 66.511719 224.324219 66.375 224.082031 66.210938 C 223.839844 66.050781 223.613281 65.863281 223.40625 65.65625 C 223.199219 65.449219 223.011719 65.222656 222.851562 64.980469 C 222.6875 64.738281 222.550781 64.480469 222.4375 64.207031 C 222.324219 63.9375 222.242188 63.660156 222.183594 63.371094 C 222.125 63.082031 222.097656 62.792969 222.097656 62.5 C 222.097656 62.207031 222.125 61.917969 222.183594 61.628906 C 222.242188 61.339844 222.324219 61.0625 222.4375 60.792969 C 222.550781 60.519531 222.6875 60.261719 222.851562 60.019531 C 223.011719 59.777344 223.199219 59.550781 223.40625 59.34375 C 223.613281 59.136719 223.839844 58.949219 224.082031 58.789062 C 224.324219 58.625 224.582031 58.488281 224.855469 58.375 C 225.125 58.261719 225.402344 58.179688 225.691406 58.121094 C 225.980469 58.0625 226.269531 58.035156 226.5625 58.035156 C 226.855469 58.035156 227.144531 58.0625 227.433594 58.121094 C 227.722656 58.179688 228 58.261719 228.269531 58.375 C 228.542969 58.488281 228.800781 58.625 229.042969 58.789062 C 229.285156 58.949219 229.511719 59.136719 229.71875 59.34375 C 229.925781 59.550781 230.113281 59.777344 230.273438 60.019531 C 230.4375 60.261719 230.574219 60.519531 230.6875 60.792969 C 230.800781 61.0625 230.882812 61.339844 230.941406 61.628906 C 231 61.917969 231.027344 62.207031 231.027344 62.5 Z M 231.027344 62.5 " fill-opacity="1" fill-rule="nonzero"/><path fill="#2d4356" d="M 80.355469 158.480469 C 80.648438 158.480469 80.941406 158.453125 81.226562 158.394531 C 81.515625 158.339844 81.792969 158.253906 82.066406 158.140625 C 82.335938 158.03125 82.59375 157.894531 82.835938 157.730469 C 83.082031 157.566406 83.304688 157.382812 83.515625 157.175781 C 83.722656 156.96875 83.90625 156.742188 84.070312 156.5 C 84.230469 156.253906 84.371094 155.996094 84.480469 155.726562 C 84.59375 155.457031 84.679688 155.175781 84.734375 154.890625 C 84.792969 154.601562 84.820312 154.3125 84.820312 154.019531 L 84.820312 100.445312 L 96.941406 100.445312 L 95.820312 101.195312 C 95.570312 101.355469 95.339844 101.535156 95.125 101.742188 C 94.910156 101.949219 94.722656 102.171875 94.550781 102.417969 C 94.382812 102.660156 94.242188 102.917969 94.125 103.191406 C 94.007812 103.464844 93.917969 103.746094 93.859375 104.035156 C 93.796875 104.324219 93.765625 104.617188 93.761719 104.914062 C 93.761719 105.210938 93.785156 105.503906 93.84375 105.796875 C 93.898438 106.085938 93.984375 106.371094 94.09375 106.644531 C 94.207031 106.917969 94.34375 107.179688 94.507812 107.425781 C 94.671875 107.671875 94.859375 107.902344 95.070312 108.109375 C 95.28125 108.320312 95.507812 108.507812 95.753906 108.671875 C 96 108.835938 96.261719 108.972656 96.535156 109.085938 C 96.8125 109.199219 97.09375 109.28125 97.382812 109.339844 C 97.675781 109.394531 97.96875 109.421875 98.265625 109.417969 C 98.5625 109.414062 98.855469 109.382812 99.144531 109.324219 C 99.4375 109.261719 99.714844 109.171875 99.988281 109.054688 C 100.261719 108.9375 100.519531 108.796875 100.761719 108.628906 L 114.078125 99.773438 C 114.382812 99.570312 114.660156 99.332031 114.90625 99.0625 C 115.15625 98.789062 115.363281 98.492188 115.539062 98.167969 C 115.710938 97.847656 115.84375 97.507812 115.933594 97.152344 C 116.023438 96.796875 116.070312 96.433594 116.070312 96.066406 C 116.074219 95.699219 116.03125 95.339844 115.941406 94.984375 C 115.851562 94.625 115.722656 94.285156 115.550781 93.960938 C 115.378906 93.636719 115.171875 93.339844 114.925781 93.066406 C 114.679688 92.792969 114.40625 92.554688 114.101562 92.351562 L 100.707031 83.347656 C 100.464844 83.183594 100.207031 83.046875 99.9375 82.933594 C 99.667969 82.820312 99.386719 82.734375 99.101562 82.675781 C 98.8125 82.617188 98.523438 82.589844 98.230469 82.589844 C 97.9375 82.585938 97.644531 82.613281 97.359375 82.671875 C 97.070312 82.726562 96.789062 82.8125 96.519531 82.921875 C 96.246094 83.035156 95.988281 83.171875 95.746094 83.332031 C 95.5 83.496094 95.277344 83.679688 95.066406 83.886719 C 94.859375 84.09375 94.671875 84.316406 94.511719 84.5625 C 94.347656 84.804688 94.207031 85.0625 94.09375 85.332031 C 93.980469 85.601562 93.894531 85.882812 93.839844 86.167969 C 93.78125 86.457031 93.75 86.746094 93.75 87.039062 C 93.75 87.332031 93.777344 87.625 93.832031 87.910156 C 93.890625 88.199219 93.972656 88.480469 94.085938 88.75 C 94.195312 89.019531 94.332031 89.277344 94.496094 89.523438 C 94.65625 89.765625 94.839844 89.992188 95.046875 90.203125 C 95.253906 90.410156 95.480469 90.59375 95.722656 90.757812 L 96.851562 91.519531 L 80.355469 91.519531 C 80.0625 91.519531 79.773438 91.546875 79.484375 91.605469 C 79.199219 91.660156 78.917969 91.746094 78.648438 91.859375 C 78.378906 91.96875 78.121094 92.105469 77.875 92.269531 C 77.632812 92.433594 77.40625 92.617188 77.199219 92.824219 C 76.992188 93.03125 76.808594 93.257812 76.644531 93.5 C 76.480469 93.746094 76.34375 94.003906 76.234375 94.273438 C 76.121094 94.542969 76.035156 94.824219 75.980469 95.109375 C 75.921875 95.398438 75.894531 95.6875 75.894531 95.980469 L 75.894531 154.019531 C 75.894531 154.3125 75.921875 154.601562 75.980469 154.890625 C 76.035156 155.175781 76.121094 155.457031 76.234375 155.726562 C 76.34375 155.996094 76.480469 156.253906 76.644531 156.5 C 76.808594 156.742188 76.992188 156.96875 77.199219 157.175781 C 77.40625 157.382812 77.632812 157.566406 77.875 157.730469 C 78.121094 157.894531 78.378906 158.03125 78.648438 158.140625 C 78.917969 158.253906 79.199219 158.339844 79.484375 158.394531 C 79.773438 158.453125 80.0625 158.480469 80.355469 158.480469 Z M 263.394531 100.445312 L 290.179688 100.445312 L 290.179688 139.261719 L 289.417969 138.132812 C 289.257812 137.890625 289.070312 137.664062 288.863281 137.457031 C 288.65625 137.253906 288.429688 137.066406 288.183594 136.90625 C 287.941406 136.742188 287.683594 136.605469 287.410156 136.496094 C 287.140625 136.382812 286.859375 136.300781 286.574219 136.242188 C 286.285156 136.1875 285.996094 136.160156 285.703125 136.160156 C 285.410156 136.160156 285.117188 136.191406 284.832031 136.25 C 284.542969 136.304688 284.265625 136.390625 283.992188 136.503906 C 283.722656 136.617188 283.464844 136.757812 283.222656 136.917969 C 282.980469 137.082031 282.753906 137.269531 282.546875 137.476562 C 282.339844 137.683594 282.15625 137.910156 281.996094 138.15625 C 281.832031 138.398438 281.695312 138.65625 281.585938 138.929688 C 281.472656 139.199219 281.390625 139.480469 281.332031 139.765625 C 281.277344 140.054688 281.25 140.34375 281.25 140.636719 C 281.25 140.929688 281.28125 141.222656 281.335938 141.507812 C 281.394531 141.796875 281.480469 142.074219 281.59375 142.34375 C 281.707031 142.617188 281.84375 142.871094 282.007812 143.117188 L 291.011719 156.507812 C 291.425781 157.125 291.960938 157.609375 292.617188 157.957031 C 293.273438 158.308594 293.972656 158.480469 294.714844 158.480469 L 294.726562 158.480469 C 295.472656 158.480469 296.171875 158.300781 296.828125 157.949219 C 297.484375 157.597656 298.019531 157.109375 298.433594 156.488281 L 307.289062 143.171875 C 307.453125 142.925781 307.589844 142.671875 307.699219 142.398438 C 307.8125 142.128906 307.894531 141.847656 307.949219 141.5625 C 308.007812 141.273438 308.035156 140.984375 308.035156 140.691406 C 308.03125 140.398438 308.003906 140.109375 307.945312 139.820312 C 307.886719 139.53125 307.800781 139.253906 307.6875 138.984375 C 307.574219 138.714844 307.4375 138.457031 307.273438 138.214844 C 307.109375 137.972656 306.925781 137.746094 306.71875 137.539062 C 306.511719 137.332031 306.285156 137.148438 306.039062 136.984375 C 305.796875 136.824219 305.539062 136.6875 305.269531 136.574219 C 304.996094 136.464844 304.71875 136.378906 304.429688 136.324219 C 304.144531 136.265625 303.851562 136.238281 303.558594 136.238281 C 303.265625 136.238281 302.976562 136.269531 302.691406 136.328125 C 302.402344 136.382812 302.125 136.46875 301.851562 136.582031 C 301.582031 136.695312 301.324219 136.832031 301.082031 136.996094 C 300.839844 137.160156 300.613281 137.34375 300.40625 137.550781 C 300.199219 137.757812 300.015625 137.984375 299.851562 138.226562 L 299.105469 139.351562 L 299.105469 95.980469 C 299.105469 95.6875 299.078125 95.398438 299.019531 95.109375 C 298.964844 94.824219 298.878906 94.542969 298.765625 94.273438 C 298.65625 94.003906 298.519531 93.746094 298.355469 93.5 C 298.191406 93.257812 298.007812 93.03125 297.800781 92.824219 C 297.59375 92.617188 297.367188 92.433594 297.121094 92.269531 C 296.878906 92.105469 296.621094 91.96875 296.351562 91.859375 C 296.082031 91.746094 295.800781 91.660156 295.515625 91.605469 C 295.226562 91.546875 294.9375 91.519531 294.644531 91.519531 L 263.394531 91.519531 C 263.101562 91.519531 262.808594 91.546875 262.523438 91.605469 C 262.234375 91.660156 261.957031 91.746094 261.683594 91.859375 C 261.414062 91.96875 261.15625 92.105469 260.914062 92.269531 C 260.667969 92.433594 260.445312 92.617188 260.234375 92.824219 C 260.027344 93.03125 259.84375 93.257812 259.679688 93.5 C 259.519531 93.746094 259.378906 94.003906 259.269531 94.273438 C 259.15625 94.542969 259.070312 94.824219 259.015625 95.109375 C 258.957031 95.398438 258.929688 95.6875 258.929688 95.980469 C 258.929688 96.273438 258.957031 96.566406 259.015625 96.851562 C 259.070312 97.140625 259.15625 97.417969 259.269531 97.691406 C 259.378906 97.960938 259.519531 98.21875 259.679688 98.460938 C 259.84375 98.707031 260.027344 98.929688 260.234375 99.140625 C 260.445312 99.347656 260.667969 99.53125 260.914062 99.695312 C 261.15625 99.855469 261.414062 99.996094 261.683594 100.105469 C 261.957031 100.21875 262.234375 100.304688 262.523438 100.359375 C 262.808594 100.417969 263.101562 100.445312 263.394531 100.445312 Z M 354.910156 40.179688 C 354.472656 40.179688 354.035156 40.222656 353.605469 40.308594 C 353.171875 40.394531 352.753906 40.519531 352.347656 40.6875 C 351.941406 40.855469 351.554688 41.0625 351.191406 41.308594 C 350.824219 41.550781 350.488281 41.828125 350.175781 42.140625 C 349.863281 42.449219 349.585938 42.789062 349.34375 43.15625 C 349.097656 43.519531 348.890625 43.90625 348.722656 44.3125 C 348.554688 44.71875 348.429688 45.136719 348.34375 45.570312 C 348.257812 46 348.214844 46.433594 348.214844 46.875 C 348.214844 47.316406 348.257812 47.75 348.34375 48.179688 C 348.429688 48.613281 348.554688 49.03125 348.722656 49.4375 C 348.890625 49.84375 349.097656 50.230469 349.34375 50.59375 C 349.585938 50.960938 349.863281 51.300781 350.175781 51.609375 C 350.488281 51.921875 350.824219 52.199219 351.191406 52.441406 C 351.554688 52.6875 351.941406 52.894531 352.347656 53.0625 C 352.753906 53.230469 353.171875 53.355469 353.605469 53.441406 C 354.035156 53.527344 354.472656 53.570312 354.910156 53.570312 C 355.351562 53.570312 355.785156 53.527344 356.21875 53.441406 C 356.648438 53.355469 357.066406 53.230469 357.472656 53.0625 C 357.878906 52.894531 358.265625 52.6875 358.632812 52.441406 C 358.996094 52.199219 359.335938 51.921875 359.644531 51.609375 C 359.957031 51.300781 360.234375 50.960938 360.480469 50.59375 C 360.722656 50.230469 360.929688 49.84375 361.097656 49.4375 C 361.265625 49.03125 361.394531 48.613281 361.476562 48.179688 C 361.5625 47.75 361.605469 47.316406 361.605469 46.875 C 361.605469 46.433594 361.5625 46 361.476562 45.570312 C 361.390625 45.136719 361.265625 44.71875 361.09375 44.3125 C 360.925781 43.90625 360.722656 43.523438 360.476562 43.15625 C 360.230469 42.789062 359.953125 42.453125 359.644531 42.140625 C 359.332031 41.832031 358.996094 41.554688 358.628906 41.308594 C 358.265625 41.066406 357.878906 40.859375 357.472656 40.691406 C 357.066406 40.523438 356.648438 40.394531 356.214844 40.308594 C 355.785156 40.222656 355.351562 40.179688 354.910156 40.179688 Z M 354.910156 50.222656 C 354.464844 50.222656 354.039062 50.136719 353.628906 49.96875 C 353.21875 49.796875 352.855469 49.554688 352.542969 49.242188 C 352.230469 48.929688 351.988281 48.566406 351.816406 48.15625 C 351.648438 47.746094 351.5625 47.320312 351.5625 46.875 C 351.5625 46.429688 351.648438 46.003906 351.816406 45.59375 C 351.988281 45.183594 352.230469 44.820312 352.542969 44.507812 C 352.855469 44.195312 353.21875 43.953125 353.628906 43.78125 C 354.039062 43.613281 354.464844 43.527344 354.910156 43.527344 C 355.355469 43.527344 355.78125 43.613281 356.191406 43.78125 C 356.601562 43.953125 356.964844 44.195312 357.277344 44.507812 C 357.59375 44.820312 357.835938 45.183594 358.003906 45.59375 C 358.175781 46.003906 358.257812 46.429688 358.257812 46.875 C 358.257812 47.320312 358.171875 47.746094 358.003906 48.15625 C 357.832031 48.566406 357.589844 48.929688 357.277344 49.242188 C 356.964844 49.554688 356.601562 49.796875 356.191406 49.96875 C 355.78125 50.136719 355.355469 50.222656 354.910156 50.222656 Z M 151.785156 17.855469 C 152.226562 17.855469 152.660156 17.8125 153.09375 17.726562 C 153.523438 17.644531 153.941406 17.515625 154.347656 17.347656 C 154.753906 17.179688 155.140625 16.972656 155.507812 16.730469 C 155.871094 16.484375 156.210938 16.207031 156.519531 15.894531 C 156.832031 15.585938 157.109375 15.246094 157.355469 14.882812 C 157.597656 14.515625 157.804688 14.128906 157.972656 13.722656 C 158.140625 13.316406 158.269531 12.898438 158.351562 12.46875 C 158.4375 12.035156 158.480469 11.601562 158.480469 11.160156 C 158.480469 10.722656 158.4375 10.285156 158.351562 9.855469 C 158.269531 9.421875 158.140625 9.003906 157.972656 8.597656 C 157.804688 8.191406 157.597656 7.804688 157.355469 7.441406 C 157.109375 7.074219 156.832031 6.738281 156.519531 6.425781 C 156.210938 6.113281 155.871094 5.835938 155.507812 5.59375 C 155.140625 5.347656 154.753906 5.140625 154.347656 4.972656 C 153.941406 4.804688 153.523438 4.679688 153.09375 4.59375 C 152.660156 4.507812 152.226562 4.464844 151.785156 4.464844 C 151.347656 4.464844 150.910156 4.507812 150.480469 4.59375 C 150.046875 4.679688 149.628906 4.804688 149.222656 4.972656 C 148.816406 5.140625 148.429688 5.347656 148.066406 5.59375 C 147.699219 5.835938 147.363281 6.113281 147.050781 6.425781 C 146.738281 6.738281 146.460938 7.074219 146.21875 7.441406 C 145.972656 7.804688 145.765625 8.191406 145.597656 8.597656 C 145.429688 9.003906 145.304688 9.421875 145.21875 9.855469 C 145.132812 10.285156 145.089844 10.722656 145.089844 11.160156 C 145.089844 11.601562 145.132812 12.035156 145.21875 12.464844 C 145.304688 12.898438 145.433594 13.316406 145.601562 13.722656 C 145.769531 14.128906 145.976562 14.515625 146.21875 14.878906 C 146.464844 15.246094 146.742188 15.582031 147.050781 15.894531 C 147.363281 16.203125 147.703125 16.480469 148.066406 16.726562 C 148.433594 16.972656 148.816406 17.175781 149.222656 17.34375 C 149.628906 17.515625 150.046875 17.640625 150.480469 17.726562 C 150.910156 17.8125 151.347656 17.855469 151.785156 17.855469 Z M 151.785156 7.8125 C 152.230469 7.8125 152.65625 7.898438 153.066406 8.066406 C 153.476562 8.238281 153.839844 8.480469 154.152344 8.792969 C 154.46875 9.105469 154.710938 9.46875 154.878906 9.878906 C 155.050781 10.289062 155.132812 10.714844 155.132812 11.160156 C 155.132812 11.605469 155.050781 12.03125 154.878906 12.441406 C 154.710938 12.851562 154.46875 13.214844 154.152344 13.527344 C 153.839844 13.84375 153.476562 14.085938 153.066406 14.253906 C 152.65625 14.425781 152.230469 14.507812 151.785156 14.507812 C 151.339844 14.507812 150.914062 14.425781 150.503906 14.253906 C 150.09375 14.085938 149.730469 13.84375 149.417969 13.527344 C 149.105469 13.214844 148.863281 12.851562 148.691406 12.441406 C 148.523438 12.03125 148.4375 11.605469 148.4375 11.160156 C 148.4375 10.71875 148.523438 10.289062 148.691406 9.878906 C 148.863281 9.46875 149.105469 9.109375 149.417969 8.792969 C 149.734375 8.480469 150.09375 8.238281 150.503906 8.066406 C 150.914062 7.898438 151.339844 7.8125 151.785156 7.8125 Z M 357.144531 158.480469 C 357.144531 158.1875 357.113281 157.898438 357.058594 157.609375 C 357 157.324219 356.914062 157.042969 356.804688 156.773438 C 356.691406 156.503906 356.554688 156.246094 356.390625 156 C 356.226562 155.757812 356.042969 155.53125 355.835938 155.324219 C 355.628906 155.117188 355.402344 154.933594 355.160156 154.769531 C 354.914062 154.605469 354.65625 154.46875 354.386719 154.359375 C 354.117188 154.246094 353.835938 154.160156 353.550781 154.105469 C 353.261719 154.046875 352.972656 154.019531 352.679688 154.019531 C 352.386719 154.019531 352.09375 154.046875 351.808594 154.105469 C 351.519531 154.160156 351.242188 154.246094 350.96875 154.359375 C 350.699219 154.46875 350.441406 154.605469 350.199219 154.769531 C 349.953125 154.933594 349.730469 155.117188 349.523438 155.324219 C 349.316406 155.53125 349.128906 155.757812 348.964844 156 C 348.804688 156.246094 348.667969 156.503906 348.554688 156.773438 C 348.441406 157.042969 348.355469 157.324219 348.300781 157.609375 C 348.242188 157.898438 348.214844 158.1875 348.214844 158.480469 C 348.214844 158.773438 348.242188 159.066406 348.300781 159.351562 C 348.355469 159.640625 348.441406 159.917969 348.554688 160.191406 C 348.667969 160.460938 348.804688 160.71875 348.964844 160.960938 C 349.128906 161.207031 349.316406 161.429688 349.523438 161.640625 C 349.730469 161.847656 349.953125 162.03125 350.199219 162.195312 C 350.441406 162.355469 350.699219 162.496094 350.96875 162.605469 C 351.242188 162.71875 351.519531 162.804688 351.808594 162.859375 C 352.09375 162.917969 352.386719 162.945312 352.679688 162.945312 C 352.972656 162.945312 353.261719 162.917969 353.550781 162.859375 C 353.835938 162.800781 354.117188 162.71875 354.386719 162.605469 C 354.65625 162.492188 354.914062 162.355469 355.15625 162.191406 C 355.402344 162.03125 355.625 161.84375 355.832031 161.636719 C 356.042969 161.429688 356.226562 161.203125 356.390625 160.960938 C 356.550781 160.71875 356.691406 160.460938 356.800781 160.191406 C 356.914062 159.917969 357 159.640625 357.054688 159.351562 C 357.113281 159.066406 357.140625 158.773438 357.144531 158.480469 Z M 350.445312 158.480469 C 350.445312 158.1875 350.503906 157.902344 350.617188 157.628906 C 350.730469 157.355469 350.890625 157.113281 351.101562 156.902344 C 351.308594 156.695312 351.550781 156.53125 351.824219 156.417969 C 352.097656 156.304688 352.382812 156.25 352.679688 156.25 C 352.972656 156.25 353.257812 156.304688 353.53125 156.417969 C 353.804688 156.53125 354.046875 156.695312 354.257812 156.902344 C 354.464844 157.113281 354.628906 157.355469 354.742188 157.628906 C 354.855469 157.902344 354.910156 158.1875 354.910156 158.480469 C 354.910156 158.777344 354.855469 159.0625 354.742188 159.335938 C 354.628906 159.609375 354.464844 159.851562 354.257812 160.058594 C 354.046875 160.269531 353.804688 160.429688 353.53125 160.542969 C 353.257812 160.65625 352.972656 160.714844 352.679688 160.714844 C 352.382812 160.714844 352.097656 160.65625 351.824219 160.542969 C 351.550781 160.429688 351.308594 160.269531 351.101562 160.058594 C 350.890625 159.851562 350.730469 159.609375 350.617188 159.335938 C 350.503906 159.0625 350.445312 158.777344 350.445312 158.480469 Z M 305.804688 15.625 C 306.097656 15.625 306.386719 15.597656 306.675781 15.539062 C 306.960938 15.480469 307.242188 15.398438 307.511719 15.285156 C 307.78125 15.171875 308.039062 15.035156 308.285156 14.871094 C 308.527344 14.710938 308.753906 14.523438 308.960938 14.316406 C 309.167969 14.109375 309.351562 13.882812 309.515625 13.640625 C 309.679688 13.398438 309.816406 13.140625 309.929688 12.867188 C 310.039062 12.597656 310.125 12.320312 310.183594 12.03125 C 310.238281 11.746094 310.269531 11.453125 310.269531 11.160156 C 310.269531 10.867188 310.238281 10.578125 310.183594 10.289062 C 310.125 10.003906 310.039062 9.722656 309.929688 9.453125 C 309.816406 9.179688 309.679688 8.925781 309.515625 8.679688 C 309.351562 8.4375 309.167969 8.210938 308.960938 8.003906 C 308.753906 7.796875 308.527344 7.613281 308.285156 7.449219 C 308.039062 7.285156 307.78125 7.148438 307.511719 7.035156 C 307.242188 6.925781 306.960938 6.839844 306.675781 6.78125 C 306.386719 6.726562 306.097656 6.695312 305.804688 6.695312 C 305.511719 6.695312 305.21875 6.726562 304.933594 6.78125 C 304.644531 6.839844 304.367188 6.925781 304.09375 7.035156 C 303.824219 7.148438 303.566406 7.285156 303.324219 7.449219 C 303.078125 7.613281 302.855469 7.796875 302.648438 8.003906 C 302.441406 8.210938 302.253906 8.4375 302.089844 8.679688 C 301.929688 8.925781 301.792969 9.179688 301.679688 9.453125 C 301.566406 9.722656 301.480469 10.003906 301.425781 10.289062 C 301.367188 10.578125 301.339844 10.867188 301.339844 11.160156 C 301.339844 11.453125 301.367188 11.742188 301.425781 12.03125 C 301.484375 12.320312 301.566406 12.597656 301.679688 12.867188 C 301.792969 13.140625 301.929688 13.394531 302.09375 13.640625 C 302.257812 13.882812 302.441406 14.109375 302.648438 14.316406 C 302.855469 14.523438 303.082031 14.707031 303.324219 14.871094 C 303.566406 15.035156 303.824219 15.171875 304.097656 15.285156 C 304.367188 15.394531 304.644531 15.480469 304.933594 15.539062 C 305.21875 15.597656 305.511719 15.625 305.804688 15.625 Z M 305.804688 8.929688 C 306.097656 8.929688 306.382812 8.984375 306.65625 9.097656 C 306.929688 9.210938 307.171875 9.371094 307.382812 9.582031 C 307.589844 9.792969 307.753906 10.03125 307.867188 10.304688 C 307.980469 10.578125 308.035156 10.863281 308.035156 11.160156 C 308.035156 11.457031 307.980469 11.742188 307.867188 12.015625 C 307.753906 12.289062 307.589844 12.53125 307.382812 12.738281 C 307.171875 12.949219 306.929688 13.109375 306.65625 13.222656 C 306.382812 13.335938 306.097656 13.394531 305.804688 13.394531 C 305.507812 13.394531 305.222656 13.335938 304.949219 13.222656 C 304.675781 13.109375 304.433594 12.949219 304.226562 12.738281 C 304.015625 12.53125 303.855469 12.289062 303.742188 12.015625 C 303.628906 11.742188 303.570312 11.457031 303.570312 11.160156 C 303.570312 10.863281 303.628906 10.582031 303.742188 10.308594 C 303.855469 10.035156 304.015625 9.792969 304.226562 9.582031 C 304.433594 9.375 304.675781 9.210938 304.949219 9.097656 C 305.222656 8.984375 305.507812 8.929688 305.804688 8.929688 Z M 17.855469 40.179688 C 18.148438 40.179688 18.441406 40.148438 18.726562 40.09375 C 19.015625 40.035156 19.292969 39.949219 19.566406 39.839844 C 19.835938 39.726562 20.09375 39.589844 20.335938 39.425781 C 20.582031 39.261719 20.804688 39.078125 21.015625 38.871094 C 21.222656 38.664062 21.40625 38.4375 21.570312 38.195312 C 21.730469 37.949219 21.871094 37.695312 21.980469 37.421875 C 22.09375 37.152344 22.179688 36.871094 22.234375 36.585938 C 22.292969 36.296875 22.320312 36.007812 22.320312 35.714844 C 22.320312 35.421875 22.292969 35.128906 22.234375 34.84375 C 22.179688 34.554688 22.09375 34.277344 21.980469 34.007812 C 21.871094 33.734375 21.730469 33.476562 21.570312 33.234375 C 21.40625 32.992188 21.222656 32.765625 21.015625 32.558594 C 20.804688 32.351562 20.582031 32.164062 20.335938 32.003906 C 20.09375 31.839844 19.835938 31.703125 19.566406 31.589844 C 19.292969 31.476562 19.015625 31.394531 18.726562 31.335938 C 18.441406 31.277344 18.148438 31.25 17.855469 31.25 C 17.5625 31.25 17.273438 31.277344 16.984375 31.335938 C 16.699219 31.394531 16.417969 31.476562 16.148438 31.589844 C 15.878906 31.703125 15.621094 31.839844 15.375 32.003906 C 15.132812 32.164062 14.90625 32.351562 14.699219 32.558594 C 14.492188 32.765625 14.308594 32.992188 14.144531 33.234375 C 13.980469 33.476562 13.84375 33.734375 13.734375 34.007812 C 13.621094 34.277344 13.535156 34.554688 13.480469 34.84375 C 13.421875 35.128906 13.394531 35.421875 13.394531 35.714844 C 13.394531 36.007812 13.421875 36.296875 13.480469 36.585938 C 13.535156 36.871094 13.621094 37.152344 13.734375 37.421875 C 13.847656 37.691406 13.984375 37.949219 14.148438 38.195312 C 14.308594 38.4375 14.496094 38.664062 14.703125 38.871094 C 14.910156 39.078125 15.132812 39.261719 15.378906 39.425781 C 15.621094 39.585938 15.878906 39.726562 16.148438 39.835938 C 16.421875 39.949219 16.699219 40.035156 16.988281 40.09375 C 17.273438 40.148438 17.5625 40.179688 17.855469 40.179688 Z M 17.855469 33.480469 C 18.152344 33.480469 18.4375 33.539062 18.710938 33.652344 C 18.984375 33.765625 19.226562 33.925781 19.433594 34.136719 C 19.644531 34.34375 19.804688 34.585938 19.917969 34.859375 C 20.03125 35.132812 20.089844 35.417969 20.089844 35.714844 C 20.089844 36.011719 20.03125 36.296875 19.917969 36.570312 C 19.804688 36.84375 19.644531 37.082031 19.433594 37.292969 C 19.226562 37.5 18.984375 37.664062 18.710938 37.777344 C 18.4375 37.890625 18.152344 37.945312 17.855469 37.945312 C 17.5625 37.945312 17.277344 37.890625 17.003906 37.777344 C 16.730469 37.664062 16.488281 37.5 16.277344 37.292969 C 16.070312 37.082031 15.90625 36.84375 15.792969 36.570312 C 15.679688 36.296875 15.625 36.011719 15.625 35.714844 C 15.625 35.417969 15.683594 35.132812 15.796875 34.859375 C 15.910156 34.585938 16.070312 34.347656 16.28125 34.136719 C 16.488281 33.925781 16.730469 33.765625 17.003906 33.652344 C 17.277344 33.539062 17.5625 33.484375 17.855469 33.480469 Z M 17.855469 33.480469 " fill-opacity="1" fill-rule="nonzero"/><path fill="#2d4356" d="M 8.929688 325.894531 C 8.929688 326.1875 8.898438 326.476562 8.84375 326.765625 C 8.785156 327.050781 8.699219 327.332031 8.589844 327.601562 C 8.476562 327.871094 8.339844 328.128906 8.175781 328.371094 C 8.011719 328.617188 7.828125 328.84375 7.621094 329.050781 C 7.414062 329.257812 7.1875 329.441406 6.945312 329.605469 C 6.699219 329.765625 6.445312 329.90625 6.171875 330.015625 C 5.902344 330.128906 5.621094 330.214844 5.335938 330.269531 C 5.046875 330.328125 4.757812 330.355469 4.464844 330.355469 C 4.171875 330.355469 3.878906 330.328125 3.59375 330.269531 C 3.304688 330.214844 3.027344 330.128906 2.757812 330.015625 C 2.484375 329.90625 2.226562 329.765625 1.984375 329.605469 C 1.742188 329.441406 1.515625 329.257812 1.308594 329.050781 C 1.101562 328.84375 0.914062 328.617188 0.753906 328.371094 C 0.589844 328.128906 0.453125 327.871094 0.339844 327.601562 C 0.226562 327.332031 0.144531 327.050781 0.0859375 326.765625 C 0.0273438 326.476562 0 326.1875 0 325.894531 C 0 325.601562 0.0273438 325.308594 0.0859375 325.023438 C 0.144531 324.734375 0.226562 324.457031 0.339844 324.183594 C 0.453125 323.914062 0.589844 323.65625 0.753906 323.414062 C 0.914062 323.167969 1.101562 322.941406 1.308594 322.734375 C 1.515625 322.527344 1.742188 322.34375 1.984375 322.179688 C 2.226562 322.019531 2.484375 321.878906 2.757812 321.769531 C 3.027344 321.65625 3.304688 321.570312 3.59375 321.515625 C 3.878906 321.457031 4.171875 321.429688 4.464844 321.429688 C 4.757812 321.429688 5.046875 321.457031 5.335938 321.515625 C 5.621094 321.570312 5.902344 321.65625 6.171875 321.769531 C 6.445312 321.878906 6.699219 322.019531 6.945312 322.179688 C 7.1875 322.34375 7.414062 322.527344 7.621094 322.734375 C 7.828125 322.941406 8.011719 323.167969 8.175781 323.414062 C 8.339844 323.65625 8.476562 323.914062 8.589844 324.183594 C 8.699219 324.457031 8.785156 324.734375 8.84375 325.023438 C 8.898438 325.308594 8.929688 325.601562 8.929688 325.894531 Z M 8.929688 325.894531 " fill-opacity="1" fill-rule="nonzero"/><path fill="#2d4356" d="M 24.554688 321.429688 L 17.855469 321.429688 C 17.5625 321.429688 17.273438 321.457031 16.984375 321.515625 C 16.699219 321.570312 16.417969 321.65625 16.148438 321.769531 C 15.878906 321.878906 15.621094 322.019531 15.375 322.179688 C 15.132812 322.34375 14.90625 322.527344 14.699219 322.734375 C 14.492188 322.941406 14.308594 323.167969 14.144531 323.414062 C 13.980469 323.65625 13.84375 323.914062 13.734375 324.183594 C 13.621094 324.457031 13.535156 324.734375 13.480469 325.023438 C 13.421875 325.308594 13.394531 325.601562 13.394531 325.894531 C 13.394531 326.1875 13.421875 326.476562 13.480469 326.765625 C 13.535156 327.050781 13.621094 327.332031 13.734375 327.601562 C 13.84375 327.871094 13.980469 328.128906 14.144531 328.371094 C 14.308594 328.617188 14.492188 328.84375 14.699219 329.050781 C 14.90625 329.257812 15.132812 329.441406 15.375 329.605469 C 15.621094 329.765625 15.878906 329.90625 16.148438 330.015625 C 16.417969 330.128906 16.699219 330.214844 16.984375 330.269531 C 17.273438 330.328125 17.5625 330.355469 17.855469 330.355469 L 24.554688 330.355469 C 24.847656 330.355469 25.136719 330.328125 25.425781 330.269531 C 25.710938 330.214844 25.992188 330.128906 26.261719 330.015625 C 26.53125 329.90625 26.789062 329.765625 27.035156 329.605469 C 27.277344 329.441406 27.503906 329.257812 27.710938 329.050781 C 27.917969 328.84375 28.101562 328.617188 28.265625 328.371094 C 28.429688 328.128906 28.566406 327.871094 28.679688 327.601562 C 28.789062 327.332031 28.875 327.050781 28.933594 326.765625 C 28.988281 326.476562 29.019531 326.1875 29.019531 325.894531 C 29.019531 325.601562 28.988281 325.308594 28.933594 325.023438 C 28.875 324.734375 28.789062 324.457031 28.679688 324.183594 C 28.566406 323.914062 28.429688 323.65625 28.265625 323.414062 C 28.101562 323.167969 27.917969 322.941406 27.710938 322.734375 C 27.503906 322.527344 27.277344 322.34375 27.035156 322.179688 C 26.789062 322.019531 26.53125 321.878906 26.261719 321.769531 C 25.992188 321.65625 25.710938 321.570312 25.425781 321.515625 C 25.136719 321.457031 24.847656 321.429688 24.554688 321.429688 Z M 357.144531 321.429688 L 350.445312 321.429688 C 350.152344 321.429688 349.863281 321.457031 349.574219 321.515625 C 349.289062 321.570312 349.007812 321.65625 348.738281 321.769531 C 348.46875 321.878906 348.210938 322.019531 347.964844 322.179688 C 347.722656 322.34375 347.496094 322.527344 347.289062 322.734375 C 347.082031 322.941406 346.898438 323.167969 346.734375 323.414062 C 346.570312 323.65625 346.433594 323.914062 346.320312 324.183594 C 346.210938 324.457031 346.125 324.734375 346.066406 325.023438 C 346.011719 325.308594 345.980469 325.601562 345.980469 325.894531 C 345.980469 326.1875 346.011719 326.476562 346.066406 326.765625 C 346.125 327.050781 346.210938 327.332031 346.320312 327.601562 C 346.433594 327.871094 346.570312 328.128906 346.734375 328.371094 C 346.898438 328.617188 347.082031 328.84375 347.289062 329.050781 C 347.496094 329.257812 347.722656 329.441406 347.964844 329.605469 C 348.210938 329.765625 348.46875 329.90625 348.738281 330.015625 C 349.007812 330.128906 349.289062 330.214844 349.574219 330.269531 C 349.863281 330.328125 350.152344 330.355469 350.445312 330.355469 L 357.144531 330.355469 C 357.4375 330.355469 357.726562 330.328125 358.015625 330.269531 C 358.300781 330.214844 358.582031 330.128906 358.851562 330.015625 C 359.121094 329.90625 359.378906 329.765625 359.621094 329.605469 C 359.867188 329.441406 360.09375 329.257812 360.300781 329.050781 C 360.507812 328.84375 360.691406 328.617188 360.855469 328.371094 C 361.015625 328.128906 361.15625 327.871094 361.265625 327.601562 C 361.378906 327.332031 361.464844 327.050781 361.519531 326.765625 C 361.578125 326.476562 361.605469 326.1875 361.605469 325.894531 C 361.605469 325.601562 361.578125 325.308594 361.519531 325.023438 C 361.464844 324.734375 361.378906 324.457031 361.265625 324.183594 C 361.15625 323.914062 361.015625 323.65625 360.855469 323.414062 C 360.691406 323.167969 360.507812 322.941406 360.300781 322.734375 C 360.09375 322.527344 359.867188 322.34375 359.621094 322.179688 C 359.378906 322.019531 359.121094 321.878906 358.851562 321.769531 C 358.582031 321.65625 358.300781 321.570312 358.015625 321.515625 C 357.726562 321.457031 357.4375 321.429688 357.144531 321.429688 Z M 357.144531 321.429688 " fill-opacity="1" fill-rule="nonzero"/><path fill="#2d4356" d="M 375 325.894531 C 375 326.1875 374.972656 326.476562 374.914062 326.765625 C 374.855469 327.050781 374.773438 327.332031 374.660156 327.601562 C 374.546875 327.871094 374.410156 328.128906 374.246094 328.371094 C 374.085938 328.617188 373.898438 328.84375 373.691406 329.050781 C 373.484375 329.257812 373.257812 329.441406 373.015625 329.605469 C 372.773438 329.765625 372.515625 329.90625 372.242188 330.015625 C 371.972656 330.128906 371.695312 330.214844 371.40625 330.269531 C 371.117188 330.328125 370.828125 330.355469 370.535156 330.355469 C 370.242188 330.355469 369.953125 330.328125 369.664062 330.269531 C 369.378906 330.214844 369.097656 330.128906 368.828125 330.015625 C 368.554688 329.90625 368.300781 329.765625 368.054688 329.605469 C 367.8125 329.441406 367.585938 329.257812 367.378906 329.050781 C 367.171875 328.84375 366.988281 328.617188 366.824219 328.371094 C 366.660156 328.128906 366.523438 327.871094 366.410156 327.601562 C 366.300781 327.332031 366.214844 327.050781 366.15625 326.765625 C 366.101562 326.476562 366.070312 326.1875 366.070312 325.894531 C 366.070312 325.601562 366.101562 325.308594 366.15625 325.023438 C 366.214844 324.734375 366.300781 324.457031 366.410156 324.183594 C 366.523438 323.914062 366.660156 323.65625 366.824219 323.414062 C 366.988281 323.167969 367.171875 322.941406 367.378906 322.734375 C 367.585938 322.527344 367.8125 322.34375 368.054688 322.179688 C 368.300781 322.019531 368.554688 321.878906 368.828125 321.769531 C 369.097656 321.65625 369.378906 321.570312 369.664062 321.515625 C 369.953125 321.457031 370.242188 321.429688 370.535156 321.429688 C 370.828125 321.429688 371.117188 321.457031 371.40625 321.515625 C 371.695312 321.570312 371.972656 321.65625 372.242188 321.769531 C 372.515625 321.878906 372.773438 322.019531 373.015625 322.179688 C 373.257812 322.34375 373.484375 322.527344 373.691406 322.734375 C 373.898438 322.941406 374.085938 323.167969 374.246094 323.414062 C 374.410156 323.65625 374.546875 323.914062 374.660156 324.183594 C 374.773438 324.457031 374.855469 324.734375 374.914062 325.023438 C 374.972656 325.308594 375 325.601562 375 325.894531 Z M 375 325.894531 " fill-opacity="1" fill-rule="nonzero"/><path fill="#2d4356" d="M 336.429688 321.429688 L 272.320312 321.429688 L 272.320312 294.085938 C 272.320312 293.792969 272.292969 293.5 272.234375 293.214844 C 272.179688 292.925781 272.09375 292.648438 271.980469 292.375 C 271.871094 292.105469 271.730469 291.847656 271.570312 291.605469 C 271.40625 291.359375 271.222656 291.136719 271.015625 290.929688 C 270.804688 290.722656 270.582031 290.535156 270.335938 290.371094 C 270.09375 290.210938 269.835938 290.074219 269.566406 289.960938 C 269.292969 289.847656 269.015625 289.761719 268.726562 289.707031 C 268.441406 289.648438 268.148438 289.621094 267.855469 289.621094 C 267.5625 289.621094 267.273438 289.648438 266.984375 289.707031 C 266.699219 289.761719 266.417969 289.847656 266.148438 289.960938 C 265.878906 290.074219 265.621094 290.210938 265.375 290.371094 C 265.132812 290.535156 264.90625 290.722656 264.699219 290.929688 C 264.492188 291.136719 264.308594 291.359375 264.144531 291.605469 C 263.980469 291.847656 263.84375 292.105469 263.734375 292.375 C 263.621094 292.648438 263.535156 292.925781 263.480469 293.214844 C 263.421875 293.5 263.394531 293.792969 263.394531 294.085938 L 263.394531 321.429688 L 111.605469 321.429688 L 111.605469 309.308594 L 112.355469 310.429688 C 112.515625 310.679688 112.699219 310.910156 112.902344 311.125 C 113.109375 311.339844 113.335938 311.527344 113.578125 311.699219 C 113.820312 311.867188 114.082031 312.007812 114.351562 312.125 C 114.625 312.242188 114.90625 312.332031 115.195312 312.390625 C 115.488281 312.453125 115.78125 312.484375 116.074219 312.488281 C 116.371094 312.492188 116.667969 312.464844 116.957031 312.40625 C 117.25 312.351562 117.53125 312.269531 117.804688 312.15625 C 118.078125 312.042969 118.339844 311.90625 118.585938 311.742188 C 118.832031 311.578125 119.0625 311.390625 119.273438 311.179688 C 119.480469 310.96875 119.667969 310.742188 119.832031 310.496094 C 119.996094 310.25 120.132812 309.988281 120.246094 309.714844 C 120.359375 309.4375 120.441406 309.15625 120.5 308.867188 C 120.554688 308.574219 120.582031 308.28125 120.578125 307.984375 C 120.574219 307.6875 120.542969 307.394531 120.484375 307.105469 C 120.421875 306.816406 120.332031 306.535156 120.214844 306.261719 C 120.097656 305.988281 119.957031 305.730469 119.789062 305.488281 L 110.933594 292.171875 C 110.519531 291.550781 109.984375 291.0625 109.328125 290.710938 C 108.671875 290.359375 107.972656 290.179688 107.226562 290.179688 L 107.214844 290.179688 C 106.472656 290.179688 105.773438 290.351562 105.117188 290.703125 C 104.460938 291.050781 103.925781 291.535156 103.511719 292.152344 L 94.507812 305.542969 C 94.347656 305.789062 94.207031 306.042969 94.097656 306.316406 C 93.984375 306.585938 93.898438 306.863281 93.839844 307.152344 C 93.785156 307.4375 93.753906 307.726562 93.753906 308.019531 C 93.753906 308.3125 93.78125 308.605469 93.839844 308.890625 C 93.894531 309.179688 93.980469 309.457031 94.089844 309.726562 C 94.203125 310 94.339844 310.257812 94.5 310.5 C 94.664062 310.742188 94.847656 310.96875 95.054688 311.175781 C 95.261719 311.382812 95.484375 311.570312 95.730469 311.734375 C 95.972656 311.894531 96.226562 312.035156 96.5 312.148438 C 96.769531 312.261719 97.046875 312.34375 97.332031 312.402344 C 97.621094 312.460938 97.910156 312.492188 98.203125 312.492188 C 98.496094 312.492188 98.785156 312.464844 99.074219 312.410156 C 99.359375 312.355469 99.640625 312.269531 99.910156 312.160156 C 100.183594 312.050781 100.441406 311.914062 100.683594 311.75 C 100.929688 311.589844 101.152344 311.40625 101.363281 311.199219 C 101.570312 310.992188 101.753906 310.769531 101.917969 310.527344 L 102.679688 309.398438 L 102.679688 321.429688 L 38.570312 321.429688 C 38.25 321.386719 37.933594 321.378906 37.613281 321.40625 C 37.296875 321.433594 36.980469 321.492188 36.675781 321.585938 C 36.371094 321.679688 36.078125 321.804688 35.796875 321.957031 C 35.515625 322.113281 35.257812 322.296875 35.015625 322.507812 C 34.773438 322.71875 34.558594 322.953125 34.367188 323.210938 C 34.179688 323.46875 34.015625 323.742188 33.882812 324.035156 C 33.753906 324.328125 33.652344 324.628906 33.585938 324.941406 C 33.515625 325.257812 33.484375 325.574219 33.484375 325.894531 C 33.484375 326.214844 33.515625 326.53125 33.585938 326.84375 C 33.652344 327.15625 33.753906 327.457031 33.882812 327.75 C 34.015625 328.042969 34.179688 328.316406 34.367188 328.574219 C 34.558594 328.832031 34.773438 329.066406 35.015625 329.277344 C 35.257812 329.488281 35.515625 329.671875 35.796875 329.828125 C 36.078125 329.984375 36.371094 330.105469 36.675781 330.199219 C 36.980469 330.292969 37.296875 330.351562 37.613281 330.378906 C 37.933594 330.40625 38.25 330.398438 38.570312 330.355469 L 336.429688 330.355469 C 336.746094 330.398438 337.066406 330.40625 337.382812 330.378906 C 337.703125 330.351562 338.015625 330.292969 338.320312 330.199219 C 338.628906 330.105469 338.921875 329.984375 339.203125 329.828125 C 339.480469 329.671875 339.742188 329.488281 339.980469 329.277344 C 340.222656 329.066406 340.4375 328.832031 340.628906 328.574219 C 340.820312 328.316406 340.980469 328.042969 341.113281 327.75 C 341.246094 327.457031 341.34375 327.15625 341.414062 326.84375 C 341.480469 326.53125 341.515625 326.214844 341.515625 325.894531 C 341.515625 325.574219 341.480469 325.257812 341.414062 324.941406 C 341.34375 324.628906 341.246094 324.328125 341.113281 324.035156 C 340.980469 323.742188 340.820312 323.46875 340.628906 323.210938 C 340.4375 322.953125 340.222656 322.71875 339.980469 322.507812 C 339.742188 322.296875 339.480469 322.113281 339.203125 321.957031 C 338.921875 321.804688 338.628906 321.679688 338.320312 321.585938 C 338.015625 321.492188 337.703125 321.433594 337.382812 321.40625 C 337.066406 321.378906 336.746094 321.386719 336.429688 321.429688 Z M 336.429688 321.429688 " fill-opacity="1" fill-rule="nonzero"/><path fill="#004aad" d="M 19.160156 98.238281 L 22.476562 93.875 L 20.382812 92.6875 L 18.253906 97.574219 L 18.179688 97.574219 L 16.015625 92.722656 L 13.882812 93.945312 L 17.167969 98.207031 L 17.167969 98.273438 L 12.035156 97.613281 L 12.035156 99.988281 L 17.203125 99.324219 L 17.203125 99.394531 L 13.882812 103.652344 L 15.875 104.910156 L 18.148438 99.988281 L 18.214844 99.988281 L 20.308594 104.875 L 22.511719 103.617188 L 19.160156 99.425781 L 19.160156 99.355469 L 24.429688 99.988281 L 24.429688 97.613281 L 19.160156 98.308594 Z M 101.074219 59.753906 L 102.984375 57.238281 L 101.777344 56.554688 L 100.550781 59.371094 L 100.511719 59.371094 L 99.265625 56.574219 L 98.035156 57.277344 L 99.929688 59.730469 L 99.929688 59.773438 L 96.972656 59.390625 L 96.972656 60.757812 L 99.949219 60.378906 L 99.949219 60.417969 L 98.035156 62.871094 L 99.183594 63.59375 L 100.492188 60.757812 L 100.53125 60.757812 L 101.738281 63.574219 L 103.003906 62.851562 L 101.074219 60.433594 L 101.074219 60.394531 L 104.109375 60.757812 L 104.109375 59.390625 L 101.074219 59.792969 Z M 345.980469 106.503906 L 345.980469 104.175781 L 340.808594 104.859375 L 340.808594 104.789062 L 344.066406 100.507812 L 342.011719 99.34375 L 339.921875 104.136719 L 339.851562 104.136719 L 337.726562 99.378906 L 335.636719 100.578125 L 338.855469 104.757812 L 338.855469 104.824219 L 333.820312 104.175781 L 333.820312 106.503906 L 338.890625 105.851562 L 338.890625 105.921875 L 335.636719 110.101562 L 337.589844 111.335938 L 339.816406 106.503906 L 339.882812 106.503906 L 341.941406 111.300781 L 344.097656 110.066406 L 340.808594 105.957031 L 340.808594 105.886719 Z M 282.238281 52.648438 L 285.046875 48.953125 L 283.273438 47.949219 L 281.472656 52.085938 L 281.414062 52.085938 L 279.582031 47.976562 L 277.777344 49.011719 L 280.554688 52.617188 L 280.554688 52.675781 L 276.210938 52.117188 L 276.210938 54.125 L 280.585938 53.5625 L 280.585938 53.621094 L 277.777344 57.226562 L 279.460938 58.292969 L 281.382812 54.125 L 281.441406 54.125 L 283.214844 58.261719 L 285.074219 57.199219 L 282.238281 53.652344 L 282.238281 53.589844 L 286.699219 54.125 L 286.699219 52.117188 L 282.238281 52.707031 Z M 263.738281 341.519531 L 245.191406 341.519531 C 244.628906 341.5625 244.09375 341.707031 243.585938 341.953125 C 243.078125 342.195312 242.632812 342.527344 242.25 342.941406 C 241.867188 343.355469 241.574219 343.824219 241.367188 344.347656 C 241.164062 344.875 241.058594 345.417969 241.058594 345.980469 C 241.058594 346.546875 241.164062 347.089844 241.367188 347.617188 C 241.574219 348.140625 241.867188 348.609375 242.25 349.023438 C 242.632812 349.4375 243.078125 349.765625 243.585938 350.011719 C 244.09375 350.257812 244.628906 350.402344 245.191406 350.445312 L 263.738281 350.445312 C 264.296875 350.402344 264.832031 350.257812 265.339844 350.011719 C 265.847656 349.765625 266.292969 349.4375 266.675781 349.023438 C 267.058594 348.609375 267.355469 348.140625 267.558594 347.617188 C 267.765625 347.089844 267.867188 346.546875 267.867188 345.980469 C 267.867188 345.417969 267.765625 344.875 267.558594 344.347656 C 267.355469 343.824219 267.058594 343.355469 266.675781 342.941406 C 266.292969 342.527344 265.847656 342.195312 265.339844 341.953125 C 264.832031 341.707031 264.296875 341.5625 263.738281 341.519531 Z M 129.808594 341.519531 L 111.261719 341.519531 C 110.703125 341.5625 110.167969 341.707031 109.660156 341.953125 C 109.152344 342.195312 108.707031 342.527344 108.324219 342.941406 C 107.941406 343.355469 107.644531 343.824219 107.441406 344.347656 C 107.234375 344.875 107.132812 345.417969 107.132812 345.980469 C 107.132812 346.546875 107.234375 347.089844 107.441406 347.617188 C 107.644531 348.140625 107.941406 348.609375 108.324219 349.023438 C 108.707031 349.4375 109.152344 349.765625 109.660156 350.011719 C 110.167969 350.257812 110.703125 350.402344 111.261719 350.445312 L 129.808594 350.445312 C 130.371094 350.402344 130.90625 350.257812 131.414062 350.011719 C 131.921875 349.765625 132.367188 349.4375 132.75 349.023438 C 133.132812 348.609375 133.425781 348.140625 133.632812 347.617188 C 133.835938 347.089844 133.941406 346.546875 133.941406 345.980469 C 133.941406 345.417969 133.835938 344.875 133.632812 344.347656 C 133.425781 343.824219 133.132812 343.355469 132.75 342.941406 C 132.367188 342.527344 131.921875 342.195312 131.414062 341.953125 C 130.90625 341.707031 130.371094 341.5625 129.808594 341.519531 Z M 232.144531 341.519531 L 142.855469 341.519531 C 142.5625 341.519531 142.273438 341.546875 141.984375 341.605469 C 141.699219 341.660156 141.417969 341.746094 141.148438 341.859375 C 140.878906 341.96875 140.621094 342.105469 140.375 342.269531 C 140.132812 342.433594 139.90625 342.617188 139.699219 342.824219 C 139.492188 343.03125 139.308594 343.257812 139.144531 343.5 C 138.980469 343.746094 138.84375 344.003906 138.734375 344.273438 C 138.621094 344.542969 138.535156 344.824219 138.480469 345.109375 C 138.421875 345.398438 138.394531 345.6875 138.394531 345.980469 C 138.394531 346.273438 138.421875 346.566406 138.480469 346.851562 C 138.535156 347.140625 138.621094 347.417969 138.734375 347.691406 C 138.84375 347.960938 138.980469 348.21875 139.144531 348.460938 C 139.308594 348.707031 139.492188 348.929688 139.699219 349.140625 C 139.90625 349.347656 140.132812 349.53125 140.375 349.695312 C 140.621094 349.855469 140.878906 349.996094 141.148438 350.105469 C 141.417969 350.21875 141.699219 350.304688 141.984375 350.359375 C 142.273438 350.417969 142.5625 350.445312 142.855469 350.445312 L 178.4375 350.445312 L 178.4375 354.910156 L 160.714844 354.910156 C 160.421875 354.910156 160.128906 354.9375 159.84375 354.996094 C 159.554688 355.054688 159.277344 355.136719 159.003906 355.25 C 158.734375 355.363281 158.476562 355.5 158.234375 355.664062 C 157.992188 355.824219 157.765625 356.011719 157.558594 356.21875 C 157.351562 356.425781 157.164062 356.652344 157.003906 356.894531 C 156.839844 357.136719 156.703125 357.394531 156.589844 357.667969 C 156.476562 357.9375 156.394531 358.214844 156.335938 358.503906 C 156.277344 358.792969 156.25 359.082031 156.25 359.375 C 156.25 359.667969 156.277344 359.957031 156.335938 360.246094 C 156.394531 360.535156 156.476562 360.8125 156.589844 361.082031 C 156.703125 361.355469 156.839844 361.613281 157.003906 361.855469 C 157.164062 362.097656 157.351562 362.324219 157.558594 362.53125 C 157.765625 362.738281 157.992188 362.925781 158.234375 363.085938 C 158.476562 363.25 158.734375 363.386719 159.003906 363.5 C 159.277344 363.613281 159.554688 363.695312 159.84375 363.753906 C 160.128906 363.8125 160.421875 363.839844 160.714844 363.839844 L 216.519531 363.839844 C 216.8125 363.839844 217.101562 363.8125 217.390625 363.753906 C 217.675781 363.695312 217.957031 363.613281 218.226562 363.5 C 218.496094 363.386719 218.753906 363.25 219 363.085938 C 219.242188 362.925781 219.46875 362.738281 219.675781 362.53125 C 219.882812 362.324219 220.066406 362.097656 220.230469 361.855469 C 220.394531 361.613281 220.53125 361.355469 220.640625 361.082031 C 220.753906 360.8125 220.839844 360.535156 220.894531 360.246094 C 220.953125 359.957031 220.980469 359.667969 220.980469 359.375 C 220.980469 359.082031 220.953125 358.792969 220.894531 358.503906 C 220.839844 358.214844 220.753906 357.9375 220.640625 357.667969 C 220.53125 357.394531 220.394531 357.136719 220.230469 356.894531 C 220.066406 356.652344 219.882812 356.425781 219.675781 356.21875 C 219.46875 356.011719 219.242188 355.824219 219 355.664062 C 218.753906 355.5 218.496094 355.363281 218.226562 355.25 C 217.957031 355.136719 217.675781 355.054688 217.390625 354.996094 C 217.101562 354.9375 216.8125 354.910156 216.519531 354.910156 L 196.5625 354.910156 L 196.5625 350.445312 L 232.144531 350.445312 C 232.4375 350.445312 232.726562 350.417969 233.015625 350.359375 C 233.300781 350.304688 233.582031 350.21875 233.851562 350.105469 C 234.121094 349.996094 234.378906 349.855469 234.625 349.695312 C 234.867188 349.53125 235.09375 349.347656 235.300781 349.140625 C 235.507812 348.929688 235.691406 348.707031 235.855469 348.460938 C 236.015625 348.21875 236.15625 347.960938 236.265625 347.691406 C 236.378906 347.417969 236.464844 347.140625 236.519531 346.851562 C 236.578125 346.566406 236.605469 346.273438 236.605469 345.980469 C 236.605469 345.6875 236.578125 345.398438 236.519531 345.109375 C 236.464844 344.824219 236.378906 344.542969 236.265625 344.273438 C 236.15625 344.003906 236.015625 343.746094 235.855469 343.5 C 235.691406 343.257812 235.507812 343.03125 235.300781 342.824219 C 235.09375 342.617188 234.867188 342.433594 234.621094 342.269531 C 234.378906 342.105469 234.121094 341.96875 233.851562 341.859375 C 233.582031 341.746094 233.300781 341.660156 233.015625 341.605469 C 232.726562 341.546875 232.4375 341.519531 232.144531 341.519531 Z M 232.144531 341.519531 " fill-opacity="1" fill-rule="nonzero"/></svg>