<?xml version="1.0" encoding="UTF-8" standalone="no"?>
<!-- Created with Inkscape (http://www.inkscape.org/) -->

<svg
   version="1.1"
   id="svg1012"
   xml:space="preserve"
   width="420mm"
   height="117mm"
   viewBox="0 0 1587.4017 442.20526"
   sodipodi:docname="tools-maven-plugin_no-fir.svg"
   inkscape:version="1.1.2 (0a00cf5339, 2022-02-04)"
   xmlns:inkscape="http://www.inkscape.org/namespaces/inkscape"
   xmlns:sodipodi="http://sodipodi.sourceforge.net/DTD/sodipodi-0.dtd"
   xmlns="http://www.w3.org/2000/svg"
   xmlns:svg="http://www.w3.org/2000/svg"><defs
     id="defs1016"><rect
       x="777.99866"
       y="1092.8792"
       width="991.30701"
       height="321.5722"
       id="rect6942" /><clipPath
       clipPathUnits="userSpaceOnUse"
       id="clipPath1026"><path
         d="M 0,1600 H 1600 V 0 H 0 Z"
         id="path1024" /></clipPath></defs><sodipodi:namedview
     id="namedview1014"
     pagecolor="#ffffff"
     bordercolor="#666666"
     borderopacity="1.0"
     inkscape:pageshadow="2"
     inkscape:pageopacity="0.0"
     inkscape:pagecheckerboard="0"
     showgrid="false"
     inkscape:zoom="0.40781252"
     inkscape:cx="707.43292"
     inkscape:cy="674.32947"
     inkscape:window-width="1870"
     inkscape:window-height="1021"
     inkscape:window-x="50"
     inkscape:window-y="27"
     inkscape:window-maximized="1"
     inkscape:current-layer="g1018"
     units="mm"
     inkscape:document-units="mm" /><g
     id="g1018"
     inkscape:groupmode="layer"
     inkscape:label="Copy of Yupiik_logo_MASTER"
     transform="matrix(1.3333333,0,0,-1.3333333,0,2133.3333)"><path
       d="m 893.62126,1593.3143 h 29.35055 v -160.0986 h -29.35055 z m 246.59404,-2e-4 h 37.5597 l -66.9918,-80.0501 66.9903,-80.0485 h -37.5582 l -54.7009,65.3709 h -37.8035 v -65.3709 h -29.5722 c -2.2654,102.995 -1.5623,140.9559 0,160.0986 h 29.5722 v -65.3756 h 37.8035 z M 636.80672,1464.1219 v 129.193 h 29.57373 v -129.193 c 0,-8.599 -3.03773,-15.8993 -9.11471,-21.9024 -6.08171,-6.0047 -13.34429,-9.0032 -21.79238,-9.0032 h -98.27954 c -8.60068,0 -15.9009,2.9985 -21.90405,9.0032 -6.00313,6.0031 -9.00627,13.3034 -9.00627,21.9024 v 129.193 h 29.35053 v -129.193 c 0,-1.0377 0.51734,-1.555 1.55979,-1.555 h 98.27954 c 0.88831,0 1.33336,0.5173 1.33336,1.555 m 319.07222,129.1924 h 29.35054 v -160.0986 h -29.35054 z m -121.17695,-74.2695 v 43.1398 c 0,1.0346 -0.52206,1.5551 -1.55507,1.5551 h -98.05937 c -1.04091,0 -1.55825,-0.5205 -1.55825,-1.5551 v -43.1398 c 0,-1.0393 0.51734,-1.555 1.55825,-1.555 h 98.05937 c 1.03301,0 1.55507,0.5157 1.55507,1.555 m -130.52318,74.0454 h 128.96811 c 8.59596,0 15.93238,-3.0393 22.01408,-9.1163 6.0771,-6.0802 9.11483,-13.3396 9.11483,-21.7893 v -43.1398 c 0,-8.4496 -3.03773,-15.7137 -9.11483,-21.7908 -6.0817,-6.0817 -13.41812,-9.1179 -22.01408,-9.1179 l -98.95088,-0.2232 -0.66674,0.2232 v -54.9196 h -29.35049 z m -256.37483,0.2239 h 35.13195 l -74.04536,-100.2858 v -59.8128 h -29.35212 v 59.8128 l -74.04537,100.2858 h 34.91185 l 53.81115,-68.0438 z"
       style="fill:#1b449b;fill-opacity:1;fill-rule:nonzero;stroke:none;stroke-width:1.17924"
       id="path1578" /><text
       xml:space="preserve"
       transform="matrix(1.1792417,0,0,-1.1792417,-603.02075,2710.4031)"
       id="text6940"
       style="font-style:normal;font-weight:normal;font-size:110.24px;line-height:1.25;font-family:sans-serif;white-space:pre;shape-inside:url(#rect6942);fill:#ff7837;fill-opacity:1;stroke:none"><tspan
         x="777.99805"
         y="1190.4155"
         id="tspan2014"><tspan
           style="font-family:Purisa;-inkscape-font-specification:Purisa;fill:#0000ff"
           id="tspan2012">Tools Maven</tspan></tspan></text><g
       id="g38827"
       transform="matrix(0.59250238,0,0,-0.59250238,23.589504,1589.3286)"><path
         style="fill:#bdfdff"
         d="m 505.766,114.218 -30.098,-30.096 -30.102,-30.1 c -8.31,-8.312 -21.787,-8.312 -30.099,0 l -60.199,60.196 c -3.991,3.991 -6.235,9.406 -6.235,15.05 0,5.644 2.242,11.057 6.235,15.049 l 15.05,15.05 -60.199,60.199 15.049,15.049 10e-4,0.001 15.047,15.047 60.199,-60.199 15.049,15.049 c 4.156,4.156 9.603,6.235 15.049,6.235 5.446,0 10.894,-2.079 15.049,-6.235 l 60.199,-60.199 c 3.991,-3.991 6.235,-9.406 6.235,-15.049 0.005,-5.641 -2.238,-11.055 -6.23,-15.047 z"
         id="path38690" /><path
         style="fill:#5286fa"
         d="m 365.336,274.785 c -0.011,-0.011 -0.021,-0.024 -0.031,-0.034 l -25.085,-25.085 -15.047,-15.047 -10e-4,-0.001 -15.049,-15.049 -16.229,-16.228 -8.855,-8.855 c -2.858,-2.859 -6.331,-4.709 -9.99,-5.602 -6.982,-1.703 -14.654,0.148 -20.109,5.602 l -3.719,3.717 -72.835,72.835 -25.339,25.339 -20.577,20.575 -42.01,42.01 c -30.427,30.43 -30.425,79.94 0.001,110.367 14.738,14.737 34.333,22.853 55.178,22.854 0.003,0 0.004,0 0.006,0 20.841,0 40.438,-8.117 55.178,-22.854 l 69.167,-69.165 15.049,-15.049 15.049,-15.049 50.166,-50.165 15.047,-15.049 0.003,-10e-4 c 3.991,-3.991 6.235,-9.404 6.235,-15.049 -10e-4,-5.631 -2.232,-11.028 -6.203,-15.017 z"
         id="path38692" /><path
         style="fill:#3d6deb"
         d="m 325.171,234.618 -15.049,-15.049 -16.229,-16.228 -8.855,-8.855 c -2.858,-2.859 -6.331,-4.709 -9.99,-5.602 -6.982,-1.703 -14.654,0.148 -20.109,5.602 l -3.719,3.717 -72.835,72.835 -25.339,25.339 -20.577,20.575 -42.009,42.01 c -30.427,30.43 -30.425,79.94 0.001,110.367 z"
         id="path38694" /><path
         style="fill:#9bc9ff"
         d="M 325.173,234.619 475.669,84.122 445.567,54.022 c -8.31,-8.312 -21.787,-8.312 -30.099,0 l -60.199,60.196 c -3.991,3.991 -6.235,9.406 -6.235,15.05 0,5.644 2.242,11.057 6.235,15.049 l 15.05,15.05 -60.199,60.199 z"
         id="path38696" /><g
         id="g38702"><path
           style="fill:#acabb1"
           d="M 254.308,63.428 C 209.736,18.854 141.585,7.158 84.733,34.317 c -6.236,2.978 -10.636,8.796 -11.804,15.606 -1.168,6.809 1.041,13.762 5.928,18.648 l 70.105,70.105 -15.049,15.049 -15.052,15.05 -70.104,-70.104 c -4.885,-4.887 -11.851,-7.094 -18.648,-5.928 -6.811,1.168 -12.628,5.569 -15.606,11.804 -27.158,56.856 -15.459,125.004 29.111,169.575 24.543,24.543 55.889,39.21 88.857,42.831 l 20.575,-20.575 25.339,-25.339 36.42,-36.42 36.414,-36.414 3.719,-3.717 c 5.454,-5.454 13.126,-7.304 20.109,-5.602 3.659,0.892 7.133,2.744 9.99,5.602 l 8.855,8.855 c 12.069,-50.269 -2.52,-102.85 -39.584,-139.915 z"
           id="path38698" /><path
           style="fill:#acabb1"
           d="m 449.517,358.971 -84.181,-84.184 c 3.971,3.988 6.202,9.385 6.202,15.015 0,5.646 -2.242,11.059 -6.235,15.049 l -0.003,10e-4 -15.047,15.048 -25.083,25.082 -25.083,25.083 -15.049,15.049 -15.049,15.049 69.165,69.167 c 15.215,15.212 35.197,22.817 55.181,22.817 19.985,0 39.97,-7.607 55.184,-22.82 14.739,-14.739 22.856,-34.336 22.856,-55.182 -10e-4,-20.843 -8.118,-40.439 -22.858,-55.174 z"
           id="path38700" /></g><g
         id="g38708"><path
           style="fill:#898890"
           d="M 118.862,168.775 48.757,98.671 c -4.885,-4.887 -11.851,-7.094 -18.648,-5.928 -6.811,1.168 -12.628,5.569 -15.606,11.804 -27.158,56.856 -15.459,125.004 29.111,169.575 24.543,24.543 55.889,39.21 88.857,42.831 l 20.575,-20.575 25.339,-25.339 36.42,-36.42 -80.892,-80.892 z"
           id="path38704" /><path
           style="fill:#898890"
           d="m 300.087,370.067 -15.049,15.049 -15.049,15.049 69.165,69.167 c 15.215,15.212 35.197,22.817 55.181,22.817 19.985,0 39.97,-7.607 55.184,-22.82 L 325.173,344.982 Z"
           id="path38706" /></g><g
         id="g38710" /><g
         id="g38712" /><g
         id="g38714" /><g
         id="g38716" /><g
         id="g38718" /><g
         id="g38720" /><g
         id="g38722" /><g
         id="g38724" /><g
         id="g38726" /><g
         id="g38728" /><g
         id="g38730" /><g
         id="g38732" /><g
         id="g38734" /><g
         id="g38736" /><g
         id="g38738" /></g></g></svg>
