<?xml version="1.0" encoding="UTF-8" standalone="no"?>
<!-- Created with Inkscape (http://www.inkscape.org/) -->

<svg
   version="1.1"
   id="svg1012"
   xml:space="preserve"
   width="420mm"
   height="117mm"
   viewBox="0 0 1587.4017 442.20526"
   sodipodi:docname="uship.svg"
   inkscape:version="1.1.2 (0a00cf5339, 2022-02-04)"
   xmlns:inkscape="http://www.inkscape.org/namespaces/inkscape"
   xmlns:sodipodi="http://sodipodi.sourceforge.net/DTD/sodipodi-0.dtd"
   xmlns="http://www.w3.org/2000/svg"
   xmlns:svg="http://www.w3.org/2000/svg"><defs
     id="defs1016"><rect
       x="777.99866"
       y="1092.8792"
       width="991.30701"
       height="321.5722"
       id="rect6942" /><clipPath
       clipPathUnits="userSpaceOnUse"
       id="clipPath1026"><path
         d="M 0,1600 H 1600 V 0 H 0 Z"
         id="path1024" /></clipPath></defs><sodipodi:namedview
     id="namedview1014"
     pagecolor="#ffffff"
     bordercolor="#666666"
     borderopacity="1.0"
     inkscape:pageshadow="2"
     inkscape:pageopacity="0.0"
     inkscape:pagecheckerboard="0"
     showgrid="false"
     inkscape:zoom="0.40781252"
     inkscape:cx="707.43292"
     inkscape:cy="478.1609"
     inkscape:window-width="1870"
     inkscape:window-height="1021"
     inkscape:window-x="50"
     inkscape:window-y="27"
     inkscape:window-maximized="1"
     inkscape:current-layer="g1018"
     units="mm"
     inkscape:document-units="mm" /><g
     id="g1018"
     inkscape:groupmode="layer"
     inkscape:label="Copy of Yupiik_logo_MASTER"
     transform="matrix(1.3333333,0,0,-1.3333333,0,2133.3333)"><g
       id="g1020"
       transform="matrix(1.5723222,0,0,1.5723222,-651.37161,176.81152)"><g
         id="g1022"
         clip-path="url(#clipPath1026)"><g
           id="g1028"
           transform="translate(508.127,749.9937)"><path
             d="M 0,0 -32.888,14.243 0,71.209 28.15,22.198 41.025,27.765 9.191,83.155 C 7.298,86.431 3.777,88.461 0,88.461 c -3.777,0 -7.298,-2.03 -9.192,-5.306 L -45.759,19.816 -61.444,26.608 0,133.029 61.445,26.608 Z M 54.815,-23.734 17.529,-7.592 39.904,2.096 Z M 75.372,30.347 9.191,144.975 c -1.893,3.276 -5.414,5.306 -9.191,5.306 -3.777,0 -7.298,-2.03 -9.187,-5.306 L -75.377,30.342 c -1.508,-2.618 -1.829,-5.764 -0.882,-8.637 0.952,-2.869 3.086,-5.204 5.856,-6.406 L -17.53,-7.592 -54.816,-23.734 -44.225,-5.275 -57.1,0.292 -71.905,-25.465 c -2.291,-3.978 -1.781,-8.952 1.273,-12.376 2.063,-2.313 4.958,-3.548 7.913,-3.548 1.421,0 2.858,0.288 4.224,0.876 l 51.532,22.314 v -25.104 c 0,-3.847 3.117,-6.966 6.965,-6.966 3.848,0 6.967,3.119 6.967,6.966 v 25.102 l 51.52,-22.307 c 4.213,-1.828 9.089,-0.756 12.142,2.667 3.054,3.424 3.565,8.398 1.274,12.376 l -19.13,33.133 17.629,7.631 c 2.769,1.202 4.902,3.537 5.854,6.406 0.949,2.873 0.626,6.019 -0.886,8.642"
             style="fill:#00b2ef;fill-opacity:1;fill-rule:nonzero;stroke:none"
             id="path1030" /></g><g
           id="g1032"
           transform="translate(704.4033,851.8169)" /><g
           id="g1036"
           transform="translate(824.6094,769.6504)" /><g
           id="g1040"
           transform="translate(950.4712,804.5815)" /><g
           id="g1048"
           transform="translate(1144.7783,851.8169)" /></g></g><path
       d="m 893.62126,1593.3143 h 29.35055 v -160.0986 h -29.35055 z m 246.59404,-2e-4 h 37.5597 l -66.9918,-80.0501 66.9903,-80.0485 h -37.5582 l -54.7009,65.3709 h -37.8035 v -65.3709 h -29.5722 c -2.2654,102.995 -1.5623,140.9559 0,160.0986 h 29.5722 v -65.3756 h 37.8035 z M 636.80672,1464.1219 v 129.193 h 29.57373 v -129.193 c 0,-8.599 -3.03773,-15.8993 -9.11471,-21.9024 -6.08171,-6.0047 -13.34429,-9.0032 -21.79238,-9.0032 h -98.27954 c -8.60068,0 -15.9009,2.9985 -21.90405,9.0032 -6.00313,6.0031 -9.00627,13.3034 -9.00627,21.9024 v 129.193 h 29.35053 v -129.193 c 0,-1.0377 0.51734,-1.555 1.55979,-1.555 h 98.27954 c 0.88831,0 1.33336,0.5173 1.33336,1.555 m 319.07222,129.1924 h 29.35054 v -160.0986 h -29.35054 z m -121.17695,-74.2695 v 43.1398 c 0,1.0346 -0.52206,1.5551 -1.55507,1.5551 h -98.05937 c -1.04091,0 -1.55825,-0.5205 -1.55825,-1.5551 v -43.1398 c 0,-1.0393 0.51734,-1.555 1.55825,-1.555 h 98.05937 c 1.03301,0 1.55507,0.5157 1.55507,1.555 m -130.52318,74.0454 h 128.96811 c 8.59596,0 15.93238,-3.0393 22.01408,-9.1163 6.0771,-6.0802 9.11483,-13.3396 9.11483,-21.7893 v -43.1398 c 0,-8.4496 -3.03773,-15.7137 -9.11483,-21.7908 -6.0817,-6.0817 -13.41812,-9.1179 -22.01408,-9.1179 l -98.95088,-0.2232 -0.66674,0.2232 v -54.9196 h -29.35049 z m -256.37483,0.2239 h 35.13195 l -74.04536,-100.2858 v -59.8128 h -29.35212 v 59.8128 l -74.04537,100.2858 h 34.91185 l 53.81115,-68.0438 z"
       style="fill:#1b449b;fill-opacity:1;fill-rule:nonzero;stroke:none;stroke-width:1.17924"
       id="path1578" /><text
       xml:space="preserve"
       transform="matrix(1.1792417,0,0,-1.1792417,-385.61107,2758.4733)"
       id="text6940"
       style="font-style:normal;font-weight:normal;font-size:148.401px;line-height:1.25;font-family:sans-serif;white-space:pre;shape-inside:url(#rect6942);fill:#ff7837;fill-opacity:1;stroke:none"><tspan
         x="777.99805"
         y="1224.179"
         id="tspan66929"><tspan
           style="font-family:Purisa;-inkscape-font-specification:Purisa;fill:#000080"
           id="tspan66925">μ</tspan><tspan
           style="font-family:Purisa;-inkscape-font-specification:Purisa;fill:#000080"
           id="tspan66927">ship</tspan></tspan></text><g
       id="g65955"
       transform="matrix(0.48730419,0,0,-0.48730419,25.00372,1565.4828)"><g
         id="g61837"><path
           style="fill:#434c6d"
           d="m 69.425,91.117 c -4.79,0 -8.678,-3.888 -8.678,-8.678 V 21.693 c 0,-4.79 3.888,-8.678 8.678,-8.678 4.79,0 8.678,3.888 8.678,8.678 v 60.746 c 0,4.79 -3.887,8.678 -8.678,8.678"
           id="path61777" /><polygon
           style="fill:#ffd479"
           points="381.837,273.354 277.701,273.354 277.701,342.778 381.837,342.778 "
           id="polygon61779" /><polygon
           style="fill:#48a0dc"
           points="485.972,273.354 381.837,273.354 381.837,342.778 485.972,342.778 "
           id="polygon61781" /><polygon
           style="fill:#ee8472"
           points="459.938,203.93 355.803,203.93 355.803,273.354 459.938,273.354 "
           id="polygon61783" /><polygon
           style="fill:#48a0dc"
           points="416.548,134.507 312.413,134.507 312.413,203.93 416.548,203.93 "
           id="polygon61785" /><polygon
           style="fill:#03466f;fill-opacity:1"
           points="355.803,203.93 251.667,203.93 251.667,273.354 355.803,273.354 "
           id="polygon61787" /><path
           style="fill:#0049ef;fill-opacity:1"
           d="m 485.532,407.554 v 0 c -27.5,19.647 -46.08,49.412 -51.634,82.753 H 26.086 C 11.681,490.307 0,478.626 0,464.221 v -121.44 h 503.322 v 30.199 c 0,13.721 -6.621,26.599 -17.79,34.574"
           id="path61789" /><path
           style="fill:#000080;fill-opacity:1"
           d="m 485.532,407.554 v 0 c 11.169,-7.975 17.79,-20.853 17.79,-34.573 V 342.782 H 0 v 78.102 h 469.955 c 4.834,-4.8 9.971,-9.321 15.577,-13.33"
           id="path61791" /><polygon
           style="fill:#434c6d"
           points="130.176,203.93 78.108,203.93 78.108,255.998 130.176,255.998 "
           id="polygon61793" /><polygon
           style="fill:#6d7ca0"
           points="121.493,342.778 121.493,255.998 78.103,255.998 78.103,203.93 121.493,203.93 121.493,169.219 17.358,169.219 17.358,342.778 "
           id="polygon61795" /><polygon
           style="fill:#434c6d"
           points="104.142,117.151 34.718,117.151 34.718,169.219 104.142,169.219 "
           id="polygon61797" /><polygon
           style="fill:#6d7ca0"
           points="95.464,82.439 43.396,82.439 43.396,117.151 95.464,117.151 "
           id="polygon61799" /><polygon
           style="fill:#48a0dc"
           points="277.701,273.354 173.565,273.354 173.565,342.778 277.701,342.778 "
           id="polygon61801" /><path
           style="fill:#0072ff;fill-opacity:1"
           d="m 449.085,448.094 c -1.241,-0.686 -2.595,-1.18 -4.113,-1.18 h -54.463 c -4.79,0 -8.678,3.888 -8.678,8.678 0,4.79 3.888,8.678 8.678,8.678 h 50.723 c 2.212,-5.589 4.876,-10.969 7.853,-16.176"
           id="path61803" /><g
           id="g61817"><path
             style="fill:#337faa"
             d="m 381.832,169.219 c 4.79,0 8.678,-3.888 8.678,-8.678 v -26.034 h -17.356 v 26.034 c 0,4.79 3.888,8.678 8.678,8.678"
             id="path61805" /><path
             style="fill:#337faa"
             d="m 347.12,169.219 c 4.79,0 8.678,-3.888 8.678,-8.678 v -26.034 h -17.356 v 26.034 c 0,4.79 3.888,8.678 8.678,8.678"
             id="path61807" /><path
             style="fill:#337faa"
             d="m 451.256,308.066 c 4.79,0 8.678,-3.888 8.678,-8.678 v -26.034 h -17.356 v 26.034 c 0,4.79 3.888,8.678 8.678,8.678"
             id="path61809" /><path
             style="fill:#337faa"
             d="m 416.544,308.066 c 4.79,0 8.678,-3.888 8.678,-8.678 v -26.034 h -17.356 v 26.034 c 0,4.79 3.888,8.678 8.678,8.678"
             id="path61811" /><path
             style="fill:#337faa"
             d="m 242.985,308.066 c 4.79,0 8.678,-3.888 8.678,-8.678 v -26.034 h -17.356 v 26.034 c 0,4.79 3.888,8.678 8.678,8.678"
             id="path61813" /><path
             style="fill:#337faa"
             d="m 208.273,308.066 c 4.79,0 8.678,-3.888 8.678,-8.678 v -26.034 h -17.356 v 26.034 c 0,4.79 3.888,8.678 8.678,8.678"
             id="path61815" /></g><g
           id="g61823"><path
             style="fill:#db776a"
             d="m 425.222,238.642 c 4.79,0 8.678,-3.888 8.678,-8.678 V 203.93 h -17.356 v 26.034 c 0,4.791 3.888,8.678 8.678,8.678"
             id="path61819" /><path
             style="fill:#db776a"
             d="m 390.51,238.642 c 4.79,0 8.678,-3.888 8.678,-8.678 V 203.93 h -17.356 v 26.034 c 0,4.791 3.888,8.678 8.678,8.678"
             id="path61821" /></g><g
           id="g61829"><path
             style="fill:#301f47;fill-opacity:1"
             d="m 286.375,238.642 c 4.79,0 8.678,-3.888 8.678,-8.678 V 203.93 h -17.356 v 26.034 c 0,4.791 3.887,8.678 8.678,8.678"
             id="path61825" /><path
             style="fill:#301f47;fill-opacity:1"
             d="m 321.086,238.642 c 4.79,0 8.678,-3.888 8.678,-8.678 V 203.93 h -17.356 v 26.034 c 10e-4,4.791 3.888,8.678 8.678,8.678"
             id="path61827" /></g><g
           id="g61835"><path
             style="fill:#f89954"
             d="m 347.12,308.066 c 4.79,0 8.678,-3.888 8.678,-8.678 v -26.034 h -17.356 v 26.034 c 0,4.79 3.888,8.678 8.678,8.678"
             id="path61831" /><path
             style="fill:#f89954"
             d="m 312.409,308.066 c 4.79,0 8.678,-3.888 8.678,-8.678 v -26.034 h -17.356 v 26.034 c 0,4.79 3.887,8.678 8.678,8.678"
             id="path61833" /></g></g><g
         id="g61839" /><g
         id="g61841" /><g
         id="g61843" /><g
         id="g61845" /><g
         id="g61847" /><g
         id="g61849" /><g
         id="g61851" /><g
         id="g61853" /><g
         id="g61855" /><g
         id="g61857" /><g
         id="g61859" /><g
         id="g61861" /><g
         id="g61863" /><g
         id="g61865" /><g
         id="g61867" /></g></g></svg>
