<?xml version="1.0" encoding="UTF-8" standalone="no"?>
<!-- Created with Inkscape (http://www.inkscape.org/) -->

<svg
   version="1.1"
   id="svg1012"
   xml:space="preserve"
   width="420mm"
   height="117mm"
   viewBox="0 0 1587.4017 442.20526"
   sodipodi:docname="logging.svg"
   inkscape:version="1.1.2 (0a00cf5339, 2022-02-04)"
   xmlns:inkscape="http://www.inkscape.org/namespaces/inkscape"
   xmlns:sodipodi="http://sodipodi.sourceforge.net/DTD/sodipodi-0.dtd"
   xmlns="http://www.w3.org/2000/svg"
   xmlns:svg="http://www.w3.org/2000/svg"><defs
     id="defs1016"><rect
       x="777.99866"
       y="1092.8792"
       width="991.30701"
       height="321.5722"
       id="rect6942" /><clipPath
       clipPathUnits="userSpaceOnUse"
       id="clipPath1026"><path
         d="M 0,1600 H 1600 V 0 H 0 Z"
         id="path1024" /></clipPath></defs><sodipodi:namedview
     id="namedview1014"
     pagecolor="#ffffff"
     bordercolor="#666666"
     borderopacity="1.0"
     inkscape:pageshadow="2"
     inkscape:pageopacity="0.0"
     inkscape:pagecheckerboard="0"
     showgrid="false"
     inkscape:zoom="0.40781252"
     inkscape:cx="707.43292"
     inkscape:cy="478.1609"
     inkscape:window-width="1870"
     inkscape:window-height="1021"
     inkscape:window-x="50"
     inkscape:window-y="27"
     inkscape:window-maximized="1"
     inkscape:current-layer="g1018"
     units="mm"
     inkscape:document-units="mm" /><g
     id="g1018"
     inkscape:groupmode="layer"
     inkscape:label="Copy of Yupiik_logo_MASTER"
     transform="matrix(1.3333333,0,0,-1.3333333,0,2133.3333)"><g
       id="g1020"
       transform="matrix(1.5723222,0,0,1.5723222,-651.37161,176.81152)"><g
         id="g1022"
         clip-path="url(#clipPath1026)"><g
           id="g1028"
           transform="translate(508.127,749.9937)"><path
             d="M 0,0 -32.888,14.243 0,71.209 28.15,22.198 41.025,27.765 9.191,83.155 C 7.298,86.431 3.777,88.461 0,88.461 c -3.777,0 -7.298,-2.03 -9.192,-5.306 L -45.759,19.816 -61.444,26.608 0,133.029 61.445,26.608 Z M 54.815,-23.734 17.529,-7.592 39.904,2.096 Z M 75.372,30.347 9.191,144.975 c -1.893,3.276 -5.414,5.306 -9.191,5.306 -3.777,0 -7.298,-2.03 -9.187,-5.306 L -75.377,30.342 c -1.508,-2.618 -1.829,-5.764 -0.882,-8.637 0.952,-2.869 3.086,-5.204 5.856,-6.406 L -17.53,-7.592 -54.816,-23.734 -44.225,-5.275 -57.1,0.292 -71.905,-25.465 c -2.291,-3.978 -1.781,-8.952 1.273,-12.376 2.063,-2.313 4.958,-3.548 7.913,-3.548 1.421,0 2.858,0.288 4.224,0.876 l 51.532,22.314 v -25.104 c 0,-3.847 3.117,-6.966 6.965,-6.966 3.848,0 6.967,3.119 6.967,6.966 v 25.102 l 51.52,-22.307 c 4.213,-1.828 9.089,-0.756 12.142,2.667 3.054,3.424 3.565,8.398 1.274,12.376 l -19.13,33.133 17.629,7.631 c 2.769,1.202 4.902,3.537 5.854,6.406 0.949,2.873 0.626,6.019 -0.886,8.642"
             style="fill:#00b2ef;fill-opacity:1;fill-rule:nonzero;stroke:none"
             id="path1030" /></g><g
           id="g1032"
           transform="translate(704.4033,851.8169)" /><g
           id="g1036"
           transform="translate(824.6094,769.6504)" /><g
           id="g1040"
           transform="translate(950.4712,804.5815)" /><g
           id="g1048"
           transform="translate(1144.7783,851.8169)" /></g></g><path
       d="m 893.62126,1593.3143 h 29.35055 v -160.0986 h -29.35055 z m 246.59404,-2e-4 h 37.5597 l -66.9918,-80.0501 66.9903,-80.0485 h -37.5582 l -54.7009,65.3709 h -37.8035 v -65.3709 h -29.5722 c -2.2654,102.995 -1.5623,140.9559 0,160.0986 h 29.5722 v -65.3756 h 37.8035 z M 636.80672,1464.1219 v 129.193 h 29.57373 v -129.193 c 0,-8.599 -3.03773,-15.8993 -9.11471,-21.9024 -6.08171,-6.0047 -13.34429,-9.0032 -21.79238,-9.0032 h -98.27954 c -8.60068,0 -15.9009,2.9985 -21.90405,9.0032 -6.00313,6.0031 -9.00627,13.3034 -9.00627,21.9024 v 129.193 h 29.35053 v -129.193 c 0,-1.0377 0.51734,-1.555 1.55979,-1.555 h 98.27954 c 0.88831,0 1.33336,0.5173 1.33336,1.555 m 319.07222,129.1924 h 29.35054 v -160.0986 h -29.35054 z m -121.17695,-74.2695 v 43.1398 c 0,1.0346 -0.52206,1.5551 -1.55507,1.5551 h -98.05937 c -1.04091,0 -1.55825,-0.5205 -1.55825,-1.5551 v -43.1398 c 0,-1.0393 0.51734,-1.555 1.55825,-1.555 h 98.05937 c 1.03301,0 1.55507,0.5157 1.55507,1.555 m -130.52318,74.0454 h 128.96811 c 8.59596,0 15.93238,-3.0393 22.01408,-9.1163 6.0771,-6.0802 9.11483,-13.3396 9.11483,-21.7893 v -43.1398 c 0,-8.4496 -3.03773,-15.7137 -9.11483,-21.7908 -6.0817,-6.0817 -13.41812,-9.1179 -22.01408,-9.1179 l -98.95088,-0.2232 -0.66674,0.2232 v -54.9196 h -29.35049 z m -256.37483,0.2239 h 35.13195 l -74.04536,-100.2858 v -59.8128 h -29.35212 v 59.8128 l -74.04537,100.2858 h 34.91185 l 53.81115,-68.0438 z"
       style="fill:#1b449b;fill-opacity:1;fill-rule:nonzero;stroke:none;stroke-width:1.17924"
       id="path1578" /><text
       xml:space="preserve"
       transform="matrix(1.1792417,0,0,-1.1792417,-507.55267,2742.6593)"
       id="text6940"
       style="font-style:normal;font-weight:normal;font-size:135.681px;line-height:1.25;font-family:sans-serif;white-space:pre;shape-inside:url(#rect6942);fill:#007462;fill-opacity:1;stroke:none"><tspan
         x="777.99805"
         y="1212.9248"
         id="tspan82139"><tspan
           style="font-family:Purisa;-inkscape-font-specification:Purisa;fill:#552200"
           id="tspan82137">Logging</tspan></tspan></text><g
       id="g75883"
       transform="matrix(3.6765733,-1.5284738,-1.5284738,-3.6765733,63.240133,1584.024)"><path
         style="fill:#745a49"
         d="m 36.028,0 c -11.046,0 -17,3.515 -17,6 V 6.5 16.849 L 14.693,12.514 14.575,12.396 C 13.989,11.81 10.632,11.396 8.028,14 5.424,16.603 4.561,21.238 5.147,21.824 l 0.118,0.118 13.763,13.763 V 52.5 c 0,3.038 5.954,5.5 17,5.5 11.046,0 17,-2.462 17,-5.5 V 6.5 6 c 0,-2.485 -5.954,-6 -17,-6 z"
         id="path75630" /><path
         style="fill:#d1a170"
         d="M 36.028,0 C 25.89,0 20.056,2.959 19.163,5.368 20.056,8.546 25.89,11 36.028,11 46.166,11 52,8.546 52.893,5.368 52.001,2.959 46.166,0 36.028,0 Z"
         id="path75632" /><path
         style="fill:#d1a170"
         d="M 15.735,13.556 14.693,12.514 14.575,12.396 C 13.989,11.81 10.632,11.396 8.028,14 5.424,16.603 4.561,21.238 5.147,21.824 l 0.118,0.118 0.952,0.952 c 6.334,-1.911 8.696,-5.948 9.518,-9.338 z"
         id="path75634" /><path
         style="fill:#3d3028"
         d="m 46.028,50 c -0.552,0 -1,0.448 -1,1 v 6.304 c 0.716,-0.129 1.377,-0.276 2,-0.435 V 51 c 0,-0.552 -0.448,-1 -1,-1 z"
         id="path75636" /><path
         style="fill:#3d3028"
         d="m 40.028,47 c -0.552,0 -1,0.448 -1,1 v 9.928 c 0.691,-0.031 1.358,-0.072 2,-0.124 V 48 c 0,-0.552 -0.448,-1 -1,-1 z"
         id="path75638" /><path
         style="fill:#3d3028"
         d="m 36.028,54 c -0.552,0 -1,0.448 -1,1 v 2.986 c 0.333,0.005 0.657,0.014 1,0.014 0.343,0 0.666,-0.009 1,-0.014 V 55 c 0,-0.552 -0.448,-1 -1,-1 z"
         id="path75640" /><path
         style="fill:#3d3028"
         d="m 31.028,49 c -0.552,0 -1,0.448 -1,1 v 7.716 c 0.642,0.065 1.304,0.122 2,0.165 V 50 c 0,-0.552 -0.448,-1 -1,-1 z"
         id="path75642" /><path
         style="fill:#3d3028"
         d="m 24.028,42 c -0.552,0 -1,0.448 -1,1 v 13.251 c 0.601,0.225 1.268,0.431 2,0.618 V 43 c 0,-0.552 -0.448,-1 -1,-1 z"
         id="path75644" /><path
         style="fill:#3d3028"
         d="m 23.006,8.924 0.022,10.078 c 0.001,0.552 0.449,0.998 1,0.998 0,0 0.001,0 0.001,0 0.553,-0.001 1,-0.45 0.999,-1.002 L 25.008,9.659 C 24.276,9.436 23.606,9.192 23.006,8.924 Z"
         id="path75646" /><path
         style="fill:#3d3028"
         d="m 27.991,10.364 0.037,15.638 c 0.001,0.551 0.449,0.998 1,0.998 0,0 0.001,0 0.002,0 0.552,-0.001 0.999,-0.45 0.998,-1.002 l -0.036,-15.34 c -0.697,-0.085 -1.368,-0.181 -2.001,-0.294 z"
         id="path75648" /><path
         style="fill:#3d3028"
         d="M 37.028,10.985 V 16 c 0,0.552 0.448,1 1,1 0.552,0 1,-0.448 1,-1 v -5.083 c -0.645,0.034 -1.313,0.056 -2,0.068 z"
         id="path75650" /><path
         style="fill:#3d3028"
         d="M 44.028,10.37 V 27 c 0,0.552 0.448,1 1,1 0.552,0 1,-0.448 1,-1 V 9.94 c -0.628,0.159 -1.291,0.304 -2,0.43 z"
         id="path75652" /><path
         style="fill:#3d3028"
         d="M 48.028,9.336 V 19 c 0,0.552 0.448,1 1,1 0.552,0 1,-0.448 1,-1 V 8.435 c -0.585,0.325 -1.248,0.628 -2,0.901 z"
         id="path75654" /><g
         id="g75656" /><g
         id="g75658" /><g
         id="g75660" /><g
         id="g75662" /><g
         id="g75664" /><g
         id="g75666" /><g
         id="g75668" /><g
         id="g75670" /><g
         id="g75672" /><g
         id="g75674" /><g
         id="g75676" /><g
         id="g75678" /><g
         id="g75680" /><g
         id="g75682" /><g
         id="g75684" /></g></g></svg>
