<?xml version="1.0" encoding="UTF-8" standalone="no"?>
<!-- Created with Inkscape (http://www.inkscape.org/) -->

<svg
   version="1.1"
   id="svg1012"
   xml:space="preserve"
   width="420mm"
   height="117mm"
   viewBox="0 0 1587.4017 442.20526"
   sodipodi:docname="batch_no-fir.svg"
   inkscape:version="1.1.2 (0a00cf5339, 2022-02-04)"
   xmlns:inkscape="http://www.inkscape.org/namespaces/inkscape"
   xmlns:sodipodi="http://sodipodi.sourceforge.net/DTD/sodipodi-0.dtd"
   xmlns="http://www.w3.org/2000/svg"
   xmlns:svg="http://www.w3.org/2000/svg"><defs
     id="defs1016"><rect
       x="777.99866"
       y="1092.8792"
       width="991.30701"
       height="321.5722"
       id="rect6942" /><clipPath
       clipPathUnits="userSpaceOnUse"
       id="clipPath1026"><path
         d="M 0,1600 H 1600 V 0 H 0 Z"
         id="path1024" /></clipPath></defs><sodipodi:namedview
     id="namedview1014"
     pagecolor="#ffffff"
     bordercolor="#666666"
     borderopacity="1.0"
     inkscape:pageshadow="2"
     inkscape:pageopacity="0.0"
     inkscape:pagecheckerboard="0"
     showgrid="false"
     inkscape:zoom="0.40781252"
     inkscape:cx="138.54405"
     inkscape:cy="478.1609"
     inkscape:window-width="1870"
     inkscape:window-height="1021"
     inkscape:window-x="50"
     inkscape:window-y="27"
     inkscape:window-maximized="1"
     inkscape:current-layer="g1018"
     units="mm"
     inkscape:document-units="mm" /><g
     id="g1018"
     inkscape:groupmode="layer"
     inkscape:label="Copy of Yupiik_logo_MASTER"
     transform="matrix(1.3333333,0,0,-1.3333333,0,2133.3333)"><path
       d="m 893.62126,1593.3143 h 29.35055 v -160.0986 h -29.35055 z m 246.59404,-2e-4 h 37.5597 l -66.9918,-80.0501 66.9903,-80.0485 h -37.5582 l -54.7009,65.3709 h -37.8035 v -65.3709 h -29.5722 c -2.2654,102.995 -1.5623,140.9559 0,160.0986 h 29.5722 v -65.3756 h 37.8035 z M 636.80672,1464.1219 v 129.193 h 29.57373 v -129.193 c 0,-8.599 -3.03773,-15.8993 -9.11471,-21.9024 -6.08171,-6.0047 -13.34429,-9.0032 -21.79238,-9.0032 h -98.27954 c -8.60068,0 -15.9009,2.9985 -21.90405,9.0032 -6.00313,6.0031 -9.00627,13.3034 -9.00627,21.9024 v 129.193 h 29.35053 v -129.193 c 0,-1.0377 0.51734,-1.555 1.55979,-1.555 h 98.27954 c 0.88831,0 1.33336,0.5173 1.33336,1.555 m 319.07222,129.1924 h 29.35054 v -160.0986 h -29.35054 z m -121.17695,-74.2695 v 43.1398 c 0,1.0346 -0.52206,1.5551 -1.55507,1.5551 h -98.05937 c -1.04091,0 -1.55825,-0.5205 -1.55825,-1.5551 v -43.1398 c 0,-1.0393 0.51734,-1.555 1.55825,-1.555 h 98.05937 c 1.03301,0 1.55507,0.5157 1.55507,1.555 m -130.52318,74.0454 h 128.96811 c 8.59596,0 15.93238,-3.0393 22.01408,-9.1163 6.0771,-6.0802 9.11483,-13.3396 9.11483,-21.7893 v -43.1398 c 0,-8.4496 -3.03773,-15.7137 -9.11483,-21.7908 -6.0817,-6.0817 -13.41812,-9.1179 -22.01408,-9.1179 l -98.95088,-0.2232 -0.66674,0.2232 v -54.9196 h -29.35049 z m -256.37483,0.2239 h 35.13195 l -74.04536,-100.2858 v -59.8128 h -29.35212 v 59.8128 l -74.04537,100.2858 h 34.91185 l 53.81115,-68.0438 z"
       style="fill:#1b449b;fill-opacity:1;fill-rule:nonzero;stroke:none;stroke-width:1.17924"
       id="path1578" /><text
       xml:space="preserve"
       transform="matrix(1.1792417,0,0,-1.1792417,-446.64271,2746.9995)"
       id="text6940"
       style="font-style:normal;font-weight:normal;font-size:169.601px;line-height:1.25;font-family:sans-serif;white-space:pre;shape-inside:url(#rect6942);fill:#007462;fill-opacity:1;stroke:none"><tspan
         x="777.99805"
         y="1242.936"
         id="tspan2309"><tspan
           style="font-family:Purisa;-inkscape-font-specification:Purisa"
           id="tspan2307">Batch</tspan></tspan></text><g
       id="g72380"
       transform="matrix(0.70539397,0,0,-0.70539397,33.308008,1571.0488)"><path
         style="fill:#194f82"
         d="m 195.167,21.657 c 36.848,0 71.564,11.378 100.784,32.517 h -16.808 c -5.947,0 -10.861,4.848 -10.861,10.861 0,6.013 4.848,10.861 10.861,10.861 h 46.093 c 5.947,0 10.861,-4.848 10.861,-10.861 V 18.941 c 0,-5.947 -4.848,-10.861 -10.861,-10.861 -6.013,0 -10.861,4.848 -10.861,10.861 V 40.598 C 280.242,14.093 238.545,0 195.167,0 87.337,0 0.064,87.273 0.064,195.103 c 0,5.947 4.848,10.861 10.861,10.861 6.013,0 10.861,-4.848 10.861,-10.861 C 21.721,99.685 99.749,21.657 195.167,21.657 Z"
         id="path72252" /><path
         style="fill:#56ace0"
         d="m 302.998,180.428 v 29.285 h -17.907 c -4.848,0 -9.244,3.232 -10.279,8.145 -2.198,6.529 -4.331,12.477 -7.564,17.907 -2.715,4.331 -1.616,9.762 1.616,12.994 l 12.994,12.994 -20.558,20.622 -12.994,-12.994 c -3.232,-3.232 -8.663,-3.814 -12.994,-1.616 -5.43,3.232 -11.378,5.947 -17.907,7.564 -4.848,1.099 -8.145,5.43 -8.145,10.279 v 17.907 h -29.285 v -17.907 c 0,-4.849 -3.232,-9.244 -8.145,-10.279 -6.529,-2.198 -12.477,-4.331 -17.907,-7.564 -4.331,-2.715 -9.762,-1.616 -12.994,1.616 l -12.994,12.994 -20.558,-20.622 12.994,-12.994 c 3.232,-3.232 3.814,-8.663 1.616,-12.994 -3.232,-5.43 -5.947,-11.378 -7.564,-17.907 -1.099,-4.848 -5.43,-8.145 -10.279,-8.145 H 86.238 v -29.285 h 17.907 c 4.848,0 9.244,-3.232 10.279,-8.145 2.198,-6.529 4.331,-12.477 7.564,-17.907 2.715,-4.331 1.616,-9.762 -1.616,-12.994 l -12.994,-12.994 20.558,-20.558 12.994,12.994 c 3.232,3.232 8.663,3.814 12.994,1.616 5.43,-3.232 11.378,-5.947 17.907,-7.564 4.848,-1.099 8.145,-5.43 8.145,-10.279 V 86.691 h 29.285 v 17.907 c 0,4.848 3.232,9.244 8.145,10.279 6.529,2.198 12.477,4.331 17.907,7.564 4.331,2.715 9.762,1.616 12.994,-1.616 l 12.994,-12.994 20.622,20.558 -13.059,13.059 c -3.232,3.232 -3.814,8.663 -1.616,12.994 3.232,5.43 5.947,11.378 7.564,17.907 1.099,4.331 5.43,7.564 10.279,8.145 h 17.907 z"
         id="path72254" /><g
         id="g72262"><path
           style="fill:#194f82"
           d="m 313.858,158.772 h -21.139 c -1.099,-2.715 -2.198,-4.848 -3.232,-7.564 l 14.61,-14.61 c 4.331,-3.814 4.331,-10.861 0,-15.192 L 268.348,85.657 c -4.331,-4.331 -10.861,-4.331 -15.192,0 l -14.61,14.61 c -2.198,-1.099 -4.848,-2.198 -7.564,-3.232 v -21.14 c 0,-5.947 -4.848,-10.861 -10.861,-10.861 H 169.18 c -5.947,0 -10.861,4.848 -10.861,10.861 v 21.139 c -2.715,1.099 -4.848,2.198 -7.564,3.232 l -14.61,-14.61 c -3.814,-4.331 -10.861,-4.331 -15.192,0 l -35.814,35.75 c -4.331,4.331 -4.331,10.861 0,15.192 l 14.61,14.61 c -1.099,2.198 -2.198,4.848 -3.232,7.564 h -21.14 c -5.947,0 -10.861,4.848 -10.861,10.861 v 50.941 c 0,5.947 4.848,10.861 10.861,10.861 h 21.139 c 1.099,2.715 2.198,4.848 3.232,7.564 l -14.61,14.61 c -4.331,4.331 -4.331,10.861 0,15.192 l 35.749,35.75 c 4.331,4.331 11.378,4.331 15.192,0 l 14.61,-14.61 c 2.198,1.099 4.848,2.198 7.564,3.232 v 21.139 c 0,5.947 4.848,10.861 10.861,10.861 h 50.941 c 5.947,0 10.861,-4.848 10.861,-10.861 v -21.139 c 2.715,-1.099 4.848,-2.198 7.564,-3.232 l 14.61,14.61 c 4.331,4.331 10.861,4.331 15.192,0 l 35.749,-35.749 c 4.331,-4.331 4.331,-11.378 0,-15.192 l -14.093,-15.192 c 1.099,-2.198 2.198,-4.848 3.232,-7.564 h 21.139 c 5.947,0 10.861,-4.848 10.861,-10.861 v -50.941 c -0.451,-5.367 -5.364,-10.28 -11.312,-10.28 z m -10.86,50.941 h -17.907 c -4.848,0 -9.244,3.232 -10.279,8.145 -1.616,6.529 -4.331,12.477 -7.564,17.907 -2.198,4.331 -1.616,9.762 1.616,12.994 l 12.994,12.994 -20.558,20.622 -12.994,-12.994 c -3.232,-3.232 -8.663,-4.331 -12.994,-1.616 -5.43,3.232 -11.378,5.43 -17.907,7.564 -4.848,1.099 -8.145,5.43 -8.145,10.279 v 17.907 h -29.285 v -17.907 c 0,-4.849 -3.232,-9.244 -8.145,-10.279 -6.529,-1.616 -12.477,-4.331 -17.907,-7.564 -4.331,-2.198 -9.762,-1.616 -12.994,1.616 l -12.994,12.994 -20.622,-20.622 12.994,-12.994 c 3.232,-3.232 4.331,-8.663 1.616,-12.994 -3.232,-5.43 -5.43,-11.378 -7.564,-17.907 -1.099,-4.848 -5.43,-8.145 -10.279,-8.145 H 86.173 v -29.285 h 17.907 c 4.848,0 9.244,-3.232 10.279,-8.145 1.616,-6.529 4.331,-12.477 7.564,-17.907 2.198,-4.331 1.616,-9.762 -1.616,-12.994 l -12.994,-12.994 20.622,-20.558 12.994,12.994 c 3.232,3.232 8.663,4.331 12.994,1.616 5.43,-3.232 11.378,-5.43 17.907,-7.564 4.848,-1.099 8.145,-5.43 8.145,-10.279 V 86.691 h 29.285 v 17.907 c 0,4.848 3.232,9.244 8.145,10.279 6.529,1.616 12.477,4.331 17.907,7.564 4.331,2.198 9.762,1.616 12.994,-1.616 l 12.994,-12.994 20.622,20.622 -13.059,12.994 c -3.232,3.232 -4.331,8.663 -1.616,12.994 3.232,5.43 5.43,11.378 7.564,17.907 1.099,4.848 5.43,8.145 10.279,8.145 h 17.907 z"
           id="path72256" /><path
           style="fill:#194f82"
           d="m 195.167,124.638 c -39.046,0 -70.465,31.418 -70.465,70.465 0,39.047 31.418,70.465 70.465,70.465 39.047,0 70.465,-31.418 70.465,-70.465 0,-39.047 -31.418,-70.465 -70.465,-70.465 z m -48.808,70.465 c 0,-27.087 21.657,-48.808 48.808,-48.808 27.151,0 48.808,21.657 48.808,48.808 0,27.151 -21.657,48.808 -48.808,48.808 -27.151,0 -48.808,-21.721 -48.808,-48.808 z"
           id="path72258" /><path
           style="fill:#194f82"
           d="m 379.41,184.242 c -5.947,0 -10.861,4.848 -10.861,10.861 0,95.418 -78.028,173.446 -173.446,173.446 -36.848,0 -71.564,-11.378 -100.784,-32.517 h 16.808 c 5.947,0 10.861,-4.848 10.861,-10.861 0,-5.947 -4.848,-10.861 -10.861,-10.861 H 65.034 c -5.947,0 -10.861,4.848 -10.861,10.861 v 46.093 c 0,5.947 4.848,10.861 10.861,10.861 6.013,0 10.861,-4.848 10.861,-10.861 v -21.657 c 34.133,26.57 75.895,40.663 119.208,40.663 107.83,0 195.103,-87.273 195.103,-195.103 0.064,-6.011 -4.784,-10.925 -10.796,-10.925 z"
           id="path72260" /></g><path
         style="fill:#ffffff"
         d="m 195.167,146.295 v 0 c -26.958,0 -48.808,21.85 -48.808,48.808 v 0 c 0,26.958 21.85,48.808 48.808,48.808 v 0 c 26.958,0 48.808,-21.85 48.808,-48.808 v 0 c 0,-26.958 -21.85,-48.808 -48.808,-48.808 z"
         id="path72264" /><g
         id="g72266" /><g
         id="g72268" /><g
         id="g72270" /><g
         id="g72272" /><g
         id="g72274" /><g
         id="g72276" /><g
         id="g72278" /><g
         id="g72280" /><g
         id="g72282" /><g
         id="g72284" /><g
         id="g72286" /><g
         id="g72288" /><g
         id="g72290" /><g
         id="g72292" /><g
         id="g72294" /></g></g></svg>
