<svg xmlns="http://www.w3.org/2000/svg" xmlns:xlink="http://www.w3.org/1999/xlink" width="500" zoomAndPan="magnify" viewBox="0 0 375 374.999991" height="500" preserveAspectRatio="xMidYMid meet" version="1.0"><rect x="-37.5" width="450" fill="#ffffff" y="-37.499999" height="449.999989" fill-opacity="1"/><rect x="-37.5" width="450" fill="#ffffff" y="-37.499999" height="449.999989" fill-opacity="1"/><rect x="-37.5" width="450" fill="#ffffff" y="-37.499999" height="449.999989" fill-opacity="1"/><path fill="#2d4356" d="M 8.929688 334.820312 C 8.929688 335.113281 8.898438 335.40625 8.84375 335.691406 C 8.785156 335.980469 8.699219 336.257812 8.589844 336.53125 C 8.476562 336.800781 8.339844 337.058594 8.175781 337.300781 C 8.011719 337.546875 7.828125 337.769531 7.621094 337.976562 C 7.414062 338.183594 7.1875 338.371094 6.945312 338.535156 C 6.699219 338.695312 6.445312 338.832031 6.171875 338.945312 C 5.902344 339.058594 5.621094 339.144531 5.335938 339.199219 C 5.046875 339.257812 4.757812 339.285156 4.464844 339.285156 C 4.171875 339.285156 3.878906 339.257812 3.59375 339.199219 C 3.304688 339.144531 3.027344 339.058594 2.757812 338.945312 C 2.484375 338.832031 2.226562 338.695312 1.984375 338.535156 C 1.742188 338.371094 1.515625 338.183594 1.308594 337.976562 C 1.101562 337.769531 0.914062 337.546875 0.753906 337.300781 C 0.589844 337.058594 0.453125 336.800781 0.339844 336.53125 C 0.226562 336.257812 0.144531 335.980469 0.0859375 335.691406 C 0.0273438 335.40625 0 335.113281 0 334.820312 C 0 334.527344 0.0273438 334.238281 0.0859375 333.949219 C 0.144531 333.664062 0.226562 333.382812 0.339844 333.113281 C 0.453125 332.84375 0.589844 332.585938 0.753906 332.339844 C 0.914062 332.097656 1.101562 331.871094 1.308594 331.664062 C 1.515625 331.457031 1.742188 331.273438 1.984375 331.109375 C 2.226562 330.945312 2.484375 330.808594 2.757812 330.695312 C 3.027344 330.585938 3.304688 330.5 3.59375 330.441406 C 3.878906 330.386719 4.171875 330.355469 4.464844 330.355469 C 4.757812 330.355469 5.046875 330.386719 5.335938 330.441406 C 5.621094 330.5 5.902344 330.585938 6.171875 330.695312 C 6.445312 330.808594 6.699219 330.945312 6.945312 331.109375 C 7.1875 331.273438 7.414062 331.457031 7.621094 331.664062 C 7.828125 331.871094 8.011719 332.097656 8.175781 332.339844 C 8.339844 332.585938 8.476562 332.84375 8.589844 333.113281 C 8.699219 333.382812 8.785156 333.664062 8.84375 333.949219 C 8.898438 334.238281 8.929688 334.527344 8.929688 334.820312 Z M 8.929688 334.820312 " fill-opacity="1" fill-rule="nonzero"/><path fill="#2d4356" d="M 24.554688 330.355469 L 17.855469 330.355469 C 17.5625 330.355469 17.273438 330.386719 16.984375 330.441406 C 16.699219 330.5 16.417969 330.585938 16.148438 330.695312 C 15.878906 330.808594 15.621094 330.945312 15.375 331.109375 C 15.132812 331.273438 14.90625 331.457031 14.699219 331.664062 C 14.492188 331.871094 14.308594 332.097656 14.144531 332.339844 C 13.980469 332.585938 13.84375 332.84375 13.734375 333.113281 C 13.621094 333.382812 13.535156 333.664062 13.480469 333.949219 C 13.421875 334.238281 13.394531 334.527344 13.394531 334.820312 C 13.394531 335.113281 13.421875 335.40625 13.480469 335.691406 C 13.535156 335.980469 13.621094 336.257812 13.734375 336.53125 C 13.84375 336.800781 13.980469 337.058594 14.144531 337.300781 C 14.308594 337.546875 14.492188 337.769531 14.699219 337.976562 C 14.90625 338.183594 15.132812 338.371094 15.375 338.535156 C 15.621094 338.695312 15.878906 338.832031 16.148438 338.945312 C 16.417969 339.058594 16.699219 339.144531 16.984375 339.199219 C 17.273438 339.257812 17.5625 339.285156 17.855469 339.285156 L 24.554688 339.285156 C 24.847656 339.285156 25.136719 339.257812 25.425781 339.199219 C 25.710938 339.144531 25.992188 339.058594 26.261719 338.945312 C 26.53125 338.832031 26.789062 338.695312 27.035156 338.535156 C 27.277344 338.371094 27.503906 338.183594 27.710938 337.976562 C 27.917969 337.769531 28.101562 337.546875 28.265625 337.300781 C 28.429688 337.058594 28.566406 336.800781 28.679688 336.53125 C 28.789062 336.257812 28.875 335.980469 28.933594 335.691406 C 28.988281 335.40625 29.019531 335.113281 29.019531 334.820312 C 29.019531 334.527344 28.988281 334.238281 28.933594 333.949219 C 28.875 333.664062 28.789062 333.382812 28.679688 333.113281 C 28.566406 332.84375 28.429688 332.585938 28.265625 332.339844 C 28.101562 332.097656 27.917969 331.871094 27.710938 331.664062 C 27.503906 331.457031 27.277344 331.273438 27.035156 331.109375 C 26.789062 330.945312 26.53125 330.808594 26.261719 330.695312 C 25.992188 330.585938 25.710938 330.5 25.425781 330.441406 C 25.136719 330.386719 24.847656 330.355469 24.554688 330.355469 Z M 357.144531 330.355469 L 350.445312 330.355469 C 350.152344 330.355469 349.863281 330.386719 349.574219 330.441406 C 349.289062 330.5 349.007812 330.585938 348.738281 330.695312 C 348.46875 330.808594 348.210938 330.945312 347.964844 331.109375 C 347.722656 331.273438 347.496094 331.457031 347.289062 331.664062 C 347.082031 331.871094 346.898438 332.097656 346.734375 332.339844 C 346.570312 332.585938 346.433594 332.84375 346.320312 333.113281 C 346.210938 333.382812 346.125 333.664062 346.066406 333.949219 C 346.011719 334.238281 345.980469 334.527344 345.980469 334.820312 C 345.980469 335.113281 346.011719 335.40625 346.066406 335.691406 C 346.125 335.980469 346.210938 336.257812 346.320312 336.53125 C 346.433594 336.800781 346.570312 337.058594 346.734375 337.300781 C 346.898438 337.546875 347.082031 337.769531 347.289062 337.976562 C 347.496094 338.183594 347.722656 338.371094 347.964844 338.535156 C 348.210938 338.695312 348.46875 338.832031 348.738281 338.945312 C 349.007812 339.058594 349.289062 339.144531 349.574219 339.199219 C 349.863281 339.257812 350.152344 339.285156 350.445312 339.285156 L 357.144531 339.285156 C 357.4375 339.285156 357.726562 339.257812 358.015625 339.199219 C 358.300781 339.144531 358.582031 339.058594 358.851562 338.945312 C 359.121094 338.832031 359.378906 338.695312 359.621094 338.535156 C 359.867188 338.371094 360.09375 338.183594 360.300781 337.976562 C 360.507812 337.769531 360.691406 337.546875 360.855469 337.300781 C 361.015625 337.058594 361.15625 336.800781 361.265625 336.53125 C 361.378906 336.257812 361.464844 335.980469 361.519531 335.691406 C 361.578125 335.40625 361.605469 335.113281 361.605469 334.820312 C 361.605469 334.527344 361.578125 334.238281 361.519531 333.949219 C 361.464844 333.664062 361.378906 333.382812 361.265625 333.113281 C 361.15625 332.84375 361.015625 332.585938 360.855469 332.339844 C 360.691406 332.097656 360.507812 331.871094 360.300781 331.664062 C 360.09375 331.457031 359.867188 331.273438 359.621094 331.109375 C 359.378906 330.945312 359.121094 330.808594 358.851562 330.695312 C 358.582031 330.585938 358.300781 330.5 358.015625 330.441406 C 357.726562 330.386719 357.4375 330.355469 357.144531 330.355469 Z M 357.144531 330.355469 " fill-opacity="1" fill-rule="nonzero"/><path fill="#2d4356" d="M 375 334.820312 C 375 335.113281 374.972656 335.40625 374.914062 335.691406 C 374.855469 335.980469 374.773438 336.257812 374.660156 336.53125 C 374.546875 336.800781 374.410156 337.058594 374.246094 337.300781 C 374.085938 337.546875 373.898438 337.769531 373.691406 337.976562 C 373.484375 338.183594 373.257812 338.371094 373.015625 338.535156 C 372.773438 338.695312 372.515625 338.832031 372.242188 338.945312 C 371.972656 339.058594 371.695312 339.144531 371.40625 339.199219 C 371.117188 339.257812 370.828125 339.285156 370.535156 339.285156 C 370.242188 339.285156 369.953125 339.257812 369.664062 339.199219 C 369.378906 339.144531 369.097656 339.058594 368.828125 338.945312 C 368.554688 338.832031 368.300781 338.695312 368.054688 338.535156 C 367.8125 338.371094 367.585938 338.183594 367.378906 337.976562 C 367.171875 337.769531 366.988281 337.546875 366.824219 337.300781 C 366.660156 337.058594 366.523438 336.800781 366.410156 336.53125 C 366.300781 336.257812 366.214844 335.980469 366.15625 335.691406 C 366.101562 335.40625 366.070312 335.113281 366.070312 334.820312 C 366.070312 334.527344 366.101562 334.238281 366.15625 333.949219 C 366.214844 333.664062 366.300781 333.382812 366.410156 333.113281 C 366.523438 332.84375 366.660156 332.585938 366.824219 332.339844 C 366.988281 332.097656 367.171875 331.871094 367.378906 331.664062 C 367.585938 331.457031 367.8125 331.273438 368.054688 331.109375 C 368.300781 330.945312 368.554688 330.808594 368.828125 330.695312 C 369.097656 330.585938 369.378906 330.5 369.664062 330.441406 C 369.953125 330.386719 370.242188 330.355469 370.535156 330.355469 C 370.828125 330.355469 371.117188 330.386719 371.40625 330.441406 C 371.695312 330.5 371.972656 330.585938 372.242188 330.695312 C 372.515625 330.808594 372.773438 330.945312 373.015625 331.109375 C 373.257812 331.273438 373.484375 331.457031 373.691406 331.664062 C 373.898438 331.871094 374.085938 332.097656 374.246094 332.339844 C 374.410156 332.585938 374.546875 332.84375 374.660156 333.113281 C 374.773438 333.382812 374.855469 333.664062 374.914062 333.949219 C 374.972656 334.238281 375 334.527344 375 334.820312 Z M 375 334.820312 " fill-opacity="1" fill-rule="nonzero"/><path fill="#004aad" d="M 263.738281 348.214844 L 245.191406 348.214844 C 244.628906 348.257812 244.09375 348.402344 243.585938 348.648438 C 243.078125 348.894531 242.632812 349.222656 242.25 349.636719 C 241.867188 350.050781 241.574219 350.519531 241.367188 351.046875 C 241.164062 351.570312 241.058594 352.113281 241.058594 352.679688 C 241.058594 353.242188 241.164062 353.785156 241.367188 354.3125 C 241.574219 354.835938 241.867188 355.304688 242.25 355.71875 C 242.632812 356.132812 243.078125 356.464844 243.585938 356.710938 C 244.09375 356.953125 244.628906 357.097656 245.191406 357.144531 L 263.738281 357.144531 C 264.296875 357.097656 264.832031 356.953125 265.339844 356.710938 C 265.847656 356.464844 266.292969 356.132812 266.675781 355.71875 C 267.058594 355.304688 267.355469 354.835938 267.558594 354.3125 C 267.765625 353.785156 267.867188 353.242188 267.867188 352.679688 C 267.867188 352.113281 267.765625 351.570312 267.558594 351.046875 C 267.355469 350.519531 267.058594 350.050781 266.675781 349.636719 C 266.292969 349.222656 265.847656 348.894531 265.339844 348.648438 C 264.832031 348.402344 264.296875 348.257812 263.738281 348.214844 Z M 129.808594 348.214844 L 111.261719 348.214844 C 110.703125 348.257812 110.167969 348.402344 109.660156 348.648438 C 109.152344 348.894531 108.707031 349.222656 108.324219 349.636719 C 107.941406 350.050781 107.644531 350.519531 107.441406 351.046875 C 107.234375 351.570312 107.132812 352.113281 107.132812 352.679688 C 107.132812 353.242188 107.234375 353.785156 107.441406 354.3125 C 107.644531 354.835938 107.941406 355.304688 108.324219 355.71875 C 108.707031 356.132812 109.152344 356.464844 109.660156 356.710938 C 110.167969 356.953125 110.703125 357.097656 111.261719 357.144531 L 129.808594 357.144531 C 130.371094 357.097656 130.90625 356.953125 131.414062 356.710938 C 131.921875 356.464844 132.367188 356.132812 132.75 355.71875 C 133.132812 355.304688 133.425781 354.835938 133.632812 354.3125 C 133.835938 353.785156 133.941406 353.242188 133.941406 352.679688 C 133.941406 352.113281 133.835938 351.570312 133.632812 351.046875 C 133.425781 350.519531 133.132812 350.050781 132.75 349.636719 C 132.367188 349.222656 131.921875 348.894531 131.414062 348.648438 C 130.90625 348.402344 130.371094 348.257812 129.808594 348.214844 Z M 232.144531 348.214844 L 142.855469 348.214844 C 142.5625 348.214844 142.273438 348.242188 141.984375 348.300781 C 141.699219 348.355469 141.417969 348.441406 141.148438 348.554688 C 140.878906 348.667969 140.621094 348.804688 140.375 348.964844 C 140.132812 349.128906 139.90625 349.316406 139.699219 349.523438 C 139.492188 349.730469 139.308594 349.953125 139.144531 350.199219 C 138.980469 350.441406 138.84375 350.699219 138.734375 350.96875 C 138.621094 351.242188 138.535156 351.519531 138.480469 351.808594 C 138.421875 352.09375 138.394531 352.386719 138.394531 352.679688 C 138.394531 352.972656 138.421875 353.261719 138.480469 353.550781 C 138.535156 353.835938 138.621094 354.117188 138.734375 354.386719 C 138.84375 354.65625 138.980469 354.914062 139.144531 355.160156 C 139.308594 355.402344 139.492188 355.628906 139.699219 355.835938 C 139.90625 356.042969 140.132812 356.226562 140.375 356.390625 C 140.621094 356.554688 140.878906 356.691406 141.148438 356.804688 C 141.417969 356.914062 141.699219 357 141.984375 357.058594 C 142.273438 357.113281 142.5625 357.144531 142.855469 357.144531 L 178.4375 357.144531 L 178.4375 361.605469 L 160.714844 361.605469 C 160.421875 361.605469 160.128906 361.636719 159.84375 361.691406 C 159.554688 361.75 159.277344 361.835938 159.003906 361.945312 C 158.734375 362.058594 158.476562 362.195312 158.234375 362.359375 C 157.992188 362.523438 157.765625 362.707031 157.558594 362.914062 C 157.351562 363.121094 157.164062 363.347656 157.003906 363.589844 C 156.839844 363.835938 156.703125 364.09375 156.589844 364.363281 C 156.476562 364.632812 156.394531 364.914062 156.335938 365.199219 C 156.277344 365.488281 156.25 365.777344 156.25 366.070312 C 156.25 366.363281 156.277344 366.65625 156.335938 366.941406 C 156.394531 367.230469 156.476562 367.507812 156.589844 367.78125 C 156.703125 368.050781 156.839844 368.308594 157.003906 368.550781 C 157.164062 368.796875 157.351562 369.019531 157.558594 369.226562 C 157.765625 369.433594 157.992188 369.621094 158.234375 369.785156 C 158.476562 369.945312 158.734375 370.082031 159.003906 370.195312 C 159.277344 370.308594 159.554688 370.394531 159.84375 370.449219 C 160.128906 370.507812 160.421875 370.535156 160.714844 370.535156 L 216.519531 370.535156 C 216.8125 370.535156 217.101562 370.507812 217.390625 370.449219 C 217.675781 370.394531 217.957031 370.308594 218.226562 370.195312 C 218.496094 370.082031 218.753906 369.945312 219 369.785156 C 219.242188 369.621094 219.46875 369.433594 219.675781 369.226562 C 219.882812 369.019531 220.066406 368.796875 220.230469 368.550781 C 220.394531 368.308594 220.53125 368.050781 220.640625 367.78125 C 220.753906 367.507812 220.839844 367.230469 220.894531 366.941406 C 220.953125 366.65625 220.980469 366.363281 220.980469 366.070312 C 220.980469 365.777344 220.953125 365.488281 220.894531 365.199219 C 220.839844 364.914062 220.753906 364.632812 220.640625 364.363281 C 220.53125 364.09375 220.394531 363.835938 220.230469 363.589844 C 220.066406 363.347656 219.882812 363.121094 219.675781 362.914062 C 219.46875 362.707031 219.242188 362.523438 219 362.359375 C 218.753906 362.195312 218.496094 362.058594 218.226562 361.945312 C 217.957031 361.835938 217.675781 361.75 217.390625 361.691406 C 217.101562 361.636719 216.8125 361.605469 216.519531 361.605469 L 196.5625 361.605469 L 196.5625 357.144531 L 232.144531 357.144531 C 232.4375 357.144531 232.726562 357.113281 233.015625 357.058594 C 233.300781 357 233.582031 356.914062 233.851562 356.804688 C 234.121094 356.691406 234.378906 356.554688 234.625 356.390625 C 234.867188 356.226562 235.09375 356.042969 235.300781 355.835938 C 235.507812 355.628906 235.691406 355.402344 235.855469 355.160156 C 236.015625 354.914062 236.15625 354.65625 236.265625 354.386719 C 236.378906 354.117188 236.464844 353.835938 236.519531 353.550781 C 236.578125 353.261719 236.605469 352.972656 236.605469 352.679688 C 236.605469 352.386719 236.578125 352.09375 236.519531 351.808594 C 236.464844 351.519531 236.378906 351.242188 236.265625 350.96875 C 236.15625 350.699219 236.015625 350.441406 235.855469 350.199219 C 235.691406 349.953125 235.507812 349.730469 235.300781 349.523438 C 235.09375 349.316406 234.867188 349.128906 234.621094 348.964844 C 234.378906 348.804688 234.121094 348.667969 233.851562 348.554688 C 233.582031 348.441406 233.300781 348.355469 233.015625 348.300781 C 232.726562 348.242188 232.4375 348.214844 232.144531 348.214844 Z M 232.144531 348.214844 " fill-opacity="1" fill-rule="nonzero"/><path fill="#2d4356" d="M 71.429688 299.105469 L 303.570312 299.105469 C 303.863281 299.105469 304.15625 299.078125 304.441406 299.019531 C 304.730469 298.964844 305.007812 298.878906 305.28125 298.765625 C 305.550781 298.65625 305.808594 298.515625 306.050781 298.355469 C 306.296875 298.191406 306.519531 298.007812 306.726562 297.800781 C 306.933594 297.59375 307.121094 297.367188 307.285156 297.121094 C 307.445312 296.878906 307.582031 296.621094 307.695312 296.351562 C 307.808594 296.082031 307.894531 295.800781 307.949219 295.515625 C 308.007812 295.226562 308.035156 294.9375 308.035156 294.644531 L 308.035156 93.75 C 308.035156 92.871094 307.949219 92 307.777344 91.136719 C 307.605469 90.277344 307.347656 89.4375 307.011719 88.628906 C 306.675781 87.816406 306.261719 87.042969 305.773438 86.3125 C 305.285156 85.582031 304.730469 84.90625 304.109375 84.285156 C 303.488281 83.664062 302.8125 83.109375 302.078125 82.617188 C 301.347656 82.128906 300.578125 81.71875 299.765625 81.378906 C 298.953125 81.042969 298.117188 80.789062 297.253906 80.617188 C 296.390625 80.445312 295.523438 80.359375 294.644531 80.355469 L 80.355469 80.355469 C 79.476562 80.359375 78.609375 80.445312 77.746094 80.617188 C 76.882812 80.789062 76.046875 81.042969 75.234375 81.378906 C 74.421875 81.71875 73.652344 82.128906 72.921875 82.617188 C 72.1875 83.109375 71.511719 83.664062 70.890625 84.285156 C 70.269531 84.90625 69.714844 85.582031 69.226562 86.3125 C 68.738281 87.042969 68.324219 87.816406 67.988281 88.628906 C 67.652344 89.4375 67.394531 90.277344 67.222656 91.136719 C 67.050781 92 66.964844 92.871094 66.964844 93.75 L 66.964844 294.644531 C 66.964844 294.9375 66.992188 295.226562 67.050781 295.515625 C 67.105469 295.800781 67.191406 296.082031 67.304688 296.351562 C 67.417969 296.621094 67.554688 296.878906 67.714844 297.121094 C 67.878906 297.367188 68.066406 297.59375 68.273438 297.800781 C 68.480469 298.007812 68.703125 298.191406 68.949219 298.355469 C 69.191406 298.519531 69.449219 298.65625 69.71875 298.765625 C 69.992188 298.878906 70.269531 298.964844 70.558594 299.019531 C 70.84375 299.078125 71.136719 299.105469 71.429688 299.105469 Z M 75.894531 93.75 C 75.894531 93.457031 75.921875 93.167969 75.980469 92.878906 C 76.035156 92.59375 76.121094 92.3125 76.234375 92.042969 C 76.347656 91.773438 76.484375 91.515625 76.648438 91.269531 C 76.808594 91.027344 76.996094 90.800781 77.203125 90.59375 C 77.410156 90.386719 77.632812 90.203125 77.878906 90.039062 C 78.121094 89.875 78.378906 89.738281 78.648438 89.625 C 78.921875 89.515625 79.199219 89.429688 79.488281 89.371094 C 79.773438 89.316406 80.0625 89.285156 80.355469 89.285156 L 294.644531 89.285156 C 294.9375 89.285156 295.226562 89.316406 295.511719 89.371094 C 295.800781 89.429688 296.078125 89.515625 296.351562 89.625 C 296.621094 89.738281 296.878906 89.875 297.121094 90.039062 C 297.367188 90.203125 297.589844 90.386719 297.796875 90.59375 C 298.003906 90.800781 298.191406 91.027344 298.351562 91.269531 C 298.515625 91.515625 298.652344 91.773438 298.765625 92.042969 C 298.878906 92.3125 298.964844 92.59375 299.019531 92.878906 C 299.078125 93.167969 299.105469 93.457031 299.105469 93.75 L 299.105469 116.070312 L 75.894531 116.070312 Z M 75.894531 125 L 299.105469 125 L 299.105469 290.179688 L 75.894531 290.179688 Z M 75.894531 125 " fill-opacity="1" fill-rule="nonzero"/><path fill="#004aad" d="M 285.714844 98.214844 L 276.785156 98.214844 C 276.492188 98.214844 276.203125 98.242188 275.914062 98.300781 C 275.628906 98.355469 275.347656 98.441406 275.078125 98.554688 C 274.804688 98.667969 274.550781 98.804688 274.304688 98.964844 C 274.0625 99.128906 273.835938 99.316406 273.628906 99.523438 C 273.421875 99.730469 273.238281 99.953125 273.074219 100.199219 C 272.910156 100.441406 272.773438 100.699219 272.660156 100.96875 C 272.550781 101.242188 272.464844 101.519531 272.40625 101.808594 C 272.351562 102.09375 272.320312 102.386719 272.320312 102.679688 C 272.320312 102.972656 272.351562 103.261719 272.40625 103.550781 C 272.464844 103.835938 272.550781 104.117188 272.660156 104.386719 C 272.773438 104.65625 272.910156 104.914062 273.074219 105.160156 C 273.238281 105.402344 273.421875 105.628906 273.628906 105.835938 C 273.835938 106.042969 274.0625 106.226562 274.304688 106.390625 C 274.550781 106.554688 274.804688 106.691406 275.078125 106.804688 C 275.347656 106.914062 275.628906 107 275.914062 107.058594 C 276.203125 107.113281 276.492188 107.144531 276.785156 107.144531 L 285.714844 107.144531 C 286.007812 107.144531 286.296875 107.113281 286.585938 107.058594 C 286.871094 107 287.152344 106.914062 287.421875 106.804688 C 287.695312 106.691406 287.949219 106.554688 288.195312 106.390625 C 288.4375 106.226562 288.664062 106.042969 288.871094 105.835938 C 289.078125 105.628906 289.261719 105.402344 289.425781 105.160156 C 289.589844 104.914062 289.726562 104.65625 289.839844 104.386719 C 289.949219 104.117188 290.035156 103.835938 290.09375 103.550781 C 290.148438 103.261719 290.179688 102.972656 290.179688 102.679688 C 290.179688 102.386719 290.148438 102.09375 290.09375 101.808594 C 290.035156 101.519531 289.949219 101.242188 289.839844 100.96875 C 289.726562 100.699219 289.589844 100.441406 289.425781 100.199219 C 289.261719 99.953125 289.078125 99.730469 288.871094 99.523438 C 288.664062 99.316406 288.4375 99.128906 288.195312 98.964844 C 287.949219 98.804688 287.695312 98.667969 287.421875 98.554688 C 287.152344 98.441406 286.871094 98.355469 286.585938 98.300781 C 286.296875 98.242188 286.007812 98.214844 285.714844 98.214844 Z M 258.929688 98.214844 L 250 98.214844 C 249.707031 98.214844 249.417969 98.242188 249.128906 98.300781 C 248.839844 98.355469 248.5625 98.441406 248.292969 98.554688 C 248.019531 98.667969 247.761719 98.804688 247.519531 98.964844 C 247.277344 99.128906 247.050781 99.316406 246.84375 99.523438 C 246.636719 99.730469 246.449219 99.953125 246.289062 100.199219 C 246.125 100.441406 245.988281 100.699219 245.875 100.96875 C 245.761719 101.242188 245.679688 101.519531 245.621094 101.808594 C 245.5625 102.09375 245.535156 102.386719 245.535156 102.679688 C 245.535156 102.972656 245.5625 103.261719 245.621094 103.550781 C 245.679688 103.835938 245.761719 104.117188 245.875 104.386719 C 245.988281 104.65625 246.125 104.914062 246.289062 105.160156 C 246.449219 105.402344 246.636719 105.628906 246.84375 105.835938 C 247.050781 106.042969 247.277344 106.226562 247.519531 106.390625 C 247.761719 106.554688 248.019531 106.691406 248.292969 106.804688 C 248.5625 106.914062 248.839844 107 249.128906 107.058594 C 249.417969 107.113281 249.707031 107.144531 250 107.144531 L 258.929688 107.144531 C 259.222656 107.144531 259.511719 107.113281 259.800781 107.058594 C 260.085938 107 260.367188 106.914062 260.636719 106.804688 C 260.90625 106.691406 261.164062 106.554688 261.410156 106.390625 C 261.652344 106.226562 261.878906 106.042969 262.085938 105.835938 C 262.292969 105.628906 262.476562 105.402344 262.640625 105.160156 C 262.804688 104.914062 262.941406 104.65625 263.054688 104.386719 C 263.164062 104.117188 263.25 103.835938 263.308594 103.550781 C 263.363281 103.261719 263.394531 102.972656 263.394531 102.679688 C 263.394531 102.386719 263.363281 102.09375 263.308594 101.808594 C 263.25 101.519531 263.164062 101.242188 263.054688 100.96875 C 262.941406 100.699219 262.804688 100.441406 262.640625 100.199219 C 262.476562 99.953125 262.292969 99.730469 262.085938 99.523438 C 261.878906 99.316406 261.652344 99.128906 261.410156 98.964844 C 261.164062 98.804688 260.90625 98.667969 260.636719 98.554688 C 260.367188 98.441406 260.085938 98.355469 259.800781 98.300781 C 259.511719 98.242188 259.222656 98.214844 258.929688 98.214844 Z M 103.792969 178.570312 L 116.480469 178.570312 C 116.296875 175.671875 116.179688 172.695312 116.136719 169.644531 L 103.792969 169.644531 C 103.5 169.644531 103.210938 169.671875 102.921875 169.730469 C 102.636719 169.785156 102.355469 169.871094 102.085938 169.984375 C 101.816406 170.09375 101.558594 170.230469 101.3125 170.394531 C 101.070312 170.558594 100.84375 170.742188 100.636719 170.949219 C 100.429688 171.15625 100.246094 171.382812 100.082031 171.625 C 99.917969 171.871094 99.78125 172.128906 99.671875 172.398438 C 99.558594 172.667969 99.472656 172.949219 99.417969 173.234375 C 99.359375 173.523438 99.332031 173.8125 99.332031 174.105469 C 99.332031 174.398438 99.359375 174.691406 99.417969 174.976562 C 99.472656 175.265625 99.558594 175.542969 99.671875 175.816406 C 99.78125 176.085938 99.917969 176.34375 100.082031 176.585938 C 100.246094 176.832031 100.429688 177.054688 100.636719 177.265625 C 100.84375 177.472656 101.070312 177.65625 101.3125 177.820312 C 101.558594 177.980469 101.816406 178.121094 102.085938 178.230469 C 102.355469 178.34375 102.636719 178.429688 102.921875 178.484375 C 103.210938 178.542969 103.5 178.570312 103.792969 178.570312 Z M 271.207031 169.644531 L 258.863281 169.644531 C 258.820312 172.695312 258.703125 175.671875 258.519531 178.570312 L 271.207031 178.570312 C 271.5 178.570312 271.789062 178.542969 272.078125 178.484375 C 272.363281 178.429688 272.644531 178.34375 272.914062 178.230469 C 273.183594 178.121094 273.441406 177.980469 273.683594 177.820312 C 273.929688 177.65625 274.15625 177.472656 274.363281 177.265625 C 274.570312 177.054688 274.753906 176.832031 274.917969 176.585938 C 275.078125 176.34375 275.21875 176.085938 275.328125 175.816406 C 275.441406 175.542969 275.527344 175.265625 275.582031 174.976562 C 275.640625 174.691406 275.667969 174.398438 275.667969 174.105469 C 275.667969 173.8125 275.640625 173.523438 275.582031 173.234375 C 275.527344 172.949219 275.441406 172.667969 275.328125 172.398438 C 275.21875 172.128906 275.082031 171.871094 274.917969 171.625 C 274.753906 171.382812 274.570312 171.15625 274.363281 170.949219 C 274.15625 170.742188 273.929688 170.558594 273.683594 170.394531 C 273.441406 170.230469 273.183594 170.09375 272.914062 169.984375 C 272.644531 169.871094 272.363281 169.785156 272.078125 169.730469 C 271.789062 169.671875 271.5 169.644531 271.207031 169.644531 Z M 271.207031 169.644531 " fill-opacity="1" fill-rule="nonzero"/><path fill="#2d4356" d="M 103.792969 212.054688 L 122.246094 212.054688 C 121.382812 209.101562 120.617188 206.125 119.949219 203.125 L 103.792969 203.125 C 103.5 203.125 103.210938 203.152344 102.921875 203.210938 C 102.636719 203.269531 102.355469 203.351562 102.085938 203.464844 C 101.816406 203.578125 101.558594 203.714844 101.3125 203.878906 C 101.070312 204.039062 100.84375 204.226562 100.636719 204.433594 C 100.429688 204.640625 100.246094 204.867188 100.082031 205.109375 C 99.917969 205.351562 99.78125 205.609375 99.671875 205.878906 C 99.558594 206.152344 99.472656 206.429688 99.417969 206.71875 C 99.359375 207.003906 99.332031 207.296875 99.332031 207.589844 C 99.332031 207.882812 99.359375 208.171875 99.417969 208.460938 C 99.472656 208.746094 99.558594 209.027344 99.671875 209.296875 C 99.78125 209.570312 99.917969 209.824219 100.082031 210.070312 C 100.246094 210.3125 100.429688 210.539062 100.636719 210.746094 C 100.84375 210.953125 101.070312 211.136719 101.3125 211.300781 C 101.558594 211.464844 101.816406 211.601562 102.085938 211.714844 C 102.355469 211.824219 102.636719 211.910156 102.921875 211.96875 C 103.210938 212.023438 103.5 212.054688 103.792969 212.054688 Z M 271.207031 203.125 L 255.050781 203.125 C 254.382812 206.125 253.617188 209.101562 252.753906 212.054688 L 271.207031 212.054688 C 271.5 212.054688 271.789062 212.023438 272.078125 211.96875 C 272.363281 211.910156 272.644531 211.824219 272.914062 211.714844 C 273.183594 211.601562 273.441406 211.464844 273.683594 211.300781 C 273.929688 211.136719 274.15625 210.953125 274.363281 210.746094 C 274.570312 210.539062 274.753906 210.3125 274.917969 210.070312 C 275.078125 209.824219 275.21875 209.570312 275.328125 209.296875 C 275.441406 209.027344 275.527344 208.746094 275.582031 208.460938 C 275.640625 208.171875 275.667969 207.882812 275.667969 207.589844 C 275.667969 207.296875 275.640625 207.003906 275.582031 206.71875 C 275.527344 206.429688 275.441406 206.152344 275.328125 205.878906 C 275.21875 205.609375 275.082031 205.351562 274.917969 205.109375 C 274.753906 204.867188 274.570312 204.640625 274.363281 204.433594 C 274.15625 204.226562 273.929688 204.039062 273.683594 203.878906 C 273.441406 203.714844 273.183594 203.578125 272.914062 203.464844 C 272.644531 203.351562 272.363281 203.269531 272.078125 203.210938 C 271.789062 203.152344 271.5 203.125 271.207031 203.125 Z M 271.207031 203.125 " fill-opacity="1" fill-rule="nonzero"/><path fill="#004aad" d="M 104.910156 236.605469 C 104.617188 236.605469 104.328125 236.636719 104.039062 236.691406 C 103.753906 236.75 103.472656 236.835938 103.203125 236.945312 C 102.929688 237.058594 102.675781 237.195312 102.429688 237.359375 C 102.1875 237.523438 101.960938 237.707031 101.753906 237.914062 C 101.546875 238.121094 101.363281 238.347656 101.199219 238.589844 C 101.035156 238.835938 100.898438 239.09375 100.785156 239.363281 C 100.675781 239.632812 100.589844 239.914062 100.53125 240.199219 C 100.476562 240.488281 100.445312 240.777344 100.445312 241.070312 C 100.445312 241.363281 100.476562 241.65625 100.53125 241.941406 C 100.589844 242.230469 100.675781 242.507812 100.785156 242.78125 C 100.898438 243.050781 101.035156 243.308594 101.199219 243.550781 C 101.363281 243.796875 101.546875 244.019531 101.753906 244.226562 C 101.960938 244.433594 102.1875 244.621094 102.429688 244.785156 C 102.675781 244.945312 102.929688 245.082031 103.203125 245.195312 C 103.472656 245.308594 103.753906 245.394531 104.039062 245.449219 C 104.328125 245.507812 104.617188 245.535156 104.910156 245.535156 L 137.894531 245.535156 C 135.941406 242.640625 134.125 239.664062 132.445312 236.605469 Z M 270.089844 236.605469 L 242.554688 236.605469 C 240.871094 239.664062 239.058594 242.640625 237.105469 245.535156 L 270.089844 245.535156 C 270.382812 245.535156 270.671875 245.507812 270.960938 245.449219 C 271.246094 245.394531 271.527344 245.308594 271.796875 245.195312 C 272.070312 245.082031 272.324219 244.945312 272.570312 244.785156 C 272.8125 244.621094 273.039062 244.433594 273.246094 244.226562 C 273.453125 244.019531 273.636719 243.796875 273.800781 243.550781 C 273.964844 243.308594 274.101562 243.050781 274.214844 242.78125 C 274.324219 242.507812 274.410156 242.230469 274.46875 241.941406 C 274.523438 241.65625 274.554688 241.363281 274.554688 241.070312 C 274.554688 240.777344 274.523438 240.488281 274.46875 240.199219 C 274.410156 239.914062 274.324219 239.632812 274.214844 239.363281 C 274.101562 239.09375 273.964844 238.835938 273.800781 238.589844 C 273.636719 238.347656 273.453125 238.121094 273.246094 237.914062 C 273.039062 237.707031 272.8125 237.523438 272.570312 237.359375 C 272.324219 237.195312 272.070312 237.058594 271.796875 236.945312 C 271.527344 236.835938 271.246094 236.75 270.960938 236.691406 C 270.671875 236.636719 270.382812 236.605469 270.089844 236.605469 Z M 270.089844 236.605469 " fill-opacity="1" fill-rule="nonzero"/><path fill="#2d4356" d="M 249.964844 163.457031 C 249.953125 162.820312 249.871094 162.191406 249.722656 161.570312 C 249.578125 160.949219 249.367188 160.351562 249.089844 159.777344 C 248.8125 159.203125 248.480469 158.660156 248.089844 158.15625 C 247.699219 157.65625 247.257812 157.199219 246.769531 156.789062 C 246.28125 156.378906 245.753906 156.027344 245.1875 155.730469 C 244.625 155.433594 244.035156 155.199219 243.421875 155.027344 C 242.804688 154.859375 242.179688 154.753906 241.542969 154.71875 C 240.90625 154.683594 240.273438 154.714844 239.644531 154.816406 C 237.023438 155.144531 234.394531 155.300781 231.753906 155.277344 C 222.902344 155.277344 206.136719 153.648438 193.273438 142.742188 C 192.875 142.402344 192.449219 142.101562 191.996094 141.839844 C 191.539062 141.574219 191.066406 141.351562 190.574219 141.171875 C 190.082031 140.988281 189.578125 140.855469 189.0625 140.761719 C 188.546875 140.671875 188.023438 140.625 187.5 140.625 C 186.976562 140.625 186.453125 140.671875 185.9375 140.761719 C 185.421875 140.855469 184.917969 140.988281 184.425781 141.171875 C 183.933594 141.351562 183.460938 141.574219 183.003906 141.839844 C 182.550781 142.101562 182.125 142.402344 181.726562 142.742188 C 168.863281 153.648438 152.097656 155.277344 143.246094 155.277344 C 140.597656 155.300781 137.957031 155.144531 135.332031 154.808594 C 134.703125 154.714844 134.070312 154.6875 133.433594 154.726562 C 132.800781 154.765625 132.175781 154.871094 131.5625 155.042969 C 130.953125 155.214844 130.363281 155.449219 129.800781 155.746094 C 129.238281 156.042969 128.714844 156.394531 128.226562 156.804688 C 127.738281 157.214844 127.300781 157.671875 126.910156 158.171875 C 126.523438 158.675781 126.1875 159.214844 125.914062 159.789062 C 125.640625 160.359375 125.425781 160.957031 125.28125 161.574219 C 125.132812 162.195312 125.050781 162.820312 125.035156 163.457031 C 124.089844 211.152344 141.875 239.507812 156.960938 254.898438 C 167.320312 265.460938 179.148438 272.492188 185.167969 274.167969 L 185.152344 274.238281 C 185.910156 274.445312 186.683594 274.550781 187.472656 274.554688 L 187.527344 274.554688 C 188.339844 274.550781 189.136719 274.4375 189.917969 274.21875 L 189.898438 274.148438 C 195.941406 272.441406 207.71875 265.425781 218.039062 254.898438 C 233.125 239.507812 250.910156 211.148438 249.964844 163.457031 Z M 187.503906 265.625 L 187.496094 265.625 C 186.769531 265.625 132.363281 244.320312 133.964844 163.632812 C 137.046875 164.042969 140.140625 164.234375 143.25 164.207031 C 154.1875 164.207031 172.738281 162.074219 187.5 149.554688 C 202.261719 162.070312 220.8125 164.207031 231.753906 164.207031 C 234.859375 164.234375 237.957031 164.042969 241.039062 163.632812 C 242.636719 244.316406 188.238281 265.625 187.503906 265.625 Z M 187.503906 265.625 " fill-opacity="1" fill-rule="nonzero"/><path fill="#004aad" d="M 207.589844 191.882812 C 207.589844 191.226562 207.558594 190.570312 207.492188 189.914062 C 207.429688 189.261719 207.332031 188.609375 207.203125 187.964844 C 207.074219 187.320312 206.914062 186.683594 206.722656 186.050781 C 206.535156 185.421875 206.3125 184.804688 206.058594 184.195312 C 205.808594 183.589844 205.527344 182.996094 205.21875 182.414062 C 204.90625 181.832031 204.570312 181.269531 204.203125 180.722656 C 203.839844 180.175781 203.445312 179.648438 203.027344 179.140625 C 202.613281 178.628906 202.171875 178.144531 201.707031 177.679688 C 201.238281 177.214844 200.753906 176.773438 200.246094 176.355469 C 199.734375 175.9375 199.207031 175.546875 198.660156 175.179688 C 198.113281 174.816406 197.550781 174.476562 196.96875 174.167969 C 196.390625 173.855469 195.796875 173.574219 195.1875 173.324219 C 194.578125 173.070312 193.960938 172.851562 193.332031 172.660156 C 192.703125 172.46875 192.066406 172.308594 191.417969 172.179688 C 190.773438 172.050781 190.125 171.957031 189.46875 171.890625 C 188.8125 171.828125 188.15625 171.792969 187.5 171.792969 C 186.84375 171.792969 186.1875 171.828125 185.53125 171.890625 C 184.875 171.957031 184.226562 172.050781 183.582031 172.179688 C 182.933594 172.308594 182.296875 172.46875 181.667969 172.660156 C 181.039062 172.851562 180.421875 173.070312 179.8125 173.324219 C 179.203125 173.574219 178.609375 173.855469 178.03125 174.167969 C 177.449219 174.476562 176.886719 174.816406 176.339844 175.179688 C 175.792969 175.546875 175.265625 175.9375 174.753906 176.355469 C 174.246094 176.773438 173.761719 177.214844 173.292969 177.679688 C 172.828125 178.144531 172.386719 178.628906 171.972656 179.140625 C 171.554688 179.648438 171.160156 180.175781 170.796875 180.722656 C 170.429688 181.269531 170.09375 181.832031 169.78125 182.414062 C 169.472656 182.996094 169.191406 183.589844 168.941406 184.195312 C 168.6875 184.804688 168.464844 185.421875 168.277344 186.050781 C 168.085938 186.683594 167.925781 187.320312 167.796875 187.964844 C 167.667969 188.609375 167.570312 189.261719 167.507812 189.914062 C 167.441406 190.570312 167.410156 191.226562 167.410156 191.882812 C 167.40625 193.296875 167.550781 194.691406 167.84375 196.070312 C 168.136719 197.453125 168.570312 198.785156 169.148438 200.074219 C 169.726562 201.359375 170.433594 202.574219 171.269531 203.710938 C 172.105469 204.847656 173.054688 205.882812 174.113281 206.816406 L 172.308594 229.195312 C 172.261719 229.808594 172.273438 230.421875 172.351562 231.03125 C 172.429688 231.644531 172.570312 232.242188 172.769531 232.824219 C 172.972656 233.40625 173.230469 233.964844 173.546875 234.492188 C 173.863281 235.019531 174.230469 235.511719 174.648438 235.964844 C 175.066406 236.417969 175.527344 236.824219 176.027344 237.183594 C 176.53125 237.539062 177.0625 237.84375 177.628906 238.089844 C 178.191406 238.335938 178.777344 238.523438 179.378906 238.648438 C 179.984375 238.777344 180.59375 238.839844 181.210938 238.839844 L 193.789062 238.839844 C 194.40625 238.839844 195.015625 238.777344 195.621094 238.648438 C 196.222656 238.523438 196.808594 238.335938 197.371094 238.089844 C 197.9375 237.84375 198.46875 237.539062 198.972656 237.183594 C 199.472656 236.824219 199.933594 236.417969 200.351562 235.964844 C 200.769531 235.511719 201.136719 235.019531 201.453125 234.492188 C 201.769531 233.964844 202.027344 233.40625 202.230469 232.824219 C 202.429688 232.242188 202.570312 231.644531 202.648438 231.03125 C 202.726562 230.421875 202.738281 229.808594 202.691406 229.195312 L 200.886719 206.820312 C 201.945312 205.882812 202.894531 204.847656 203.730469 203.710938 C 204.566406 202.574219 205.273438 201.363281 205.851562 200.074219 C 206.429688 198.789062 206.863281 197.453125 207.15625 196.074219 C 207.449219 194.691406 207.59375 193.296875 207.589844 191.886719 Z M 191.558594 202.195312 L 193.789062 229.910156 L 181.210938 229.910156 L 183.441406 202.199219 C 183.042969 202.042969 182.652344 201.863281 182.273438 201.664062 C 181.890625 201.460938 181.523438 201.238281 181.171875 200.996094 C 180.816406 200.75 180.480469 200.488281 180.15625 200.203125 C 179.832031 199.921875 179.523438 199.621094 179.234375 199.304688 C 178.949219 198.984375 178.679688 198.652344 178.425781 198.300781 C 178.175781 197.953125 177.949219 197.589844 177.738281 197.214844 C 177.53125 196.839844 177.34375 196.453125 177.179688 196.054688 C 177.015625 195.65625 176.878906 195.25 176.761719 194.839844 C 176.644531 194.425781 176.550781 194.003906 176.480469 193.582031 C 176.414062 193.15625 176.371094 192.730469 176.351562 192.300781 C 176.332031 191.871094 176.335938 191.441406 176.367188 191.015625 C 176.398438 190.585938 176.453125 190.160156 176.53125 189.738281 C 176.613281 189.316406 176.714844 188.898438 176.84375 188.488281 C 176.96875 188.078125 177.121094 187.675781 177.296875 187.28125 C 177.46875 186.890625 177.664062 186.507812 177.882812 186.136719 C 178.101562 185.769531 178.339844 185.410156 178.597656 185.070312 C 178.859375 184.726562 179.136719 184.398438 179.433594 184.089844 C 179.730469 183.777344 180.042969 183.484375 180.375 183.210938 C 180.707031 182.9375 181.050781 182.683594 181.410156 182.449219 C 181.773438 182.214844 182.144531 182 182.53125 181.808594 C 182.914062 181.617188 183.308594 181.449219 183.714844 181.304688 C 184.117188 181.15625 184.527344 181.035156 184.945312 180.9375 C 185.367188 180.839844 185.789062 180.765625 186.214844 180.714844 C 186.640625 180.664062 187.070312 180.640625 187.5 180.640625 C 187.929688 180.640625 188.359375 180.664062 188.785156 180.714844 C 189.210938 180.765625 189.632812 180.839844 190.054688 180.9375 C 190.472656 181.035156 190.882812 181.15625 191.285156 181.304688 C 191.691406 181.449219 192.085938 181.617188 192.46875 181.808594 C 192.855469 182 193.226562 182.214844 193.589844 182.449219 C 193.949219 182.683594 194.292969 182.9375 194.625 183.210938 C 194.957031 183.484375 195.269531 183.777344 195.566406 184.089844 C 195.863281 184.398438 196.140625 184.726562 196.402344 185.070312 C 196.660156 185.410156 196.898438 185.769531 197.117188 186.136719 C 197.335938 186.507812 197.53125 186.890625 197.703125 187.28125 C 197.878906 187.675781 198.03125 188.078125 198.15625 188.488281 C 198.285156 188.898438 198.386719 189.316406 198.46875 189.738281 C 198.546875 190.160156 198.601562 190.585938 198.632812 191.015625 C 198.664062 191.441406 198.667969 191.871094 198.648438 192.300781 C 198.628906 192.730469 198.585938 193.15625 198.519531 193.582031 C 198.449219 194.003906 198.355469 194.425781 198.238281 194.839844 C 198.121094 195.25 197.984375 195.65625 197.820312 196.054688 C 197.65625 196.453125 197.46875 196.839844 197.261719 197.214844 C 197.050781 197.589844 196.824219 197.953125 196.574219 198.300781 C 196.320312 198.652344 196.050781 198.984375 195.765625 199.304688 C 195.476562 199.621094 195.167969 199.921875 194.84375 200.203125 C 194.519531 200.488281 194.183594 200.75 193.828125 200.996094 C 193.476562 201.238281 193.109375 201.460938 192.726562 201.664062 C 192.347656 201.863281 191.957031 202.042969 191.558594 202.199219 Z M 191.558594 202.195312 " fill-opacity="1" fill-rule="nonzero"/><path fill="#2d4356" d="M 336.429688 330.355469 L 225.445312 330.355469 L 225.445312 321.429688 L 312.5 321.429688 C 313.085938 321.429688 313.667969 321.398438 314.25 321.339844 C 314.832031 321.28125 315.410156 321.195312 315.980469 321.082031 C 316.554688 320.96875 317.121094 320.824219 317.679688 320.65625 C 318.242188 320.484375 318.789062 320.289062 319.332031 320.0625 C 319.871094 319.839844 320.398438 319.589844 320.914062 319.3125 C 321.429688 319.039062 321.929688 318.738281 322.417969 318.414062 C 322.902344 318.089844 323.371094 317.738281 323.824219 317.367188 C 324.273438 317 324.707031 316.605469 325.121094 316.191406 C 325.535156 315.777344 325.925781 315.347656 326.296875 314.894531 C 326.667969 314.441406 327.015625 313.972656 327.339844 313.488281 C 327.667969 313 327.96875 312.5 328.242188 311.984375 C 328.519531 311.46875 328.769531 310.941406 328.992188 310.402344 C 329.214844 309.863281 329.414062 309.3125 329.582031 308.753906 C 329.753906 308.195312 329.894531 307.628906 330.011719 307.054688 C 330.125 306.480469 330.210938 305.902344 330.269531 305.320312 C 330.328125 304.738281 330.355469 304.15625 330.355469 303.570312 L 330.355469 131.695312 C 330.355469 130.714844 330.273438 129.738281 330.109375 128.769531 C 329.949219 127.800781 329.707031 126.855469 329.386719 125.925781 C 329.070312 124.996094 328.675781 124.101562 328.210938 123.234375 C 327.742188 122.371094 327.210938 121.550781 326.609375 120.777344 C 326.007812 120 325.34375 119.277344 324.625 118.613281 C 323.902344 117.945312 323.132812 117.339844 322.3125 116.800781 C 321.492188 116.261719 320.632812 115.792969 319.738281 115.394531 C 318.839844 114.996094 317.914062 114.671875 316.964844 114.425781 L 316.964844 124.007812 C 317.640625 124.394531 318.257812 124.863281 318.808594 125.414062 C 319.363281 125.964844 319.835938 126.578125 320.226562 127.253906 C 320.617188 127.929688 320.917969 128.640625 321.121094 129.394531 C 321.324219 130.148438 321.425781 130.914062 321.429688 131.695312 L 321.429688 303.570312 C 321.429688 304.15625 321.371094 304.738281 321.257812 305.3125 C 321.140625 305.886719 320.972656 306.445312 320.75 306.988281 C 320.523438 307.53125 320.25 308.042969 319.921875 308.53125 C 319.597656 309.019531 319.226562 309.46875 318.8125 309.886719 C 318.398438 310.300781 317.949219 310.667969 317.460938 310.996094 C 316.972656 311.320312 316.457031 311.597656 315.917969 311.820312 C 315.375 312.042969 314.816406 312.214844 314.242188 312.328125 C 313.667969 312.441406 313.085938 312.5 312.5 312.5 L 62.5 312.5 C 61.914062 312.5 61.332031 312.441406 60.757812 312.328125 C 60.183594 312.214844 59.625 312.042969 59.082031 311.820312 C 58.542969 311.597656 58.027344 311.320312 57.539062 310.996094 C 57.050781 310.667969 56.601562 310.300781 56.1875 309.886719 C 55.773438 309.46875 55.402344 309.019531 55.074219 308.53125 C 54.75 308.042969 54.476562 307.53125 54.25 306.988281 C 54.027344 306.445312 53.855469 305.886719 53.742188 305.3125 C 53.628906 304.738281 53.570312 304.15625 53.570312 303.570312 L 53.570312 131.695312 C 53.574219 130.914062 53.675781 130.148438 53.878906 129.394531 C 54.082031 128.640625 54.382812 127.929688 54.773438 127.253906 C 55.164062 126.578125 55.636719 125.964844 56.191406 125.414062 C 56.742188 124.863281 57.359375 124.394531 58.035156 124.007812 L 58.035156 114.425781 C 57.085938 114.671875 56.160156 114.996094 55.261719 115.394531 C 54.367188 115.792969 53.507812 116.261719 52.6875 116.800781 C 51.867188 117.339844 51.097656 117.945312 50.375 118.613281 C 49.65625 119.277344 48.992188 120 48.390625 120.777344 C 47.789062 121.550781 47.257812 122.371094 46.789062 123.234375 C 46.324219 124.101562 45.929688 124.996094 45.609375 125.925781 C 45.292969 126.855469 45.050781 127.800781 44.890625 128.769531 C 44.726562 129.738281 44.644531 130.714844 44.644531 131.695312 L 44.644531 303.570312 C 44.644531 304.15625 44.671875 304.738281 44.730469 305.320312 C 44.789062 305.902344 44.875 306.480469 44.988281 307.054688 C 45.105469 307.625 45.246094 308.191406 45.417969 308.753906 C 45.585938 309.3125 45.785156 309.863281 46.007812 310.402344 C 46.230469 310.941406 46.480469 311.46875 46.757812 311.984375 C 47.035156 312.5 47.335938 313 47.660156 313.488281 C 47.984375 313.972656 48.332031 314.441406 48.703125 314.894531 C 49.074219 315.347656 49.464844 315.777344 49.878906 316.191406 C 50.292969 316.605469 50.726562 316.996094 51.175781 317.367188 C 51.628906 317.738281 52.097656 318.085938 52.585938 318.414062 C 53.070312 318.738281 53.570312 319.039062 54.085938 319.3125 C 54.601562 319.589844 55.128906 319.839844 55.667969 320.0625 C 56.210938 320.289062 56.757812 320.484375 57.320312 320.65625 C 57.878906 320.824219 58.445312 320.96875 59.019531 321.082031 C 59.589844 321.195312 60.167969 321.28125 60.75 321.339844 C 61.332031 321.398438 61.914062 321.429688 62.5 321.429688 L 149.554688 321.429688 L 149.554688 330.355469 L 38.570312 330.355469 C 38.25 330.316406 37.933594 330.308594 37.613281 330.335938 C 37.296875 330.359375 36.980469 330.421875 36.675781 330.515625 C 36.371094 330.605469 36.078125 330.730469 35.796875 330.886719 C 35.515625 331.042969 35.257812 331.226562 35.015625 331.4375 C 34.773438 331.648438 34.558594 331.882812 34.367188 332.140625 C 34.179688 332.398438 34.015625 332.671875 33.882812 332.964844 C 33.753906 333.257812 33.652344 333.558594 33.585938 333.871094 C 33.515625 334.183594 33.484375 334.5 33.484375 334.820312 C 33.484375 335.140625 33.515625 335.457031 33.585938 335.769531 C 33.652344 336.085938 33.753906 336.386719 33.882812 336.679688 C 34.015625 336.96875 34.179688 337.246094 34.367188 337.503906 C 34.558594 337.757812 34.773438 337.992188 35.015625 338.203125 C 35.257812 338.417969 35.515625 338.601562 35.796875 338.753906 C 36.078125 338.910156 36.371094 339.035156 36.675781 339.128906 C 36.980469 339.222656 37.296875 339.28125 37.613281 339.308594 C 37.933594 339.335938 38.25 339.328125 38.570312 339.285156 L 336.429688 339.285156 C 336.746094 339.328125 337.066406 339.335938 337.382812 339.308594 C 337.703125 339.28125 338.015625 339.222656 338.320312 339.128906 C 338.628906 339.035156 338.921875 338.910156 339.203125 338.753906 C 339.480469 338.601562 339.742188 338.417969 339.980469 338.203125 C 340.222656 337.992188 340.4375 337.757812 340.628906 337.503906 C 340.820312 337.246094 340.980469 336.96875 341.113281 336.679688 C 341.246094 336.386719 341.34375 336.085938 341.414062 335.769531 C 341.480469 335.457031 341.515625 335.140625 341.515625 334.820312 C 341.515625 334.5 341.480469 334.183594 341.414062 333.871094 C 341.34375 333.558594 341.246094 333.257812 341.113281 332.964844 C 340.980469 332.671875 340.820312 332.398438 340.628906 332.140625 C 340.4375 331.882812 340.222656 331.648438 339.980469 331.4375 C 339.742188 331.226562 339.480469 331.042969 339.203125 330.886719 C 338.921875 330.730469 338.628906 330.605469 338.320312 330.515625 C 338.015625 330.421875 337.703125 330.359375 337.382812 330.335938 C 337.066406 330.308594 336.746094 330.316406 336.429688 330.355469 Z M 158.480469 330.355469 L 158.480469 321.429688 L 216.519531 321.429688 L 216.519531 330.355469 Z M 75.894531 61.792969 C 76.332031 61.792969 76.769531 61.75 77.199219 61.664062 C 77.628906 61.578125 78.050781 61.449219 78.457031 61.28125 C 78.863281 61.113281 79.246094 60.90625 79.613281 60.664062 C 79.980469 60.417969 80.316406 60.140625 80.628906 59.832031 C 80.9375 59.519531 81.214844 59.183594 81.460938 58.816406 C 81.703125 58.449219 81.910156 58.066406 82.078125 57.660156 C 82.246094 57.253906 82.375 56.832031 82.460938 56.402344 C 82.546875 55.972656 82.589844 55.535156 82.589844 55.097656 C 82.589844 54.65625 82.546875 54.222656 82.460938 53.789062 C 82.375 53.359375 82.246094 52.941406 82.078125 52.535156 C 81.910156 52.128906 81.703125 51.742188 81.460938 51.375 C 81.214844 51.011719 80.9375 50.671875 80.628906 50.359375 C 80.316406 50.050781 79.980469 49.773438 79.613281 49.527344 C 79.246094 49.285156 78.863281 49.078125 78.457031 48.910156 C 78.050781 48.742188 77.628906 48.613281 77.199219 48.527344 C 76.769531 48.441406 76.332031 48.398438 75.894531 48.398438 C 75.453125 48.398438 75.019531 48.441406 74.585938 48.527344 C 74.15625 48.613281 73.738281 48.742188 73.332031 48.910156 C 72.925781 49.078125 72.539062 49.285156 72.171875 49.527344 C 71.808594 49.773438 71.46875 50.050781 71.15625 50.359375 C 70.847656 50.671875 70.570312 51.011719 70.324219 51.375 C 70.082031 51.742188 69.875 52.128906 69.707031 52.535156 C 69.539062 52.941406 69.410156 53.359375 69.324219 53.789062 C 69.238281 54.222656 69.195312 54.65625 69.195312 55.097656 C 69.195312 55.535156 69.238281 55.972656 69.328125 56.402344 C 69.414062 56.832031 69.539062 57.25 69.707031 57.65625 C 69.875 58.0625 70.082031 58.449219 70.328125 58.816406 C 70.570312 59.179688 70.847656 59.519531 71.160156 59.828125 C 71.46875 60.140625 71.808594 60.417969 72.175781 60.660156 C 72.539062 60.90625 72.925781 61.113281 73.332031 61.28125 C 73.738281 61.449219 74.15625 61.578125 74.585938 61.664062 C 75.019531 61.75 75.453125 61.792969 75.894531 61.792969 Z M 75.894531 51.746094 C 76.335938 51.746094 76.765625 51.832031 77.175781 52.003906 C 77.585938 52.171875 77.945312 52.414062 78.261719 52.726562 C 78.574219 53.042969 78.816406 53.40625 78.984375 53.816406 C 79.15625 54.226562 79.242188 54.652344 79.242188 55.097656 C 79.242188 55.539062 79.15625 55.96875 78.984375 56.378906 C 78.816406 56.789062 78.574219 57.148438 78.261719 57.464844 C 77.945312 57.777344 77.585938 58.019531 77.175781 58.1875 C 76.765625 58.359375 76.335938 58.445312 75.894531 58.445312 C 75.449219 58.445312 75.023438 58.359375 74.613281 58.1875 C 74.203125 58.019531 73.839844 57.777344 73.523438 57.464844 C 73.210938 57.148438 72.96875 56.789062 72.800781 56.378906 C 72.628906 55.96875 72.542969 55.539062 72.542969 55.097656 C 72.546875 54.652344 72.628906 54.226562 72.800781 53.816406 C 72.96875 53.40625 73.210938 53.042969 73.527344 52.730469 C 73.839844 52.414062 74.203125 52.171875 74.613281 52.003906 C 75.023438 51.832031 75.449219 51.75 75.894531 51.746094 Z M 353.792969 137.042969 C 353.5 137.042969 353.210938 137.074219 352.921875 137.128906 C 352.636719 137.1875 352.355469 137.273438 352.085938 137.382812 C 351.816406 137.496094 351.558594 137.632812 351.3125 137.796875 C 351.070312 137.960938 350.84375 138.144531 350.636719 138.351562 C 350.429688 138.558594 350.246094 138.785156 350.082031 139.027344 C 349.917969 139.273438 349.78125 139.53125 349.671875 139.800781 C 349.558594 140.070312 349.472656 140.351562 349.417969 140.636719 C 349.359375 140.925781 349.332031 141.214844 349.332031 141.507812 C 349.332031 141.800781 349.359375 142.09375 349.417969 142.378906 C 349.472656 142.667969 349.558594 142.945312 349.671875 143.21875 C 349.78125 143.488281 349.917969 143.746094 350.082031 143.988281 C 350.246094 144.234375 350.429688 144.457031 350.636719 144.664062 C 350.84375 144.871094 351.070312 145.058594 351.3125 145.222656 C 351.558594 145.382812 351.816406 145.519531 352.085938 145.632812 C 352.355469 145.746094 352.636719 145.832031 352.921875 145.886719 C 353.210938 145.945312 353.5 145.972656 353.792969 145.972656 C 354.085938 145.972656 354.378906 145.945312 354.664062 145.886719 C 354.953125 145.832031 355.230469 145.746094 355.503906 145.632812 C 355.773438 145.519531 356.03125 145.382812 356.273438 145.222656 C 356.519531 145.058594 356.742188 144.871094 356.953125 144.664062 C 357.160156 144.457031 357.34375 144.234375 357.507812 143.988281 C 357.667969 143.746094 357.808594 143.488281 357.917969 143.21875 C 358.03125 142.945312 358.117188 142.667969 358.171875 142.378906 C 358.230469 142.09375 358.257812 141.800781 358.257812 141.507812 C 358.257812 141.214844 358.230469 140.925781 358.171875 140.636719 C 358.113281 140.351562 358.03125 140.070312 357.917969 139.800781 C 357.804688 139.53125 357.667969 139.273438 357.503906 139.03125 C 357.34375 138.785156 357.15625 138.5625 356.949219 138.351562 C 356.742188 138.144531 356.515625 137.960938 356.273438 137.796875 C 356.03125 137.636719 355.773438 137.496094 355.503906 137.386719 C 355.230469 137.273438 354.953125 137.1875 354.664062 137.132812 C 354.378906 137.074219 354.085938 137.046875 353.792969 137.042969 Z M 353.792969 143.742188 C 353.5 143.742188 353.214844 143.683594 352.941406 143.570312 C 352.667969 143.457031 352.425781 143.296875 352.214844 143.085938 C 352.007812 142.878906 351.84375 142.636719 351.730469 142.363281 C 351.617188 142.089844 351.5625 141.804688 351.5625 141.507812 C 351.5625 141.214844 351.617188 140.929688 351.730469 140.65625 C 351.84375 140.382812 352.007812 140.140625 352.214844 139.929688 C 352.425781 139.722656 352.667969 139.558594 352.941406 139.445312 C 353.214844 139.332031 353.5 139.277344 353.792969 139.277344 C 354.089844 139.277344 354.375 139.332031 354.648438 139.445312 C 354.921875 139.558594 355.164062 139.722656 355.371094 139.929688 C 355.582031 140.140625 355.742188 140.382812 355.855469 140.65625 C 355.96875 140.929688 356.027344 141.214844 356.027344 141.507812 C 356.027344 141.804688 355.96875 142.089844 355.855469 142.363281 C 355.742188 142.636719 355.582031 142.878906 355.371094 143.085938 C 355.164062 143.296875 354.921875 143.457031 354.648438 143.570312 C 354.375 143.683594 354.089844 143.742188 353.792969 143.742188 Z M 281.25 34.226562 C 280.957031 34.226562 280.667969 34.253906 280.378906 34.3125 C 280.089844 34.367188 279.8125 34.453125 279.542969 34.566406 C 279.269531 34.675781 279.011719 34.816406 278.769531 34.976562 C 278.527344 35.140625 278.300781 35.324219 278.09375 35.53125 C 277.886719 35.742188 277.699219 35.964844 277.539062 36.210938 C 277.375 36.453125 277.238281 36.710938 277.125 36.980469 C 277.011719 37.253906 276.929688 37.53125 276.871094 37.820312 C 276.8125 38.105469 276.785156 38.398438 276.785156 38.691406 C 276.785156 38.984375 276.8125 39.273438 276.871094 39.5625 C 276.929688 39.847656 277.011719 40.128906 277.125 40.398438 C 277.238281 40.667969 277.375 40.925781 277.539062 41.171875 C 277.699219 41.414062 277.886719 41.640625 278.09375 41.847656 C 278.300781 42.054688 278.527344 42.238281 278.769531 42.402344 C 279.011719 42.566406 279.269531 42.703125 279.542969 42.8125 C 279.8125 42.925781 280.089844 43.011719 280.378906 43.066406 C 280.667969 43.125 280.957031 43.152344 281.25 43.152344 C 281.542969 43.152344 281.832031 43.125 282.121094 43.066406 C 282.410156 43.011719 282.6875 42.925781 282.957031 42.8125 C 283.230469 42.703125 283.488281 42.566406 283.730469 42.402344 C 283.972656 42.238281 284.199219 42.054688 284.40625 41.847656 C 284.613281 41.640625 284.800781 41.414062 284.960938 41.171875 C 285.125 40.925781 285.261719 40.667969 285.375 40.398438 C 285.488281 40.128906 285.570312 39.847656 285.628906 39.5625 C 285.6875 39.273438 285.714844 38.984375 285.714844 38.691406 C 285.714844 38.398438 285.683594 38.105469 285.628906 37.820312 C 285.570312 37.53125 285.484375 37.253906 285.375 36.980469 C 285.261719 36.710938 285.125 36.453125 284.960938 36.210938 C 284.796875 35.96875 284.613281 35.742188 284.40625 35.535156 C 284.199219 35.328125 283.972656 35.140625 283.730469 34.980469 C 283.484375 34.816406 283.226562 34.679688 282.957031 34.566406 C 282.6875 34.453125 282.40625 34.371094 282.121094 34.3125 C 281.832031 34.253906 281.542969 34.226562 281.25 34.226562 Z M 281.25 40.921875 C 280.953125 40.921875 280.667969 40.863281 280.394531 40.75 C 280.121094 40.640625 279.882812 40.476562 279.671875 40.269531 C 279.460938 40.058594 279.300781 39.816406 279.1875 39.542969 C 279.074219 39.269531 279.019531 38.984375 279.019531 38.691406 C 279.019531 38.394531 279.074219 38.109375 279.1875 37.835938 C 279.300781 37.5625 279.460938 37.320312 279.671875 37.113281 C 279.882812 36.902344 280.121094 36.742188 280.394531 36.628906 C 280.667969 36.515625 280.953125 36.457031 281.25 36.457031 C 281.546875 36.457031 281.832031 36.515625 282.105469 36.628906 C 282.378906 36.742188 282.617188 36.902344 282.828125 37.113281 C 283.039062 37.320312 283.199219 37.5625 283.3125 37.835938 C 283.425781 38.109375 283.480469 38.394531 283.480469 38.691406 C 283.480469 38.984375 283.425781 39.269531 283.3125 39.542969 C 283.199219 39.816406 283.035156 40.058594 282.828125 40.265625 C 282.617188 40.476562 282.378906 40.636719 282.105469 40.75 C 281.832031 40.863281 281.546875 40.921875 281.25 40.921875 Z M 345.980469 4.464844 C 345.6875 4.464844 345.398438 4.492188 345.109375 4.550781 C 344.824219 4.605469 344.542969 4.691406 344.273438 4.804688 C 344.003906 4.917969 343.746094 5.054688 343.5 5.214844 C 343.257812 5.378906 343.03125 5.566406 342.824219 5.773438 C 342.617188 5.980469 342.433594 6.203125 342.269531 6.449219 C 342.105469 6.691406 341.96875 6.949219 341.859375 7.21875 C 341.746094 7.492188 341.660156 7.769531 341.605469 8.058594 C 341.546875 8.34375 341.519531 8.636719 341.519531 8.929688 C 341.519531 9.222656 341.546875 9.511719 341.605469 9.800781 C 341.660156 10.085938 341.746094 10.367188 341.859375 10.636719 C 341.96875 10.90625 342.105469 11.164062 342.269531 11.410156 C 342.433594 11.652344 342.617188 11.878906 342.824219 12.085938 C 343.03125 12.292969 343.257812 12.476562 343.5 12.640625 C 343.746094 12.804688 344.003906 12.941406 344.273438 13.054688 C 344.542969 13.164062 344.824219 13.25 345.109375 13.308594 C 345.398438 13.363281 345.6875 13.394531 345.980469 13.394531 C 346.273438 13.394531 346.566406 13.363281 346.851562 13.308594 C 347.140625 13.25 347.417969 13.164062 347.691406 13.054688 C 347.960938 12.941406 348.21875 12.804688 348.460938 12.640625 C 348.707031 12.476562 348.929688 12.292969 349.140625 12.085938 C 349.347656 11.878906 349.53125 11.652344 349.695312 11.410156 C 349.855469 11.164062 349.996094 10.90625 350.105469 10.636719 C 350.21875 10.367188 350.304688 10.085938 350.359375 9.800781 C 350.417969 9.511719 350.445312 9.222656 350.445312 8.929688 C 350.445312 8.636719 350.417969 8.34375 350.359375 8.058594 C 350.300781 7.769531 350.21875 7.492188 350.105469 7.222656 C 349.992188 6.949219 349.855469 6.691406 349.691406 6.449219 C 349.53125 6.207031 349.34375 5.980469 349.136719 5.773438 C 348.929688 5.566406 348.703125 5.382812 348.460938 5.21875 C 348.21875 5.054688 347.960938 4.917969 347.691406 4.804688 C 347.417969 4.691406 347.140625 4.609375 346.851562 4.550781 C 346.566406 4.492188 346.273438 4.464844 345.980469 4.464844 Z M 345.980469 11.160156 C 345.6875 11.160156 345.402344 11.105469 345.128906 10.992188 C 344.855469 10.878906 344.613281 10.714844 344.402344 10.507812 C 344.195312 10.296875 344.03125 10.054688 343.917969 9.78125 C 343.804688 9.507812 343.75 9.222656 343.75 8.929688 C 343.75 8.632812 343.804688 8.347656 343.917969 8.074219 C 344.03125 7.800781 344.195312 7.558594 344.402344 7.351562 C 344.613281 7.140625 344.855469 6.980469 345.128906 6.867188 C 345.402344 6.753906 345.6875 6.695312 345.980469 6.695312 C 346.277344 6.695312 346.5625 6.753906 346.835938 6.867188 C 347.109375 6.980469 347.351562 7.140625 347.558594 7.351562 C 347.769531 7.558594 347.929688 7.800781 348.042969 8.074219 C 348.15625 8.347656 348.214844 8.632812 348.214844 8.929688 C 348.214844 9.222656 348.15625 9.507812 348.042969 9.78125 C 347.929688 10.054688 347.769531 10.296875 347.558594 10.507812 C 347.351562 10.714844 347.109375 10.875 346.835938 10.988281 C 346.5625 11.105469 346.277344 11.160156 345.980469 11.160156 Z M 142.359375 11.160156 C 142.359375 10.867188 142.332031 10.578125 142.273438 10.289062 C 142.214844 10.003906 142.132812 9.722656 142.019531 9.453125 C 141.90625 9.179688 141.769531 8.925781 141.605469 8.679688 C 141.445312 8.4375 141.257812 8.210938 141.050781 8.003906 C 140.84375 7.796875 140.617188 7.613281 140.375 7.449219 C 140.132812 7.285156 139.875 7.148438 139.601562 7.035156 C 139.332031 6.925781 139.054688 6.839844 138.765625 6.78125 C 138.476562 6.726562 138.1875 6.695312 137.894531 6.695312 C 137.601562 6.695312 137.3125 6.726562 137.023438 6.78125 C 136.738281 6.839844 136.457031 6.925781 136.1875 7.035156 C 135.914062 7.148438 135.660156 7.285156 135.414062 7.449219 C 135.171875 7.613281 134.945312 7.796875 134.738281 8.003906 C 134.53125 8.210938 134.347656 8.4375 134.183594 8.679688 C 134.019531 8.925781 133.882812 9.179688 133.769531 9.453125 C 133.660156 9.722656 133.574219 10.003906 133.515625 10.289062 C 133.460938 10.578125 133.429688 10.867188 133.429688 11.160156 C 133.429688 11.453125 133.460938 11.746094 133.515625 12.03125 C 133.574219 12.320312 133.660156 12.597656 133.769531 12.867188 C 133.882812 13.140625 134.019531 13.398438 134.183594 13.640625 C 134.347656 13.882812 134.53125 14.109375 134.738281 14.316406 C 134.945312 14.523438 135.171875 14.710938 135.414062 14.871094 C 135.660156 15.035156 135.914062 15.171875 136.1875 15.285156 C 136.457031 15.398438 136.738281 15.480469 137.023438 15.539062 C 137.3125 15.597656 137.601562 15.625 137.894531 15.625 C 138.1875 15.625 138.476562 15.597656 138.765625 15.539062 C 139.054688 15.480469 139.332031 15.394531 139.601562 15.285156 C 139.875 15.171875 140.128906 15.035156 140.375 14.871094 C 140.617188 14.707031 140.84375 14.523438 141.050781 14.316406 C 141.257812 14.109375 141.441406 13.882812 141.605469 13.640625 C 141.769531 13.394531 141.90625 13.140625 142.019531 12.867188 C 142.128906 12.597656 142.214844 12.320312 142.273438 12.03125 C 142.332031 11.742188 142.359375 11.453125 142.359375 11.160156 Z M 135.664062 11.160156 C 135.664062 10.863281 135.71875 10.578125 135.832031 10.304688 C 135.945312 10.03125 136.105469 9.792969 136.316406 9.582031 C 136.527344 9.371094 136.765625 9.210938 137.039062 9.097656 C 137.3125 8.984375 137.597656 8.929688 137.894531 8.929688 C 138.191406 8.929688 138.476562 8.984375 138.75 9.097656 C 139.023438 9.210938 139.265625 9.371094 139.472656 9.582031 C 139.683594 9.792969 139.84375 10.03125 139.957031 10.304688 C 140.070312 10.578125 140.128906 10.863281 140.128906 11.160156 C 140.128906 11.457031 140.070312 11.742188 139.957031 12.015625 C 139.84375 12.289062 139.683594 12.53125 139.472656 12.738281 C 139.265625 12.949219 139.023438 13.109375 138.75 13.222656 C 138.476562 13.335938 138.191406 13.394531 137.894531 13.394531 C 137.597656 13.390625 137.316406 13.335938 137.042969 13.222656 C 136.769531 13.109375 136.527344 12.949219 136.316406 12.738281 C 136.109375 12.527344 135.945312 12.289062 135.832031 12.015625 C 135.71875 11.742188 135.664062 11.457031 135.664062 11.160156 Z M 135.664062 11.160156 " fill-opacity="1" fill-rule="nonzero"/><path fill="#004aad" d="M 24.304688 154.042969 L 27.621094 149.679688 L 25.527344 148.492188 L 23.394531 153.378906 L 23.324219 153.378906 L 21.160156 148.523438 L 19.027344 149.746094 L 22.3125 154.007812 L 22.3125 154.078125 L 17.175781 153.414062 L 17.175781 155.789062 L 22.347656 155.128906 L 22.347656 155.195312 L 19.027344 159.457031 L 21.019531 160.714844 L 23.289062 155.789062 L 23.359375 155.789062 L 25.457031 160.679688 L 27.65625 159.421875 L 24.304688 155.230469 L 24.304688 155.160156 L 29.574219 155.789062 L 29.574219 153.414062 L 24.304688 154.113281 Z M 12.800781 18.199219 L 10.886719 20.652344 L 12.035156 21.378906 L 13.34375 18.539062 L 13.382812 18.539062 L 14.589844 21.355469 L 15.855469 20.632812 L 13.925781 18.21875 L 13.925781 18.179688 L 16.960938 18.539062 L 16.960938 17.175781 L 13.925781 17.574219 L 13.925781 17.535156 L 15.835938 15.023438 L 14.632812 14.335938 L 13.402344 17.152344 L 13.363281 17.152344 L 12.117188 14.355469 L 10.886719 15.058594 L 12.78125 17.515625 L 12.78125 17.554688 L 9.824219 17.175781 L 9.824219 18.539062 L 12.800781 18.160156 Z M 363.902344 81.519531 L 363.902344 79.191406 L 358.730469 79.878906 L 358.730469 79.808594 L 361.988281 75.527344 L 359.929688 74.363281 L 357.839844 79.15625 L 357.773438 79.15625 L 355.648438 74.394531 L 353.558594 75.597656 L 356.777344 79.773438 L 356.777344 79.84375 L 351.742188 79.191406 L 351.742188 81.519531 L 356.8125 80.871094 L 356.8125 80.941406 L 353.558594 85.117188 L 355.511719 86.351562 L 357.738281 81.519531 L 357.804688 81.519531 L 359.863281 86.316406 L 362.019531 85.085938 L 358.730469 80.972656 L 358.730469 80.902344 Z M 208.371094 59.792969 L 211.179688 56.101562 L 209.410156 55.097656 L 207.605469 59.230469 L 207.546875 59.230469 L 205.714844 55.125 L 203.910156 56.160156 L 206.691406 59.765625 L 206.691406 59.824219 L 202.34375 59.261719 L 202.34375 61.273438 L 206.71875 60.710938 L 206.71875 60.769531 L 203.910156 64.375 L 205.59375 65.441406 L 207.519531 61.273438 L 207.574219 61.273438 L 209.347656 65.410156 L 211.210938 64.347656 L 208.371094 60.800781 L 208.371094 60.742188 L 212.835938 61.273438 L 212.835938 59.261719 L 208.371094 59.851562 Z M 208.371094 59.792969 " fill-opacity="1" fill-rule="nonzero"/></svg>