<svg id="Layer_1" data-name="Layer 1" xmlns="http://www.w3.org/2000/svg" xmlns:xlink="http://www.w3.org/1999/xlink" viewBox="0 0 109.2 102.21"><defs><style>.cls-1{fill:#2c2255;}.cls-2{fill:#f7941e;}.cls-3{fill:url(#linear-gradient);}.cls-4{fill:url(#linear-gradient-2);}.cls-5{fill:url(#linear-gradient-3);}.cls-6{fill:#fff;}</style><linearGradient id="linear-gradient" x1="131.39" y1="1216.42" x2="131.39" y2="1142.79" gradientTransform="translate(-71.07 -1105.66)" gradientUnits="userSpaceOnUse"><stop offset="0.3" stop-color="#473788"/><stop offset="0.87" stop-color="#2c2255"/></linearGradient><linearGradient id="linear-gradient-2" x1="131.39" y1="1216.42" x2="131.39" y2="1142.79" xlink:href="#linear-gradient"/><linearGradient id="linear-gradient-3" x1="131.39" y1="1216.42" x2="131.39" y2="1142.79" gradientTransform="translate(-71.07 -1105.66)" gradientUnits="userSpaceOnUse"><stop offset="0.3" stop-color="#473788"/><stop offset="0.86" stop-color="#2c2255"/></linearGradient></defs><title>Eclipse-logo-2014</title><path id="path3" class="cls-1" d="M30.05,69.27H13.31A47.42,47.42,0,0,0,25.66,89.72a47.22,47.22,0,0,0,34.65,14.4,52.58,52.58,0,0,0,7.85-.58,46.7,46.7,0,0,0,26.7-13.81,47.39,47.39,0,0,0,12.44-20.44H30.05Z" transform="translate(0 -4.06)"/><g id="g5"><path id="path7" class="cls-1" d="M20.82,46.53H12.07a51.14,51.14,0,0,0-.64,5.9h97.76a50.7,50.7,0,0,0-.64-5.9" transform="translate(0 -4.06)"/><path id="path9" class="cls-1" d="M11.44,57.9a50.88,50.88,0,0,0,.64,5.9h96.48a50.87,50.87,0,0,0,.64-5.9" transform="translate(0 -4.06)"/></g><path id="path11" class="cls-1" d="M107.31,41.06A47.78,47.78,0,0,0,94.87,20.52,46.82,46.82,0,0,0,68.25,6.81a52.78,52.78,0,0,0-7.93-.59,47.4,47.4,0,0,0-34.65,14.3A47.83,47.83,0,0,0,13.31,41.06" transform="translate(0 -4.06)"/><g id="g13"><path id="path15" class="cls-2" d="M8.53,55.17c0-25.82,19.39-47.28,44.63-51.05-0.63,0-1.25,0-1.89,0a51.1,51.1,0,1,0,0,102.21c0.63,0,1.26,0,1.89,0C27.93,102.45,8.53,81,8.53,55.17Z" transform="translate(0 -4.06)"/></g><g id="g33"><path id="path40" class="cls-3" d="M93.58,52.43a33.31,33.31,0,0,0-1-5.9H28.06a33.28,33.28,0,0,0-1,5.9H93.58Z" transform="translate(0 -4.06)"/><path id="path47" class="cls-4" d="M93.58,57.9H27a33.22,33.22,0,0,0,1,5.9H92.57A33.31,33.31,0,0,0,93.58,57.9Z" transform="translate(0 -4.06)"/><path id="path54" class="cls-5" d="M60.32,88.55A33.39,33.39,0,0,0,90.58,69.27H30.05A33.39,33.39,0,0,0,60.32,88.55Z" transform="translate(0 -4.06)"/></g><g id="g56"><path id="path58" class="cls-6" d="M22.12,57.9h87c0-.87.07-1.75,0.07-2.63s0-1.9-.09-2.85H11.44c-0.05.94-.09,1.89-0.09,2.85s0,1.76.07,2.63h10.7Z" transform="translate(0 -4.06)"/><path id="path60" class="cls-6" d="M29.86,41.05H13.31a47.83,47.83,0,0,0-1.23,5.48h96.17a48.59,48.59,0,0,0-1.32-5.48" transform="translate(0 -4.06)"/><path id="path62" class="cls-6" d="M102,63.8H12.07a48,48,0,0,0,1.24,5.48h93.94a48.48,48.48,0,0,0,1.29-5.48H102Z" transform="translate(0 -4.06)"/></g></svg>