<?xml version="1.0" encoding="UTF-8" standalone="no"?>
<!-- Created with Inkscape (http://www.inkscape.org/) -->

<svg
   version="1.1"
   id="svg2"
   xml:space="preserve"
   width="739.69733"
   height="135.76466"
   viewBox="0 0 739.69734 135.76467"
   sodipodi:docname="Yupiik_logo_MASTER.svg"
   inkscape:version="1.1.2 (0a00cf5339, 2022-02-04)"
   xmlns:inkscape="http://www.inkscape.org/namespaces/inkscape"
   xmlns:sodipodi="http://sodipodi.sourceforge.net/DTD/sodipodi-0.dtd"
   xmlns="http://www.w3.org/2000/svg"
   xmlns:svg="http://www.w3.org/2000/svg"
   xmlns:rdf="http://www.w3.org/1999/02/22-rdf-syntax-ns#"
   xmlns:cc="http://creativecommons.org/ns#"
   xmlns:dc="http://purl.org/dc/elements/1.1/"><metadata
     id="metadata8"><rdf:RDF><cc:Work
         rdf:about=""><dc:format>image/svg+xml</dc:format><dc:type
           rdf:resource="http://purl.org/dc/dcmitype/StillImage" /></cc:Work></rdf:RDF></metadata><defs
     id="defs6"><clipPath
       clipPathUnits="userSpaceOnUse"
       id="clipPath18"><path
         d="M 0,1600 H 1600 V 0 H 0 Z"
         id="path16"
         inkscape:connector-curvature="0" /></clipPath></defs><sodipodi:namedview
     pagecolor="#ffffff"
     bordercolor="#666666"
     borderopacity="1"
     objecttolerance="10"
     gridtolerance="10"
     guidetolerance="10"
     inkscape:pageopacity="0"
     inkscape:pageshadow="2"
     inkscape:window-width="1920"
     inkscape:window-height="1016"
     id="namedview4"
     showgrid="false"
     inkscape:zoom="0.32806202"
     inkscape:cx="330.73014"
     inkscape:cy="196.60916"
     inkscape:window-x="0"
     inkscape:window-y="27"
     inkscape:window-maximized="1"
     inkscape:current-layer="g12"
     inkscape:pagecheckerboard="0"
     fit-margin-top="0"
     fit-margin-left="0"
     fit-margin-right="0"
     fit-margin-bottom="0" /><g
     id="g10"
     inkscape:groupmode="layer"
     inkscape:label="Yupiik_logo_MASTER"
     transform="matrix(1.3333333,0,0,-1.3333333,-818.52438,1135.7565)"><g
       id="g12"><g
         id="g125"><g
           id="g24"
           transform="translate(704.4033,851.8169)"><path
             d="m 0,0 h 22.344 l -47.093,-63.782 v -38.041 h -18.668 v 38.041 L -90.51,0 h 22.204 l 34.224,-43.276 z"
             style="fill:#1b449b;fill-opacity:1;fill-rule:nonzero;stroke:none"
             id="path26"
             inkscape:connector-curvature="0" /></g><g
           id="g28"
           transform="translate(824.6094,769.6504)"><path
             d="M 0,0 V 82.167 H 18.809 V 0 c 0,-5.469 -1.932,-10.112 -5.797,-13.93 -3.868,-3.819 -8.487,-5.726 -13.86,-5.726 h -62.506 c -5.47,0 -10.113,1.907 -13.931,5.726 -3.818,3.818 -5.728,8.461 -5.728,13.93 v 82.167 h 18.667 V 0 c 0,-0.66 0.329,-0.989 0.992,-0.989 H -0.848 C -0.283,-0.989 0,-0.66 0,0"
             style="fill:#1b449b;fill-opacity:1;fill-rule:nonzero;stroke:none"
             id="path30"
             inkscape:connector-curvature="0" /></g><g
           id="g32"
           transform="translate(950.4712,804.5815)"><path
             d="m 0,0 v 27.437 c 0,0.658 -0.332,0.989 -0.989,0.989 h -62.366 c -0.662,0 -0.991,-0.331 -0.991,-0.989 V 0 c 0,-0.661 0.329,-0.989 0.991,-0.989 H -0.989 C -0.332,-0.989 0,-0.661 0,0 m -83.013,47.093 h 82.024 c 5.467,0 10.133,-1.933 14.001,-5.798 3.865,-3.867 5.797,-8.484 5.797,-13.858 L 18.809,0 c 0,-5.374 -1.932,-9.994 -5.797,-13.859 -3.868,-3.868 -8.534,-5.799 -14.001,-5.799 l -62.933,-0.142 -0.424,0.142 v -34.929 h -18.667 z"
             style="fill:#1b449b;fill-opacity:1;fill-rule:nonzero;stroke:none"
             id="path34"
             inkscape:connector-curvature="0" /></g><path
           d="m 987.944,851.817 h 18.667 V 749.994 h -18.667 z"
           style="fill:#1b449b;fill-opacity:1;fill-rule:nonzero;stroke:none"
           id="path36"
           inkscape:connector-curvature="0" /><path
           d="m 1027.54,851.817 h 18.667 V 749.994 h -18.667 z"
           style="fill:#1b449b;fill-opacity:1;fill-rule:nonzero;stroke:none"
           id="path38"
           inkscape:connector-curvature="0" /><g
           id="g40"
           transform="translate(1144.7783,851.8169)"><path
             d="m 0,0 h 23.888 l -42.607,-50.912 42.606,-50.911 H 0 l -34.79,41.576 h -24.043 v -41.576 H -77.641 V 0 h 18.808 v -41.579 h 24.043 z"
             style="fill:#1b449b;fill-opacity:1;fill-rule:nonzero;stroke:none"
             id="path42"
             inkscape:connector-curvature="0" /></g></g></g></g></svg>
